G04 Layer_Color=128*
%FSLAX25Y25*%
%MOIN*%
G70*
G01*
G75*
%ADD29R,0.01500X0.01500*%
%ADD30R,0.03500X0.03500*%
%ADD31R,0.02500X0.02000*%
%ADD32R,0.02000X0.02500*%
%ADD33R,0.01500X0.01500*%
D29*
X387514Y220622D02*
D03*
Y218122D02*
D03*
X419361Y219872D02*
D03*
Y222372D02*
D03*
X422288Y247677D02*
D03*
Y250178D02*
D03*
X388857Y232847D02*
D03*
Y235347D02*
D03*
X412484Y206622D02*
D03*
Y204122D02*
D03*
X469605Y74500D02*
D03*
Y72000D02*
D03*
D30*
X462206Y81100D02*
D03*
Y87600D02*
D03*
D31*
X411550Y160000D02*
D03*
X406550D02*
D03*
X411550Y164000D02*
D03*
X406550D02*
D03*
X411550Y168500D02*
D03*
X406550D02*
D03*
D32*
X374484Y222122D02*
D03*
Y217122D02*
D03*
X424390Y218372D02*
D03*
Y223372D02*
D03*
X428390Y218372D02*
D03*
Y223372D02*
D03*
X432390Y218372D02*
D03*
Y223372D02*
D03*
X427317Y246178D02*
D03*
Y251178D02*
D03*
X431318Y246178D02*
D03*
Y251178D02*
D03*
X435318Y246178D02*
D03*
Y251178D02*
D03*
X375657Y236597D02*
D03*
Y231597D02*
D03*
X379657Y236597D02*
D03*
Y231597D02*
D03*
X383657Y236597D02*
D03*
Y231597D02*
D03*
X417484Y208122D02*
D03*
Y203122D02*
D03*
X421984Y208122D02*
D03*
Y203122D02*
D03*
X426526Y208114D02*
D03*
Y203114D02*
D03*
X457606Y70700D02*
D03*
Y75700D02*
D03*
X461406Y70700D02*
D03*
Y75700D02*
D03*
X465205Y70700D02*
D03*
Y75700D02*
D03*
X434121Y85706D02*
D03*
Y90706D02*
D03*
X382484Y222122D02*
D03*
Y217122D02*
D03*
X378484Y222122D02*
D03*
Y217122D02*
D03*
D33*
X410300Y155000D02*
D03*
X407800D02*
D03*
M02*
