G04 Layer_Physical_Order=3*
G04 Layer_Color=8388736*
%FSLAX25Y25*%
%MOIN*%
G70*
G01*
G75*
%ADD16C,0.07500*%
%ADD34C,0.00300*%
%ADD100C,0.04000*%
%ADD101C,0.07000*%
%ADD102C,0.02800*%
%ADD103C,0.04343*%
%ADD104C,0.15800*%
%ADD105C,0.01800*%
%ADD106C,0.01587*%
%ADD107C,0.01400*%
%ADD108C,0.01500*%
%ADD109C,0.03600*%
G36*
X542521Y157153D02*
X544142Y156481D01*
X545602Y155506D01*
X546843Y154265D01*
X547818Y152805D01*
X548490Y151184D01*
X548832Y149462D01*
Y148585D01*
Y147707D01*
X548490Y145985D01*
X547818Y144364D01*
X546843Y142904D01*
X545602Y141663D01*
X544142Y140688D01*
X542521Y140016D01*
X540799Y139674D01*
X539044D01*
X537322Y140016D01*
X535701Y140688D01*
X534241Y141663D01*
X533000Y142904D01*
X532025Y144364D01*
X531353Y145985D01*
X531011Y147707D01*
Y148585D01*
Y149462D01*
X531353Y151184D01*
X532025Y152805D01*
X533000Y154265D01*
X534241Y155506D01*
X535701Y156481D01*
X537322Y157153D01*
X539044Y157495D01*
X540799D01*
X542521Y157153D01*
D02*
G37*
G36*
X53591Y133060D02*
X55213Y132388D01*
X56672Y131413D01*
X57913Y130172D01*
X58888Y128713D01*
X59560Y127091D01*
X59903Y125369D01*
Y124492D01*
Y123614D01*
X59560Y121893D01*
X58888Y120271D01*
X57913Y118812D01*
X56672Y117570D01*
X55213Y116595D01*
X53591Y115924D01*
X51869Y115581D01*
X50114D01*
X48393Y115924D01*
X46771Y116595D01*
X45312Y117570D01*
X44070Y118812D01*
X43095Y120271D01*
X42424Y121893D01*
X42081Y123614D01*
Y124492D01*
Y125369D01*
X42424Y127091D01*
X43095Y128713D01*
X44070Y130172D01*
X45312Y131413D01*
X46771Y132388D01*
X48393Y133060D01*
X50114Y133403D01*
X51869D01*
X53591Y133060D01*
D02*
G37*
G36*
X124091Y157560D02*
X125713Y156888D01*
X127172Y155913D01*
X128413Y154672D01*
X129388Y153213D01*
X130060Y151591D01*
X130403Y149869D01*
Y148992D01*
Y148114D01*
X130060Y146393D01*
X129388Y144771D01*
X128413Y143312D01*
X127172Y142070D01*
X125713Y141095D01*
X124091Y140424D01*
X122369Y140081D01*
X120614D01*
X118893Y140424D01*
X117271Y141095D01*
X115812Y142070D01*
X114570Y143312D01*
X113595Y144771D01*
X112924Y146393D01*
X112581Y148114D01*
Y148992D01*
Y149869D01*
X112924Y151591D01*
X113595Y153213D01*
X114570Y154672D01*
X115812Y155913D01*
X117271Y156888D01*
X118893Y157560D01*
X120614Y157903D01*
X122369D01*
X124091Y157560D01*
D02*
G37*
G36*
X256039Y161659D02*
X257661Y160987D01*
X259120Y160012D01*
X260361Y158771D01*
X261336Y157312D01*
X262008Y155690D01*
X262351Y153969D01*
Y153091D01*
Y152213D01*
X262008Y150492D01*
X261336Y148870D01*
X260361Y147411D01*
X259120Y146170D01*
X257661Y145194D01*
X256039Y144523D01*
X254318Y144180D01*
X252562D01*
X250841Y144523D01*
X249219Y145194D01*
X247760Y146170D01*
X246519Y147411D01*
X245543Y148870D01*
X244872Y150492D01*
X244529Y152213D01*
Y153091D01*
Y153969D01*
X244872Y155690D01*
X245543Y157312D01*
X246519Y158771D01*
X247760Y160012D01*
X249219Y160987D01*
X250841Y161659D01*
X252562Y162002D01*
X254318D01*
X256039Y161659D01*
D02*
G37*
G36*
X195190Y161128D02*
X196812Y160457D01*
X198271Y159481D01*
X199512Y158240D01*
X200487Y156781D01*
X201159Y155159D01*
X201502Y153438D01*
Y152560D01*
Y151682D01*
X201159Y149961D01*
X200487Y148339D01*
X199512Y146880D01*
X198271Y145639D01*
X196812Y144664D01*
X195190Y143992D01*
X193469Y143649D01*
X191713D01*
X189992Y143992D01*
X188370Y144664D01*
X186911Y145639D01*
X185670Y146880D01*
X184694Y148339D01*
X184023Y149961D01*
X183680Y151682D01*
Y152560D01*
Y153438D01*
X184023Y155159D01*
X184694Y156781D01*
X185670Y158240D01*
X186911Y159481D01*
X188370Y160457D01*
X189992Y161128D01*
X191713Y161471D01*
X193469D01*
X195190Y161128D01*
D02*
G37*
G36*
X119290Y46578D02*
X120912Y45907D01*
X122371Y44931D01*
X123612Y43690D01*
X124588Y42231D01*
X125259Y40609D01*
X125602Y38888D01*
Y38010D01*
Y37132D01*
X125259Y35411D01*
X124588Y33789D01*
X123612Y32330D01*
X122371Y31089D01*
X120912Y30114D01*
X119290Y29442D01*
X117569Y29099D01*
X115813D01*
X114092Y29442D01*
X112470Y30114D01*
X111011Y31089D01*
X109770Y32330D01*
X108794Y33789D01*
X108123Y35411D01*
X107780Y37132D01*
Y38010D01*
Y38888D01*
X108123Y40609D01*
X108794Y42231D01*
X109770Y43690D01*
X111011Y44931D01*
X112470Y45907D01*
X114092Y46578D01*
X115813Y46921D01*
X117569D01*
X119290Y46578D01*
D02*
G37*
G36*
X282089Y37259D02*
X283711Y36588D01*
X285170Y35612D01*
X286411Y34371D01*
X287386Y32912D01*
X288058Y31290D01*
X288401Y29569D01*
Y28691D01*
Y27813D01*
X288058Y26092D01*
X287386Y24470D01*
X286411Y23011D01*
X285170Y21770D01*
X283711Y20794D01*
X282089Y20123D01*
X280368Y19780D01*
X278612D01*
X276891Y20123D01*
X275269Y20794D01*
X273810Y21770D01*
X272569Y23011D01*
X271593Y24470D01*
X270922Y26092D01*
X270579Y27813D01*
Y28691D01*
Y29569D01*
X270922Y31290D01*
X271593Y32912D01*
X272569Y34371D01*
X273810Y35612D01*
X275269Y36588D01*
X276891Y37259D01*
X278612Y37602D01*
X280368D01*
X282089Y37259D01*
D02*
G37*
G36*
X53591Y77060D02*
X55213Y76388D01*
X56672Y75413D01*
X57913Y74172D01*
X58888Y72713D01*
X59560Y71091D01*
X59903Y69369D01*
Y68492D01*
Y67614D01*
X59560Y65893D01*
X58888Y64271D01*
X57913Y62812D01*
X56672Y61570D01*
X55213Y60595D01*
X53591Y59924D01*
X51869Y59581D01*
X50114D01*
X48393Y59924D01*
X46771Y60595D01*
X45312Y61570D01*
X44070Y62812D01*
X43095Y64271D01*
X42424Y65893D01*
X42081Y67614D01*
Y68492D01*
Y69369D01*
X42424Y71091D01*
X43095Y72713D01*
X44070Y74172D01*
X45312Y75413D01*
X46771Y76388D01*
X48393Y77060D01*
X50114Y77403D01*
X51869D01*
X53591Y77060D01*
D02*
G37*
G36*
X487599Y123568D02*
X489221Y122897D01*
X490680Y121921D01*
X491921Y120680D01*
X492897Y119221D01*
X493568Y117599D01*
X493911Y115878D01*
Y115000D01*
Y114122D01*
X493568Y112401D01*
X492897Y110779D01*
X491921Y109320D01*
X490680Y108079D01*
X489221Y107103D01*
X487599Y106432D01*
X485878Y106089D01*
X484122D01*
X482401Y106432D01*
X480779Y107103D01*
X479320Y108079D01*
X478079Y109320D01*
X477104Y110779D01*
X476432Y112401D01*
X476089Y114122D01*
Y115000D01*
Y115878D01*
X476432Y117599D01*
X477104Y119221D01*
X478079Y120680D01*
X479320Y121921D01*
X480779Y122897D01*
X482401Y123568D01*
X484122Y123911D01*
X485878D01*
X487599Y123568D01*
D02*
G37*
G36*
X322599D02*
X324221Y122897D01*
X325680Y121921D01*
X326921Y120680D01*
X327896Y119221D01*
X328568Y117599D01*
X328911Y115878D01*
Y115000D01*
Y114122D01*
X328568Y112401D01*
X327896Y110779D01*
X326921Y109320D01*
X325680Y108079D01*
X324221Y107103D01*
X322599Y106432D01*
X320878Y106089D01*
X319122D01*
X317401Y106432D01*
X315779Y107103D01*
X314320Y108079D01*
X313079Y109320D01*
X312104Y110779D01*
X311432Y112401D01*
X311089Y114122D01*
Y115000D01*
Y115878D01*
X311432Y117599D01*
X312104Y119221D01*
X313079Y120680D01*
X314320Y121921D01*
X315779Y122897D01*
X317401Y123568D01*
X319122Y123911D01*
X320878D01*
X322599Y123568D01*
D02*
G37*
G36*
Y178568D02*
X324221Y177896D01*
X325680Y176921D01*
X326921Y175680D01*
X327896Y174221D01*
X328568Y172599D01*
X328911Y170878D01*
Y170000D01*
Y169122D01*
X328568Y167401D01*
X327896Y165779D01*
X326921Y164320D01*
X325680Y163079D01*
X324221Y162103D01*
X322599Y161432D01*
X320878Y161089D01*
X319122D01*
X317401Y161432D01*
X315779Y162103D01*
X314320Y163079D01*
X313079Y164320D01*
X312104Y165779D01*
X311432Y167401D01*
X311089Y169122D01*
Y170000D01*
Y170878D01*
X311432Y172599D01*
X312104Y174221D01*
X313079Y175680D01*
X314320Y176921D01*
X315779Y177896D01*
X317401Y178568D01*
X319122Y178911D01*
X320878D01*
X322599Y178568D01*
D02*
G37*
G36*
X432599Y318568D02*
X434221Y317897D01*
X435680Y316921D01*
X436921Y315680D01*
X437896Y314221D01*
X438568Y312599D01*
X438911Y310878D01*
Y310000D01*
Y309122D01*
X438568Y307401D01*
X437896Y305779D01*
X436921Y304320D01*
X435680Y303079D01*
X434221Y302103D01*
X432599Y301432D01*
X430878Y301089D01*
X429122D01*
X427401Y301432D01*
X425779Y302103D01*
X424320Y303079D01*
X423079Y304320D01*
X422104Y305779D01*
X421432Y307401D01*
X421089Y309122D01*
Y310000D01*
Y310878D01*
X421432Y312599D01*
X422104Y314221D01*
X423079Y315680D01*
X424320Y316921D01*
X425779Y317897D01*
X427401Y318568D01*
X429122Y318911D01*
X430878D01*
X432599Y318568D01*
D02*
G37*
G36*
X377599D02*
X379221Y317897D01*
X380680Y316921D01*
X381921Y315680D01*
X382896Y314221D01*
X383568Y312599D01*
X383911Y310878D01*
Y310000D01*
Y309122D01*
X383568Y307401D01*
X382896Y305779D01*
X381921Y304320D01*
X380680Y303079D01*
X379221Y302103D01*
X377599Y301432D01*
X375878Y301089D01*
X374122D01*
X372401Y301432D01*
X370779Y302103D01*
X369320Y303079D01*
X368079Y304320D01*
X367104Y305779D01*
X366432Y307401D01*
X366089Y309122D01*
Y310000D01*
Y310878D01*
X366432Y312599D01*
X367104Y314221D01*
X368079Y315680D01*
X369320Y316921D01*
X370779Y317897D01*
X372401Y318568D01*
X374122Y318911D01*
X375878D01*
X377599Y318568D01*
D02*
G37*
G36*
X542521Y322153D02*
X544142Y321481D01*
X545602Y320506D01*
X546843Y319265D01*
X547818Y317805D01*
X548490Y316184D01*
X548832Y314462D01*
Y313585D01*
Y312707D01*
X548490Y310985D01*
X547818Y309364D01*
X546843Y307904D01*
X545602Y306663D01*
X544142Y305688D01*
X542521Y305016D01*
X540799Y304674D01*
X539044D01*
X537322Y305016D01*
X535701Y305688D01*
X534241Y306663D01*
X533000Y307904D01*
X532025Y309364D01*
X531353Y310985D01*
X531011Y312707D01*
Y313585D01*
Y314462D01*
X531353Y316184D01*
X532025Y317805D01*
X533000Y319265D01*
X534241Y320506D01*
X535701Y321481D01*
X537322Y322153D01*
X539044Y322495D01*
X540799D01*
X542521Y322153D01*
D02*
G37*
G36*
X487599Y358568D02*
X489221Y357896D01*
X490680Y356921D01*
X491921Y355680D01*
X492897Y354221D01*
X493568Y352599D01*
X493911Y350878D01*
Y350000D01*
Y349122D01*
X493568Y347401D01*
X492897Y345779D01*
X491921Y344320D01*
X490680Y343079D01*
X489221Y342104D01*
X487599Y341432D01*
X485878Y341089D01*
X484122D01*
X482401Y341432D01*
X480779Y342104D01*
X479320Y343079D01*
X478079Y344320D01*
X477104Y345779D01*
X476432Y347401D01*
X476089Y349122D01*
Y350000D01*
Y350878D01*
X476432Y352599D01*
X477104Y354221D01*
X478079Y355680D01*
X479320Y356921D01*
X480779Y357896D01*
X482401Y358568D01*
X484122Y358911D01*
X485878D01*
X487599Y358568D01*
D02*
G37*
G36*
X322599D02*
X324221Y357896D01*
X325680Y356921D01*
X326921Y355680D01*
X327896Y354221D01*
X328568Y352599D01*
X328911Y350878D01*
Y350000D01*
Y349122D01*
X328568Y347401D01*
X327896Y345779D01*
X326921Y344320D01*
X325680Y343079D01*
X324221Y342104D01*
X322599Y341432D01*
X320878Y341089D01*
X319122D01*
X317401Y341432D01*
X315779Y342104D01*
X314320Y343079D01*
X313079Y344320D01*
X312104Y345779D01*
X311432Y347401D01*
X311089Y349122D01*
Y350000D01*
Y350878D01*
X311432Y352599D01*
X312104Y354221D01*
X313079Y355680D01*
X314320Y356921D01*
X315779Y357896D01*
X317401Y358568D01*
X319122Y358911D01*
X320878D01*
X322599Y358568D01*
D02*
G37*
G36*
X542521Y212153D02*
X544142Y211481D01*
X545602Y210506D01*
X546843Y209265D01*
X547818Y207805D01*
X548490Y206184D01*
X548832Y204462D01*
Y203585D01*
Y202707D01*
X548490Y200986D01*
X547818Y199364D01*
X546843Y197904D01*
X545602Y196663D01*
X544142Y195688D01*
X542521Y195016D01*
X540799Y194674D01*
X539044D01*
X537322Y195016D01*
X535701Y195688D01*
X534241Y196663D01*
X533000Y197904D01*
X532025Y199364D01*
X531353Y200986D01*
X531011Y202707D01*
Y203585D01*
Y204462D01*
X531353Y206184D01*
X532025Y207805D01*
X533000Y209265D01*
X534241Y210506D01*
X535701Y211481D01*
X537322Y212153D01*
X539044Y212495D01*
X540799D01*
X542521Y212153D01*
D02*
G37*
G36*
X487599Y178568D02*
X489221Y177896D01*
X490680Y176921D01*
X491921Y175680D01*
X492897Y174221D01*
X493568Y172599D01*
X493911Y170878D01*
Y170000D01*
Y169122D01*
X493568Y167401D01*
X492897Y165779D01*
X491921Y164320D01*
X490680Y163079D01*
X489221Y162103D01*
X487599Y161432D01*
X485878Y161089D01*
X484122D01*
X482401Y161432D01*
X480779Y162103D01*
X479320Y163079D01*
X478079Y164320D01*
X477104Y165779D01*
X476432Y167401D01*
X476089Y169122D01*
Y170000D01*
Y170878D01*
X476432Y172599D01*
X477104Y174221D01*
X478079Y175680D01*
X479320Y176921D01*
X480779Y177896D01*
X482401Y178568D01*
X484122Y178911D01*
X485878D01*
X487599Y178568D01*
D02*
G37*
G36*
X542521Y267153D02*
X544142Y266481D01*
X545602Y265506D01*
X546843Y264265D01*
X547818Y262805D01*
X548490Y261184D01*
X548832Y259462D01*
Y258585D01*
Y257707D01*
X548490Y255985D01*
X547818Y254364D01*
X546843Y252904D01*
X545602Y251663D01*
X544142Y250688D01*
X542521Y250016D01*
X540799Y249674D01*
X539044D01*
X537322Y250016D01*
X535701Y250688D01*
X534241Y251663D01*
X533000Y252904D01*
X532025Y254364D01*
X531353Y255985D01*
X531011Y257707D01*
Y258585D01*
Y259462D01*
X531353Y261184D01*
X532025Y262805D01*
X533000Y264265D01*
X534241Y265506D01*
X535701Y266481D01*
X537322Y267153D01*
X539044Y267495D01*
X540799D01*
X542521Y267153D01*
D02*
G37*
G36*
X487599Y303568D02*
X489221Y302896D01*
X490680Y301921D01*
X491921Y300680D01*
X492897Y299221D01*
X493568Y297599D01*
X493911Y295878D01*
Y295000D01*
Y294122D01*
X493568Y292401D01*
X492897Y290779D01*
X491921Y289320D01*
X490680Y288079D01*
X489221Y287104D01*
X487599Y286432D01*
X485878Y286089D01*
X484122D01*
X482401Y286432D01*
X480779Y287104D01*
X479320Y288079D01*
X478079Y289320D01*
X477104Y290779D01*
X476432Y292401D01*
X476089Y294122D01*
Y295000D01*
Y295878D01*
X476432Y297599D01*
X477104Y299221D01*
X478079Y300680D01*
X479320Y301921D01*
X480779Y302896D01*
X482401Y303568D01*
X484122Y303911D01*
X485878D01*
X487599Y303568D01*
D02*
G37*
G36*
X322599D02*
X324221Y302896D01*
X325680Y301921D01*
X326921Y300680D01*
X327896Y299221D01*
X328568Y297599D01*
X328911Y295878D01*
Y295000D01*
Y294122D01*
X328568Y292401D01*
X327896Y290779D01*
X326921Y289320D01*
X325680Y288079D01*
X324221Y287104D01*
X322599Y286432D01*
X320878Y286089D01*
X319122D01*
X317401Y286432D01*
X315779Y287104D01*
X314320Y288079D01*
X313079Y289320D01*
X312104Y290779D01*
X311432Y292401D01*
X311089Y294122D01*
Y295000D01*
Y295878D01*
X311432Y297599D01*
X312104Y299221D01*
X313079Y300680D01*
X314320Y301921D01*
X315779Y302896D01*
X317401Y303568D01*
X319122Y303911D01*
X320878D01*
X322599Y303568D01*
D02*
G37*
D16*
X289490Y18691D02*
D03*
X269490D02*
D03*
X289490Y38691D02*
D03*
X269490D02*
D03*
X386000Y130000D02*
D03*
X406000D02*
D03*
Y110000D02*
D03*
X386000D02*
D03*
X442697Y17200D02*
D03*
Y37200D02*
D03*
X462697D02*
D03*
Y17200D02*
D03*
X263440Y143091D02*
D03*
X243440D02*
D03*
X263440Y163091D02*
D03*
X243440D02*
D03*
X310000Y160000D02*
D03*
Y180000D02*
D03*
X330000Y160000D02*
D03*
Y180000D02*
D03*
X310000Y105000D02*
D03*
Y125000D02*
D03*
X330000Y105000D02*
D03*
Y125000D02*
D03*
X310000Y285000D02*
D03*
Y305000D02*
D03*
X330000Y285000D02*
D03*
Y305000D02*
D03*
X310000Y340000D02*
D03*
Y360000D02*
D03*
X330000Y340000D02*
D03*
Y360000D02*
D03*
X365000Y300000D02*
D03*
Y320000D02*
D03*
X385000Y300000D02*
D03*
Y320000D02*
D03*
X420000Y300000D02*
D03*
Y320000D02*
D03*
X440000Y300000D02*
D03*
Y320000D02*
D03*
X475000Y285000D02*
D03*
Y305000D02*
D03*
X495000Y285000D02*
D03*
Y305000D02*
D03*
X475000Y340000D02*
D03*
Y360000D02*
D03*
X495000Y340000D02*
D03*
Y360000D02*
D03*
X529921Y303585D02*
D03*
Y323585D02*
D03*
X549921Y303585D02*
D03*
Y323585D02*
D03*
X529921Y248585D02*
D03*
Y268585D02*
D03*
X549921Y248585D02*
D03*
Y268585D02*
D03*
X529921Y193585D02*
D03*
Y213585D02*
D03*
X549921Y193585D02*
D03*
Y213585D02*
D03*
X529921Y138585D02*
D03*
Y158585D02*
D03*
X549921Y138585D02*
D03*
Y158585D02*
D03*
X475000Y160000D02*
D03*
Y180000D02*
D03*
X495000Y160000D02*
D03*
Y180000D02*
D03*
X475000Y105000D02*
D03*
Y125000D02*
D03*
X495000Y105000D02*
D03*
Y125000D02*
D03*
X182591Y142560D02*
D03*
Y162560D02*
D03*
X202591Y142560D02*
D03*
Y162560D02*
D03*
X106691Y28010D02*
D03*
Y48010D02*
D03*
X126691Y28010D02*
D03*
Y48010D02*
D03*
X40992Y134492D02*
D03*
X60992D02*
D03*
X40992Y114492D02*
D03*
X60992D02*
D03*
X40992Y78492D02*
D03*
X60992D02*
D03*
X40992Y58492D02*
D03*
X60992D02*
D03*
X111492Y158992D02*
D03*
X131492D02*
D03*
X111492Y138992D02*
D03*
X131492D02*
D03*
X402700Y17200D02*
D03*
Y37200D02*
D03*
X422700D02*
D03*
Y17200D02*
D03*
D34*
X391157Y239016D02*
X411273D01*
Y243500D01*
X347153D02*
X411273D01*
X391157Y227380D02*
Y239016D01*
Y227380D02*
X411568D01*
X347153Y223128D02*
X411568D01*
Y227364D01*
X418447Y236164D02*
Y245500D01*
X397829Y236164D02*
X418447D01*
Y245500D02*
X432000D01*
X418484Y189000D02*
Y229644D01*
X397829D02*
Y236164D01*
Y229644D02*
X418444D01*
X432000Y180000D02*
Y245500D01*
X111000Y180000D02*
Y189000D01*
Y180000D02*
X432000D01*
X111000Y189000D02*
X418484D01*
X220653Y360500D02*
X347153D01*
X220653Y303000D02*
Y360500D01*
X184153Y303000D02*
X220653D01*
X184153D02*
Y322000D01*
X166153D02*
X184153D01*
X166153Y285000D02*
Y322000D01*
Y285000D02*
X323500D01*
X347153Y243500D02*
Y360500D01*
Y193500D02*
Y223128D01*
X323500Y202500D02*
Y285000D01*
X139500Y193500D02*
X347153D01*
X139500D02*
Y202500D01*
X323500D01*
X85500Y101624D02*
Y208500D01*
Y101624D02*
X511500D01*
X85500Y208500D02*
X316000D01*
Y247500D01*
X41500D02*
X316000D01*
X511500Y35500D02*
Y101624D01*
X41500Y35500D02*
X511500D01*
X74000Y379000D02*
X215941D01*
X74000Y339874D02*
Y379000D01*
X215941Y309874D02*
Y379000D01*
X74000Y339874D02*
X201441D01*
Y309874D02*
X215941D01*
X201441D02*
Y339874D01*
X41500Y35500D02*
Y247500D01*
D100*
X0Y-0D02*
X570000Y-0D01*
X570000Y390000D01*
X-0Y390000D02*
X570000Y390000D01*
X-0Y390000D02*
X0Y-0D01*
D101*
X396000Y120000D02*
D03*
X452697Y27200D02*
D03*
X412700D02*
D03*
D102*
X23500Y189000D02*
D03*
X209500D02*
D03*
X499500Y81000D02*
D03*
X428500Y106000D02*
D03*
X439000Y105500D02*
D03*
X259992Y188492D02*
D03*
X138500Y188500D02*
D03*
X81492Y188992D02*
D03*
X361500Y188000D02*
D03*
X384500Y200000D02*
D03*
X249500Y313000D02*
D03*
X244500Y321500D02*
D03*
X240500Y329500D02*
D03*
X236500Y334500D02*
D03*
X253500Y363307D02*
D03*
X405500Y150000D02*
D03*
X436484Y208122D02*
D03*
X58000Y181500D02*
D03*
X389484Y224122D02*
D03*
X415057Y219622D02*
D03*
X254500Y204000D02*
D03*
X247000Y196000D02*
D03*
X462206Y92300D02*
D03*
X454000Y77200D02*
D03*
X443700D02*
D03*
X423811Y79706D02*
D03*
X425211Y62106D02*
D03*
X443905Y64184D02*
D03*
X467005Y87700D02*
D03*
X457705Y87600D02*
D03*
X192641Y356082D02*
D03*
X111133Y332074D02*
D03*
X85933Y316274D02*
D03*
X121133Y316074D02*
D03*
X148433Y327374D02*
D03*
X124394Y344735D02*
D03*
X92394D02*
D03*
X164941Y353382D02*
D03*
X187998Y318382D02*
D03*
X226998Y317882D02*
D03*
X210526Y354467D02*
D03*
X156782Y272383D02*
D03*
X69282Y224383D02*
D03*
X121631Y214124D02*
D03*
X116282Y243883D02*
D03*
X107231Y221924D02*
D03*
X106481Y243874D02*
D03*
X95782Y243883D02*
D03*
X104331Y230624D02*
D03*
X223282Y262383D02*
D03*
X227331Y229624D02*
D03*
X318282Y234783D02*
D03*
X291782Y253883D02*
D03*
X265282Y244383D02*
D03*
X141582Y243783D02*
D03*
X281782Y213083D02*
D03*
X279782Y238383D02*
D03*
X262582Y211883D02*
D03*
X257582Y223283D02*
D03*
X255782Y239283D02*
D03*
X275482Y223383D02*
D03*
X309382Y229083D02*
D03*
X197231Y232274D02*
D03*
X229481Y242874D02*
D03*
X230231Y220924D02*
D03*
X239694Y242061D02*
D03*
X244631Y213124D02*
D03*
X158595Y261697D02*
D03*
X254782Y259383D02*
D03*
X193482Y237683D02*
D03*
X186882Y230083D02*
D03*
X187282Y237683D02*
D03*
X152982Y224383D02*
D03*
X133282Y240283D02*
D03*
X135082Y224283D02*
D03*
X140082Y212883D02*
D03*
X187282Y262283D02*
D03*
X207482Y276883D02*
D03*
X208082Y262283D02*
D03*
X159282Y214083D02*
D03*
X116782Y249883D02*
D03*
X121782Y253383D02*
D03*
X141782Y249883D02*
D03*
X148319Y253420D02*
D03*
X244782Y253383D02*
D03*
X239782Y249883D02*
D03*
X264782D02*
D03*
X270782Y253383D02*
D03*
X198782Y245883D02*
D03*
X177482Y243683D02*
D03*
X181282Y246683D02*
D03*
X158782Y239383D02*
D03*
X151782Y243383D02*
D03*
X155282Y233883D02*
D03*
X153282Y256883D02*
D03*
X216782Y244883D02*
D03*
X234282Y272883D02*
D03*
X241782Y270383D02*
D03*
X212282Y247383D02*
D03*
X96282Y265883D02*
D03*
X355000Y113000D02*
D03*
X21282Y233383D02*
D03*
X24782Y238883D02*
D03*
X47282Y246183D02*
D03*
X43482Y243183D02*
D03*
X64782Y245383D02*
D03*
X25282Y213583D02*
D03*
X53282Y261783D02*
D03*
X18982Y223883D02*
D03*
X53282Y237183D02*
D03*
X52882Y229583D02*
D03*
X59482Y237183D02*
D03*
X58841Y266532D02*
D03*
X36982Y269032D02*
D03*
X415500Y165000D02*
D03*
X389665Y229130D02*
D03*
X397000Y213000D02*
D03*
X383984Y214122D02*
D03*
D103*
X261000Y362882D02*
D03*
X271000D02*
D03*
X261000Y352882D02*
D03*
X271000D02*
D03*
X261000Y342882D02*
D03*
X271000D02*
D03*
X261000Y332882D02*
D03*
X271000D02*
D03*
X261000Y322882D02*
D03*
X271000D02*
D03*
X261000Y312882D02*
D03*
X271000D02*
D03*
X123500Y366000D02*
D03*
Y376000D02*
D03*
X133500Y366000D02*
D03*
Y376000D02*
D03*
X143500Y366000D02*
D03*
Y376000D02*
D03*
X153500Y366000D02*
D03*
Y376000D02*
D03*
X163500Y366000D02*
D03*
Y376000D02*
D03*
X173500Y366000D02*
D03*
Y376000D02*
D03*
X183500Y366000D02*
D03*
Y376000D02*
D03*
X193500Y366000D02*
D03*
Y376000D02*
D03*
X203500Y366000D02*
D03*
Y376000D02*
D03*
X213500Y366000D02*
D03*
Y376000D02*
D03*
X508000Y62000D02*
D03*
X518000D02*
D03*
X58000Y326000D02*
D03*
X48000D02*
D03*
X36000Y189000D02*
D03*
X46000D02*
D03*
X382000Y88500D02*
D03*
X372000D02*
D03*
X362000D02*
D03*
X36841Y288532D02*
D03*
X46841D02*
D03*
X56841D02*
D03*
X101500Y374000D02*
D03*
X81500D02*
D03*
X79500Y173000D02*
D03*
Y163000D02*
D03*
Y153000D02*
D03*
X222782Y188914D02*
D03*
X232782D02*
D03*
X270282Y188414D02*
D03*
X280282D02*
D03*
X97282Y188914D02*
D03*
X107282D02*
D03*
X150782D02*
D03*
X160782D02*
D03*
X208774Y292906D02*
D03*
X218774D02*
D03*
X228774D02*
D03*
X153782Y292883D02*
D03*
X163782D02*
D03*
X173782D02*
D03*
X85782Y258383D02*
D03*
X95782D02*
D03*
X105782D02*
D03*
X257000Y274000D02*
D03*
X267000D02*
D03*
X277000D02*
D03*
X485500Y87000D02*
D03*
Y77000D02*
D03*
X510000Y21000D02*
D03*
X500000D02*
D03*
X490000D02*
D03*
X406005Y72267D02*
D03*
Y62267D02*
D03*
D104*
X540000Y30000D02*
D03*
Y360000D02*
D03*
X30000D02*
D03*
X30000Y30000D02*
D03*
D105*
X93561Y234154D02*
D03*
Y225493D02*
D03*
X89231D02*
D03*
X84900D02*
D03*
X93561Y229824D02*
D03*
X84900Y234154D02*
D03*
X89231D02*
D03*
Y229824D02*
D03*
X84900D02*
D03*
X42831Y232862D02*
D03*
Y228532D02*
D03*
Y224201D02*
D03*
X38500Y232862D02*
D03*
Y228532D02*
D03*
Y224201D02*
D03*
X34169Y232862D02*
D03*
Y228532D02*
D03*
Y224201D02*
D03*
X176831Y233362D02*
D03*
Y229031D02*
D03*
Y224701D02*
D03*
X172500Y233362D02*
D03*
Y229031D02*
D03*
Y224701D02*
D03*
X168169Y233362D02*
D03*
Y229031D02*
D03*
Y224701D02*
D03*
X216561Y233154D02*
D03*
Y224493D02*
D03*
X212231D02*
D03*
X207900D02*
D03*
X216561Y228824D02*
D03*
X207900Y233154D02*
D03*
X212231D02*
D03*
Y228824D02*
D03*
X207900D02*
D03*
X299331Y232362D02*
D03*
Y228031D02*
D03*
Y223701D02*
D03*
X295000Y232362D02*
D03*
Y228031D02*
D03*
Y223701D02*
D03*
X290669Y232362D02*
D03*
Y228031D02*
D03*
Y223701D02*
D03*
X107533Y308874D02*
D03*
X134433Y308374D02*
D03*
X130441Y308882D02*
D03*
X96382Y282383D02*
D03*
D106*
X433505Y70419D02*
D03*
Y74750D02*
D03*
D107*
X407850Y222950D02*
D03*
X407900Y242100D02*
D03*
X395150Y237450D02*
D03*
X397800Y240100D02*
D03*
X400500D02*
D03*
X403150D02*
D03*
X405850D02*
D03*
X396500Y238800D02*
D03*
X399150D02*
D03*
X404500D02*
D03*
X407200D02*
D03*
X409850D02*
D03*
X397800Y237450D02*
D03*
X403150D02*
D03*
X405850D02*
D03*
X408550D02*
D03*
X396500Y236100D02*
D03*
X399150D02*
D03*
X401850D02*
D03*
X404500D02*
D03*
X407200D02*
D03*
X397800Y234750D02*
D03*
X400500D02*
D03*
X405850D02*
D03*
X399150Y233450D02*
D03*
X404500D02*
D03*
X407200D02*
D03*
X397800Y232100D02*
D03*
X405850D02*
D03*
X409850D02*
D03*
X399150Y230750D02*
D03*
X401850D02*
D03*
X404500D02*
D03*
X407200D02*
D03*
X397800Y229400D02*
D03*
X400500D02*
D03*
X403150D02*
D03*
X405850D02*
D03*
X409850Y230050D02*
D03*
X396500Y228050D02*
D03*
X399150D02*
D03*
X404500D02*
D03*
X407200D02*
D03*
X409850D02*
D03*
X395150Y226750D02*
D03*
X397800D02*
D03*
X403150D02*
D03*
X405850D02*
D03*
X408550D02*
D03*
X399150Y225400D02*
D03*
X404500D02*
D03*
X407200D02*
D03*
D108*
X405070Y243346D02*
D03*
X412150Y228025D02*
D03*
X401503Y223322D02*
D03*
X401501Y242269D02*
D03*
X397585Y221840D02*
D03*
X413783Y242625D02*
D03*
X415913Y241481D02*
D03*
X418245Y242751D02*
D03*
X411685Y241659D02*
D03*
X418201Y245393D02*
D03*
X392935Y241868D02*
D03*
X412000Y223500D02*
D03*
X392893Y222844D02*
D03*
X437121Y92942D02*
D03*
X431084Y92942D02*
D03*
X424984Y251122D02*
D03*
X415484Y203122D02*
D03*
X422212Y223316D02*
D03*
X402662Y244453D02*
D03*
X419000Y231500D02*
D03*
X436500Y220500D02*
D03*
X449500Y231500D02*
D03*
X456500D02*
D03*
X464500D02*
D03*
X427000D02*
D03*
X442000D02*
D03*
X435000D02*
D03*
X409100Y213500D02*
D03*
X403500Y222000D02*
D03*
D109*
X220625Y142131D02*
D03*
X260890Y106716D02*
D03*
X273815Y65163D02*
D03*
X237783Y113673D02*
D03*
X255940Y111666D02*
D03*
X227883Y123573D02*
D03*
X285234Y67441D02*
D03*
Y53441D02*
D03*
X267481Y83975D02*
D03*
X285234Y74441D02*
D03*
X280689Y86917D02*
D03*
X222934Y128523D02*
D03*
X232776Y158396D02*
D03*
X257582Y93874D02*
D03*
X242733Y108723D02*
D03*
X220625Y135131D02*
D03*
X233748Y143930D02*
D03*
X272431Y79025D02*
D03*
X232833Y118623D02*
D03*
X227484Y153815D02*
D03*
X273815Y51163D02*
D03*
X241091Y126515D02*
D03*
X236141Y131465D02*
D03*
X232044Y137141D02*
D03*
X222534Y148865D02*
D03*
X246041Y121565D02*
D03*
X252632Y98824D02*
D03*
X270789Y96816D02*
D03*
X275739Y91867D02*
D03*
X285234Y60441D02*
D03*
X273815Y72163D02*
D03*
X285046Y81438D02*
D03*
X250990Y116615D02*
D03*
X247682Y103774D02*
D03*
X262531Y88924D02*
D03*
X273815Y58163D02*
D03*
X181204Y132642D02*
D03*
X174362Y131164D02*
D03*
X167529Y129643D02*
D03*
X162556Y124716D02*
D03*
X159592Y118375D02*
D03*
Y111375D02*
D03*
Y104375D02*
D03*
Y97375D02*
D03*
Y90375D02*
D03*
X156878Y83922D02*
D03*
X151928Y78973D02*
D03*
X146241Y74892D02*
D03*
X139241D02*
D03*
X132382Y73496D02*
D03*
X127398Y68580D02*
D03*
X122449Y63630D02*
D03*
X117499Y58680D02*
D03*
X133633Y58665D02*
D03*
X138721Y63472D02*
D03*
X145721D02*
D03*
X152694Y64083D02*
D03*
X157885Y68779D02*
D03*
X162835Y73729D02*
D03*
X167785Y78679D02*
D03*
X171012Y84891D02*
D03*
Y91891D02*
D03*
Y98891D02*
D03*
Y105891D02*
D03*
Y112891D02*
D03*
X173444Y119454D02*
D03*
X180438Y119745D02*
D03*
X186971Y122260D02*
D03*
X191921Y127209D02*
D03*
X196838Y132191D02*
D03*
X374451Y205852D02*
D03*
X367468Y205377D02*
D03*
X360474Y205066D02*
D03*
X350125Y195662D02*
D03*
X341049Y185058D02*
D03*
X340943Y171059D02*
D03*
Y164059D02*
D03*
Y157059D02*
D03*
X339741Y150163D02*
D03*
X332790Y149332D02*
D03*
X318765Y147208D02*
D03*
X320366Y140394D02*
D03*
X315501Y135361D02*
D03*
X329865Y133742D02*
D03*
X336114Y136896D02*
D03*
X343107Y137208D02*
D03*
X348507Y141663D02*
D03*
X352908Y147106D02*
D03*
X353152Y154102D02*
D03*
Y161102D02*
D03*
Y168102D02*
D03*
Y175102D02*
D03*
X353799Y182072D02*
D03*
X370596Y193168D02*
D03*
X377595Y193270D02*
D03*
X393154Y207289D02*
D03*
X318395Y326877D02*
D03*
X321146Y320440D02*
D03*
X316197Y315491D02*
D03*
X336459Y316179D02*
D03*
X340960Y310818D02*
D03*
Y303818D02*
D03*
Y296818D02*
D03*
Y289818D02*
D03*
Y282818D02*
D03*
X343476Y276286D02*
D03*
X353376Y266387D02*
D03*
X358344Y261455D02*
D03*
X365171Y259906D02*
D03*
X372171D02*
D03*
X388694Y262471D02*
D03*
X383745Y267421D02*
D03*
X378319Y271844D02*
D03*
X371324Y272115D02*
D03*
X364347Y272681D02*
D03*
X359398Y277630D02*
D03*
X354448Y282580D02*
D03*
X353169Y289462D02*
D03*
Y296462D02*
D03*
Y303462D02*
D03*
Y310462D02*
D03*
X353087Y317462D02*
D03*
X343793Y327823D02*
D03*
X336816Y328388D02*
D03*
X330351Y331072D02*
D03*
X407289Y312469D02*
D03*
X401248Y308932D02*
D03*
X396298Y313882D02*
D03*
X396396Y295144D02*
D03*
Y288144D02*
D03*
Y281144D02*
D03*
Y274144D02*
D03*
Y267144D02*
D03*
X408604Y265551D02*
D03*
Y272551D02*
D03*
Y279551D02*
D03*
Y286551D02*
D03*
Y293551D02*
D03*
X411071Y300102D02*
D03*
X424382Y195043D02*
D03*
X438127Y193168D02*
D03*
X449028Y184534D02*
D03*
X452139Y178263D02*
D03*
Y171263D02*
D03*
Y164263D02*
D03*
Y157263D02*
D03*
Y150263D02*
D03*
X454699Y143748D02*
D03*
X459648Y138798D02*
D03*
X466385Y136896D02*
D03*
X473308Y135860D02*
D03*
X487198Y138120D02*
D03*
X483146Y143828D02*
D03*
X488096Y148778D02*
D03*
X469748Y149104D02*
D03*
X464347Y153558D02*
D03*
Y160558D02*
D03*
Y167558D02*
D03*
Y174558D02*
D03*
Y181558D02*
D03*
X462514Y188314D02*
D03*
X457565Y193263D02*
D03*
X452615Y198213D02*
D03*
X447665Y203163D02*
D03*
X441025Y205377D02*
D03*
X468946Y328604D02*
D03*
X461955Y328262D02*
D03*
X456583Y323774D02*
D03*
X452209Y318308D02*
D03*
X452001Y311312D02*
D03*
Y304312D02*
D03*
Y297312D02*
D03*
Y290312D02*
D03*
X451274Y283349D02*
D03*
X446325Y278400D02*
D03*
X441375Y273450D02*
D03*
X434465Y272332D02*
D03*
X427466Y272205D02*
D03*
X421835Y268047D02*
D03*
X416885Y263098D02*
D03*
X411935Y258148D02*
D03*
X431208Y260123D02*
D03*
X438208D02*
D03*
X445192Y260596D02*
D03*
X450430Y265239D02*
D03*
X455380Y270189D02*
D03*
X460330Y275139D02*
D03*
X464162Y280996D02*
D03*
X464210Y287996D02*
D03*
Y294996D02*
D03*
Y301996D02*
D03*
Y308996D02*
D03*
X465871Y315796D02*
D03*
X472870Y315661D02*
D03*
X486639Y318041D02*
D03*
X484330Y324649D02*
D03*
X489248Y329631D02*
D03*
X449205Y63700D02*
D03*
X545266Y293071D02*
D03*
X540744Y287727D02*
D03*
X543771Y281415D02*
D03*
X527938Y279980D02*
D03*
X521065Y278654D02*
D03*
X516115Y273704D02*
D03*
X511166Y268754D02*
D03*
X506216Y263804D02*
D03*
X501266Y258855D02*
D03*
X496316Y253905D02*
D03*
X491367Y248955D02*
D03*
X486417Y244005D02*
D03*
X481467Y239055D02*
D03*
X476517Y234106D02*
D03*
X429621Y241702D02*
D03*
X436621D02*
D03*
X443621D02*
D03*
X450621D02*
D03*
X457621D02*
D03*
X464621D02*
D03*
X470557Y245411D02*
D03*
X475507Y250361D02*
D03*
X480457Y255311D02*
D03*
X485407Y260261D02*
D03*
X490356Y265210D02*
D03*
X495306Y270160D02*
D03*
X500256Y275110D02*
D03*
X505206Y280060D02*
D03*
X510155Y285009D02*
D03*
X515105Y289959D02*
D03*
X521740Y292189D02*
D03*
X528741D02*
D03*
X480127Y224454D02*
D03*
X485077Y219504D02*
D03*
X490027Y214554D02*
D03*
X494977Y209605D02*
D03*
X499926Y204655D02*
D03*
X504876Y199705D02*
D03*
X509826Y194755D02*
D03*
X514776Y189805D02*
D03*
X519725Y184856D02*
D03*
X526197Y182189D02*
D03*
X544636Y181824D02*
D03*
X539790Y176772D02*
D03*
X543997Y171178D02*
D03*
X527438Y169980D02*
D03*
X520438D02*
D03*
X514186Y173129D02*
D03*
X509236Y178079D02*
D03*
X504287Y183029D02*
D03*
X499337Y187978D02*
D03*
X494387Y192928D02*
D03*
X489437Y197878D02*
D03*
X484488Y202828D02*
D03*
X479538Y207777D02*
D03*
X474588Y212727D02*
D03*
X469638Y217677D02*
D03*
X463369Y220790D02*
D03*
X456369D02*
D03*
X449369D02*
D03*
X442369D02*
D03*
M02*
