G04 Layer_Color=16711935*
%FSLAX25Y25*%
%MOIN*%
G70*
G01*
G75*
%ADD112C,0.00394*%
D112*
X84802Y223426D02*
G03*
X84802Y223426I-1969J0D01*
G01*
X469336Y74262D02*
G03*
X469336Y74262I-1969J0D01*
G01*
X117109Y225641D02*
G03*
X117109Y225641I-1969J0D01*
G01*
X438033Y68057D02*
G03*
X438033Y68057I-1969J0D01*
G01*
X198065Y253434D02*
G03*
X198065Y253434I-1969J0D01*
G01*
X34071Y222134D02*
G03*
X34071Y222134I-1969J0D01*
G01*
X64065Y252934D02*
G03*
X64065Y252934I-1969J0D01*
G01*
X143791Y225624D02*
G03*
X143791Y225624I-1969J0D01*
G01*
X168071Y222634D02*
G03*
X168071Y222634I-1969J0D01*
G01*
X207802Y222426D02*
G03*
X207802Y222426I-1969J0D01*
G01*
X240109Y224641D02*
G03*
X240109Y224641I-1969J0D01*
G01*
X290571Y221634D02*
G03*
X290571Y221634I-1969J0D01*
G01*
X266291Y224624D02*
G03*
X266291Y224624I-1969J0D01*
G01*
X99172Y219883D02*
Y239765D01*
X79290Y219883D02*
Y239765D01*
X99172D01*
X79290Y219883D02*
X99172D01*
X459100Y77806D02*
X470911D01*
X459100Y65995D02*
X470911D01*
Y77806D01*
X459100Y65995D02*
Y77806D01*
X381433Y134567D02*
X410567D01*
X381433Y105433D02*
Y134567D01*
Y105433D02*
X410567D01*
Y134567D01*
X438130Y12633D02*
Y41767D01*
Y12633D02*
X467264D01*
Y41767D01*
X438130D02*
X467264D01*
X127227Y330168D02*
Y341979D01*
X139038D01*
X127227Y330168D02*
X139038D01*
Y341979D01*
X123802Y222098D02*
Y234302D01*
X111597Y222098D02*
Y234302D01*
X123802D01*
X111597Y222098D02*
X123802D01*
X439608Y64513D02*
Y80655D01*
X427403Y64513D02*
Y80655D01*
Y64513D02*
X439608D01*
X427403Y80655D02*
X439608D01*
X199640Y249890D02*
Y275875D01*
X181924Y249890D02*
Y275875D01*
Y249890D02*
X199640D01*
X181924Y275875D02*
X199640D01*
X505693Y37685D02*
X519079D01*
X505693Y48709D02*
X519079D01*
Y37685D02*
Y48709D01*
X505693Y37685D02*
Y48709D01*
X48441Y218590D02*
Y238472D01*
X28559Y218590D02*
Y238472D01*
X48441D01*
X28559Y218590D02*
X48441D01*
X65640Y249391D02*
Y275375D01*
X47924Y249391D02*
Y275375D01*
Y249391D02*
X65640D01*
X47924Y275375D02*
X65640D01*
X67693Y368488D02*
Y379512D01*
X54307Y368488D02*
Y379512D01*
Y368488D02*
X67693D01*
X54307Y379512D02*
X67693D01*
X37193Y157988D02*
Y169012D01*
X23807Y157988D02*
Y169012D01*
Y157988D02*
X37193D01*
X23807Y169012D02*
X37193D01*
X138279Y222080D02*
X150484D01*
X138279Y234285D02*
X150484D01*
X138279Y222080D02*
Y234285D01*
X150484Y222080D02*
Y234285D01*
X182441Y219091D02*
Y238972D01*
X162559Y219091D02*
Y238972D01*
X182441D01*
X162559Y219091D02*
X182441D01*
X222172Y218883D02*
Y238765D01*
X202290Y218883D02*
Y238765D01*
X222172D01*
X202290Y218883D02*
X222172D01*
X246801Y221098D02*
Y233302D01*
X234597Y221098D02*
Y233302D01*
X246801D01*
X234597Y221098D02*
X246801D01*
X304941Y218091D02*
Y237972D01*
X285059Y218091D02*
Y237972D01*
X304941D01*
X285059Y218091D02*
X304941D01*
X260780Y221080D02*
X272984D01*
X260780Y233285D02*
X272984D01*
X260780Y221080D02*
Y233285D01*
X272984Y221080D02*
Y233285D01*
X95349Y330068D02*
Y341879D01*
X107160D01*
X95349Y330068D02*
X107160D01*
Y341879D01*
X398133Y12633D02*
Y41767D01*
Y12633D02*
X427267D01*
Y41767D01*
X398133D02*
X427267D01*
M02*
