G04 Layer_Color=255*
%FSLAX25Y25*%
%MOIN*%
G70*
G01*
G75*
%ADD11R,0.12402X0.12402*%
%ADD12O,0.03937X0.01378*%
%ADD13O,0.01378X0.03937*%
%ADD14R,0.01378X0.03347*%
%ADD15R,0.09449X0.06496*%
%ADD16C,0.07500*%
%ADD17R,0.01772X0.05709*%
%ADD18O,0.01181X0.06496*%
%ADD19O,0.03150X0.01181*%
%ADD20O,0.01181X0.03150*%
%ADD21R,0.06496X0.10433*%
%ADD22C,0.00250*%
%ADD23R,0.03000X0.06500*%
%ADD24O,0.05512X0.01378*%
%ADD25R,0.01181X0.06496*%
%ADD26R,0.04528X0.10630*%
%ADD27R,0.06000X0.06000*%
%ADD28R,0.03500X0.03500*%
%ADD29R,0.01500X0.01500*%
%ADD30R,0.03500X0.03500*%
%ADD31R,0.02500X0.02000*%
%ADD32R,0.02000X0.02500*%
%ADD33R,0.01500X0.01500*%
%ADD88C,0.08700*%
%ADD89C,0.10000*%
%ADD90C,0.04000*%
%ADD91C,0.05905*%
%ADD92R,0.05905X0.05905*%
%ADD93R,0.05905X0.05905*%
%ADD94C,0.30000*%
D11*
X89231Y229824D02*
D03*
X38500Y228532D02*
D03*
X172500Y229031D02*
D03*
X212231Y228824D02*
D03*
X295000Y228031D02*
D03*
D12*
X79782Y224706D02*
D03*
Y227265D02*
D03*
Y229824D02*
D03*
Y232383D02*
D03*
Y234942D02*
D03*
X98680D02*
D03*
Y232383D02*
D03*
Y229824D02*
D03*
Y227265D02*
D03*
Y224706D02*
D03*
X29051Y223413D02*
D03*
Y225972D02*
D03*
Y228532D02*
D03*
Y231090D02*
D03*
Y233650D02*
D03*
X47949D02*
D03*
Y231090D02*
D03*
Y228532D02*
D03*
Y225972D02*
D03*
Y223413D02*
D03*
X163051Y223913D02*
D03*
Y226472D02*
D03*
Y229031D02*
D03*
Y231591D02*
D03*
Y234150D02*
D03*
X181949D02*
D03*
Y231591D02*
D03*
Y229031D02*
D03*
Y226472D02*
D03*
Y223913D02*
D03*
X202782Y223706D02*
D03*
Y226265D02*
D03*
Y228824D02*
D03*
Y231383D02*
D03*
Y233942D02*
D03*
X221679D02*
D03*
Y231383D02*
D03*
Y228824D02*
D03*
Y226265D02*
D03*
Y223706D02*
D03*
X285551Y222913D02*
D03*
Y225472D02*
D03*
Y228031D02*
D03*
Y230591D02*
D03*
Y233150D02*
D03*
X304449D02*
D03*
Y230591D02*
D03*
Y228031D02*
D03*
Y225472D02*
D03*
Y222913D02*
D03*
D13*
X84113Y239272D02*
D03*
X86672D02*
D03*
X89231D02*
D03*
X91790D02*
D03*
X94349D02*
D03*
Y220375D02*
D03*
X91790D02*
D03*
X89231D02*
D03*
X86672D02*
D03*
X84113D02*
D03*
X33382Y237980D02*
D03*
X35941D02*
D03*
X38500D02*
D03*
X41059D02*
D03*
X43618D02*
D03*
Y219083D02*
D03*
X41059D02*
D03*
X38500D02*
D03*
X35941D02*
D03*
X33382D02*
D03*
X167382Y238480D02*
D03*
X169941D02*
D03*
X172500D02*
D03*
X175059D02*
D03*
X177618D02*
D03*
Y219583D02*
D03*
X175059D02*
D03*
X172500D02*
D03*
X169941D02*
D03*
X167382D02*
D03*
X207113Y238272D02*
D03*
X209672D02*
D03*
X212231D02*
D03*
X214790D02*
D03*
X217349D02*
D03*
Y219375D02*
D03*
X214790D02*
D03*
X212231D02*
D03*
X209672D02*
D03*
X207113D02*
D03*
X289882Y237480D02*
D03*
X292441D02*
D03*
X295000D02*
D03*
X297559D02*
D03*
X300118D02*
D03*
Y218583D02*
D03*
X297559D02*
D03*
X295000D02*
D03*
X292441D02*
D03*
X289882D02*
D03*
D14*
X468844Y77707D02*
D03*
X466285D02*
D03*
X463726D02*
D03*
X461167D02*
D03*
X468844Y66093D02*
D03*
X466285D02*
D03*
X463726D02*
D03*
X461167D02*
D03*
D15*
X465005Y71900D02*
D03*
D16*
X279490Y28691D02*
D03*
X253440Y153091D02*
D03*
X320000Y170000D02*
D03*
Y115000D02*
D03*
Y295000D02*
D03*
Y350000D02*
D03*
X375000Y310000D02*
D03*
X430000D02*
D03*
X485000Y295000D02*
D03*
Y350000D02*
D03*
X539921Y313585D02*
D03*
Y258585D02*
D03*
Y203585D02*
D03*
Y148585D02*
D03*
X485000Y170000D02*
D03*
Y115000D02*
D03*
X192591Y152560D02*
D03*
X116691Y38010D02*
D03*
X50992Y124492D02*
D03*
Y68492D02*
D03*
X121492Y148992D02*
D03*
D17*
X136971Y327412D02*
D03*
X134412D02*
D03*
X131853D02*
D03*
X129294D02*
D03*
Y344735D02*
D03*
X131853D02*
D03*
X134412D02*
D03*
X136971D02*
D03*
X105093Y327312D02*
D03*
X102534D02*
D03*
X99975D02*
D03*
X97416D02*
D03*
Y344635D02*
D03*
X99975D02*
D03*
X102534D02*
D03*
X105093D02*
D03*
D18*
X121636Y236271D02*
D03*
X119668D02*
D03*
X117699D02*
D03*
X115731D02*
D03*
X113762D02*
D03*
X121636Y220129D02*
D03*
X119668D02*
D03*
X117699D02*
D03*
X115731D02*
D03*
X113762D02*
D03*
X140445Y220112D02*
D03*
X142413D02*
D03*
X144382D02*
D03*
X146350D02*
D03*
X148319D02*
D03*
X140445Y236253D02*
D03*
X142413D02*
D03*
X144382D02*
D03*
X146350D02*
D03*
X148319D02*
D03*
X244636Y235271D02*
D03*
X242668D02*
D03*
X240699D02*
D03*
X238731D02*
D03*
X236762D02*
D03*
X244636Y219129D02*
D03*
X242668D02*
D03*
X240699D02*
D03*
X238731D02*
D03*
X236762D02*
D03*
X262945Y219112D02*
D03*
X264913D02*
D03*
X266882D02*
D03*
X268850D02*
D03*
X270819D02*
D03*
X262945Y235254D02*
D03*
X264913D02*
D03*
X266882D02*
D03*
X268850D02*
D03*
X270819D02*
D03*
D19*
X439411Y67663D02*
D03*
Y69631D02*
D03*
Y71600D02*
D03*
Y73568D02*
D03*
Y75537D02*
D03*
Y77505D02*
D03*
X427600D02*
D03*
Y75537D02*
D03*
Y73568D02*
D03*
Y71600D02*
D03*
Y69631D02*
D03*
Y67663D02*
D03*
D20*
X436458Y80458D02*
D03*
X434490D02*
D03*
X432521D02*
D03*
X430553D02*
D03*
Y64710D02*
D03*
X432521D02*
D03*
X434490D02*
D03*
X436458D02*
D03*
D21*
X433505Y72584D02*
D03*
D22*
X394138Y225728D02*
D03*
Y226397D02*
D03*
X410201Y224389D02*
D03*
Y225059D02*
D03*
Y225728D02*
D03*
Y226397D02*
D03*
Y227067D02*
D03*
Y227736D02*
D03*
Y228405D02*
D03*
Y229744D02*
D03*
Y230413D02*
D03*
Y231752D02*
D03*
Y232421D02*
D03*
Y233760D02*
D03*
Y234429D02*
D03*
Y235768D02*
D03*
Y236437D02*
D03*
Y237775D02*
D03*
Y238445D02*
D03*
Y239114D02*
D03*
Y239783D02*
D03*
X410870Y225059D02*
D03*
Y225728D02*
D03*
Y226397D02*
D03*
Y227067D02*
D03*
Y227736D02*
D03*
Y228405D02*
D03*
Y229075D02*
D03*
Y229744D02*
D03*
Y230413D02*
D03*
Y231082D02*
D03*
Y231752D02*
D03*
Y232421D02*
D03*
Y233090D02*
D03*
Y233760D02*
D03*
Y234429D02*
D03*
Y235098D02*
D03*
Y235768D02*
D03*
Y236437D02*
D03*
Y237106D02*
D03*
Y237775D02*
D03*
Y238445D02*
D03*
Y239114D02*
D03*
Y239783D02*
D03*
Y240453D02*
D03*
X397484Y224390D02*
D03*
Y225059D02*
D03*
Y225728D02*
D03*
Y226397D02*
D03*
Y227067D02*
D03*
Y227736D02*
D03*
Y228405D02*
D03*
Y229075D02*
D03*
Y229744D02*
D03*
Y230413D02*
D03*
Y231083D02*
D03*
Y231752D02*
D03*
Y232421D02*
D03*
Y233090D02*
D03*
Y233760D02*
D03*
Y234429D02*
D03*
Y235098D02*
D03*
Y235768D02*
D03*
Y236437D02*
D03*
Y237106D02*
D03*
Y237775D02*
D03*
Y238445D02*
D03*
Y239114D02*
D03*
Y239783D02*
D03*
Y240453D02*
D03*
X396815Y224390D02*
D03*
Y225059D02*
D03*
Y225728D02*
D03*
Y226397D02*
D03*
Y227067D02*
D03*
Y227736D02*
D03*
Y228405D02*
D03*
Y229075D02*
D03*
Y229744D02*
D03*
Y230413D02*
D03*
Y231083D02*
D03*
Y231752D02*
D03*
Y232421D02*
D03*
Y233090D02*
D03*
Y233760D02*
D03*
Y234429D02*
D03*
Y235098D02*
D03*
Y235768D02*
D03*
Y236437D02*
D03*
Y237106D02*
D03*
Y237775D02*
D03*
Y238445D02*
D03*
Y239114D02*
D03*
Y239783D02*
D03*
Y240453D02*
D03*
X396146Y224390D02*
D03*
Y225059D02*
D03*
Y225728D02*
D03*
Y226397D02*
D03*
Y227067D02*
D03*
Y227736D02*
D03*
Y228405D02*
D03*
Y229744D02*
D03*
Y230413D02*
D03*
Y231752D02*
D03*
Y232421D02*
D03*
Y233760D02*
D03*
Y234429D02*
D03*
Y235768D02*
D03*
Y236437D02*
D03*
Y237106D02*
D03*
Y237775D02*
D03*
Y238445D02*
D03*
Y239114D02*
D03*
Y239783D02*
D03*
Y240453D02*
D03*
X395477Y224390D02*
D03*
Y225059D02*
D03*
Y225728D02*
D03*
Y226397D02*
D03*
Y227067D02*
D03*
Y227736D02*
D03*
Y228405D02*
D03*
Y229744D02*
D03*
Y230413D02*
D03*
Y231752D02*
D03*
Y232421D02*
D03*
Y233760D02*
D03*
Y234429D02*
D03*
Y235768D02*
D03*
Y236437D02*
D03*
Y237106D02*
D03*
Y237775D02*
D03*
Y238445D02*
D03*
Y239114D02*
D03*
Y239783D02*
D03*
Y240453D02*
D03*
X394807Y224390D02*
D03*
Y225059D02*
D03*
Y225728D02*
D03*
Y226397D02*
D03*
Y227067D02*
D03*
Y227736D02*
D03*
Y228405D02*
D03*
Y229744D02*
D03*
Y230413D02*
D03*
Y231752D02*
D03*
Y232421D02*
D03*
Y233760D02*
D03*
Y234429D02*
D03*
Y235768D02*
D03*
Y236437D02*
D03*
Y237106D02*
D03*
Y237775D02*
D03*
Y238445D02*
D03*
Y239114D02*
D03*
Y239783D02*
D03*
Y240453D02*
D03*
X410201Y241122D02*
D03*
X409532D02*
D03*
X408862D02*
D03*
X408193D02*
D03*
X407524D02*
D03*
X406855D02*
D03*
X406185D02*
D03*
X405516D02*
D03*
X404847D02*
D03*
X404177D02*
D03*
X403508D02*
D03*
X402839D02*
D03*
X402170D02*
D03*
X401500D02*
D03*
X400831D02*
D03*
X400162D02*
D03*
X399492D02*
D03*
X398823D02*
D03*
X398154D02*
D03*
X397484D02*
D03*
X396815D02*
D03*
X396146D02*
D03*
X395477D02*
D03*
X394807D02*
D03*
X394138Y225059D02*
D03*
Y227067D02*
D03*
Y227736D02*
D03*
Y228405D02*
D03*
Y229075D02*
D03*
Y229744D02*
D03*
Y230413D02*
D03*
Y231083D02*
D03*
Y231752D02*
D03*
Y232421D02*
D03*
Y233090D02*
D03*
Y233760D02*
D03*
Y234429D02*
D03*
Y235098D02*
D03*
Y235768D02*
D03*
Y236437D02*
D03*
Y237106D02*
D03*
Y237775D02*
D03*
Y238445D02*
D03*
Y239114D02*
D03*
Y240453D02*
D03*
X409532Y240453D02*
D03*
Y239783D02*
D03*
Y239114D02*
D03*
Y238445D02*
D03*
Y237775D02*
D03*
Y236437D02*
D03*
Y235768D02*
D03*
Y234429D02*
D03*
Y233760D02*
D03*
Y232421D02*
D03*
Y231752D02*
D03*
Y230413D02*
D03*
Y229744D02*
D03*
Y228405D02*
D03*
Y227736D02*
D03*
Y227067D02*
D03*
Y226397D02*
D03*
Y225728D02*
D03*
Y225059D02*
D03*
Y224389D02*
D03*
X408862Y240453D02*
D03*
Y239783D02*
D03*
Y239114D02*
D03*
Y238445D02*
D03*
Y237775D02*
D03*
Y236437D02*
D03*
Y235768D02*
D03*
Y234429D02*
D03*
Y233760D02*
D03*
Y232421D02*
D03*
Y231752D02*
D03*
Y230413D02*
D03*
Y229744D02*
D03*
Y228405D02*
D03*
Y227736D02*
D03*
Y227067D02*
D03*
Y226397D02*
D03*
Y225728D02*
D03*
Y225059D02*
D03*
Y224389D02*
D03*
X408193Y240453D02*
D03*
Y239783D02*
D03*
Y239114D02*
D03*
Y238445D02*
D03*
Y237775D02*
D03*
Y237106D02*
D03*
Y236437D02*
D03*
Y235768D02*
D03*
Y235098D02*
D03*
Y234429D02*
D03*
Y233760D02*
D03*
Y233090D02*
D03*
Y232421D02*
D03*
Y231752D02*
D03*
Y231082D02*
D03*
Y230413D02*
D03*
Y229744D02*
D03*
Y229075D02*
D03*
Y228405D02*
D03*
Y227736D02*
D03*
Y227067D02*
D03*
Y226397D02*
D03*
Y225728D02*
D03*
Y225059D02*
D03*
Y224389D02*
D03*
X407524Y240453D02*
D03*
Y239783D02*
D03*
Y239114D02*
D03*
Y238445D02*
D03*
Y237775D02*
D03*
Y237106D02*
D03*
Y236437D02*
D03*
Y235768D02*
D03*
Y235098D02*
D03*
Y234429D02*
D03*
Y233760D02*
D03*
Y233090D02*
D03*
Y232421D02*
D03*
Y231752D02*
D03*
Y231082D02*
D03*
Y230413D02*
D03*
Y229744D02*
D03*
Y229075D02*
D03*
Y228405D02*
D03*
Y227736D02*
D03*
Y227067D02*
D03*
Y226397D02*
D03*
Y225728D02*
D03*
Y225059D02*
D03*
Y224389D02*
D03*
X406855Y240453D02*
D03*
Y239783D02*
D03*
Y239114D02*
D03*
Y238445D02*
D03*
Y237775D02*
D03*
Y237106D02*
D03*
Y236437D02*
D03*
Y235768D02*
D03*
Y235098D02*
D03*
Y234429D02*
D03*
Y233760D02*
D03*
Y233090D02*
D03*
Y232421D02*
D03*
Y231752D02*
D03*
Y231082D02*
D03*
Y230413D02*
D03*
Y229744D02*
D03*
Y229075D02*
D03*
Y228405D02*
D03*
Y227736D02*
D03*
Y227067D02*
D03*
Y226397D02*
D03*
Y225728D02*
D03*
Y225059D02*
D03*
Y224389D02*
D03*
X406185Y240453D02*
D03*
Y239783D02*
D03*
Y239114D02*
D03*
Y238445D02*
D03*
Y237775D02*
D03*
Y237106D02*
D03*
Y236437D02*
D03*
Y235768D02*
D03*
Y235098D02*
D03*
Y234429D02*
D03*
Y233760D02*
D03*
Y233090D02*
D03*
Y232421D02*
D03*
Y231752D02*
D03*
Y231082D02*
D03*
Y230413D02*
D03*
Y229744D02*
D03*
Y229075D02*
D03*
Y228405D02*
D03*
Y227736D02*
D03*
Y227067D02*
D03*
Y226397D02*
D03*
Y225728D02*
D03*
Y225059D02*
D03*
Y224389D02*
D03*
X405516Y240453D02*
D03*
Y239783D02*
D03*
Y239114D02*
D03*
Y238445D02*
D03*
Y237775D02*
D03*
Y237106D02*
D03*
Y236437D02*
D03*
Y235768D02*
D03*
Y235098D02*
D03*
Y234429D02*
D03*
Y233760D02*
D03*
Y233090D02*
D03*
Y232421D02*
D03*
Y231752D02*
D03*
Y231082D02*
D03*
Y230413D02*
D03*
Y229744D02*
D03*
Y229075D02*
D03*
Y228405D02*
D03*
Y227736D02*
D03*
Y227067D02*
D03*
Y226397D02*
D03*
Y225728D02*
D03*
Y225059D02*
D03*
Y224389D02*
D03*
X404847Y240453D02*
D03*
Y239783D02*
D03*
Y239114D02*
D03*
Y238445D02*
D03*
Y237775D02*
D03*
Y237106D02*
D03*
Y236437D02*
D03*
Y235768D02*
D03*
Y235098D02*
D03*
Y234429D02*
D03*
Y233760D02*
D03*
Y233090D02*
D03*
Y232421D02*
D03*
Y231752D02*
D03*
Y231082D02*
D03*
Y230413D02*
D03*
Y229744D02*
D03*
Y229075D02*
D03*
Y228405D02*
D03*
Y227736D02*
D03*
Y227067D02*
D03*
Y226397D02*
D03*
Y225728D02*
D03*
Y225059D02*
D03*
Y224389D02*
D03*
X404177Y240453D02*
D03*
Y239783D02*
D03*
Y239114D02*
D03*
Y238445D02*
D03*
Y237775D02*
D03*
Y237106D02*
D03*
Y236437D02*
D03*
Y235768D02*
D03*
Y235098D02*
D03*
Y234429D02*
D03*
Y233760D02*
D03*
Y233090D02*
D03*
Y232421D02*
D03*
Y231752D02*
D03*
Y231082D02*
D03*
Y230413D02*
D03*
Y229744D02*
D03*
Y229075D02*
D03*
Y228405D02*
D03*
Y227736D02*
D03*
Y227067D02*
D03*
Y226397D02*
D03*
Y225728D02*
D03*
Y225059D02*
D03*
Y224389D02*
D03*
X403508Y240453D02*
D03*
Y239783D02*
D03*
Y239114D02*
D03*
Y238445D02*
D03*
Y237775D02*
D03*
Y237106D02*
D03*
Y236437D02*
D03*
Y235768D02*
D03*
Y235098D02*
D03*
Y234429D02*
D03*
Y233760D02*
D03*
Y233090D02*
D03*
Y232421D02*
D03*
Y231752D02*
D03*
Y231082D02*
D03*
Y230413D02*
D03*
Y229744D02*
D03*
Y229075D02*
D03*
Y228405D02*
D03*
Y227736D02*
D03*
Y227067D02*
D03*
Y226397D02*
D03*
Y225728D02*
D03*
Y225059D02*
D03*
Y224389D02*
D03*
X402839Y240453D02*
D03*
Y239783D02*
D03*
Y239114D02*
D03*
Y238445D02*
D03*
Y237775D02*
D03*
Y237106D02*
D03*
Y236437D02*
D03*
Y235768D02*
D03*
Y235098D02*
D03*
Y234429D02*
D03*
Y233760D02*
D03*
Y233090D02*
D03*
Y232421D02*
D03*
Y231752D02*
D03*
Y231082D02*
D03*
Y230413D02*
D03*
Y229744D02*
D03*
Y229075D02*
D03*
Y228405D02*
D03*
Y227736D02*
D03*
Y227067D02*
D03*
Y226397D02*
D03*
Y225728D02*
D03*
Y225059D02*
D03*
Y224389D02*
D03*
X402170Y240453D02*
D03*
Y239783D02*
D03*
Y238445D02*
D03*
Y237775D02*
D03*
Y236437D02*
D03*
Y235768D02*
D03*
Y235098D02*
D03*
Y234429D02*
D03*
Y233760D02*
D03*
Y233090D02*
D03*
Y232421D02*
D03*
Y231752D02*
D03*
Y231082D02*
D03*
Y230413D02*
D03*
Y229744D02*
D03*
Y229075D02*
D03*
Y227736D02*
D03*
Y227067D02*
D03*
Y225728D02*
D03*
Y225059D02*
D03*
Y224389D02*
D03*
X401500Y240453D02*
D03*
Y239783D02*
D03*
Y238445D02*
D03*
Y237775D02*
D03*
Y236437D02*
D03*
Y235768D02*
D03*
Y235098D02*
D03*
Y234429D02*
D03*
Y233760D02*
D03*
Y233090D02*
D03*
Y232421D02*
D03*
Y231752D02*
D03*
Y231082D02*
D03*
Y230413D02*
D03*
Y229744D02*
D03*
Y229075D02*
D03*
Y227736D02*
D03*
Y227067D02*
D03*
Y225728D02*
D03*
Y225059D02*
D03*
Y224389D02*
D03*
X400831Y240453D02*
D03*
Y239783D02*
D03*
Y238445D02*
D03*
Y237775D02*
D03*
Y236437D02*
D03*
Y235768D02*
D03*
Y235098D02*
D03*
Y234429D02*
D03*
Y233760D02*
D03*
Y233090D02*
D03*
Y232421D02*
D03*
Y231752D02*
D03*
Y231082D02*
D03*
Y230413D02*
D03*
Y229744D02*
D03*
Y229075D02*
D03*
Y227736D02*
D03*
Y227067D02*
D03*
Y225728D02*
D03*
Y225059D02*
D03*
Y224389D02*
D03*
X400162Y240453D02*
D03*
Y239783D02*
D03*
Y239114D02*
D03*
Y238445D02*
D03*
Y237775D02*
D03*
Y237106D02*
D03*
Y236437D02*
D03*
Y235768D02*
D03*
Y235098D02*
D03*
Y234429D02*
D03*
Y233760D02*
D03*
Y233090D02*
D03*
Y232421D02*
D03*
Y231752D02*
D03*
Y231082D02*
D03*
Y230413D02*
D03*
Y229744D02*
D03*
Y229075D02*
D03*
Y228405D02*
D03*
Y227736D02*
D03*
Y227067D02*
D03*
Y226397D02*
D03*
Y225728D02*
D03*
Y225059D02*
D03*
Y224389D02*
D03*
X399492Y240453D02*
D03*
Y239783D02*
D03*
Y239114D02*
D03*
Y238445D02*
D03*
Y237775D02*
D03*
Y237106D02*
D03*
Y236437D02*
D03*
Y235768D02*
D03*
Y235098D02*
D03*
Y234429D02*
D03*
Y233760D02*
D03*
Y233090D02*
D03*
Y232421D02*
D03*
Y231752D02*
D03*
Y231082D02*
D03*
Y230413D02*
D03*
Y229744D02*
D03*
Y229075D02*
D03*
Y228405D02*
D03*
Y227736D02*
D03*
Y227067D02*
D03*
Y226397D02*
D03*
Y225728D02*
D03*
Y225059D02*
D03*
Y224389D02*
D03*
X398823Y240453D02*
D03*
Y239783D02*
D03*
Y239114D02*
D03*
Y238445D02*
D03*
Y237775D02*
D03*
Y237106D02*
D03*
Y236437D02*
D03*
Y235768D02*
D03*
Y235098D02*
D03*
Y234429D02*
D03*
Y233760D02*
D03*
Y233090D02*
D03*
Y232421D02*
D03*
Y231752D02*
D03*
Y231082D02*
D03*
Y230413D02*
D03*
Y229744D02*
D03*
Y229075D02*
D03*
Y228405D02*
D03*
Y227736D02*
D03*
Y227067D02*
D03*
Y226397D02*
D03*
Y225728D02*
D03*
Y225059D02*
D03*
Y224389D02*
D03*
X398154Y240453D02*
D03*
Y239783D02*
D03*
Y239114D02*
D03*
Y238445D02*
D03*
Y237775D02*
D03*
Y237106D02*
D03*
Y236437D02*
D03*
Y235768D02*
D03*
Y235098D02*
D03*
Y234429D02*
D03*
Y233760D02*
D03*
Y233090D02*
D03*
Y232421D02*
D03*
Y231752D02*
D03*
Y231082D02*
D03*
Y230413D02*
D03*
Y229744D02*
D03*
Y229075D02*
D03*
Y228405D02*
D03*
Y227736D02*
D03*
Y227067D02*
D03*
Y226397D02*
D03*
Y225728D02*
D03*
Y225059D02*
D03*
Y224389D02*
D03*
X394138Y239783D02*
D03*
X409532Y237106D02*
D03*
X408862D02*
D03*
X410201D02*
D03*
D23*
X396000Y159000D02*
D03*
X401000Y171500D02*
D03*
X406000Y159000D02*
D03*
Y171500D02*
D03*
X396000D02*
D03*
D24*
X201805Y251367D02*
D03*
Y253926D02*
D03*
Y256485D02*
D03*
Y259044D02*
D03*
Y261603D02*
D03*
Y264162D02*
D03*
Y266721D02*
D03*
Y269280D02*
D03*
Y271839D02*
D03*
Y274398D02*
D03*
X179758Y251367D02*
D03*
Y253926D02*
D03*
Y256485D02*
D03*
Y259044D02*
D03*
Y261603D02*
D03*
Y264162D02*
D03*
Y266721D02*
D03*
Y269280D02*
D03*
Y271839D02*
D03*
Y274398D02*
D03*
X67805Y250867D02*
D03*
Y253426D02*
D03*
Y255985D02*
D03*
Y258544D02*
D03*
Y261103D02*
D03*
Y263662D02*
D03*
Y266221D02*
D03*
Y268780D02*
D03*
Y271339D02*
D03*
Y273898D02*
D03*
X45758Y250867D02*
D03*
Y253426D02*
D03*
Y255985D02*
D03*
Y258544D02*
D03*
Y261103D02*
D03*
Y263662D02*
D03*
Y266221D02*
D03*
Y268780D02*
D03*
Y271339D02*
D03*
Y273898D02*
D03*
D25*
X180118Y347307D02*
D03*
X177559D02*
D03*
X175000D02*
D03*
X172441D02*
D03*
X169882D02*
D03*
X167323D02*
D03*
X164764D02*
D03*
X180118Y325457D02*
D03*
X177559D02*
D03*
X175000D02*
D03*
X172441D02*
D03*
X169882D02*
D03*
X167323D02*
D03*
X164764D02*
D03*
X219118Y347307D02*
D03*
X216559D02*
D03*
X214000D02*
D03*
X211441D02*
D03*
X208882D02*
D03*
X206323D02*
D03*
X203764D02*
D03*
X219118Y325457D02*
D03*
X216559D02*
D03*
X214000D02*
D03*
X211441D02*
D03*
X208882D02*
D03*
X206323D02*
D03*
X203764D02*
D03*
D26*
X518292Y43197D02*
D03*
X506481D02*
D03*
X66905Y374000D02*
D03*
X55094D02*
D03*
X36406Y163500D02*
D03*
X24595D02*
D03*
D27*
X84031Y204724D02*
D03*
X97531D02*
D03*
X47000Y203500D02*
D03*
X33500D02*
D03*
X153982Y205083D02*
D03*
X167482D02*
D03*
X207031Y203724D02*
D03*
X220531D02*
D03*
X289282Y203883D02*
D03*
X275782D02*
D03*
D28*
X451205Y93700D02*
D03*
X444705D02*
D03*
X39682Y248383D02*
D03*
X33182D02*
D03*
X39482Y259383D02*
D03*
X32982D02*
D03*
X360500Y113000D02*
D03*
X367000D02*
D03*
X215082Y251083D02*
D03*
X208582D02*
D03*
Y257483D02*
D03*
X215082D02*
D03*
X162582Y272483D02*
D03*
X169082D02*
D03*
X173482Y259883D02*
D03*
X166982D02*
D03*
X173682Y248883D02*
D03*
X167182D02*
D03*
X267182Y259383D02*
D03*
X260682D02*
D03*
X279682D02*
D03*
X273182D02*
D03*
X291782D02*
D03*
X285282D02*
D03*
X146495Y261697D02*
D03*
X152995D02*
D03*
X134095D02*
D03*
X140595D02*
D03*
X121695D02*
D03*
X128195D02*
D03*
X266000Y204000D02*
D03*
X259500D02*
D03*
X234282Y267383D02*
D03*
X227782D02*
D03*
X85933Y352674D02*
D03*
X92433D02*
D03*
X114233Y353118D02*
D03*
X107733D02*
D03*
X121133D02*
D03*
X127633D02*
D03*
X145033D02*
D03*
X138533D02*
D03*
D29*
X121531Y127514D02*
D03*
Y125014D02*
D03*
D30*
X58000Y189500D02*
D03*
Y196000D02*
D03*
X372000Y108500D02*
D03*
Y102000D02*
D03*
X174282Y276483D02*
D03*
Y282983D02*
D03*
X144304Y198583D02*
D03*
Y205083D02*
D03*
X240231Y202824D02*
D03*
Y196324D02*
D03*
X221782Y272383D02*
D03*
Y278883D02*
D03*
X117231Y203824D02*
D03*
Y197324D02*
D03*
X85933Y327474D02*
D03*
Y320974D02*
D03*
X121133Y327474D02*
D03*
Y320974D02*
D03*
X91733Y321074D02*
D03*
Y314574D02*
D03*
X111133Y327196D02*
D03*
Y320696D02*
D03*
X126933Y313874D02*
D03*
Y320374D02*
D03*
X143533Y327374D02*
D03*
Y320874D02*
D03*
X451205Y81200D02*
D03*
Y87700D02*
D03*
X430697Y49708D02*
D03*
Y56208D02*
D03*
X436697D02*
D03*
Y49708D02*
D03*
D31*
X33482Y243083D02*
D03*
X38482D02*
D03*
X52482Y233783D02*
D03*
X57482D02*
D03*
X23982Y219583D02*
D03*
X18982D02*
D03*
X52482Y223583D02*
D03*
X57482D02*
D03*
X59482Y240683D02*
D03*
X54482D02*
D03*
X59482Y245283D02*
D03*
X54482D02*
D03*
X193482Y245783D02*
D03*
X188482D02*
D03*
X193482Y241183D02*
D03*
X188482D02*
D03*
X186482Y224083D02*
D03*
X191482D02*
D03*
X157982Y220083D02*
D03*
X152982D02*
D03*
X186482Y234283D02*
D03*
X191482D02*
D03*
X167482Y243583D02*
D03*
X172482D02*
D03*
X315782Y232383D02*
D03*
X310782D02*
D03*
X192282Y227883D02*
D03*
X197282D02*
D03*
X212231Y243224D02*
D03*
X207231D02*
D03*
X294982Y242583D02*
D03*
X289982D02*
D03*
X275482Y219083D02*
D03*
X280482D02*
D03*
X315282Y222883D02*
D03*
X310282D02*
D03*
X89231Y244224D02*
D03*
X84231D02*
D03*
X69282Y228883D02*
D03*
X74282D02*
D03*
X220941Y354467D02*
D03*
X215941D02*
D03*
X178441Y318382D02*
D03*
X183441D02*
D03*
X217441Y317882D02*
D03*
X222441D02*
D03*
X183441Y351882D02*
D03*
X188441D02*
D03*
X418106Y69584D02*
D03*
X423105D02*
D03*
X449106Y68384D02*
D03*
X444105D02*
D03*
X462605Y81700D02*
D03*
X457606D02*
D03*
D32*
X135682Y236483D02*
D03*
Y231483D02*
D03*
X130482Y236483D02*
D03*
Y231483D02*
D03*
X226231Y224724D02*
D03*
Y219724D02*
D03*
X231631Y224724D02*
D03*
Y229724D02*
D03*
X258282Y230455D02*
D03*
Y235455D02*
D03*
X227331Y238693D02*
D03*
Y233693D02*
D03*
X231631Y238693D02*
D03*
Y233693D02*
D03*
X252982Y230483D02*
D03*
Y235483D02*
D03*
X108631Y239693D02*
D03*
Y234693D02*
D03*
X104331Y239693D02*
D03*
Y234693D02*
D03*
X108631Y225724D02*
D03*
Y230724D02*
D03*
X103231Y225724D02*
D03*
Y220724D02*
D03*
X461005Y61900D02*
D03*
Y56900D02*
D03*
X475500Y74500D02*
D03*
Y69500D02*
D03*
X443700Y86200D02*
D03*
Y81200D02*
D03*
X431121Y90706D02*
D03*
Y85706D02*
D03*
X437121D02*
D03*
Y90706D02*
D03*
X432000Y100800D02*
D03*
Y95800D02*
D03*
X436200Y100700D02*
D03*
Y95700D02*
D03*
D33*
X419306Y65184D02*
D03*
X421805D02*
D03*
D88*
X289490Y18691D02*
D03*
X269490D02*
D03*
X289490Y38691D02*
D03*
X269490D02*
D03*
X263440Y143091D02*
D03*
X243440D02*
D03*
X263440Y163091D02*
D03*
X243440D02*
D03*
X310000Y160000D02*
D03*
Y180000D02*
D03*
X330000Y160000D02*
D03*
Y180000D02*
D03*
X310000Y105000D02*
D03*
Y125000D02*
D03*
X330000Y105000D02*
D03*
Y125000D02*
D03*
X310000Y285000D02*
D03*
Y305000D02*
D03*
X330000Y285000D02*
D03*
Y305000D02*
D03*
X310000Y340000D02*
D03*
Y360000D02*
D03*
X330000Y340000D02*
D03*
Y360000D02*
D03*
X365000Y300000D02*
D03*
Y320000D02*
D03*
X385000Y300000D02*
D03*
Y320000D02*
D03*
X420000Y300000D02*
D03*
Y320000D02*
D03*
X440000Y300000D02*
D03*
Y320000D02*
D03*
X475000Y285000D02*
D03*
Y305000D02*
D03*
X495000Y285000D02*
D03*
Y305000D02*
D03*
X475000Y340000D02*
D03*
Y360000D02*
D03*
X495000Y340000D02*
D03*
Y360000D02*
D03*
X529921Y303585D02*
D03*
Y323585D02*
D03*
X549921Y303585D02*
D03*
Y323585D02*
D03*
X529921Y248585D02*
D03*
Y268585D02*
D03*
X549921Y248585D02*
D03*
Y268585D02*
D03*
X529921Y193585D02*
D03*
Y213585D02*
D03*
X549921Y193585D02*
D03*
Y213585D02*
D03*
X529921Y138585D02*
D03*
Y158585D02*
D03*
X549921Y138585D02*
D03*
Y158585D02*
D03*
X475000Y160000D02*
D03*
Y180000D02*
D03*
X495000Y160000D02*
D03*
Y180000D02*
D03*
X475000Y105000D02*
D03*
Y125000D02*
D03*
X495000Y105000D02*
D03*
Y125000D02*
D03*
X182591Y142560D02*
D03*
Y162560D02*
D03*
X202591Y142560D02*
D03*
Y162560D02*
D03*
X106691Y28010D02*
D03*
Y48010D02*
D03*
X126691Y28010D02*
D03*
Y48010D02*
D03*
X40992Y134492D02*
D03*
X60992D02*
D03*
X40992Y114492D02*
D03*
X60992D02*
D03*
X40992Y78492D02*
D03*
X60992D02*
D03*
X40992Y58492D02*
D03*
X60992D02*
D03*
X111492Y158992D02*
D03*
X131492D02*
D03*
X111492Y138992D02*
D03*
X131492D02*
D03*
D89*
X396000Y120000D02*
D03*
X386000Y130000D02*
D03*
X406000D02*
D03*
Y110000D02*
D03*
X386000D02*
D03*
X452697Y27200D02*
D03*
X442697Y17200D02*
D03*
Y37200D02*
D03*
X462697D02*
D03*
Y17200D02*
D03*
X412700Y27200D02*
D03*
X402700Y17200D02*
D03*
Y37200D02*
D03*
X422700D02*
D03*
Y17200D02*
D03*
D90*
X23500Y189000D02*
D03*
X209500D02*
D03*
X499500Y81000D02*
D03*
X428500Y106000D02*
D03*
X439000Y105500D02*
D03*
X259992Y188492D02*
D03*
X138500Y188500D02*
D03*
X81492Y188992D02*
D03*
D91*
X261000Y362882D02*
D03*
X271000D02*
D03*
X261000Y352882D02*
D03*
X271000D02*
D03*
X261000Y342882D02*
D03*
X271000D02*
D03*
X261000Y332882D02*
D03*
X271000D02*
D03*
X261000Y322882D02*
D03*
X271000D02*
D03*
X261000Y312882D02*
D03*
X123500Y366000D02*
D03*
Y376000D02*
D03*
X133500Y366000D02*
D03*
Y376000D02*
D03*
X143500Y366000D02*
D03*
Y376000D02*
D03*
X153500Y366000D02*
D03*
Y376000D02*
D03*
X163500Y366000D02*
D03*
Y376000D02*
D03*
X173500Y366000D02*
D03*
Y376000D02*
D03*
X183500Y366000D02*
D03*
Y376000D02*
D03*
X193500Y366000D02*
D03*
Y376000D02*
D03*
X203500Y366000D02*
D03*
Y376000D02*
D03*
X213500Y366000D02*
D03*
X508000Y62000D02*
D03*
X518000D02*
D03*
X48000Y326000D02*
D03*
X36000Y189000D02*
D03*
X372000Y88500D02*
D03*
X362000D02*
D03*
X36841Y288532D02*
D03*
X46841D02*
D03*
X101500Y374000D02*
D03*
X91500D02*
D03*
X51000Y163500D02*
D03*
X79500Y173000D02*
D03*
Y163000D02*
D03*
X222782Y188914D02*
D03*
X270282Y188414D02*
D03*
X97282Y188914D02*
D03*
X150782D02*
D03*
X208774Y292906D02*
D03*
X218774D02*
D03*
X153782Y292883D02*
D03*
X163782D02*
D03*
X85782Y258383D02*
D03*
X95782D02*
D03*
X257000Y274000D02*
D03*
X267000D02*
D03*
X485500Y87000D02*
D03*
X500000Y21000D02*
D03*
X490000D02*
D03*
X483292Y42697D02*
D03*
X406005Y62267D02*
D03*
D92*
X271000Y312882D02*
D03*
X79500Y153000D02*
D03*
X485500Y77000D02*
D03*
X406005Y72267D02*
D03*
D93*
X213500Y376000D02*
D03*
X498000Y62000D02*
D03*
X58000Y326000D02*
D03*
X46000Y189000D02*
D03*
X382000Y88500D02*
D03*
X56841Y288532D02*
D03*
X81500Y374000D02*
D03*
X61000Y163500D02*
D03*
X232782Y188914D02*
D03*
X280282Y188414D02*
D03*
X107282Y188914D02*
D03*
X160782D02*
D03*
X228774Y292906D02*
D03*
X173782Y292883D02*
D03*
X105782Y258383D02*
D03*
X277000Y274000D02*
D03*
X510000Y21000D02*
D03*
X493292Y42697D02*
D03*
D94*
X540000Y30000D02*
D03*
Y360000D02*
D03*
X30000D02*
D03*
X30000Y30000D02*
D03*
M02*
