G04 Layer_Color=65535*
%FSLAX25Y25*%
%MOIN*%
G70*
G01*
G75*
%ADD37C,0.01000*%
%ADD38C,0.01200*%
%ADD39C,0.00500*%
%ADD42C,0.00800*%
%ADD111C,0.00984*%
%ADD112C,0.00394*%
%ADD113C,0.02362*%
%ADD114C,0.00787*%
%ADD115C,0.00200*%
D37*
X296990Y11191D02*
Y46191D01*
X261990Y11191D02*
X296990D01*
X261990D02*
Y46191D01*
X296990D01*
X392138Y243122D02*
X410878D01*
X412878Y241122D01*
Y222122D02*
Y241122D01*
X392138Y222122D02*
X412878D01*
X392138D02*
Y243122D01*
X391000Y152500D02*
Y178000D01*
Y152500D02*
X411000D01*
Y178000D01*
X391000D02*
X411000D01*
X270940Y135591D02*
Y170591D01*
X235940Y135591D02*
X270940D01*
X235940D02*
Y170591D01*
X270940D01*
X302500Y152500D02*
X337500D01*
X302500D02*
Y187500D01*
X337500D01*
Y152500D02*
Y187500D01*
X302500Y97500D02*
X337500D01*
X302500D02*
Y132500D01*
X337500D01*
Y97500D02*
Y132500D01*
X302500Y277500D02*
X337500D01*
X302500D02*
Y312500D01*
X337500D01*
Y277500D02*
Y312500D01*
X302500Y332500D02*
X337500D01*
X302500D02*
Y367500D01*
X337500D01*
Y332500D02*
Y367500D01*
X357500Y292500D02*
X392500D01*
X357500D02*
Y327500D01*
X392500D01*
Y292500D02*
Y327500D01*
X412500Y292500D02*
X447500D01*
X412500D02*
Y327500D01*
X447500D01*
Y292500D02*
Y327500D01*
X467500Y277500D02*
X502500D01*
X467500D02*
Y312500D01*
X502500D01*
Y277500D02*
Y312500D01*
X467500Y332500D02*
X502500D01*
X467500D02*
Y367500D01*
X502500D01*
Y332500D02*
Y367500D01*
X522421Y296085D02*
X557421D01*
X522421D02*
Y331085D01*
X557421D01*
Y296085D02*
Y331085D01*
X522421Y241085D02*
X557421D01*
X522421D02*
Y276085D01*
X557421D01*
Y241085D02*
Y276085D01*
X522421Y186085D02*
X557421D01*
X522421D02*
Y221085D01*
X557421D01*
Y186085D02*
Y221085D01*
X522421Y131085D02*
X557421D01*
X522421D02*
Y166085D01*
X557421D01*
Y131085D02*
Y166085D01*
X467500Y152500D02*
X502500D01*
X467500D02*
Y187500D01*
X502500D01*
Y152500D02*
Y187500D01*
X467500Y97500D02*
X502500D01*
X467500D02*
Y132500D01*
X502500D01*
Y97500D02*
Y132500D01*
X175091Y135060D02*
X210091D01*
X175091D02*
Y170060D01*
X210091D01*
Y135060D02*
Y170060D01*
X99191Y20510D02*
X134191D01*
X99191D02*
Y55510D01*
X134191D01*
Y20510D02*
Y55510D01*
X33492Y106992D02*
Y141992D01*
X68492D01*
Y106992D02*
Y141992D01*
X33492Y106992D02*
X68492D01*
X33492Y50992D02*
Y85992D01*
X68492D01*
Y50992D02*
Y85992D01*
X33492Y50992D02*
X68492D01*
X103992Y131492D02*
Y166492D01*
X138992D01*
Y131492D02*
Y166492D01*
X103992Y131492D02*
X138992D01*
D38*
X79031Y209724D02*
X86531D01*
X79031Y199724D02*
X86531D01*
X95031D02*
X102531D01*
X95031Y209724D02*
X102531D01*
X79031Y199724D02*
Y209724D01*
X102531Y199724D02*
Y209724D01*
X52000Y198500D02*
Y208500D01*
X28500Y198500D02*
Y208500D01*
X44500D02*
X52000D01*
X44500Y198500D02*
X52000D01*
X28500D02*
X36000D01*
X28500Y208500D02*
X36000D01*
X148982Y200083D02*
Y210083D01*
X172482Y200083D02*
Y210083D01*
X148982Y200083D02*
X156482D01*
X148982Y210083D02*
X156482D01*
X164982D02*
X172482D01*
X164982Y200083D02*
X172482D01*
X202031Y208724D02*
X209531D01*
X202031Y198724D02*
X209531D01*
X218031D02*
X225531D01*
X218031Y208724D02*
X225531D01*
X202031Y198724D02*
Y208724D01*
X225531Y198724D02*
Y208724D01*
X286782Y198883D02*
X294282D01*
X286782Y208883D02*
X294282D01*
X270782D02*
X278282D01*
X270782Y198883D02*
X278282D01*
X294282D02*
Y208883D01*
X270782Y198883D02*
Y208883D01*
D39*
X447205Y95500D02*
X448705D01*
X447205Y91900D02*
Y95500D01*
Y91900D02*
X448705D01*
Y95500D01*
X123331Y127014D02*
Y129314D01*
X119731D02*
X123331D01*
X119731Y127014D02*
Y129314D01*
Y123214D02*
Y125514D01*
Y123214D02*
X123331D01*
Y125514D01*
X56200Y193500D02*
X59800D01*
Y192000D02*
Y193500D01*
X56200Y192000D02*
X59800D01*
X56200D02*
Y193500D01*
X35482Y242083D02*
X36482D01*
Y244083D01*
X35482D02*
X36482D01*
X35482Y242083D02*
Y244083D01*
X54482Y232783D02*
X55482D01*
Y234783D01*
X54482D02*
X55482D01*
X54482Y232783D02*
Y234783D01*
X20982Y220583D02*
X21982D01*
X20982Y218583D02*
Y220583D01*
Y218583D02*
X21982D01*
Y220583D01*
X54482Y222583D02*
X55482D01*
Y224583D01*
X54482D02*
X55482D01*
X54482Y222583D02*
Y224583D01*
X35682Y250183D02*
X37182D01*
X35682Y246583D02*
Y250183D01*
Y246583D02*
X37182D01*
Y250183D01*
X35482Y261183D02*
X36982D01*
X35482Y257583D02*
Y261183D01*
Y257583D02*
X36982D01*
Y261183D01*
X56482Y239683D02*
Y241683D01*
X57482D01*
Y239683D02*
Y241683D01*
X56482Y239683D02*
X57482D01*
X56482Y244283D02*
Y246283D01*
X57482D01*
Y244283D02*
Y246283D01*
X56482Y244283D02*
X57482D01*
X364500Y111200D02*
Y114800D01*
X363000Y111200D02*
X364500D01*
X363000D02*
Y114800D01*
X364500D01*
X370200Y104500D02*
X373800D01*
X370200D02*
Y106000D01*
X373800D01*
Y104500D02*
Y106000D01*
X190482Y244783D02*
Y246783D01*
X191482D01*
Y244783D02*
Y246783D01*
X190482Y244783D02*
X191482D01*
X190482Y240183D02*
Y242183D01*
X191482D01*
Y240183D02*
Y242183D01*
X190482Y240183D02*
X191482D01*
X211082Y252883D02*
X212582D01*
X211082Y249283D02*
Y252883D01*
Y249283D02*
X212582D01*
Y252883D01*
X211082Y255683D02*
X212582D01*
Y259283D01*
X211082D02*
X212582D01*
X211082Y255683D02*
Y259283D01*
X165082Y270683D02*
X166582D01*
Y274283D01*
X165082D02*
X166582D01*
X165082Y270683D02*
Y274283D01*
X176082Y278983D02*
Y280483D01*
X172482D02*
X176082D01*
X172482Y278983D02*
Y280483D01*
Y278983D02*
X176082D01*
X169482Y261683D02*
X170982D01*
X169482Y258083D02*
Y261683D01*
Y258083D02*
X170982D01*
Y261683D01*
X169682Y250683D02*
X171182D01*
X169682Y247083D02*
Y250683D01*
Y247083D02*
X171182D01*
Y250683D01*
X134682Y233483D02*
Y234483D01*
Y233483D02*
X136682D01*
Y234483D01*
X134682D02*
X136682D01*
X129482Y233483D02*
Y234483D01*
Y233483D02*
X131482D01*
Y234483D01*
X129482D02*
X131482D01*
X188482Y223083D02*
X189482D01*
Y225083D01*
X188482D02*
X189482D01*
X188482Y223083D02*
Y225083D01*
X154982Y221083D02*
X155982D01*
X154982Y219083D02*
Y221083D01*
Y219083D02*
X155982D01*
Y221083D01*
X188482Y233283D02*
X189482D01*
Y235283D01*
X188482D02*
X189482D01*
X188482Y233283D02*
Y235283D01*
X169482Y242583D02*
X170482D01*
Y244583D01*
X169482D02*
X170482D01*
X169482Y242583D02*
Y244583D01*
X142504Y202583D02*
X146104D01*
Y201083D02*
Y202583D01*
X142504Y201083D02*
X146104D01*
X142504D02*
Y202583D01*
X263182Y261183D02*
X264682D01*
X263182Y257583D02*
Y261183D01*
Y257583D02*
X264682D01*
Y261183D01*
X275682D02*
X277182D01*
X275682Y257583D02*
Y261183D01*
Y257583D02*
X277182D01*
Y261183D01*
X287782D02*
X289282D01*
X287782Y257583D02*
Y261183D01*
Y257583D02*
X289282D01*
Y261183D01*
X148995Y259897D02*
X150495D01*
Y263497D01*
X148995D02*
X150495D01*
X148995Y259897D02*
Y263497D01*
X136595Y259897D02*
X138095D01*
Y263497D01*
X136595D02*
X138095D01*
X136595Y259897D02*
Y263497D01*
X124195Y259897D02*
X125695D01*
Y263497D01*
X124195D02*
X125695D01*
X124195Y259897D02*
Y263497D01*
X312782Y231383D02*
Y233383D01*
X313782D01*
Y231383D02*
Y233383D01*
X312782Y231383D02*
X313782D01*
X225231Y221724D02*
X227231D01*
X225231D02*
Y222724D01*
X227231D01*
Y221724D02*
Y222724D01*
X195282Y226883D02*
Y228883D01*
X194282Y226883D02*
X195282D01*
X194282D02*
Y228883D01*
X195282D01*
X230631Y227724D02*
X232631D01*
Y226724D02*
Y227724D01*
X230631Y226724D02*
X232631D01*
X230631D02*
Y227724D01*
X209231Y242224D02*
Y244224D01*
X210231D01*
Y242224D02*
Y244224D01*
X209231Y242224D02*
X210231D01*
X257282Y233455D02*
X259282D01*
Y232455D02*
Y233455D01*
X257282Y232455D02*
X259282D01*
X257282D02*
Y233455D01*
X226331Y235693D02*
X228331D01*
X226331D02*
Y236693D01*
X228331D01*
Y235693D02*
Y236693D01*
X230631Y235693D02*
X232631D01*
X230631D02*
Y236693D01*
X232631D01*
Y235693D02*
Y236693D01*
X251982Y233483D02*
X253982D01*
Y232483D02*
Y233483D01*
X251982Y232483D02*
X253982D01*
X251982D02*
Y233483D01*
X291982Y241583D02*
Y243583D01*
X292982D01*
Y241583D02*
Y243583D01*
X291982Y241583D02*
X292982D01*
X278482Y218083D02*
Y220083D01*
X277482Y218083D02*
X278482D01*
X277482D02*
Y220083D01*
X278482D01*
X312282Y221883D02*
Y223883D01*
X313282D01*
Y221883D02*
Y223883D01*
X312282Y221883D02*
X313282D01*
X262000Y205800D02*
X263500D01*
X262000Y202200D02*
Y205800D01*
Y202200D02*
X263500D01*
Y205800D01*
X238431Y198824D02*
Y200324D01*
Y198824D02*
X242031D01*
Y200324D01*
X238431D02*
X242031D01*
X230282Y269183D02*
X231782D01*
X230282Y265583D02*
Y269183D01*
Y265583D02*
X231782D01*
Y269183D01*
X223582Y274883D02*
Y276383D01*
X219982D02*
X223582D01*
X219982Y274883D02*
Y276383D01*
Y274883D02*
X223582D01*
X115431Y199824D02*
Y201324D01*
Y199824D02*
X119031D01*
Y201324D01*
X115431D02*
X119031D01*
X107631Y236693D02*
X109631D01*
X107631D02*
Y237693D01*
X109631D01*
Y236693D02*
Y237693D01*
X103331Y236693D02*
X105331D01*
X103331D02*
Y237693D01*
X105331D01*
Y236693D02*
Y237693D01*
X86231Y243224D02*
Y245224D01*
X87231D01*
Y243224D02*
Y245224D01*
X86231Y243224D02*
X87231D01*
X107631Y228724D02*
X109631D01*
Y227724D02*
Y228724D01*
X107631Y227724D02*
X109631D01*
X107631D02*
Y228724D01*
X72282Y227883D02*
Y229883D01*
X71282Y227883D02*
X72282D01*
X71282D02*
Y229883D01*
X72282D01*
X102231Y222724D02*
X104231D01*
X102231D02*
Y223724D01*
X104231D01*
Y222724D02*
Y223724D01*
X217941Y355467D02*
X218941D01*
X217941Y353467D02*
Y355467D01*
Y353467D02*
X218941D01*
Y355467D01*
X180441Y317382D02*
X181441D01*
Y319382D01*
X180441D02*
X181441D01*
X180441Y317382D02*
Y319382D01*
X84133Y323474D02*
Y324974D01*
Y323474D02*
X87733D01*
Y324974D01*
X84133D02*
X87733D01*
X119333Y323474D02*
Y324974D01*
Y323474D02*
X122933D01*
Y324974D01*
X119333D02*
X122933D01*
X89933Y317074D02*
Y318574D01*
Y317074D02*
X93533D01*
Y318574D01*
X89933D02*
X93533D01*
X109333Y323196D02*
Y324696D01*
Y323196D02*
X112933D01*
Y324696D01*
X109333D02*
X112933D01*
X88433Y350874D02*
X89933D01*
Y354474D01*
X88433D02*
X89933D01*
X88433Y350874D02*
Y354474D01*
X110233Y354918D02*
X111733D01*
X110233Y351318D02*
Y354918D01*
Y351318D02*
X111733D01*
Y354918D01*
X128733Y316374D02*
Y317874D01*
X125133D02*
X128733D01*
X125133Y316374D02*
Y317874D01*
Y316374D02*
X128733D01*
X141733Y323374D02*
Y324874D01*
Y323374D02*
X145333D01*
Y324874D01*
X141733D02*
X145333D01*
X123633Y351318D02*
X125133D01*
Y354918D01*
X123633D02*
X125133D01*
X123633Y351318D02*
Y354918D01*
X141033D02*
X142533D01*
X141033Y351318D02*
Y354918D01*
Y351318D02*
X142533D01*
Y354918D01*
X219441Y316882D02*
X220441D01*
Y318882D01*
X219441D02*
X220441D01*
X219441Y316882D02*
Y318882D01*
X185441Y350882D02*
X186441D01*
Y352882D01*
X185441D02*
X186441D01*
X185441Y350882D02*
Y352882D01*
X460006Y58900D02*
Y59900D01*
Y58900D02*
X462006D01*
Y59900D01*
X460006D02*
X462006D01*
X474500Y71500D02*
Y72500D01*
Y71500D02*
X476500D01*
Y72500D01*
X474500D02*
X476500D01*
X421105Y68584D02*
Y70584D01*
X420106Y68584D02*
X421105D01*
X420106D02*
Y70584D01*
X421105D01*
X446105Y67384D02*
Y69384D01*
X447106D01*
Y67384D02*
Y69384D01*
X446105Y67384D02*
X447106D01*
X417506Y63384D02*
X419805D01*
X417506D02*
Y66984D01*
X419805D01*
X421306D02*
X423605D01*
Y63384D02*
Y66984D01*
X421306Y63384D02*
X423605D01*
X442700Y83200D02*
X444700D01*
X442700D02*
Y84200D01*
X444700D01*
Y83200D02*
Y84200D01*
X430121Y87705D02*
X432121D01*
X430121D02*
Y88705D01*
X432121D01*
Y87705D02*
Y88705D01*
X436121D02*
X438121D01*
Y87705D02*
Y88705D01*
X436121Y87705D02*
X438121D01*
X436121D02*
Y88705D01*
X431000Y98800D02*
X433000D01*
Y97800D02*
Y98800D01*
X431000Y97800D02*
X433000D01*
X431000D02*
Y98800D01*
X453006Y83700D02*
Y85200D01*
X449405D02*
X453006D01*
X449405Y83700D02*
Y85200D01*
Y83700D02*
X453006D01*
X435200Y98700D02*
X437200D01*
Y97700D02*
Y98700D01*
X435200Y97700D02*
X437200D01*
X435200D02*
Y98700D01*
X428897Y53708D02*
X432497D01*
Y52208D02*
Y53708D01*
X428897Y52208D02*
X432497D01*
X428897D02*
Y53708D01*
X434897Y52208D02*
X438497D01*
X434897D02*
Y53708D01*
X438497D01*
Y52208D02*
Y53708D01*
X459606Y82700D02*
X460605D01*
X459606Y80700D02*
Y82700D01*
Y80700D02*
X460605D01*
Y82700D01*
X87731Y217323D02*
Y215240D01*
X88147Y214824D01*
X88980D01*
X89397Y215240D01*
Y217323D01*
X90230Y214824D02*
X91063D01*
X90646D01*
Y217323D01*
X90230Y216906D01*
X454698Y67708D02*
X456781D01*
X457197Y68125D01*
Y68958D01*
X456781Y69374D01*
X454698D01*
X457197Y71873D02*
Y70207D01*
X455531Y71873D01*
X455115D01*
X454698Y71457D01*
Y70624D01*
X455115Y70207D01*
Y72707D02*
X454698Y73123D01*
Y73956D01*
X455115Y74373D01*
X456781D01*
X457197Y73956D01*
Y73123D01*
X456781Y72707D01*
X455115D01*
X264166Y8083D02*
X263750Y8499D01*
X262916D01*
X262500Y8083D01*
Y7666D01*
X262916Y7250D01*
X263750D01*
X264166Y6833D01*
Y6417D01*
X263750Y6000D01*
X262916D01*
X262500Y6417D01*
X264999Y6000D02*
Y8499D01*
X265832Y7666D01*
X266665Y8499D01*
Y6000D01*
X267498D02*
Y7666D01*
X268331Y8499D01*
X269164Y7666D01*
Y6000D01*
Y7250D01*
X267498D01*
X269998Y5584D02*
X271664D01*
X272497Y8499D02*
X274163D01*
X273330D01*
Y6000D01*
X274996Y8499D02*
Y6000D01*
Y7250D01*
X276662D01*
Y8499D01*
Y6000D01*
X277495D02*
Y8499D01*
X278745D01*
X279161Y8083D01*
Y7250D01*
X278745Y6833D01*
X277495D01*
X278328D02*
X279161Y6000D01*
X279994Y8499D02*
Y6417D01*
X280411Y6000D01*
X281244D01*
X281660Y6417D01*
Y8499D01*
X282493Y5584D02*
X284160D01*
X284993Y8499D02*
Y6000D01*
X286659D01*
X287492Y8499D02*
X288325D01*
X287908D01*
Y6000D01*
X287492D01*
X288325D01*
X289575D02*
Y8499D01*
X291241Y6000D01*
Y8499D01*
X292074D02*
Y6000D01*
Y6833D01*
X293740Y8499D01*
X292490Y7250D01*
X293740Y6000D01*
X294573Y8083D02*
X294989Y8499D01*
X295823D01*
X296239Y8083D01*
Y6417D01*
X295823Y6000D01*
X294989D01*
X294573Y6417D01*
Y8083D01*
X385166Y102083D02*
X384750Y102499D01*
X383916D01*
X383500Y102083D01*
Y101666D01*
X383916Y101250D01*
X384750D01*
X385166Y100833D01*
Y100417D01*
X384750Y100000D01*
X383916D01*
X383500Y100417D01*
X385999Y100000D02*
Y102499D01*
X386832Y101666D01*
X387665Y102499D01*
Y100000D01*
X388498D02*
Y101666D01*
X389331Y102499D01*
X390164Y101666D01*
Y100000D01*
Y101250D01*
X388498D01*
X390998Y99584D02*
X392664D01*
X393497Y102499D02*
Y100000D01*
X394746D01*
X395163Y100417D01*
Y102083D01*
X394746Y102499D01*
X393497D01*
X395996D02*
X396829D01*
X396412D01*
Y100000D01*
X395996D01*
X396829D01*
X399745Y102083D02*
X399328Y102499D01*
X398495D01*
X398079Y102083D01*
Y100417D01*
X398495Y100000D01*
X399328D01*
X399745Y100417D01*
Y101250D01*
X398912D01*
X400578Y99584D02*
X402244D01*
X404743Y102083D02*
X404327Y102499D01*
X403493D01*
X403077Y102083D01*
Y100417D01*
X403493Y100000D01*
X404327D01*
X404743Y100417D01*
X405576Y102499D02*
Y100000D01*
X407242D01*
X408075Y102499D02*
Y100000D01*
Y100833D01*
X409741Y102499D01*
X408492Y101250D01*
X409741Y100000D01*
X433615Y14374D02*
X433198Y13958D01*
Y13125D01*
X433615Y12708D01*
X434031D01*
X434448Y13125D01*
Y13958D01*
X434864Y14374D01*
X435281D01*
X435697Y13958D01*
Y13125D01*
X435281Y12708D01*
X435697Y15207D02*
X433198D01*
X434031Y16040D01*
X433198Y16873D01*
X435697D01*
Y17706D02*
X434031D01*
X433198Y18540D01*
X434031Y19373D01*
X435697D01*
X434448D01*
Y17706D01*
X436114Y20206D02*
Y21872D01*
X435697Y22705D02*
X434031D01*
X433198Y23538D01*
X434031Y24371D01*
X435697D01*
X434448D01*
Y22705D01*
X435697Y25204D02*
X433198D01*
X435697Y26870D01*
X433198D01*
X435697Y27703D02*
X434031D01*
X433198Y28536D01*
X434031Y29369D01*
X435697D01*
X434448D01*
Y27703D01*
X436114Y30202D02*
Y31869D01*
X435697Y32702D02*
X433198D01*
Y33951D01*
X433615Y34368D01*
X434448D01*
X434864Y33951D01*
Y32702D01*
X2000Y195499D02*
X3666D01*
X2833D01*
Y193000D01*
X4499D02*
Y195499D01*
X5749D01*
X6165Y195083D01*
Y194250D01*
X5749Y193833D01*
X4499D01*
X6998Y192584D02*
X8664D01*
X11164Y195083D02*
X10747Y195499D01*
X9914D01*
X9498Y195083D01*
Y193417D01*
X9914Y193000D01*
X10747D01*
X11164Y193417D01*
Y194250D01*
X10331D01*
X11997Y193000D02*
Y194666D01*
X12830Y195499D01*
X13663Y194666D01*
Y193000D01*
Y194250D01*
X11997D01*
X14496Y195499D02*
X16162D01*
X15329D01*
Y193000D01*
X18661Y195499D02*
X16995D01*
Y193000D01*
X18661D01*
X16995Y194250D02*
X17828D01*
X19494Y192584D02*
X21160D01*
X21993Y195499D02*
Y193000D01*
X23660D01*
X24493Y195499D02*
X25326D01*
X24909D01*
Y193000D01*
X24493D01*
X25326D01*
X26575D02*
Y195499D01*
X28242Y193000D01*
Y195499D01*
X29075D02*
Y193000D01*
Y193833D01*
X30741Y195499D01*
X29491Y194250D01*
X30741Y193000D01*
X189500Y195499D02*
X191166D01*
X190333D01*
Y193000D01*
X191999D02*
Y195499D01*
X193249D01*
X193665Y195083D01*
Y194250D01*
X193249Y193833D01*
X191999D01*
X194498Y192584D02*
X196165D01*
X196998Y195499D02*
Y193833D01*
X197831Y193000D01*
X198664Y193833D01*
Y195499D01*
X199497D02*
Y193000D01*
X200746D01*
X201163Y193417D01*
Y195083D01*
X200746Y195499D01*
X199497D01*
X201996D02*
Y193000D01*
X203246D01*
X203662Y193417D01*
Y195083D01*
X203246Y195499D01*
X201996D01*
X204495Y192584D02*
X206161D01*
X206994Y195499D02*
Y193000D01*
X208661D01*
X209493Y195499D02*
X210327D01*
X209910D01*
Y193000D01*
X209493D01*
X210327D01*
X211576D02*
Y195499D01*
X213242Y193000D01*
Y195499D01*
X214075D02*
Y193000D01*
Y193833D01*
X215741Y195499D01*
X214492Y194250D01*
X215741Y193000D01*
X496000Y87499D02*
X497666D01*
X496833D01*
Y85000D01*
X498499D02*
Y87499D01*
X499749D01*
X500165Y87083D01*
Y86250D01*
X499749Y85833D01*
X498499D01*
X500998Y84583D02*
X502665D01*
X503498Y87499D02*
Y85833D01*
X504331Y85000D01*
X505164Y85833D01*
Y87499D01*
X505997D02*
Y85000D01*
X507246D01*
X507663Y85417D01*
Y87083D01*
X507246Y87499D01*
X505997D01*
X508496D02*
Y85000D01*
X509746D01*
X510162Y85417D01*
Y87083D01*
X509746Y87499D01*
X508496D01*
X510995Y84583D02*
X512661D01*
X513494Y87499D02*
Y85000D01*
X514744D01*
X515161Y85417D01*
Y85833D01*
X514744Y86250D01*
X513494D01*
X514744D01*
X515161Y86666D01*
Y87083D01*
X514744Y87499D01*
X513494D01*
X515993D02*
Y85417D01*
X516410Y85000D01*
X517243D01*
X517660Y85417D01*
Y87499D01*
X520159D02*
X518493D01*
Y86250D01*
X519326D01*
X518493D01*
Y85000D01*
X522658Y87499D02*
X520992D01*
Y86250D01*
X521825D01*
X520992D01*
Y85000D01*
X525157Y87499D02*
X523491D01*
Y85000D01*
X525157D01*
X523491Y86250D02*
X524324D01*
X525990Y85000D02*
Y87499D01*
X527240D01*
X527656Y87083D01*
Y86250D01*
X527240Y85833D01*
X525990D01*
X526823D02*
X527656Y85000D01*
X140834Y333674D02*
X142916D01*
X143333Y334090D01*
Y334923D01*
X142916Y335340D01*
X140834D01*
Y337839D02*
Y336173D01*
X142083D01*
X141667Y337006D01*
Y337422D01*
X142083Y337839D01*
X142916D01*
X143333Y337422D01*
Y336589D01*
X142916Y336173D01*
X126199Y228199D02*
Y226117D01*
X126616Y225700D01*
X127449D01*
X127865Y226117D01*
Y228199D01*
X128698Y227783D02*
X129115Y228199D01*
X129948D01*
X130365Y227783D01*
Y227366D01*
X129948Y226950D01*
X130365Y226533D01*
Y226117D01*
X129948Y225700D01*
X129115D01*
X128698Y226117D01*
Y226533D01*
X129115Y226950D01*
X128698Y227366D01*
Y227783D01*
X129115Y226950D02*
X129948D01*
X419500Y84999D02*
Y82916D01*
X419916Y82500D01*
X420750D01*
X421166Y82916D01*
Y84999D01*
X421999Y82500D02*
X422832D01*
X422416D01*
Y84999D01*
X421999Y84583D01*
X424082Y82916D02*
X424498Y82500D01*
X425331D01*
X425748Y82916D01*
Y84583D01*
X425331Y84999D01*
X424498D01*
X424082Y84583D01*
Y84166D01*
X424498Y83750D01*
X425748D01*
X278500Y365999D02*
Y363500D01*
Y364750D01*
X280166D01*
Y365999D01*
Y363500D01*
X280999Y363916D02*
X281416Y363500D01*
X282249D01*
X282665Y363916D01*
Y365583D01*
X282249Y365999D01*
X281416D01*
X280999Y365583D01*
Y365166D01*
X281416Y364750D01*
X282665D01*
X262000Y370500D02*
Y371333D01*
Y370917D01*
X259501D01*
X259917Y370500D01*
X262000Y374249D02*
Y372583D01*
X260334Y374249D01*
X259917D01*
X259501Y373832D01*
Y372999D01*
X259917Y372583D01*
X273000Y373500D02*
Y374333D01*
Y373917D01*
X270501D01*
X270917Y373500D01*
X273000Y370882D02*
Y371715D01*
Y371298D01*
X270501D01*
X270917Y370882D01*
X273000Y302882D02*
Y303715D01*
Y303298D01*
X270501D01*
X270917Y302882D01*
X263000Y304548D02*
Y302882D01*
X261334Y304548D01*
X260917D01*
X260501Y304132D01*
Y303298D01*
X260917Y302882D01*
X226067Y371126D02*
Y373625D01*
X227317D01*
X227733Y373209D01*
Y372376D01*
X227317Y371959D01*
X226067D01*
X228566Y371126D02*
X229399D01*
X228983D01*
Y373625D01*
X228566Y373209D01*
X517508Y71507D02*
Y69008D01*
Y70258D01*
X519174D01*
Y71507D01*
Y69008D01*
X521673Y71507D02*
X520007D01*
Y70258D01*
X520840Y70674D01*
X521257D01*
X521673Y70258D01*
Y69425D01*
X521257Y69008D01*
X520424D01*
X520007Y69425D01*
X43000Y335499D02*
Y333000D01*
Y334250D01*
X44666D01*
Y335499D01*
Y333000D01*
X47165D02*
X45499D01*
X47165Y334666D01*
Y335083D01*
X46749Y335499D01*
X45916D01*
X45499Y335083D01*
X47998D02*
X48415Y335499D01*
X49248D01*
X49665Y335083D01*
Y333417D01*
X49248Y333000D01*
X48415D01*
X47998Y333417D01*
Y335083D01*
X392176Y248613D02*
Y246530D01*
X392593Y246114D01*
X393426D01*
X393842Y246530D01*
Y248613D01*
X396342Y246114D02*
X394675D01*
X396342Y247780D01*
Y248196D01*
X395925Y248613D01*
X395092D01*
X394675Y248196D01*
X391000Y182499D02*
Y180000D01*
X392250D01*
X392666Y180417D01*
Y180833D01*
X392250Y181250D01*
X391000D01*
X392250D01*
X392666Y181666D01*
Y182083D01*
X392250Y182499D01*
X391000D01*
X393499D02*
Y180000D01*
X395165D01*
X397664D02*
X395998D01*
X397664Y181666D01*
Y182083D01*
X397248Y182499D01*
X396415D01*
X395998Y182083D01*
X188482Y279782D02*
Y277699D01*
X188898Y277283D01*
X189731D01*
X190148Y277699D01*
Y279782D01*
X192647Y277283D02*
X190981D01*
X192647Y278949D01*
Y279365D01*
X192231Y279782D01*
X191398D01*
X190981Y279365D01*
X156500Y336999D02*
Y334916D01*
X156916Y334500D01*
X157750D01*
X158166Y334916D01*
Y336999D01*
X160249Y334500D02*
Y336999D01*
X158999Y335750D01*
X160665D01*
X523709Y41363D02*
X523293Y40947D01*
Y40114D01*
X523709Y39697D01*
X525375D01*
X525792Y40114D01*
Y40947D01*
X525375Y41363D01*
X523293Y43863D02*
X523709Y43030D01*
X524542Y42197D01*
X525375D01*
X525792Y42613D01*
Y43446D01*
X525375Y43863D01*
X524959D01*
X524542Y43446D01*
Y42197D01*
X523293Y44696D02*
Y46362D01*
X523709D01*
X525375Y44696D01*
X525792D01*
X86531Y209724D02*
Y212223D01*
X87780D01*
X88197Y211806D01*
Y210973D01*
X87780Y210557D01*
X86531D01*
X87364D02*
X88197Y209724D01*
X89030Y211806D02*
X89446Y212223D01*
X90280D01*
X90696Y211806D01*
Y211390D01*
X90280Y210973D01*
X89863D01*
X90280D01*
X90696Y210557D01*
Y210140D01*
X90280Y209724D01*
X89446D01*
X89030Y210140D01*
X91529Y211806D02*
X91946Y212223D01*
X92779D01*
X93195Y211806D01*
Y211390D01*
X92779Y210973D01*
X93195Y210557D01*
Y210140D01*
X92779Y209724D01*
X91946D01*
X91529Y210140D01*
Y210557D01*
X91946Y210973D01*
X91529Y211390D01*
Y211806D01*
X91946Y210973D02*
X92779D01*
X238166Y174583D02*
X237750Y174999D01*
X236916D01*
X236500Y174583D01*
Y174166D01*
X236916Y173750D01*
X237750D01*
X238166Y173333D01*
Y172916D01*
X237750Y172500D01*
X236916D01*
X236500Y172916D01*
X238999Y172500D02*
Y174999D01*
X239832Y174166D01*
X240665Y174999D01*
Y172500D01*
X241498D02*
Y174166D01*
X242331Y174999D01*
X243164Y174166D01*
Y172500D01*
Y173750D01*
X241498D01*
X243998Y172083D02*
X245664D01*
X246497Y174999D02*
X248163D01*
X247330D01*
Y172500D01*
X248996Y174999D02*
Y172500D01*
Y173750D01*
X250662D01*
Y174999D01*
Y172500D01*
X251495D02*
Y174999D01*
X252745D01*
X253161Y174583D01*
Y173750D01*
X252745Y173333D01*
X251495D01*
X252328D02*
X253161Y172500D01*
X253994Y174999D02*
Y172916D01*
X254411Y172500D01*
X255244D01*
X255660Y172916D01*
Y174999D01*
X256493Y172083D02*
X258160D01*
X258993Y174999D02*
Y172500D01*
X260659D01*
X261492Y174999D02*
X262325D01*
X261908D01*
Y172500D01*
X261492D01*
X262325D01*
X263575D02*
Y174999D01*
X265241Y172500D01*
Y174999D01*
X266074D02*
Y172500D01*
Y173333D01*
X267740Y174999D01*
X266490Y173750D01*
X267740Y172500D01*
X268573D02*
X269406D01*
X268989D01*
Y174999D01*
X268573Y174583D01*
X307666Y192083D02*
X307250Y192499D01*
X306417D01*
X306000Y192083D01*
Y191666D01*
X306417Y191250D01*
X307250D01*
X307666Y190833D01*
Y190417D01*
X307250Y190000D01*
X306417D01*
X306000Y190417D01*
X308499Y190000D02*
Y192499D01*
X309332Y191666D01*
X310165Y192499D01*
Y190000D01*
X310998D02*
Y191666D01*
X311831Y192499D01*
X312665Y191666D01*
Y190000D01*
Y191250D01*
X310998D01*
X313498Y189584D02*
X315164D01*
X315997Y190000D02*
Y191666D01*
X316830Y192499D01*
X317663Y191666D01*
Y190000D01*
Y191250D01*
X315997D01*
X318496Y190000D02*
Y192499D01*
X320162Y190000D01*
Y192499D01*
X320995D02*
X322661D01*
X321828D01*
Y190000D01*
X323494Y189584D02*
X325161D01*
X327660Y190000D02*
X325993D01*
X327660Y191666D01*
Y192083D01*
X327243Y192499D01*
X326410D01*
X325993Y192083D01*
X328493Y189584D02*
X330159D01*
X330992Y190000D02*
Y192499D01*
X332658Y190000D01*
Y192499D01*
X308166Y95083D02*
X307750Y95499D01*
X306916D01*
X306500Y95083D01*
Y94666D01*
X306916Y94250D01*
X307750D01*
X308166Y93833D01*
Y93417D01*
X307750Y93000D01*
X306916D01*
X306500Y93417D01*
X308999Y93000D02*
Y95499D01*
X309832Y94666D01*
X310665Y95499D01*
Y93000D01*
X311498D02*
Y94666D01*
X312331Y95499D01*
X313164Y94666D01*
Y93000D01*
Y94250D01*
X311498D01*
X313998Y92584D02*
X315664D01*
X316497Y93000D02*
Y94666D01*
X317330Y95499D01*
X318163Y94666D01*
Y93000D01*
Y94250D01*
X316497D01*
X318996Y93000D02*
Y95499D01*
X320662Y93000D01*
Y95499D01*
X321495D02*
X323161D01*
X322328D01*
Y93000D01*
X323994Y92584D02*
X325660D01*
X328160Y93000D02*
X326494D01*
X328160Y94666D01*
Y95083D01*
X327743Y95499D01*
X326910D01*
X326494Y95083D01*
X328993Y92584D02*
X330659D01*
X331492Y93000D02*
Y95499D01*
X332741D01*
X333158Y95083D01*
Y94250D01*
X332741Y93833D01*
X331492D01*
X309666Y275083D02*
X309250Y275499D01*
X308417D01*
X308000Y275083D01*
Y274666D01*
X308417Y274250D01*
X309250D01*
X309666Y273833D01*
Y273416D01*
X309250Y273000D01*
X308417D01*
X308000Y273416D01*
X310499Y273000D02*
Y275499D01*
X311332Y274666D01*
X312165Y275499D01*
Y273000D01*
X312998D02*
Y274666D01*
X313831Y275499D01*
X314665Y274666D01*
Y273000D01*
Y274250D01*
X312998D01*
X315498Y272584D02*
X317164D01*
X317997Y273000D02*
Y274666D01*
X318830Y275499D01*
X319663Y274666D01*
Y273000D01*
Y274250D01*
X317997D01*
X320496Y273000D02*
Y275499D01*
X322162Y273000D01*
Y275499D01*
X322995D02*
X324661D01*
X323828D01*
Y273000D01*
X325494Y272584D02*
X327160D01*
X327993Y273000D02*
X328827D01*
X328410D01*
Y275499D01*
X327993Y275083D01*
X330076Y272584D02*
X331742D01*
X332575Y273000D02*
Y275499D01*
X334242Y273000D01*
Y275499D01*
X308166Y372083D02*
X307750Y372499D01*
X306916D01*
X306500Y372083D01*
Y371666D01*
X306916Y371250D01*
X307750D01*
X308166Y370833D01*
Y370416D01*
X307750Y370000D01*
X306916D01*
X306500Y370416D01*
X308999Y370000D02*
Y372499D01*
X309832Y371666D01*
X310665Y372499D01*
Y370000D01*
X311498D02*
Y371666D01*
X312331Y372499D01*
X313164Y371666D01*
Y370000D01*
Y371250D01*
X311498D01*
X313998Y369584D02*
X315664D01*
X316497Y370000D02*
Y371666D01*
X317330Y372499D01*
X318163Y371666D01*
Y370000D01*
Y371250D01*
X316497D01*
X318996Y370000D02*
Y372499D01*
X320662Y370000D01*
Y372499D01*
X321495D02*
X323161D01*
X322328D01*
Y370000D01*
X323994Y369584D02*
X325660D01*
X326494Y370000D02*
X327327D01*
X326910D01*
Y372499D01*
X326494Y372083D01*
X328576Y369584D02*
X330242D01*
X331075Y370000D02*
Y372499D01*
X332325D01*
X332741Y372083D01*
Y371250D01*
X332325Y370833D01*
X331075D01*
X367166Y332083D02*
X366750Y332499D01*
X365916D01*
X365500Y332083D01*
Y331666D01*
X365916Y331250D01*
X366750D01*
X367166Y330833D01*
Y330416D01*
X366750Y330000D01*
X365916D01*
X365500Y330416D01*
X367999Y330000D02*
Y332499D01*
X368832Y331666D01*
X369665Y332499D01*
Y330000D01*
X370498D02*
Y331666D01*
X371331Y332499D01*
X372165Y331666D01*
Y330000D01*
Y331250D01*
X370498D01*
X372998Y329584D02*
X374664D01*
X375497Y332499D02*
Y330000D01*
X377163D01*
X379245Y332499D02*
X378413D01*
X377996Y332083D01*
Y330416D01*
X378413Y330000D01*
X379245D01*
X379662Y330416D01*
Y332083D01*
X379245Y332499D01*
X380495Y329584D02*
X382161D01*
X382994Y330000D02*
Y332499D01*
X384660Y330000D01*
Y332499D01*
X424166Y332083D02*
X423750Y332499D01*
X422917D01*
X422500Y332083D01*
Y331666D01*
X422917Y331250D01*
X423750D01*
X424166Y330833D01*
Y330416D01*
X423750Y330000D01*
X422917D01*
X422500Y330416D01*
X424999Y330000D02*
Y332499D01*
X425832Y331666D01*
X426665Y332499D01*
Y330000D01*
X427498D02*
Y331666D01*
X428331Y332499D01*
X429165Y331666D01*
Y330000D01*
Y331250D01*
X427498D01*
X429998Y329584D02*
X431664D01*
X432497Y332499D02*
Y330000D01*
X434163D01*
X436245Y332499D02*
X435413D01*
X434996Y332083D01*
Y330416D01*
X435413Y330000D01*
X436245D01*
X436662Y330416D01*
Y332083D01*
X436245Y332499D01*
X437495Y329584D02*
X439161D01*
X439994Y330000D02*
Y332499D01*
X441244D01*
X441660Y332083D01*
Y331250D01*
X441244Y330833D01*
X439994D01*
X475166Y274083D02*
X474750Y274499D01*
X473916D01*
X473500Y274083D01*
Y273666D01*
X473916Y273250D01*
X474750D01*
X475166Y272833D01*
Y272416D01*
X474750Y272000D01*
X473916D01*
X473500Y272416D01*
X475999Y272000D02*
Y274499D01*
X476832Y273666D01*
X477665Y274499D01*
Y272000D01*
X478498D02*
Y273666D01*
X479331Y274499D01*
X480164Y273666D01*
Y272000D01*
Y273250D01*
X478498D01*
X480998Y271584D02*
X482664D01*
X483497Y272000D02*
Y273666D01*
X484330Y274499D01*
X485163Y273666D01*
Y272000D01*
Y273250D01*
X483497D01*
X485996Y272000D02*
Y274499D01*
X487662Y272000D01*
Y274499D01*
X488495D02*
X490161D01*
X489328D01*
Y272000D01*
X490994Y271584D02*
X492661D01*
X493494Y274083D02*
X493910Y274499D01*
X494743D01*
X495160Y274083D01*
Y272416D01*
X494743Y272000D01*
X493910D01*
X493494Y272416D01*
Y274083D01*
X495993Y271584D02*
X497659D01*
X498492Y272000D02*
Y274499D01*
X499742D01*
X500158Y274083D01*
Y273250D01*
X499742Y272833D01*
X498492D01*
X474166Y372083D02*
X473750Y372499D01*
X472917D01*
X472500Y372083D01*
Y371666D01*
X472917Y371250D01*
X473750D01*
X474166Y370833D01*
Y370416D01*
X473750Y370000D01*
X472917D01*
X472500Y370416D01*
X474999Y370000D02*
Y372499D01*
X475832Y371666D01*
X476665Y372499D01*
Y370000D01*
X477498D02*
Y371666D01*
X478331Y372499D01*
X479165Y371666D01*
Y370000D01*
Y371250D01*
X477498D01*
X479998Y369584D02*
X481664D01*
X482497Y370000D02*
Y371666D01*
X483330Y372499D01*
X484163Y371666D01*
Y370000D01*
Y371250D01*
X482497D01*
X484996Y370000D02*
Y372499D01*
X486662Y370000D01*
Y372499D01*
X487495D02*
X489161D01*
X488328D01*
Y370000D01*
X489994Y369584D02*
X491660D01*
X492493Y372083D02*
X492910Y372499D01*
X493743D01*
X494160Y372083D01*
Y370416D01*
X493743Y370000D01*
X492910D01*
X492493Y370416D01*
Y372083D01*
X494993Y369584D02*
X496659D01*
X497492Y370000D02*
Y372499D01*
X499158Y370000D01*
Y372499D01*
X527088Y335667D02*
X526671Y336084D01*
X525838D01*
X525421Y335667D01*
Y335251D01*
X525838Y334834D01*
X526671D01*
X527088Y334418D01*
Y334001D01*
X526671Y333585D01*
X525838D01*
X525421Y334001D01*
X527921Y333585D02*
Y336084D01*
X528754Y335251D01*
X529587Y336084D01*
Y333585D01*
X530420D02*
Y335251D01*
X531253Y336084D01*
X532086Y335251D01*
Y333585D01*
Y334834D01*
X530420D01*
X532919Y333168D02*
X534585D01*
X535418Y336084D02*
Y333585D01*
X537084D01*
X537917Y336084D02*
X538750D01*
X538334D01*
Y333585D01*
X537917D01*
X538750D01*
X540000D02*
Y336084D01*
X541666Y333585D01*
Y336084D01*
X542499D02*
Y333585D01*
Y334418D01*
X544165Y336084D01*
X542916Y334834D01*
X544165Y333585D01*
X544998Y333168D02*
X546664D01*
X547498Y333585D02*
Y336084D01*
X548747D01*
X549164Y335667D01*
Y334834D01*
X548747Y334418D01*
X547498D01*
X548331D02*
X549164Y333585D01*
X549997Y336084D02*
X551663Y333585D01*
Y336084D02*
X549997Y333585D01*
X552496Y333168D02*
X554162D01*
X554995Y333585D02*
Y336084D01*
X556245D01*
X556661Y335667D01*
Y334834D01*
X556245Y334418D01*
X554995D01*
X526588Y238667D02*
X526171Y239084D01*
X525338D01*
X524921Y238667D01*
Y238251D01*
X525338Y237834D01*
X526171D01*
X526588Y237418D01*
Y237001D01*
X526171Y236585D01*
X525338D01*
X524921Y237001D01*
X527421Y236585D02*
Y239084D01*
X528254Y238251D01*
X529087Y239084D01*
Y236585D01*
X529920D02*
Y238251D01*
X530753Y239084D01*
X531586Y238251D01*
Y236585D01*
Y237834D01*
X529920D01*
X532419Y236168D02*
X534085D01*
X534918Y239084D02*
Y236585D01*
X536584D01*
X537417Y239084D02*
X538250D01*
X537834D01*
Y236585D01*
X537417D01*
X538250D01*
X539500D02*
Y239084D01*
X541166Y236585D01*
Y239084D01*
X541999D02*
Y236585D01*
Y237418D01*
X543665Y239084D01*
X542416Y237834D01*
X543665Y236585D01*
X544498Y236168D02*
X546165D01*
X546998Y236585D02*
Y239084D01*
X548247D01*
X548664Y238667D01*
Y237834D01*
X548247Y237418D01*
X546998D01*
X547831D02*
X548664Y236585D01*
X549497Y239084D02*
X551163Y236585D01*
Y239084D02*
X549497Y236585D01*
X551996Y236168D02*
X553662D01*
X554495Y236585D02*
Y239084D01*
X556161Y236585D01*
Y239084D01*
X526588Y225667D02*
X526171Y226084D01*
X525338D01*
X524921Y225667D01*
Y225251D01*
X525338Y224834D01*
X526171D01*
X526588Y224418D01*
Y224001D01*
X526171Y223585D01*
X525338D01*
X524921Y224001D01*
X527421Y223585D02*
Y226084D01*
X528254Y225251D01*
X529087Y226084D01*
Y223585D01*
X529920D02*
Y225251D01*
X530753Y226084D01*
X531586Y225251D01*
Y223585D01*
Y224834D01*
X529920D01*
X532419Y223168D02*
X534085D01*
X534918Y226084D02*
Y223585D01*
X536584D01*
X537417Y226084D02*
X538250D01*
X537834D01*
Y223585D01*
X537417D01*
X538250D01*
X539500D02*
Y226084D01*
X541166Y223585D01*
Y226084D01*
X541999D02*
Y223585D01*
Y224418D01*
X543665Y226084D01*
X542416Y224834D01*
X543665Y223585D01*
X544498Y223168D02*
X546165D01*
X546998Y226084D02*
X548664D01*
X547831D01*
Y223585D01*
X549497Y226084D02*
X551163Y223585D01*
Y226084D02*
X549497Y223585D01*
X551996Y223168D02*
X553662D01*
X554495Y223585D02*
Y226084D01*
X555745D01*
X556161Y225667D01*
Y224834D01*
X555745Y224418D01*
X554495D01*
X527588Y127667D02*
X527171Y128084D01*
X526338D01*
X525921Y127667D01*
Y127251D01*
X526338Y126834D01*
X527171D01*
X527588Y126418D01*
Y126001D01*
X527171Y125585D01*
X526338D01*
X525921Y126001D01*
X528421Y125585D02*
Y128084D01*
X529254Y127251D01*
X530087Y128084D01*
Y125585D01*
X530920D02*
Y127251D01*
X531753Y128084D01*
X532586Y127251D01*
Y125585D01*
Y126834D01*
X530920D01*
X533419Y125168D02*
X535085D01*
X535918Y128084D02*
Y125585D01*
X537584D01*
X538417Y128084D02*
X539250D01*
X538834D01*
Y125585D01*
X538417D01*
X539250D01*
X540500D02*
Y128084D01*
X542166Y125585D01*
Y128084D01*
X542999D02*
Y125585D01*
Y126418D01*
X544665Y128084D01*
X543416Y126834D01*
X544665Y125585D01*
X545498Y125168D02*
X547164D01*
X547998Y128084D02*
X549664D01*
X548831D01*
Y125585D01*
X550497Y128084D02*
X552163Y125585D01*
Y128084D02*
X550497Y125585D01*
X552996Y125168D02*
X554662D01*
X555495Y125585D02*
Y128084D01*
X557161Y125585D01*
Y128084D01*
X472666Y192083D02*
X472250Y192499D01*
X471417D01*
X471000Y192083D01*
Y191666D01*
X471417Y191250D01*
X472250D01*
X472666Y190833D01*
Y190417D01*
X472250Y190000D01*
X471417D01*
X471000Y190417D01*
X473499Y190000D02*
Y192499D01*
X474332Y191666D01*
X475165Y192499D01*
Y190000D01*
X475998D02*
Y191666D01*
X476831Y192499D01*
X477665Y191666D01*
Y190000D01*
Y191250D01*
X475998D01*
X478498Y189584D02*
X480164D01*
X480997Y190000D02*
Y191666D01*
X481830Y192499D01*
X482663Y191666D01*
Y190000D01*
Y191250D01*
X480997D01*
X483496Y190000D02*
Y192499D01*
X485162Y190000D01*
Y192499D01*
X485995D02*
X487661D01*
X486828D01*
Y190000D01*
X488494Y189584D02*
X490161D01*
X490993Y192083D02*
X491410Y192499D01*
X492243D01*
X492660Y192083D01*
Y191666D01*
X492243Y191250D01*
X491827D01*
X492243D01*
X492660Y190833D01*
Y190417D01*
X492243Y190000D01*
X491410D01*
X490993Y190417D01*
X493493Y189584D02*
X495159D01*
X495992Y190000D02*
Y192499D01*
X497241D01*
X497658Y192083D01*
Y191250D01*
X497241Y190833D01*
X495992D01*
X474166Y95583D02*
X473750Y95999D01*
X472917D01*
X472500Y95583D01*
Y95166D01*
X472917Y94750D01*
X473750D01*
X474166Y94333D01*
Y93916D01*
X473750Y93500D01*
X472917D01*
X472500Y93916D01*
X474999Y93500D02*
Y95999D01*
X475832Y95166D01*
X476665Y95999D01*
Y93500D01*
X477498D02*
Y95166D01*
X478331Y95999D01*
X479165Y95166D01*
Y93500D01*
Y94750D01*
X477498D01*
X479998Y93084D02*
X481664D01*
X482497Y93500D02*
Y95166D01*
X483330Y95999D01*
X484163Y95166D01*
Y93500D01*
Y94750D01*
X482497D01*
X484996Y93500D02*
Y95999D01*
X486662Y93500D01*
Y95999D01*
X487495D02*
X489161D01*
X488328D01*
Y93500D01*
X489994Y93084D02*
X491660D01*
X492493Y95583D02*
X492910Y95999D01*
X493743D01*
X494160Y95583D01*
Y95166D01*
X493743Y94750D01*
X493327D01*
X493743D01*
X494160Y94333D01*
Y93916D01*
X493743Y93500D01*
X492910D01*
X492493Y93916D01*
X494993Y93084D02*
X496659D01*
X497492Y93500D02*
Y95999D01*
X499158Y93500D01*
Y95999D01*
X179666Y174583D02*
X179250Y174999D01*
X178417D01*
X178000Y174583D01*
Y174166D01*
X178417Y173750D01*
X179250D01*
X179666Y173333D01*
Y172916D01*
X179250Y172500D01*
X178417D01*
X178000Y172916D01*
X180499Y172500D02*
Y174999D01*
X181332Y174166D01*
X182165Y174999D01*
Y172500D01*
X182998D02*
Y174166D01*
X183831Y174999D01*
X184664Y174166D01*
Y172500D01*
Y173750D01*
X182998D01*
X185498Y172083D02*
X187164D01*
X187997Y174999D02*
X189663D01*
X188830D01*
Y172500D01*
X190496Y174999D02*
Y172500D01*
Y173750D01*
X192162D01*
Y174999D01*
Y172500D01*
X192995D02*
Y174999D01*
X194245D01*
X194661Y174583D01*
Y173750D01*
X194245Y173333D01*
X192995D01*
X193828D02*
X194661Y172500D01*
X195494Y174999D02*
Y172916D01*
X195911Y172500D01*
X196744D01*
X197160Y172916D01*
Y174999D01*
X197994Y172083D02*
X199660D01*
X200493Y172500D02*
Y174999D01*
X201742D01*
X202159Y174583D01*
Y173750D01*
X201742Y173333D01*
X200493D01*
X201326D02*
X202159Y172500D01*
X204658Y174999D02*
X202992D01*
Y173750D01*
X203825D01*
X202992D01*
Y172500D01*
X205491D02*
X206324D01*
X205908D01*
Y174999D01*
X205491Y174583D01*
X103666Y16583D02*
X103250Y16999D01*
X102417D01*
X102000Y16583D01*
Y16166D01*
X102417Y15750D01*
X103250D01*
X103666Y15333D01*
Y14917D01*
X103250Y14500D01*
X102417D01*
X102000Y14917D01*
X104499Y14500D02*
Y16999D01*
X105332Y16166D01*
X106165Y16999D01*
Y14500D01*
X106998D02*
Y16166D01*
X107831Y16999D01*
X108665Y16166D01*
Y14500D01*
Y15750D01*
X106998D01*
X109498Y14084D02*
X111164D01*
X111997Y16999D02*
X113663D01*
X112830D01*
Y14500D01*
X114496Y16999D02*
Y14500D01*
Y15750D01*
X116162D01*
Y16999D01*
Y14500D01*
X116995D02*
Y16999D01*
X118245D01*
X118661Y16583D01*
Y15750D01*
X118245Y15333D01*
X116995D01*
X117828D02*
X118661Y14500D01*
X119494Y16999D02*
Y14917D01*
X119911Y14500D01*
X120744D01*
X121160Y14917D01*
Y16999D01*
X121994Y14084D02*
X123660D01*
X124493Y14500D02*
Y16999D01*
X125742D01*
X126159Y16583D01*
Y15750D01*
X125742Y15333D01*
X124493D01*
X125326D02*
X126159Y14500D01*
X128658Y16999D02*
X126992D01*
Y15750D01*
X127825D01*
X126992D01*
Y14500D01*
X129491Y16583D02*
X129908Y16999D01*
X130741D01*
X131157Y16583D01*
Y14917D01*
X130741Y14500D01*
X129908D01*
X129491Y14917D01*
Y16583D01*
X43166Y147083D02*
X42750Y147499D01*
X41916D01*
X41500Y147083D01*
Y146666D01*
X41916Y146250D01*
X42750D01*
X43166Y145833D01*
Y145416D01*
X42750Y145000D01*
X41916D01*
X41500Y145416D01*
X43999Y145000D02*
Y147499D01*
X44832Y146666D01*
X45665Y147499D01*
Y145000D01*
X46498D02*
Y146666D01*
X47331Y147499D01*
X48164Y146666D01*
Y145000D01*
Y146250D01*
X46498D01*
X48998Y144583D02*
X50664D01*
X52746Y147499D02*
X51913D01*
X51497Y147083D01*
Y145416D01*
X51913Y145000D01*
X52746D01*
X53163Y145416D01*
Y147083D01*
X52746Y147499D01*
X53996Y145000D02*
Y147499D01*
X55246D01*
X55662Y147083D01*
Y146250D01*
X55246Y145833D01*
X53996D01*
X58161Y147499D02*
X56495D01*
Y145000D01*
X58161D01*
X56495Y146250D02*
X57328D01*
X58994Y145000D02*
Y147499D01*
X60660Y145000D01*
Y147499D01*
X41666Y91083D02*
X41250Y91499D01*
X40416D01*
X40000Y91083D01*
Y90666D01*
X40416Y90250D01*
X41250D01*
X41666Y89833D01*
Y89416D01*
X41250Y89000D01*
X40416D01*
X40000Y89416D01*
X42499Y89000D02*
Y91499D01*
X43332Y90666D01*
X44165Y91499D01*
Y89000D01*
X44998D02*
Y90666D01*
X45831Y91499D01*
X46665Y90666D01*
Y89000D01*
Y90250D01*
X44998D01*
X47498Y88583D02*
X49164D01*
X51663Y91083D02*
X51246Y91499D01*
X50413D01*
X49997Y91083D01*
Y90666D01*
X50413Y90250D01*
X51246D01*
X51663Y89833D01*
Y89416D01*
X51246Y89000D01*
X50413D01*
X49997Y89416D01*
X52496Y91499D02*
Y89000D01*
Y90250D01*
X54162D01*
Y91499D01*
Y89000D01*
X56245Y91499D02*
X55412D01*
X54995Y91083D01*
Y89416D01*
X55412Y89000D01*
X56245D01*
X56661Y89416D01*
Y91083D01*
X56245Y91499D01*
X57494Y89000D02*
Y91499D01*
X58744D01*
X59161Y91083D01*
Y90250D01*
X58744Y89833D01*
X57494D01*
X58327D02*
X59161Y89000D01*
X59993Y91499D02*
X61660D01*
X60827D01*
Y89000D01*
X113666Y171083D02*
X113250Y171499D01*
X112417D01*
X112000Y171083D01*
Y170666D01*
X112417Y170250D01*
X113250D01*
X113666Y169833D01*
Y169416D01*
X113250Y169000D01*
X112417D01*
X112000Y169416D01*
X114499Y169000D02*
Y171499D01*
X115332Y170666D01*
X116165Y171499D01*
Y169000D01*
X116998D02*
Y170666D01*
X117831Y171499D01*
X118665Y170666D01*
Y169000D01*
Y170250D01*
X116998D01*
X119498Y168584D02*
X121164D01*
X121997Y171499D02*
Y169000D01*
X123663D01*
X125745Y171499D02*
X124913D01*
X124496Y171083D01*
Y169416D01*
X124913Y169000D01*
X125745D01*
X126162Y169416D01*
Y171083D01*
X125745Y171499D01*
X126995Y169000D02*
Y170666D01*
X127828Y171499D01*
X128661Y170666D01*
Y169000D01*
Y170250D01*
X126995D01*
X129494Y171499D02*
Y169000D01*
X130744D01*
X131160Y169416D01*
Y171083D01*
X130744Y171499D01*
X129494D01*
X125131Y129314D02*
X127630D01*
Y128065D01*
X127214Y127648D01*
X126381D01*
X125964Y128065D01*
Y129314D01*
Y128481D02*
X125131Y127648D01*
Y125565D02*
X127630D01*
X126381Y126815D01*
Y125149D01*
X125131Y123066D02*
X127630D01*
X126381Y124316D01*
Y122650D01*
X36682Y215682D02*
Y213599D01*
X37098Y213183D01*
X37931D01*
X38348Y213599D01*
Y215682D01*
X40847Y213183D02*
X39181D01*
X40847Y214849D01*
Y215265D01*
X40431Y215682D01*
X39598D01*
X39181Y215265D01*
X41680Y213183D02*
X42513D01*
X42097D01*
Y215682D01*
X41680Y215265D01*
X38000Y209500D02*
Y211999D01*
X39250D01*
X39666Y211583D01*
Y210750D01*
X39250Y210333D01*
X38000D01*
X38833D02*
X39666Y209500D01*
X41749D02*
Y211999D01*
X40499Y210750D01*
X42165D01*
X62666Y194499D02*
X61000D01*
Y193250D01*
X61833D01*
X61000D01*
Y192000D01*
X63499Y194499D02*
Y192000D01*
X64749D01*
X65165Y192417D01*
Y192833D01*
X64749Y193250D01*
X63499D01*
X64749D01*
X65165Y193666D01*
Y194083D01*
X64749Y194499D01*
X63499D01*
X65998D02*
X67664D01*
Y194083D01*
X65998Y192417D01*
Y192000D01*
X25948Y243865D02*
X25532Y244282D01*
X24698D01*
X24282Y243865D01*
Y242199D01*
X24698Y241783D01*
X25532D01*
X25948Y242199D01*
X26781D02*
X27198Y241783D01*
X28031D01*
X28447Y242199D01*
Y243865D01*
X28031Y244282D01*
X27198D01*
X26781Y243865D01*
Y243449D01*
X27198Y243032D01*
X28447D01*
X30946Y244282D02*
X30113Y243865D01*
X29280Y243032D01*
Y242199D01*
X29697Y241783D01*
X30530D01*
X30946Y242199D01*
Y242616D01*
X30530Y243032D01*
X29280D01*
X18748Y217065D02*
X18331Y217482D01*
X17498D01*
X17082Y217065D01*
Y215399D01*
X17498Y214983D01*
X18331D01*
X18748Y215399D01*
X19581Y214983D02*
X20414D01*
X19998D01*
Y217482D01*
X19581Y217065D01*
X21664Y214983D02*
X22497D01*
X22080D01*
Y217482D01*
X21664Y217065D01*
X24996Y214983D02*
Y217482D01*
X23746Y216232D01*
X25412D01*
X54482Y279282D02*
Y277199D01*
X54898Y276783D01*
X55731D01*
X56148Y277199D01*
Y279282D01*
X58647Y276783D02*
X56981D01*
X58647Y278449D01*
Y278865D01*
X58231Y279282D01*
X57398D01*
X56981Y278865D01*
X61146Y276783D02*
X59480D01*
X61146Y278449D01*
Y278865D01*
X60730Y279282D01*
X59897D01*
X59480Y278865D01*
X34341Y251532D02*
Y254031D01*
X35590D01*
X36007Y253615D01*
Y252782D01*
X35590Y252365D01*
X34341D01*
X35174D02*
X36007Y251532D01*
X36840Y254031D02*
X38506D01*
Y253615D01*
X36840Y251949D01*
Y251532D01*
X41005D02*
X39339D01*
X41005Y253198D01*
Y253615D01*
X40589Y254031D01*
X39756D01*
X39339Y253615D01*
X33341Y262032D02*
Y264531D01*
X34591D01*
X35007Y264115D01*
Y263282D01*
X34591Y262865D01*
X33341D01*
X34174D02*
X35007Y262032D01*
X35840Y264531D02*
X37506D01*
Y264115D01*
X35840Y262449D01*
Y262032D01*
X38339Y264115D02*
X38756Y264531D01*
X39589D01*
X40005Y264115D01*
Y263698D01*
X39589Y263282D01*
X39172D01*
X39589D01*
X40005Y262865D01*
Y262449D01*
X39589Y262032D01*
X38756D01*
X38339Y262449D01*
X28059Y182117D02*
Y179618D01*
Y180868D01*
X29725D01*
Y182117D01*
Y179618D01*
X30558Y179202D02*
X32224D01*
X34724Y181701D02*
X34307Y182117D01*
X33474D01*
X33057Y181701D01*
Y180035D01*
X33474Y179618D01*
X34307D01*
X34724Y180035D01*
Y180868D01*
X33891D01*
X35557Y179618D02*
Y181284D01*
X36390Y182117D01*
X37223Y181284D01*
Y179618D01*
Y180868D01*
X35557D01*
X38056Y182117D02*
X39722D01*
X38889D01*
Y179618D01*
X42221Y182117D02*
X40555D01*
Y179618D01*
X42221D01*
X40555Y180868D02*
X41388D01*
X43054Y179202D02*
X44720D01*
X45553Y182117D02*
Y179618D01*
X47219D01*
X48053Y182117D02*
X48886D01*
X48469D01*
Y179618D01*
X48053D01*
X48886D01*
X50135D02*
Y182117D01*
X51801Y179618D01*
Y182117D01*
X52634D02*
Y179618D01*
Y180451D01*
X54300Y182117D01*
X53051Y180868D01*
X54300Y179618D01*
X413000Y111499D02*
X414666D01*
X413833D01*
Y109000D01*
X415499D02*
Y111499D01*
X416749D01*
X417165Y111083D01*
Y110250D01*
X416749Y109833D01*
X415499D01*
X417998Y108583D02*
X419664D01*
X420498Y109000D02*
Y110666D01*
X421331Y111499D01*
X422164Y110666D01*
Y109000D01*
Y110250D01*
X420498D01*
X422997Y109000D02*
Y111499D01*
X424663Y109000D01*
Y111499D01*
X425496Y109000D02*
Y110666D01*
X426329Y111499D01*
X427162Y110666D01*
Y109000D01*
Y110250D01*
X425496D01*
X427995Y108583D02*
X429661D01*
X430494Y109000D02*
Y111499D01*
X432161Y109000D01*
Y111499D01*
X436000D02*
X437666D01*
X436833D01*
Y109000D01*
X438499D02*
Y111499D01*
X439749D01*
X440165Y111083D01*
Y110250D01*
X439749Y109833D01*
X438499D01*
X440998Y108583D02*
X442664D01*
X443498Y109000D02*
Y110666D01*
X444331Y111499D01*
X445164Y110666D01*
Y109000D01*
Y110250D01*
X443498D01*
X445997Y109000D02*
Y111499D01*
X447663Y109000D01*
Y111499D01*
X448496Y109000D02*
Y110666D01*
X449329Y111499D01*
X450162Y110666D01*
Y109000D01*
Y110250D01*
X448496D01*
X450995Y108583D02*
X452661D01*
X453494Y109000D02*
Y111499D01*
X454744D01*
X455161Y111083D01*
Y110250D01*
X454744Y109833D01*
X453494D01*
X357000Y97499D02*
Y95000D01*
Y96250D01*
X358666D01*
Y97499D01*
Y95000D01*
X359499Y97499D02*
X361165D01*
Y97083D01*
X359499Y95416D01*
Y95000D01*
X361500Y116000D02*
Y118499D01*
X362750D01*
X363166Y118083D01*
Y117250D01*
X362750Y116833D01*
X361500D01*
X362333D02*
X363166Y116000D01*
X365665D02*
X363999D01*
X365665Y117666D01*
Y118083D01*
X365249Y118499D01*
X364416D01*
X363999Y118083D01*
X378000Y102500D02*
X375501D01*
Y103750D01*
X375917Y104166D01*
X376750D01*
X377167Y103750D01*
Y102500D01*
Y103333D02*
X378000Y104166D01*
X375917Y104999D02*
X375501Y105416D01*
Y106249D01*
X375917Y106665D01*
X376334D01*
X376750Y106249D01*
Y105832D01*
Y106249D01*
X377167Y106665D01*
X377584D01*
X378000Y106249D01*
Y105416D01*
X377584Y104999D01*
X375501Y109165D02*
X375917Y108331D01*
X376750Y107498D01*
X377584D01*
X378000Y107915D01*
Y108748D01*
X377584Y109165D01*
X377167D01*
X376750Y108748D01*
Y107498D01*
X33666Y298499D02*
X32000D01*
Y296000D01*
X33666D01*
X32000Y297250D02*
X32833D01*
X34499Y296000D02*
Y298499D01*
X36165Y296000D01*
Y298499D01*
X36998Y295584D02*
X38664D01*
X41164Y298083D02*
X40747Y298499D01*
X39914D01*
X39498Y298083D01*
Y296416D01*
X39914Y296000D01*
X40747D01*
X41164Y296416D01*
Y297250D01*
X40331D01*
X41997Y296000D02*
Y297666D01*
X42830Y298499D01*
X43663Y297666D01*
Y296000D01*
Y297250D01*
X41997D01*
X44496Y298499D02*
X46162D01*
X45329D01*
Y296000D01*
X48661Y298499D02*
X46995D01*
Y296000D01*
X48661D01*
X46995Y297250D02*
X47828D01*
X49494Y295584D02*
X51161D01*
X51994Y298499D02*
Y296000D01*
X53660D01*
X54493Y298499D02*
X55326D01*
X54909D01*
Y296000D01*
X54493D01*
X55326D01*
X56575D02*
Y298499D01*
X58241Y296000D01*
Y298499D01*
X59075D02*
Y296000D01*
Y296833D01*
X60741Y298499D01*
X59491Y297250D01*
X60741Y296000D01*
X76500Y383499D02*
Y381000D01*
Y382250D01*
X78166D01*
Y383499D01*
Y381000D01*
X78999D02*
X79832D01*
X79416D01*
Y383499D01*
X78999Y383083D01*
X81082Y381417D02*
X81498Y381000D01*
X82331D01*
X82748Y381417D01*
Y383083D01*
X82331Y383499D01*
X81498D01*
X81082Y383083D01*
Y382666D01*
X81498Y382250D01*
X82748D01*
X46092Y173891D02*
Y171392D01*
Y172641D01*
X47758D01*
Y173891D01*
Y171392D01*
X48591D02*
X49424D01*
X49007D01*
Y173891D01*
X48591Y173475D01*
X50674Y173891D02*
X52340D01*
Y173475D01*
X50674Y171808D01*
Y171392D01*
X74578Y183383D02*
Y180884D01*
Y182133D01*
X76244D01*
Y183383D01*
Y180884D01*
X77077D02*
X77910D01*
X77494D01*
Y183383D01*
X77077Y182966D01*
X80826Y183383D02*
X79993Y182966D01*
X79160Y182133D01*
Y181300D01*
X79576Y180884D01*
X80410D01*
X80826Y181300D01*
Y181717D01*
X80410Y182133D01*
X79160D01*
X215341Y182531D02*
Y180032D01*
Y181282D01*
X217007D01*
Y182531D01*
Y180032D01*
X217840Y179616D02*
X219506D01*
X220339Y182531D02*
Y180865D01*
X221172Y180032D01*
X222005Y180865D01*
Y182531D01*
X222838D02*
Y180032D01*
X224088D01*
X224505Y180449D01*
Y182115D01*
X224088Y182531D01*
X222838D01*
X225338D02*
Y180032D01*
X226587D01*
X227004Y180449D01*
Y182115D01*
X226587Y182531D01*
X225338D01*
X227837Y179616D02*
X229503D01*
X230336Y182531D02*
Y180032D01*
X232002D01*
X232835Y182531D02*
X233668D01*
X233252D01*
Y180032D01*
X232835D01*
X233668D01*
X234918D02*
Y182531D01*
X236584Y180032D01*
Y182531D01*
X237417D02*
Y180032D01*
Y180865D01*
X239083Y182531D01*
X237834Y181282D01*
X239083Y180032D01*
X268341Y182032D02*
Y179532D01*
Y180782D01*
X270007D01*
Y182032D01*
Y179532D01*
X270840Y179116D02*
X272506D01*
X273339Y182032D02*
Y179532D01*
X274589D01*
X275005Y179949D01*
Y181615D01*
X274589Y182032D01*
X273339D01*
X275838D02*
Y180365D01*
X276672Y179532D01*
X277505Y180365D01*
Y182032D01*
X278338D02*
Y179532D01*
X279587D01*
X280004Y179949D01*
Y181615D01*
X279587Y182032D01*
X278338D01*
X280837D02*
Y179532D01*
X282086D01*
X282503Y179949D01*
Y181615D01*
X282086Y182032D01*
X280837D01*
X94841Y182531D02*
Y180032D01*
Y181282D01*
X96507D01*
Y182531D01*
Y180032D01*
X97340Y179616D02*
X99006D01*
X99839Y182531D02*
Y180865D01*
X100672Y180032D01*
X101505Y180865D01*
Y182531D01*
X102339D02*
Y180032D01*
X103588D01*
X104005Y180449D01*
Y182115D01*
X103588Y182531D01*
X102339D01*
X104838D02*
Y180032D01*
X106087D01*
X106504Y180449D01*
Y182115D01*
X106087Y182531D01*
X104838D01*
X107337Y180032D02*
Y181698D01*
X108170Y182531D01*
X109003Y181698D01*
Y180032D01*
Y181282D01*
X107337D01*
X146341Y182032D02*
Y179532D01*
Y180782D01*
X148007D01*
Y182032D01*
Y179532D01*
X148840Y179116D02*
X150506D01*
X151339Y182032D02*
Y180365D01*
X152172Y179532D01*
X153005Y180365D01*
Y182032D01*
X153839D02*
Y179532D01*
X155088D01*
X155505Y179949D01*
Y181615D01*
X155088Y182032D01*
X153839D01*
X156338D02*
Y179532D01*
X157587D01*
X158004Y179949D01*
Y181615D01*
X157587Y182032D01*
X156338D01*
X158837Y179116D02*
X160503D01*
X161336Y182032D02*
X162169D01*
X161753D01*
Y179532D01*
X161336D01*
X162169D01*
X164668Y182032D02*
X163835D01*
X163419Y181615D01*
Y179949D01*
X163835Y179532D01*
X164668D01*
X165085Y179949D01*
Y181615D01*
X164668Y182032D01*
X54166Y384083D02*
X53750Y384499D01*
X52917D01*
X52500Y384083D01*
Y382417D01*
X52917Y382000D01*
X53750D01*
X54166Y382417D01*
X54999Y382000D02*
X55832D01*
X55416D01*
Y384499D01*
X54999Y384083D01*
X57082D02*
X57498Y384499D01*
X58331D01*
X58748Y384083D01*
Y382417D01*
X58331Y382000D01*
X57498D01*
X57082Y382417D01*
Y384083D01*
X23358Y174475D02*
X22941Y174891D01*
X22108D01*
X21692Y174475D01*
Y172808D01*
X22108Y172392D01*
X22941D01*
X23358Y172808D01*
X24191Y174475D02*
X24608Y174891D01*
X25441D01*
X25857Y174475D01*
Y174058D01*
X25441Y173641D01*
X25857Y173225D01*
Y172808D01*
X25441Y172392D01*
X24608D01*
X24191Y172808D01*
Y173225D01*
X24608Y173641D01*
X24191Y174058D01*
Y174475D01*
X24608Y173641D02*
X25441D01*
X207166Y302499D02*
X205500D01*
Y300000D01*
X207166D01*
X205500Y301250D02*
X206333D01*
X207999Y300000D02*
Y302499D01*
X209665Y300000D01*
Y302499D01*
X210498Y299584D02*
X212164D01*
X212998Y302499D02*
Y300833D01*
X213831Y300000D01*
X214664Y300833D01*
Y302499D01*
X215497D02*
Y300000D01*
X216746D01*
X217163Y300416D01*
Y302083D01*
X216746Y302499D01*
X215497D01*
X217996D02*
Y300000D01*
X219246D01*
X219662Y300416D01*
Y302083D01*
X219246Y302499D01*
X217996D01*
X220495Y299584D02*
X222161D01*
X222994Y302499D02*
Y300000D01*
X224660D01*
X225494Y302499D02*
X226327D01*
X225910D01*
Y300000D01*
X225494D01*
X226327D01*
X227576D02*
Y302499D01*
X229242Y300000D01*
Y302499D01*
X230075D02*
Y300000D01*
Y300833D01*
X231741Y302499D01*
X230492Y301250D01*
X231741Y300000D01*
X217782Y250383D02*
Y252882D01*
X219031D01*
X219448Y252465D01*
Y251632D01*
X219031Y251216D01*
X217782D01*
X218615D02*
X219448Y250383D01*
X220281D02*
X221114D01*
X220698D01*
Y252882D01*
X220281Y252465D01*
X218682Y256483D02*
Y258982D01*
X219931D01*
X220348Y258565D01*
Y257732D01*
X219931Y257316D01*
X218682D01*
X219515D02*
X220348Y256483D01*
X221181Y258565D02*
X221598Y258982D01*
X222431D01*
X222847Y258565D01*
Y258149D01*
X222431Y257732D01*
X222014D01*
X222431D01*
X222847Y257316D01*
Y256899D01*
X222431Y256483D01*
X221598D01*
X221181Y256899D01*
X163882Y275683D02*
Y278182D01*
X165131D01*
X165548Y277765D01*
Y276932D01*
X165131Y276516D01*
X163882D01*
X164715D02*
X165548Y275683D01*
X168047Y278182D02*
X167214Y277765D01*
X166381Y276932D01*
Y276099D01*
X166798Y275683D01*
X167631D01*
X168047Y276099D01*
Y276516D01*
X167631Y276932D01*
X166381D01*
X177482Y278483D02*
Y280982D01*
X178731D01*
X179148Y280565D01*
Y279732D01*
X178731Y279316D01*
X177482D01*
X178315D02*
X179148Y278483D01*
X179981Y278899D02*
X180398Y278483D01*
X181231D01*
X181647Y278899D01*
Y280565D01*
X181231Y280982D01*
X180398D01*
X179981Y280565D01*
Y280149D01*
X180398Y279732D01*
X181647D01*
X173682Y262483D02*
Y264982D01*
X174931D01*
X175348Y264565D01*
Y263732D01*
X174931Y263316D01*
X173682D01*
X174515D02*
X175348Y262483D01*
X176181Y264565D02*
X176598Y264982D01*
X177431D01*
X177847Y264565D01*
Y264149D01*
X177431Y263732D01*
X177847Y263316D01*
Y262899D01*
X177431Y262483D01*
X176598D01*
X176181Y262899D01*
Y263316D01*
X176598Y263732D01*
X176181Y264149D01*
Y264565D01*
X176598Y263732D02*
X177431D01*
X171682Y252883D02*
Y255382D01*
X172931D01*
X173348Y254965D01*
Y254132D01*
X172931Y253716D01*
X171682D01*
X172515D02*
X173348Y252883D01*
X175847Y255382D02*
X174181D01*
Y254132D01*
X175014Y254549D01*
X175431D01*
X175847Y254132D01*
Y253299D01*
X175431Y252883D01*
X174598D01*
X174181Y253299D01*
X154166Y301999D02*
X152500D01*
Y299500D01*
X154166D01*
X152500Y300750D02*
X153333D01*
X154999Y299500D02*
Y301999D01*
X156665Y299500D01*
Y301999D01*
X157498Y299083D02*
X159165D01*
X159998Y301999D02*
Y300333D01*
X160831Y299500D01*
X161664Y300333D01*
Y301999D01*
X162497D02*
Y299500D01*
X163746D01*
X164163Y299917D01*
Y301583D01*
X163746Y301999D01*
X162497D01*
X164996D02*
Y299500D01*
X166246D01*
X166662Y299917D01*
Y301583D01*
X166246Y301999D01*
X164996D01*
X167495Y299083D02*
X169161D01*
X169994Y301999D02*
X170827D01*
X170411D01*
Y299500D01*
X169994D01*
X170827D01*
X173327Y301999D02*
X172494D01*
X172077Y301583D01*
Y299917D01*
X172494Y299500D01*
X173327D01*
X173743Y299917D01*
Y301583D01*
X173327Y301999D01*
X152748Y217565D02*
X152331Y217982D01*
X151498D01*
X151082Y217565D01*
Y215899D01*
X151498Y215483D01*
X152331D01*
X152748Y215899D01*
X153581Y217565D02*
X153998Y217982D01*
X154831D01*
X155247Y217565D01*
Y217149D01*
X154831Y216732D01*
X154414D01*
X154831D01*
X155247Y216316D01*
Y215899D01*
X154831Y215483D01*
X153998D01*
X153581Y215899D01*
X156080Y215483D02*
X156913D01*
X156497D01*
Y217982D01*
X156080Y217565D01*
X159948Y244365D02*
X159531Y244782D01*
X158698D01*
X158282Y244365D01*
Y242699D01*
X158698Y242283D01*
X159531D01*
X159948Y242699D01*
X162031Y242283D02*
Y244782D01*
X160781Y243532D01*
X162447D01*
X163280Y244365D02*
X163697Y244782D01*
X164530D01*
X164946Y244365D01*
Y243949D01*
X164530Y243532D01*
X164113D01*
X164530D01*
X164946Y243116D01*
Y242699D01*
X164530Y242283D01*
X163697D01*
X163280Y242699D01*
X137348Y202782D02*
X135682D01*
Y201532D01*
X136515D01*
X135682D01*
Y200283D01*
X138181Y202782D02*
Y200283D01*
X139431D01*
X139847Y200699D01*
Y201116D01*
X139431Y201532D01*
X138181D01*
X139431D01*
X139847Y201949D01*
Y202365D01*
X139431Y202782D01*
X138181D01*
X140680Y200283D02*
X141513D01*
X141097D01*
Y202782D01*
X140680Y202365D01*
X157282Y196083D02*
Y198582D01*
X158531D01*
X158948Y198165D01*
Y197332D01*
X158531Y196916D01*
X157282D01*
X158115D02*
X158948Y196083D01*
X161447D02*
X159781D01*
X161447Y197749D01*
Y198165D01*
X161031Y198582D01*
X160198D01*
X159781Y198165D01*
X163530Y196083D02*
Y198582D01*
X162280Y197332D01*
X163946D01*
X151682Y230182D02*
Y228099D01*
X152098Y227683D01*
X152931D01*
X153348Y228099D01*
Y230182D01*
X154181Y227683D02*
X155014D01*
X154598D01*
Y230182D01*
X154181Y229765D01*
X156264D02*
X156680Y230182D01*
X157513D01*
X157930Y229765D01*
Y228099D01*
X157513Y227683D01*
X156680D01*
X156264Y228099D01*
Y229765D01*
X170682Y216182D02*
Y214099D01*
X171098Y213683D01*
X171931D01*
X172348Y214099D01*
Y216182D01*
X173181Y213683D02*
X174014D01*
X173598D01*
Y216182D01*
X173181Y215765D01*
X176930Y213683D02*
X175264D01*
X176930Y215349D01*
Y215765D01*
X176513Y216182D01*
X175680D01*
X175264Y215765D01*
X260782Y263383D02*
Y265882D01*
X262031D01*
X262448Y265465D01*
Y264632D01*
X262031Y264216D01*
X260782D01*
X261615D02*
X262448Y263383D01*
X264947D02*
X263281D01*
X264947Y265049D01*
Y265465D01*
X264531Y265882D01*
X263698D01*
X263281Y265465D01*
X265780D02*
X266197Y265882D01*
X267030D01*
X267446Y265465D01*
Y265049D01*
X267030Y264632D01*
X266613D01*
X267030D01*
X267446Y264216D01*
Y263799D01*
X267030Y263383D01*
X266197D01*
X265780Y263799D01*
X272782Y262883D02*
Y265382D01*
X274031D01*
X274448Y264965D01*
Y264132D01*
X274031Y263716D01*
X272782D01*
X273615D02*
X274448Y262883D01*
X276947D02*
X275281D01*
X276947Y264549D01*
Y264965D01*
X276531Y265382D01*
X275698D01*
X275281Y264965D01*
X279446Y262883D02*
X277780D01*
X279446Y264549D01*
Y264965D01*
X279030Y265382D01*
X278197D01*
X277780Y264965D01*
X285782Y262383D02*
Y264882D01*
X287031D01*
X287448Y264465D01*
Y263632D01*
X287031Y263216D01*
X285782D01*
X286615D02*
X287448Y262383D01*
X289947D02*
X288281D01*
X289947Y264049D01*
Y264465D01*
X289531Y264882D01*
X288698D01*
X288281Y264465D01*
X290780Y262383D02*
X291613D01*
X291197D01*
Y264882D01*
X290780Y264465D01*
X153995Y265297D02*
X151496D01*
Y266547D01*
X151912Y266964D01*
X152745D01*
X153162Y266547D01*
Y265297D01*
Y266130D02*
X153995Y266964D01*
X151912Y267797D02*
X151496Y268213D01*
Y269046D01*
X151912Y269463D01*
X152329D01*
X152745Y269046D01*
Y268630D01*
Y269046D01*
X153162Y269463D01*
X153578D01*
X153995Y269046D01*
Y268213D01*
X153578Y267797D01*
X151912Y270296D02*
X151496Y270712D01*
Y271545D01*
X151912Y271962D01*
X152329D01*
X152745Y271545D01*
Y271129D01*
Y271545D01*
X153162Y271962D01*
X153578D01*
X153995Y271545D01*
Y270712D01*
X153578Y270296D01*
X141395Y258497D02*
Y255998D01*
X140145D01*
X139729Y256415D01*
Y257248D01*
X140145Y257664D01*
X141395D01*
X140562D02*
X139729Y258497D01*
X138896Y256415D02*
X138479Y255998D01*
X137646D01*
X137230Y256415D01*
Y256831D01*
X137646Y257248D01*
X138063D01*
X137646D01*
X137230Y257664D01*
Y258081D01*
X137646Y258497D01*
X138479D01*
X138896Y258081D01*
X134730Y258497D02*
X136396D01*
X134730Y256831D01*
Y256415D01*
X135147Y255998D01*
X135980D01*
X136396Y256415D01*
X129395Y265297D02*
X126896D01*
Y266547D01*
X127312Y266964D01*
X128145D01*
X128562Y266547D01*
Y265297D01*
Y266130D02*
X129395Y266964D01*
X127312Y267797D02*
X126896Y268213D01*
Y269046D01*
X127312Y269463D01*
X127729D01*
X128145Y269046D01*
Y268630D01*
Y269046D01*
X128562Y269463D01*
X128978D01*
X129395Y269046D01*
Y268213D01*
X128978Y267797D01*
X129395Y270296D02*
Y271129D01*
Y270712D01*
X126896D01*
X127312Y270296D01*
X260666Y209499D02*
X259000D01*
Y208250D01*
X259833D01*
X259000D01*
Y207000D01*
X261499Y209499D02*
Y207000D01*
X262749D01*
X263165Y207417D01*
Y207833D01*
X262749Y208250D01*
X261499D01*
X262749D01*
X263165Y208666D01*
Y209083D01*
X262749Y209499D01*
X261499D01*
X263998Y209083D02*
X264415Y209499D01*
X265248D01*
X265665Y209083D01*
Y208666D01*
X265248Y208250D01*
X264831D01*
X265248D01*
X265665Y207833D01*
Y207417D01*
X265248Y207000D01*
X264415D01*
X263998Y207417D01*
X245319Y200846D02*
X243653D01*
Y199597D01*
X244486D01*
X243653D01*
Y198347D01*
X246152Y200846D02*
Y198347D01*
X247402D01*
X247818Y198764D01*
Y199180D01*
X247402Y199597D01*
X246152D01*
X247402D01*
X247818Y200013D01*
Y200430D01*
X247402Y200846D01*
X246152D01*
X249901Y198347D02*
Y200846D01*
X248651Y199597D01*
X250317D01*
X89666Y270999D02*
X88000D01*
Y268500D01*
X89666D01*
X88000Y269750D02*
X88833D01*
X90499Y268500D02*
Y270999D01*
X92165Y268500D01*
Y270999D01*
X92998Y268084D02*
X94665D01*
X95498Y270999D02*
Y269333D01*
X96331Y268500D01*
X97164Y269333D01*
Y270999D01*
X97997D02*
Y268500D01*
X99246D01*
X99663Y268917D01*
Y270583D01*
X99246Y270999D01*
X97997D01*
X100496D02*
Y268500D01*
X101746D01*
X102162Y268917D01*
Y270583D01*
X101746Y270999D01*
X100496D01*
X102995Y268500D02*
Y270166D01*
X103828Y270999D01*
X104661Y270166D01*
Y268500D01*
Y269750D01*
X102995D01*
X260384Y284117D02*
X258718D01*
Y281617D01*
X260384D01*
X258718Y282867D02*
X259551D01*
X261217Y281617D02*
Y284117D01*
X262883Y281617D01*
Y284117D01*
X263717Y281201D02*
X265383D01*
X266216Y284117D02*
Y281617D01*
X267465D01*
X267882Y282034D01*
Y283700D01*
X267465Y284117D01*
X266216D01*
X268715D02*
Y282450D01*
X269548Y281617D01*
X270381Y282450D01*
Y284117D01*
X271214D02*
Y281617D01*
X272464D01*
X272880Y282034D01*
Y283700D01*
X272464Y284117D01*
X271214D01*
X273713D02*
Y281617D01*
X274963D01*
X275379Y282034D01*
Y283700D01*
X274963Y284117D01*
X273713D01*
X210500Y210000D02*
Y212499D01*
X211750D01*
X212166Y212083D01*
Y211250D01*
X211750Y210833D01*
X210500D01*
X211333D02*
X212166Y210000D01*
X212999Y212083D02*
X213416Y212499D01*
X214249D01*
X214665Y212083D01*
Y211666D01*
X214249Y211250D01*
X213832D01*
X214249D01*
X214665Y210833D01*
Y210417D01*
X214249Y210000D01*
X213416D01*
X212999Y210417D01*
X215498D02*
X215915Y210000D01*
X216748D01*
X217164Y210417D01*
Y212083D01*
X216748Y212499D01*
X215915D01*
X215498Y212083D01*
Y211666D01*
X215915Y211250D01*
X217164D01*
X228282Y261914D02*
Y264413D01*
X229531D01*
X229948Y263997D01*
Y263164D01*
X229531Y262747D01*
X228282D01*
X229115D02*
X229948Y261914D01*
X232031D02*
Y264413D01*
X230781Y263164D01*
X232447D01*
X233280Y263997D02*
X233697Y264413D01*
X234530D01*
X234946Y263997D01*
Y262331D01*
X234530Y261914D01*
X233697D01*
X233280Y262331D01*
Y263997D01*
X279790Y194891D02*
Y197390D01*
X281040D01*
X281456Y196974D01*
Y196140D01*
X281040Y195724D01*
X279790D01*
X280623D02*
X281456Y194891D01*
X283539D02*
Y197390D01*
X282289Y196140D01*
X283955D01*
X284788Y194891D02*
X285622D01*
X285205D01*
Y197390D01*
X284788Y196974D01*
X219282Y281883D02*
Y284382D01*
X220531D01*
X220948Y283965D01*
Y283132D01*
X220531Y282716D01*
X219282D01*
X220115D02*
X220948Y281883D01*
X223447Y284382D02*
X221781D01*
Y283132D01*
X222614Y283549D01*
X223031D01*
X223447Y283132D01*
Y282299D01*
X223031Y281883D01*
X222198D01*
X221781Y282299D01*
X225946Y281883D02*
X224280D01*
X225946Y283549D01*
Y283965D01*
X225530Y284382D01*
X224697D01*
X224280Y283965D01*
X210731Y216323D02*
Y214240D01*
X211147Y213824D01*
X211980D01*
X212397Y214240D01*
Y216323D01*
X213230Y213824D02*
X214063D01*
X213646D01*
Y216323D01*
X213230Y215906D01*
X216979Y216323D02*
X216146Y215906D01*
X215313Y215073D01*
Y214240D01*
X215729Y213824D01*
X216562D01*
X216979Y214240D01*
Y214657D01*
X216562Y215073D01*
X215313D01*
X249199Y227199D02*
Y225117D01*
X249616Y224700D01*
X250449D01*
X250865Y225117D01*
Y227199D01*
X251698Y226783D02*
X252115Y227199D01*
X252948D01*
X253364Y226783D01*
Y226366D01*
X252948Y225950D01*
X252531D01*
X252948D01*
X253364Y225533D01*
Y225117D01*
X252948Y224700D01*
X252115D01*
X251698Y225117D01*
X255864Y224700D02*
X254198D01*
X255864Y226366D01*
Y226783D01*
X255447Y227199D01*
X254614D01*
X254198Y226783D01*
X293182Y215182D02*
Y213099D01*
X293598Y212683D01*
X294431D01*
X294848Y213099D01*
Y215182D01*
X295681Y214765D02*
X296098Y215182D01*
X296931D01*
X297347Y214765D01*
Y214349D01*
X296931Y213932D01*
X296514D01*
X296931D01*
X297347Y213516D01*
Y213099D01*
X296931Y212683D01*
X296098D01*
X295681Y213099D01*
X274182Y229182D02*
Y227099D01*
X274598Y226683D01*
X275431D01*
X275848Y227099D01*
Y229182D01*
X276681Y227099D02*
X277098Y226683D01*
X277931D01*
X278347Y227099D01*
Y228765D01*
X277931Y229182D01*
X277098D01*
X276681Y228765D01*
Y228349D01*
X277098Y227932D01*
X278347D01*
X123397Y202323D02*
X121731D01*
Y201073D01*
X122564D01*
X121731D01*
Y199824D01*
X124230Y202323D02*
Y199824D01*
X125479D01*
X125896Y200240D01*
Y200657D01*
X125479Y201073D01*
X124230D01*
X125479D01*
X125896Y201490D01*
Y201906D01*
X125479Y202323D01*
X124230D01*
X126729Y199824D02*
X127562D01*
X127146D01*
Y202323D01*
X126729Y201906D01*
X128812D02*
X129228Y202323D01*
X130061D01*
X130478Y201906D01*
Y200240D01*
X130061Y199824D01*
X129228D01*
X128812Y200240D01*
Y201906D01*
X84956Y248973D02*
X84540Y249390D01*
X83707D01*
X83290Y248973D01*
Y247307D01*
X83707Y246891D01*
X84540D01*
X84956Y247307D01*
X87455Y249390D02*
X86622Y248973D01*
X85789Y248140D01*
Y247307D01*
X86206Y246891D01*
X87039D01*
X87455Y247307D01*
Y247724D01*
X87039Y248140D01*
X85789D01*
X89955Y246891D02*
X88288D01*
X89955Y248557D01*
Y248973D01*
X89538Y249390D01*
X88705D01*
X88288Y248973D01*
X71456Y233974D02*
X71040Y234390D01*
X70207D01*
X69790Y233974D01*
Y232307D01*
X70207Y231891D01*
X71040D01*
X71456Y232307D01*
X73955Y231891D02*
X72289D01*
X73955Y233557D01*
Y233974D01*
X73539Y234390D01*
X72706D01*
X72289Y233974D01*
X482500Y69999D02*
Y67500D01*
Y68750D01*
X484166D01*
Y69999D01*
Y67500D01*
X486665D02*
X484999D01*
X486665Y69166D01*
Y69583D01*
X486249Y69999D01*
X485416D01*
X484999Y69583D01*
X489164Y69999D02*
X487498D01*
Y68750D01*
X488331Y69166D01*
X488748D01*
X489164Y68750D01*
Y67917D01*
X488748Y67500D01*
X487915D01*
X487498Y67917D01*
X217107Y359050D02*
X216690Y359466D01*
X215858D01*
X215441Y359050D01*
Y357384D01*
X215858Y356967D01*
X216690D01*
X217107Y357384D01*
X219606Y359466D02*
X218773Y359050D01*
X217940Y358217D01*
Y357384D01*
X218357Y356967D01*
X219190D01*
X219606Y357384D01*
Y357800D01*
X219190Y358217D01*
X217940D01*
X222105Y359466D02*
X220439D01*
Y358217D01*
X221272Y358633D01*
X221689D01*
X222105Y358217D01*
Y357384D01*
X221689Y356967D01*
X220856D01*
X220439Y357384D01*
X183284Y315294D02*
X182868Y315710D01*
X182035D01*
X181618Y315294D01*
Y313628D01*
X182035Y313211D01*
X182868D01*
X183284Y313628D01*
X184118Y313211D02*
X184951D01*
X184534D01*
Y315710D01*
X184118Y315294D01*
X187450Y313211D02*
Y315710D01*
X186200Y314461D01*
X187866D01*
X194500Y337499D02*
Y335417D01*
X194916Y335000D01*
X195750D01*
X196166Y335417D01*
Y337499D01*
X196999D02*
X198665D01*
Y337083D01*
X196999Y335417D01*
Y335000D01*
X109609Y334429D02*
X111692D01*
X112108Y334845D01*
Y335678D01*
X111692Y336095D01*
X109609D01*
Y338594D02*
X110026Y337761D01*
X110859Y336928D01*
X111692D01*
X112108Y337344D01*
Y338177D01*
X111692Y338594D01*
X111275D01*
X110859Y338177D01*
Y336928D01*
X87133Y330474D02*
X84634D01*
Y331723D01*
X85050Y332140D01*
X85883D01*
X86300Y331723D01*
Y330474D01*
Y331307D02*
X87133Y332140D01*
Y334639D02*
Y332973D01*
X85467Y334639D01*
X85050D01*
X84634Y334223D01*
Y333389D01*
X85050Y332973D01*
Y335472D02*
X84634Y335889D01*
Y336722D01*
X85050Y337138D01*
X86716D01*
X87133Y336722D01*
Y335889D01*
X86716Y335472D01*
X85050D01*
X122533Y330674D02*
X120034D01*
Y331923D01*
X120450Y332340D01*
X121283D01*
X121700Y331923D01*
Y330674D01*
Y331507D02*
X122533Y332340D01*
Y333173D02*
Y334006D01*
Y333589D01*
X120034D01*
X120450Y333173D01*
X122116Y335256D02*
X122533Y335672D01*
Y336505D01*
X122116Y336922D01*
X120450D01*
X120034Y336505D01*
Y335672D01*
X120450Y335256D01*
X120867D01*
X121283Y335672D01*
Y336922D01*
X93133Y305074D02*
X90634D01*
Y306323D01*
X91050Y306740D01*
X91883D01*
X92300Y306323D01*
Y305074D01*
Y305907D02*
X93133Y306740D01*
Y307573D02*
Y308406D01*
Y307989D01*
X90634D01*
X91050Y307573D01*
Y309655D02*
X90634Y310072D01*
Y310905D01*
X91050Y311322D01*
X91467D01*
X91883Y310905D01*
X92300Y311322D01*
X92716D01*
X93133Y310905D01*
Y310072D01*
X92716Y309655D01*
X92300D01*
X91883Y310072D01*
X91467Y309655D01*
X91050D01*
X91883Y310072D02*
Y310905D01*
X112533Y311474D02*
X110034D01*
Y312723D01*
X110450Y313140D01*
X111283D01*
X111700Y312723D01*
Y311474D01*
Y312307D02*
X112533Y313140D01*
Y313973D02*
Y314806D01*
Y314389D01*
X110034D01*
X110450Y313973D01*
X110034Y316055D02*
Y317722D01*
X110450D01*
X112116Y316055D01*
X112533D01*
X86000Y356000D02*
Y358499D01*
X87250D01*
X87666Y358083D01*
Y357250D01*
X87250Y356833D01*
X86000D01*
X86833D02*
X87666Y356000D01*
X88499D02*
X89332D01*
X88916D01*
Y358499D01*
X88499Y358083D01*
X92248Y358499D02*
X91415Y358083D01*
X90582Y357250D01*
Y356417D01*
X90998Y356000D01*
X91831D01*
X92248Y356417D01*
Y356833D01*
X91831Y357250D01*
X90582D01*
X107500Y356500D02*
Y358999D01*
X108750D01*
X109166Y358583D01*
Y357750D01*
X108750Y357333D01*
X107500D01*
X108333D02*
X109166Y356500D01*
X109999D02*
X110832D01*
X110416D01*
Y358999D01*
X109999Y358583D01*
X113748Y358999D02*
X112082D01*
Y357750D01*
X112915Y358166D01*
X113331D01*
X113748Y357750D01*
Y356916D01*
X113331Y356500D01*
X112498D01*
X112082Y356916D01*
X128333Y304474D02*
X125834D01*
Y305723D01*
X126250Y306140D01*
X127083D01*
X127500Y305723D01*
Y304474D01*
Y305307D02*
X128333Y306140D01*
Y306973D02*
Y307806D01*
Y307389D01*
X125834D01*
X126250Y306973D01*
X128333Y310305D02*
X125834D01*
X127083Y309055D01*
Y310722D01*
X144733Y311274D02*
X142234D01*
Y312523D01*
X142650Y312940D01*
X143483D01*
X143900Y312523D01*
Y311274D01*
Y312107D02*
X144733Y312940D01*
Y313773D02*
Y314606D01*
Y314189D01*
X142234D01*
X142650Y313773D01*
Y315856D02*
X142234Y316272D01*
Y317105D01*
X142650Y317522D01*
X143067D01*
X143483Y317105D01*
Y316689D01*
Y317105D01*
X143900Y317522D01*
X144316D01*
X144733Y317105D01*
Y316272D01*
X144316Y315856D01*
X121000Y356000D02*
Y358499D01*
X122250D01*
X122666Y358083D01*
Y357250D01*
X122250Y356833D01*
X121000D01*
X121833D02*
X122666Y356000D01*
X123499D02*
X124332D01*
X123916D01*
Y358499D01*
X123499Y358083D01*
X127248Y356000D02*
X125582D01*
X127248Y357666D01*
Y358083D01*
X126831Y358499D01*
X125998D01*
X125582Y358083D01*
X138500Y356500D02*
Y358999D01*
X139750D01*
X140166Y358583D01*
Y357750D01*
X139750Y357333D01*
X138500D01*
X139333D02*
X140166Y356500D01*
X140999D02*
X141832D01*
X141416D01*
Y358999D01*
X140999Y358583D01*
X143082Y356500D02*
X143915D01*
X143498D01*
Y358999D01*
X143082Y358583D01*
X222107Y314464D02*
X221691Y314881D01*
X220858D01*
X220441Y314464D01*
Y312798D01*
X220858Y312382D01*
X221691D01*
X222107Y312798D01*
X224606Y314881D02*
X223773Y314464D01*
X222940Y313632D01*
Y312798D01*
X223357Y312382D01*
X224190D01*
X224606Y312798D01*
Y313215D01*
X224190Y313632D01*
X222940D01*
X227105Y314881D02*
X226272Y314464D01*
X225439Y313632D01*
Y312798D01*
X225856Y312382D01*
X226689D01*
X227105Y312798D01*
Y313215D01*
X226689Y313632D01*
X225439D01*
X186284Y348694D02*
X185868Y349111D01*
X185035D01*
X184618Y348694D01*
Y347028D01*
X185035Y346611D01*
X185868D01*
X186284Y347028D01*
X187118Y346611D02*
X187951D01*
X187534D01*
Y349111D01*
X187118Y348694D01*
X189200D02*
X189617Y349111D01*
X190450D01*
X190866Y348694D01*
Y348277D01*
X190450Y347861D01*
X190033D01*
X190450D01*
X190866Y347444D01*
Y347028D01*
X190450Y346611D01*
X189617D01*
X189200Y347028D01*
X486500Y30499D02*
Y28000D01*
Y29250D01*
X488166D01*
Y30499D01*
Y28000D01*
X488999D02*
X489832D01*
X489416D01*
Y30499D01*
X488999Y30083D01*
X491082D02*
X491498Y30499D01*
X492332D01*
X492748Y30083D01*
Y29666D01*
X492332Y29250D01*
X492748Y28833D01*
Y28416D01*
X492332Y28000D01*
X491498D01*
X491082Y28416D01*
Y28833D01*
X491498Y29250D01*
X491082Y29666D01*
Y30083D01*
X491498Y29250D02*
X492332D01*
X485000Y51999D02*
Y49500D01*
Y50750D01*
X486666D01*
Y51999D01*
Y49500D01*
X487499D02*
X488332D01*
X487916D01*
Y51999D01*
X487499Y51583D01*
X491248Y51999D02*
X489582D01*
Y50750D01*
X490415Y51166D01*
X490832D01*
X491248Y50750D01*
Y49916D01*
X490832Y49500D01*
X489998D01*
X489582Y49916D01*
X455615Y58374D02*
X455198Y57958D01*
Y57125D01*
X455615Y56708D01*
X457281D01*
X457697Y57125D01*
Y57958D01*
X457281Y58374D01*
Y59207D02*
X457697Y59624D01*
Y60457D01*
X457281Y60874D01*
X455615D01*
X455198Y60457D01*
Y59624D01*
X455615Y59207D01*
X456031D01*
X456448Y59624D01*
Y60874D01*
X457697Y61707D02*
Y62540D01*
Y62123D01*
X455198D01*
X455615Y61707D01*
X419363Y74291D02*
X418947Y74707D01*
X418114D01*
X417697Y74291D01*
Y72625D01*
X418114Y72208D01*
X418947D01*
X419363Y72625D01*
X420196Y72208D02*
X421030D01*
X420613D01*
Y74707D01*
X420196Y74291D01*
X422279D02*
X422696Y74707D01*
X423529D01*
X423945Y74291D01*
Y73874D01*
X423529Y73458D01*
X423945Y73041D01*
Y72625D01*
X423529Y72208D01*
X422696D01*
X422279Y72625D01*
Y73041D01*
X422696Y73458D01*
X422279Y73874D01*
Y74291D01*
X422696Y73458D02*
X423529D01*
X446363Y72791D02*
X445947Y73207D01*
X445114D01*
X444697Y72791D01*
Y71125D01*
X445114Y70708D01*
X445947D01*
X446363Y71125D01*
X447196Y73207D02*
X448863D01*
Y72791D01*
X447196Y71125D01*
Y70708D01*
X451362Y73207D02*
X449696D01*
Y71958D01*
X450529Y72374D01*
X450945D01*
X451362Y71958D01*
Y71125D01*
X450945Y70708D01*
X450112D01*
X449696Y71125D01*
X416863Y61791D02*
X416447Y62207D01*
X415614D01*
X415197Y61791D01*
Y60125D01*
X415614Y59708D01*
X416447D01*
X416863Y60125D01*
X417697Y62207D02*
X419363D01*
Y61791D01*
X417697Y60125D01*
Y59708D01*
X421862Y62207D02*
X421029Y61791D01*
X420196Y60958D01*
Y60125D01*
X420612Y59708D01*
X421445D01*
X421862Y60125D01*
Y60541D01*
X421445Y60958D01*
X420196D01*
X428697Y85708D02*
X426198D01*
Y86958D01*
X426615Y87374D01*
X427448D01*
X427864Y86958D01*
Y85708D01*
Y86541D02*
X428697Y87374D01*
Y89457D02*
X426198D01*
X427448Y88207D01*
Y89873D01*
X426198Y92373D02*
X426615Y91540D01*
X427448Y90707D01*
X428281D01*
X428697Y91123D01*
Y91956D01*
X428281Y92373D01*
X427864D01*
X427448Y91956D01*
Y90707D01*
X441680Y86700D02*
X439181D01*
Y87950D01*
X439598Y88366D01*
X440431D01*
X440847Y87950D01*
Y86700D01*
Y87533D02*
X441680Y88366D01*
Y90449D02*
X439181D01*
X440431Y89199D01*
Y90865D01*
X439181Y91698D02*
Y93365D01*
X439598D01*
X441264Y91698D01*
X441680D01*
X427115Y96874D02*
X426698Y96458D01*
Y95625D01*
X427115Y95208D01*
X428781D01*
X429197Y95625D01*
Y96458D01*
X428781Y96874D01*
X427115Y97707D02*
X426698Y98124D01*
Y98957D01*
X427115Y99374D01*
X427531D01*
X427948Y98957D01*
X428364Y99374D01*
X428781D01*
X429197Y98957D01*
Y98124D01*
X428781Y97707D01*
X428364D01*
X427948Y98124D01*
X427531Y97707D01*
X427115D01*
X427948Y98124D02*
Y98957D01*
X429197Y101456D02*
X426698D01*
X427948Y100207D01*
Y101873D01*
X403006Y55766D02*
Y53267D01*
Y54517D01*
X404672D01*
Y55766D01*
Y53267D01*
X405505D02*
X406338D01*
X405921D01*
Y55766D01*
X405505Y55350D01*
X407587D02*
X408004Y55766D01*
X408837D01*
X409254Y55350D01*
Y54933D01*
X408837Y54517D01*
X408420D01*
X408837D01*
X409254Y54100D01*
Y53684D01*
X408837Y53267D01*
X408004D01*
X407587Y53684D01*
X456197Y81208D02*
X453698D01*
Y82458D01*
X454115Y82874D01*
X454948D01*
X455364Y82458D01*
Y81208D01*
Y82041D02*
X456197Y82874D01*
X454115Y83707D02*
X453698Y84124D01*
Y84957D01*
X454115Y85374D01*
X454531D01*
X454948Y84957D01*
Y84540D01*
Y84957D01*
X455364Y85374D01*
X455781D01*
X456197Y84957D01*
Y84124D01*
X455781Y83707D01*
X454115Y86207D02*
X453698Y86623D01*
Y87456D01*
X454115Y87873D01*
X455781D01*
X456197Y87456D01*
Y86623D01*
X455781Y86207D01*
X454115D01*
X439115Y96874D02*
X438698Y96458D01*
Y95625D01*
X439115Y95208D01*
X440781D01*
X441197Y95625D01*
Y96458D01*
X440781Y96874D01*
X439115Y97707D02*
X438698Y98124D01*
Y98957D01*
X439115Y99374D01*
X439531D01*
X439948Y98957D01*
X440364Y99374D01*
X440781D01*
X441197Y98957D01*
Y98124D01*
X440781Y97707D01*
X440364D01*
X439948Y98124D01*
X439531Y97707D01*
X439115D01*
X439948Y98124D02*
Y98957D01*
X438698Y101873D02*
Y100207D01*
X439948D01*
X439531Y101040D01*
Y101456D01*
X439948Y101873D01*
X440781D01*
X441197Y101456D01*
Y100623D01*
X440781Y100207D01*
X425615Y52874D02*
X425198Y52458D01*
Y51625D01*
X425615Y51208D01*
X427281D01*
X427697Y51625D01*
Y52458D01*
X427281Y52874D01*
X427697Y53707D02*
Y54540D01*
Y54124D01*
X425198D01*
X425615Y53707D01*
X427697Y55790D02*
Y56623D01*
Y56207D01*
X425198D01*
X425615Y55790D01*
X440615Y52374D02*
X440198Y51958D01*
Y51125D01*
X440615Y50708D01*
X442281D01*
X442697Y51125D01*
Y51958D01*
X442281Y52374D01*
X442697Y53207D02*
Y54040D01*
Y53624D01*
X440198D01*
X440615Y53207D01*
X442697Y56956D02*
Y55290D01*
X441031Y56956D01*
X440615D01*
X440198Y56540D01*
Y55707D01*
X440615Y55290D01*
X393615Y14374D02*
X393198Y13958D01*
Y13125D01*
X393615Y12708D01*
X394031D01*
X394448Y13125D01*
Y13958D01*
X394864Y14374D01*
X395281D01*
X395697Y13958D01*
Y13125D01*
X395281Y12708D01*
X395697Y15207D02*
X393198D01*
X394031Y16040D01*
X393198Y16873D01*
X395697D01*
Y17706D02*
X394031D01*
X393198Y18540D01*
X394031Y19373D01*
X395697D01*
X394448D01*
Y17706D01*
X396114Y20206D02*
Y21872D01*
X395697Y22705D02*
X394031D01*
X393198Y23538D01*
X394031Y24371D01*
X395697D01*
X394448D01*
Y22705D01*
X395697Y25204D02*
X393198D01*
X395697Y26870D01*
X393198D01*
X395697Y27703D02*
X394031D01*
X393198Y28536D01*
X394031Y29369D01*
X395697D01*
X394448D01*
Y27703D01*
X396114Y30202D02*
Y31869D01*
X395697Y32702D02*
X393198D01*
X395697Y34368D01*
X393198D01*
X248000Y193999D02*
X249666D01*
X248833D01*
Y191500D01*
X250499D02*
Y193999D01*
X251749D01*
X252165Y193583D01*
Y192750D01*
X251749Y192333D01*
X250499D01*
X252998Y191084D02*
X254664D01*
X255498Y193999D02*
Y191500D01*
X256747D01*
X257164Y191917D01*
Y193583D01*
X256747Y193999D01*
X255498D01*
X257997D02*
Y192333D01*
X258830Y191500D01*
X259663Y192333D01*
Y193999D01*
X260496D02*
Y191500D01*
X261746D01*
X262162Y191917D01*
Y193583D01*
X261746Y193999D01*
X260496D01*
X262995D02*
Y191500D01*
X264245D01*
X264661Y191917D01*
Y193583D01*
X264245Y193999D01*
X262995D01*
X123000Y194999D02*
X124666D01*
X123833D01*
Y192500D01*
X125499D02*
Y194999D01*
X126749D01*
X127165Y194583D01*
Y193750D01*
X126749Y193333D01*
X125499D01*
X127998Y192084D02*
X129665D01*
X130498Y194999D02*
Y193333D01*
X131331Y192500D01*
X132164Y193333D01*
Y194999D01*
X132997D02*
Y192500D01*
X134246D01*
X134663Y192917D01*
Y194583D01*
X134246Y194999D01*
X132997D01*
X135496D02*
Y192500D01*
X136746D01*
X137162Y192917D01*
Y194583D01*
X136746Y194999D01*
X135496D01*
X137995Y192084D02*
X139661D01*
X140494Y194999D02*
X141327D01*
X140911D01*
Y192500D01*
X140494D01*
X141327D01*
X143827Y194999D02*
X142993D01*
X142577Y194583D01*
Y192917D01*
X142993Y192500D01*
X143827D01*
X144243Y192917D01*
Y194583D01*
X143827Y194999D01*
X73500D02*
X75166D01*
X74333D01*
Y192500D01*
X75999D02*
Y194999D01*
X77249D01*
X77665Y194583D01*
Y193750D01*
X77249Y193333D01*
X75999D01*
X78498Y192084D02*
X80164D01*
X80998Y194999D02*
Y193333D01*
X81831Y192500D01*
X82664Y193333D01*
Y194999D01*
X83497D02*
Y192500D01*
X84746D01*
X85163Y192917D01*
Y194583D01*
X84746Y194999D01*
X83497D01*
X85996D02*
Y192500D01*
X87246D01*
X87662Y192917D01*
Y194583D01*
X87246Y194999D01*
X85996D01*
X88495Y192500D02*
Y194166D01*
X89328Y194999D01*
X90161Y194166D01*
Y192500D01*
Y193750D01*
X88495D01*
D42*
X221501Y368000D02*
X223500D01*
X221501Y366001D01*
Y365501D01*
X222001Y365001D01*
X223000D01*
X223500Y365501D01*
Y378000D02*
X222500D01*
X223000D01*
Y375001D01*
X223500Y375501D01*
X117500Y378000D02*
X116500D01*
X117000D01*
Y375001D01*
X117500Y375501D01*
X115001Y377500D02*
X114501Y378000D01*
X113501D01*
X113002Y377500D01*
Y375501D01*
X113501Y375001D01*
X114501D01*
X115001Y375501D01*
Y376001D01*
X114501Y376501D01*
X113002D01*
X115501Y368000D02*
X117500D01*
X115501Y366001D01*
Y365501D01*
X116000Y365001D01*
X117000D01*
X117500Y365501D01*
X114501D02*
X114001Y365001D01*
X113001D01*
X112502Y365501D01*
Y367500D01*
X113001Y368000D01*
X114001D01*
X114501Y367500D01*
Y365501D01*
D111*
X79782Y216733D02*
G03*
X79782Y216733I-492J0D01*
G01*
X137463Y349755D02*
G03*
X137463Y349755I-492J0D01*
G01*
X111498Y220129D02*
G03*
X111498Y220129I-492J0D01*
G01*
X443250Y64513D02*
G03*
X443250Y64513I-492J0D01*
G01*
X388922Y177176D02*
G03*
X388922Y177176I-492J0D01*
G01*
X202298Y248513D02*
G03*
X202298Y248513I-492J0D01*
G01*
X183366Y347307D02*
G03*
X183366Y347307I-492J0D01*
G01*
X29051Y215441D02*
G03*
X29051Y215441I-492J0D01*
G01*
X68298Y248013D02*
G03*
X68298Y248013I-492J0D01*
G01*
X138181Y220112D02*
G03*
X138181Y220112I-492J0D01*
G01*
X163051Y215941D02*
G03*
X163051Y215941I-492J0D01*
G01*
X202782Y215733D02*
G03*
X202782Y215733I-492J0D01*
G01*
X234498Y219129D02*
G03*
X234498Y219129I-492J0D01*
G01*
X285551Y214941D02*
G03*
X285551Y214941I-492J0D01*
G01*
X260681Y219112D02*
G03*
X260681Y219112I-492J0D01*
G01*
X222366Y347307D02*
G03*
X222366Y347307I-492J0D01*
G01*
X105586Y349655D02*
G03*
X105586Y349655I-492J0D01*
G01*
D112*
X471403Y79676D02*
G03*
X471403Y79676I-197J0D01*
G01*
D113*
X194719Y253828D02*
G03*
X194719Y253828I-1181J0D01*
G01*
X60719Y253327D02*
G03*
X60719Y253327I-1181J0D01*
G01*
D114*
X182480Y338416D02*
G03*
X182480Y334348I0J-2034D01*
G01*
X221480Y338416D02*
G03*
X221480Y334348I0J-2034D01*
G01*
X78699Y219292D02*
X81947D01*
X78699D02*
Y222540D01*
X96514Y219292D02*
X99762D01*
Y222540D01*
X96514Y240355D02*
X99762D01*
Y237107D02*
Y240355D01*
X78699D02*
X81947D01*
X78699Y237107D02*
Y240355D01*
X471108Y78101D02*
X471206D01*
X458805D02*
X458903D01*
X471108Y65699D02*
X471206D01*
X458805D02*
X458903D01*
X471206Y76428D02*
Y78101D01*
Y65699D02*
Y67372D01*
X458805Y76428D02*
Y78101D01*
Y65699D02*
Y67372D01*
X410567Y114732D02*
Y125268D01*
X390732Y105433D02*
X401268D01*
X381433Y114732D02*
Y125268D01*
X390732Y134567D02*
X401268D01*
X447430Y41767D02*
X457965D01*
X467264Y21932D02*
Y32468D01*
X447430Y12633D02*
X457965D01*
X438130Y21932D02*
Y32468D01*
X127227Y331841D02*
Y340306D01*
X139038Y331841D02*
Y340306D01*
X127227Y331841D02*
X139038D01*
X127227Y340306D02*
X139038D01*
X123703Y224952D02*
Y231448D01*
X111695Y224952D02*
Y231448D01*
X123703D01*
X111695Y224952D02*
X123703D01*
X440198Y63923D02*
Y65498D01*
X438624Y63923D02*
X440198D01*
X426813D02*
X428387D01*
X426813D02*
Y65498D01*
Y79671D02*
Y81246D01*
X428387D01*
X440198Y79671D02*
Y81246D01*
X438624D02*
X440198D01*
X276000Y307882D02*
Y367882D01*
X256000D02*
X276000D01*
X256000Y307882D02*
Y367882D01*
Y307882D02*
X276000D01*
X118500Y381000D02*
X211000D01*
X118500Y361000D02*
X211000D01*
X218500D01*
Y381000D01*
X211000D02*
X218500D01*
X118500Y361000D02*
Y381000D01*
X493000Y57000D02*
X523000D01*
Y67000D01*
X493000D02*
X523000D01*
X493000Y57000D02*
Y67000D01*
X43000Y321000D02*
Y331000D01*
X63000D01*
Y321000D02*
Y331000D01*
X43000Y321000D02*
X63000D01*
X197475Y249890D02*
Y275875D01*
X184089Y249890D02*
Y275875D01*
Y249890D02*
X197475D01*
X184089Y275875D02*
X197475D01*
X182480Y338416D02*
Y342484D01*
Y330279D02*
Y334348D01*
X162402Y330279D02*
Y342484D01*
X182480D01*
X162402Y330279D02*
X182480D01*
X510221Y38276D02*
X514552D01*
X510221Y48119D02*
X514552D01*
X27968Y218000D02*
X31216D01*
X27968D02*
Y221248D01*
X45783Y218000D02*
X49031D01*
Y221248D01*
X45783Y239063D02*
X49031D01*
Y235815D02*
Y239063D01*
X27968D02*
X31216D01*
X27968Y235815D02*
Y239063D01*
X63475Y249391D02*
Y275375D01*
X50089Y249391D02*
Y275375D01*
Y249391D02*
X63475D01*
X50089Y275375D02*
X63475D01*
X31000Y184000D02*
X51000D01*
Y194000D01*
X31000D02*
X51000D01*
X31000Y184000D02*
Y194000D01*
X357000Y93500D02*
X387000D01*
X357000Y83500D02*
Y93500D01*
Y83500D02*
X387000D01*
Y93500D01*
X61841Y283532D02*
Y293532D01*
X31841Y283532D02*
X61841D01*
X31841D02*
Y293532D01*
X61841D01*
X76500Y369000D02*
Y379000D01*
X106500D01*
Y369000D02*
Y379000D01*
X76500Y369000D02*
X106500D01*
X46000Y158500D02*
X66000D01*
Y168500D01*
X46000D02*
X66000D01*
X46000Y158500D02*
Y168500D01*
X74500Y148000D02*
X84500D01*
X74500D02*
Y178000D01*
X84500D01*
Y148000D02*
Y178000D01*
X217782Y183914D02*
X237782D01*
Y193914D01*
X217782D02*
X237782D01*
X217782Y183914D02*
Y193914D01*
X265282Y183414D02*
X285282D01*
Y193414D01*
X265282D02*
X285282D01*
X265282Y183414D02*
Y193414D01*
X92282Y183914D02*
X112282D01*
Y193914D01*
X92282D02*
X112282D01*
X92282Y183914D02*
Y193914D01*
X145782Y183914D02*
X165782D01*
Y193914D01*
X145782D02*
X165782D01*
X145782Y183914D02*
Y193914D01*
X58835Y369079D02*
X63165D01*
X58835Y378921D02*
X63165D01*
X28335Y158579D02*
X32665D01*
X28335Y168421D02*
X32665D01*
X233774Y287906D02*
Y297906D01*
X203774Y287906D02*
X233774D01*
X203774D02*
Y297906D01*
X233774D01*
X178782Y287883D02*
Y297883D01*
X148782Y287883D02*
X178782D01*
X148782D02*
Y297883D01*
X178782D01*
X138378Y224935D02*
X150386D01*
X138378Y231431D02*
X150386D01*
X138378Y224935D02*
Y231431D01*
X150386Y224935D02*
Y231431D01*
X161969Y218500D02*
X165217D01*
X161969D02*
Y221748D01*
X179783Y218500D02*
X183031D01*
Y221748D01*
X179783Y239563D02*
X183031D01*
Y236315D02*
Y239563D01*
X161969D02*
X165217D01*
X161969Y236315D02*
Y239563D01*
X110782Y253383D02*
Y263383D01*
X80782Y253383D02*
X110782D01*
X80782D02*
Y263383D01*
X110782D01*
X282000Y269000D02*
Y279000D01*
X252000Y269000D02*
X282000D01*
X252000D02*
Y279000D01*
X282000D01*
X201699Y218292D02*
X204947D01*
X201699D02*
Y221540D01*
X219514Y218292D02*
X222762D01*
Y221540D01*
X219514Y239355D02*
X222762D01*
Y236107D02*
Y239355D01*
X201699D02*
X204947D01*
X201699Y236107D02*
Y239355D01*
X246703Y223952D02*
Y230448D01*
X234695Y223952D02*
Y230448D01*
X246703D01*
X234695Y223952D02*
X246703D01*
X284469Y217500D02*
X287717D01*
X284469D02*
Y220748D01*
X302284Y217500D02*
X305532D01*
Y220748D01*
X302284Y238563D02*
X305532D01*
Y235315D02*
Y238563D01*
X284469D02*
X287717D01*
X284469Y235315D02*
Y238563D01*
X260878Y223935D02*
X272886D01*
X260878Y230431D02*
X272886D01*
X260878Y223935D02*
Y230431D01*
X272886Y223935D02*
Y230431D01*
X480500Y72000D02*
Y92000D01*
Y72000D02*
X490500D01*
Y92000D01*
X480500D02*
X490500D01*
X221480Y338416D02*
Y342484D01*
Y330279D02*
Y334348D01*
X201402Y330279D02*
Y342484D01*
X221480D01*
X201402Y330279D02*
X221480D01*
X95349Y331741D02*
Y340206D01*
X107160Y331741D02*
Y340206D01*
X95349Y331741D02*
X107160D01*
X95349Y340206D02*
X107160D01*
X485000Y26000D02*
X515000D01*
X485000Y16000D02*
Y26000D01*
Y16000D02*
X515000D01*
Y26000D01*
X478292Y37697D02*
Y47697D01*
X498292D01*
Y37697D02*
Y47697D01*
X478292Y37697D02*
X498292D01*
X401006Y57267D02*
X411005D01*
X401006D02*
Y77267D01*
X411005D01*
Y57267D02*
Y77267D01*
X407432Y41767D02*
X417968D01*
X427267Y21932D02*
Y32468D01*
X407432Y12633D02*
X417968D01*
X398133Y21932D02*
Y32468D01*
X57599Y27649D02*
X55500D01*
Y26074D01*
X56550D01*
X55500D01*
Y24500D01*
X58649D02*
Y26599D01*
X59698Y27649D01*
X60748Y26599D01*
Y24500D01*
Y26074D01*
X58649D01*
X61797Y27649D02*
Y24500D01*
X63371D01*
X63896Y25025D01*
Y27124D01*
X63371Y27649D01*
X61797D01*
X67045D02*
X64946D01*
Y24500D01*
X67045D01*
X64946Y26074D02*
X65995D01*
X68094Y24500D02*
Y27649D01*
X69669D01*
X70193Y27124D01*
Y26074D01*
X69669Y25550D01*
X68094D01*
X69144D02*
X70193Y24500D01*
X73342D02*
X71243D01*
X73342Y26599D01*
Y27124D01*
X72817Y27649D01*
X71768D01*
X71243Y27124D01*
X55000Y19124D02*
X55525Y19649D01*
X56574D01*
X57099Y19124D01*
Y17025D01*
X56574Y16500D01*
X55525D01*
X55000Y17025D01*
Y19124D01*
X58149D02*
X58673Y19649D01*
X59723D01*
X60248Y19124D01*
Y18599D01*
X59723Y18074D01*
X60248Y17549D01*
Y17025D01*
X59723Y16500D01*
X58673D01*
X58149Y17025D01*
Y17549D01*
X58673Y18074D01*
X58149Y18599D01*
Y19124D01*
X58673Y18074D02*
X59723D01*
X61297Y16500D02*
X63396Y18599D01*
X64446Y16500D02*
X65495D01*
X64970D01*
Y19649D01*
X64446Y19124D01*
X68644Y16500D02*
Y19649D01*
X67070Y18074D01*
X69169D01*
X70218Y16500D02*
X72317Y18599D01*
X75466Y16500D02*
X73367D01*
X75466Y18599D01*
Y19124D01*
X74941Y19649D01*
X73892D01*
X73367Y19124D01*
X76515D02*
X77040Y19649D01*
X78090D01*
X78614Y19124D01*
Y17025D01*
X78090Y16500D01*
X77040D01*
X76515Y17025D01*
Y19124D01*
X79664Y16500D02*
X80713D01*
X80189D01*
Y19649D01*
X79664Y19124D01*
X82288D02*
X82812Y19649D01*
X83862D01*
X84387Y19124D01*
Y18599D01*
X83862Y18074D01*
X84387Y17549D01*
Y17025D01*
X83862Y16500D01*
X82812D01*
X82288Y17025D01*
Y17549D01*
X82812Y18074D01*
X82288Y18599D01*
Y19124D01*
X82812Y18074D02*
X83862D01*
D115*
X55082Y231882D02*
X54882Y232082D01*
X54482D01*
X54282Y231882D01*
Y231083D01*
X54482Y230883D01*
X54882D01*
X55082Y231083D01*
X55481D02*
X55681Y230883D01*
X56081D01*
X56281Y231083D01*
Y231882D01*
X56081Y232082D01*
X55681D01*
X55481Y231882D01*
Y231682D01*
X55681Y231483D01*
X56281D01*
X57481Y232082D02*
X56681D01*
Y231483D01*
X57081Y231682D01*
X57281D01*
X57481Y231483D01*
Y231083D01*
X57281Y230883D01*
X56881D01*
X56681Y231083D01*
X56282Y221382D02*
X56082Y221582D01*
X55682D01*
X55482Y221382D01*
Y220583D01*
X55682Y220383D01*
X56082D01*
X56282Y220583D01*
X56682Y220383D02*
X57081D01*
X56881D01*
Y221582D01*
X56682Y221382D01*
X57681Y220383D02*
X58081D01*
X57881D01*
Y221582D01*
X57681Y221382D01*
X58681D02*
X58881Y221582D01*
X59281D01*
X59481Y221382D01*
Y221182D01*
X59281Y220983D01*
X59081D01*
X59281D01*
X59481Y220782D01*
Y220583D01*
X59281Y220383D01*
X58881D01*
X58681Y220583D01*
X51082Y240982D02*
X50882Y241182D01*
X50482D01*
X50282Y240982D01*
Y240183D01*
X50482Y239983D01*
X50882D01*
X51082Y240183D01*
X52281Y241182D02*
X51881Y240982D01*
X51481Y240582D01*
Y240183D01*
X51681Y239983D01*
X52081D01*
X52281Y240183D01*
Y240383D01*
X52081Y240582D01*
X51481D01*
X53281Y239983D02*
Y241182D01*
X52681Y240582D01*
X53481D01*
X51082Y245182D02*
X50882Y245382D01*
X50482D01*
X50282Y245182D01*
Y244383D01*
X50482Y244183D01*
X50882D01*
X51082Y244383D01*
X52281Y245382D02*
X51881Y245182D01*
X51481Y244782D01*
Y244383D01*
X51681Y244183D01*
X52081D01*
X52281Y244383D01*
Y244583D01*
X52081Y244782D01*
X51481D01*
X52681Y245182D02*
X52881Y245382D01*
X53281D01*
X53481Y245182D01*
Y244982D01*
X53281Y244782D01*
X53081D01*
X53281D01*
X53481Y244583D01*
Y244383D01*
X53281Y244183D01*
X52881D01*
X52681Y244383D01*
X185082Y245682D02*
X184882Y245882D01*
X184482D01*
X184282Y245682D01*
Y244883D01*
X184482Y244683D01*
X184882D01*
X185082Y244883D01*
X185482Y245682D02*
X185681Y245882D01*
X186081D01*
X186281Y245682D01*
Y245482D01*
X186081Y245283D01*
X185881D01*
X186081D01*
X186281Y245082D01*
Y244883D01*
X186081Y244683D01*
X185681D01*
X185482Y244883D01*
X185082Y241482D02*
X184882Y241682D01*
X184482D01*
X184282Y241482D01*
Y240683D01*
X184482Y240483D01*
X184882D01*
X185082Y240683D01*
X186081Y240483D02*
Y241682D01*
X185482Y241083D01*
X186281D01*
X136682Y239482D02*
X136482Y239682D01*
X136082D01*
X135882Y239482D01*
Y238683D01*
X136082Y238483D01*
X136482D01*
X136682Y238683D01*
X137881Y238483D02*
X137082D01*
X137881Y239282D01*
Y239482D01*
X137681Y239682D01*
X137281D01*
X137082Y239482D01*
X139081Y239682D02*
X138281D01*
Y239083D01*
X138681Y239282D01*
X138881D01*
X139081Y239083D01*
Y238683D01*
X138881Y238483D01*
X138481D01*
X138281Y238683D01*
X126082Y234482D02*
X125882Y234682D01*
X125482D01*
X125282Y234482D01*
Y233683D01*
X125482Y233483D01*
X125882D01*
X126082Y233683D01*
X127281Y233483D02*
X126481D01*
X127281Y234282D01*
Y234482D01*
X127081Y234682D01*
X126681D01*
X126481Y234482D01*
X128481Y234682D02*
X128081Y234482D01*
X127681Y234083D01*
Y233683D01*
X127881Y233483D01*
X128281D01*
X128481Y233683D01*
Y233882D01*
X128281Y234083D01*
X127681D01*
X190282Y221882D02*
X190082Y222082D01*
X189682D01*
X189482Y221882D01*
Y221083D01*
X189682Y220883D01*
X190082D01*
X190282Y221083D01*
X191481Y220883D02*
X190682D01*
X191481Y221682D01*
Y221882D01*
X191281Y222082D01*
X190881D01*
X190682Y221882D01*
X191881Y221083D02*
X192081Y220883D01*
X192481D01*
X192681Y221083D01*
Y221882D01*
X192481Y222082D01*
X192081D01*
X191881Y221882D01*
Y221682D01*
X192081Y221482D01*
X192681D01*
X189082Y232382D02*
X188882Y232582D01*
X188482D01*
X188282Y232382D01*
Y231583D01*
X188482Y231383D01*
X188882D01*
X189082Y231583D01*
X189481Y232382D02*
X189681Y232582D01*
X190081D01*
X190281Y232382D01*
Y232182D01*
X190081Y231982D01*
X189881D01*
X190081D01*
X190281Y231783D01*
Y231583D01*
X190081Y231383D01*
X189681D01*
X189481Y231583D01*
X190681Y232582D02*
X191481D01*
Y232382D01*
X190681Y231583D01*
Y231383D01*
X313082Y235382D02*
X312882Y235582D01*
X312482D01*
X312282Y235382D01*
Y234583D01*
X312482Y234383D01*
X312882D01*
X313082Y234583D01*
X314281Y234383D02*
X313481D01*
X314281Y235182D01*
Y235382D01*
X314081Y235582D01*
X313681D01*
X313481Y235382D01*
X314681D02*
X314881Y235582D01*
X315281D01*
X315481Y235382D01*
Y235182D01*
X315281Y234982D01*
X315081D01*
X315281D01*
X315481Y234783D01*
Y234583D01*
X315281Y234383D01*
X314881D01*
X314681Y234583D01*
X225030Y217823D02*
X224831Y218023D01*
X224431D01*
X224231Y217823D01*
Y217023D01*
X224431Y216824D01*
X224831D01*
X225030Y217023D01*
X225430Y217823D02*
X225630Y218023D01*
X226030D01*
X226230Y217823D01*
Y217623D01*
X226030Y217423D01*
X225830D01*
X226030D01*
X226230Y217224D01*
Y217023D01*
X226030Y216824D01*
X225630D01*
X225430Y217023D01*
X227430Y216824D02*
X226630D01*
X227430Y217623D01*
Y217823D01*
X227230Y218023D01*
X226830D01*
X226630Y217823D01*
X194082Y225382D02*
X193882Y225582D01*
X193482D01*
X193282Y225382D01*
Y224583D01*
X193482Y224383D01*
X193882D01*
X194082Y224583D01*
X194482Y225382D02*
X194681Y225582D01*
X195081D01*
X195281Y225382D01*
Y225182D01*
X195081Y224983D01*
X194881D01*
X195081D01*
X195281Y224782D01*
Y224583D01*
X195081Y224383D01*
X194681D01*
X194482Y224583D01*
X195681Y225382D02*
X195881Y225582D01*
X196281D01*
X196481Y225382D01*
Y225182D01*
X196281Y224983D01*
X196081D01*
X196281D01*
X196481Y224782D01*
Y224583D01*
X196281Y224383D01*
X195881D01*
X195681Y224583D01*
X227530Y227323D02*
X227330Y227523D01*
X226931D01*
X226731Y227323D01*
Y226523D01*
X226931Y226324D01*
X227330D01*
X227530Y226523D01*
X227930Y227323D02*
X228130Y227523D01*
X228530D01*
X228730Y227323D01*
Y227123D01*
X228530Y226923D01*
X228330D01*
X228530D01*
X228730Y226724D01*
Y226523D01*
X228530Y226324D01*
X228130D01*
X227930Y226523D01*
X229130Y227323D02*
X229330Y227523D01*
X229730D01*
X229930Y227323D01*
Y227123D01*
X229730Y226923D01*
X229930Y226724D01*
Y226523D01*
X229730Y226324D01*
X229330D01*
X229130Y226523D01*
Y226724D01*
X229330Y226923D01*
X229130Y227123D01*
Y227323D01*
X229330Y226923D02*
X229730D01*
X207590Y245890D02*
X207390Y246091D01*
X206990D01*
X206790Y245890D01*
Y245091D01*
X206990Y244891D01*
X207390D01*
X207590Y245091D01*
X207990Y245890D02*
X208190Y246091D01*
X208589D01*
X208789Y245890D01*
Y245691D01*
X208589Y245491D01*
X208389D01*
X208589D01*
X208789Y245291D01*
Y245091D01*
X208589Y244891D01*
X208190D01*
X207990Y245091D01*
X209189D02*
X209389Y244891D01*
X209789D01*
X209989Y245091D01*
Y245890D01*
X209789Y246091D01*
X209389D01*
X209189Y245890D01*
Y245691D01*
X209389Y245491D01*
X209989D01*
X258582Y238382D02*
X258382Y238582D01*
X257982D01*
X257782Y238382D01*
Y237583D01*
X257982Y237383D01*
X258382D01*
X258582Y237583D01*
X259781Y238582D02*
X259381Y238382D01*
X258981Y237983D01*
Y237583D01*
X259181Y237383D01*
X259581D01*
X259781Y237583D01*
Y237783D01*
X259581Y237983D01*
X258981D01*
X260181Y237583D02*
X260381Y237383D01*
X260781D01*
X260981Y237583D01*
Y238382D01*
X260781Y238582D01*
X260381D01*
X260181Y238382D01*
Y238182D01*
X260381Y237983D01*
X260981D01*
X224530Y241823D02*
X224330Y242023D01*
X223931D01*
X223731Y241823D01*
Y241023D01*
X223931Y240824D01*
X224330D01*
X224530Y241023D01*
X224930Y242023D02*
X225730D01*
Y241823D01*
X224930Y241023D01*
Y240824D01*
X226130Y241823D02*
X226330Y242023D01*
X226730D01*
X226930Y241823D01*
Y241023D01*
X226730Y240824D01*
X226330D01*
X226130Y241023D01*
Y241823D01*
X232530D02*
X232330Y242023D01*
X231931D01*
X231731Y241823D01*
Y241023D01*
X231931Y240824D01*
X232330D01*
X232530Y241023D01*
X232930Y242023D02*
X233730D01*
Y241823D01*
X232930Y241023D01*
Y240824D01*
X234130D02*
X234530D01*
X234330D01*
Y242023D01*
X234130Y241823D01*
X251082Y238382D02*
X250882Y238582D01*
X250482D01*
X250282Y238382D01*
Y237583D01*
X250482Y237383D01*
X250882D01*
X251082Y237583D01*
X251482Y238582D02*
X252281D01*
Y238382D01*
X251482Y237583D01*
Y237383D01*
X252681Y238382D02*
X252881Y238582D01*
X253281D01*
X253481Y238382D01*
Y238182D01*
X253281Y237983D01*
X253481Y237783D01*
Y237583D01*
X253281Y237383D01*
X252881D01*
X252681Y237583D01*
Y237783D01*
X252881Y237983D01*
X252681Y238182D01*
Y238382D01*
X252881Y237983D02*
X253281D01*
X291082Y245382D02*
X290882Y245582D01*
X290482D01*
X290282Y245382D01*
Y244583D01*
X290482Y244383D01*
X290882D01*
X291082Y244583D01*
X291481Y244383D02*
X291881D01*
X291681D01*
Y245582D01*
X291481Y245382D01*
X292481D02*
X292681Y245582D01*
X293081D01*
X293281Y245382D01*
Y244583D01*
X293081Y244383D01*
X292681D01*
X292481Y244583D01*
Y245382D01*
X294480Y244383D02*
X293681D01*
X294480Y245182D01*
Y245382D01*
X294281Y245582D01*
X293881D01*
X293681Y245382D01*
X276582Y216882D02*
X276382Y217082D01*
X275982D01*
X275782Y216882D01*
Y216083D01*
X275982Y215883D01*
X276382D01*
X276582Y216083D01*
X276981Y215883D02*
X277381D01*
X277181D01*
Y217082D01*
X276981Y216882D01*
X277981D02*
X278181Y217082D01*
X278581D01*
X278781Y216882D01*
Y216083D01*
X278581Y215883D01*
X278181D01*
X277981Y216083D01*
Y216882D01*
X279781Y215883D02*
Y217082D01*
X279181Y216482D01*
X279980D01*
X311082Y225882D02*
X310882Y226082D01*
X310482D01*
X310282Y225882D01*
Y225083D01*
X310482Y224883D01*
X310882D01*
X311082Y225083D01*
X311481Y224883D02*
X311881D01*
X311681D01*
Y226082D01*
X311481Y225882D01*
X312481D02*
X312681Y226082D01*
X313081D01*
X313281Y225882D01*
Y225083D01*
X313081Y224883D01*
X312681D01*
X312481Y225083D01*
Y225882D01*
X314480Y226082D02*
X313681D01*
Y225483D01*
X314081Y225682D01*
X314281D01*
X314480Y225483D01*
Y225083D01*
X314281Y224883D01*
X313881D01*
X313681Y225083D01*
X109530Y242823D02*
X109330Y243023D01*
X108931D01*
X108731Y242823D01*
Y242023D01*
X108931Y241824D01*
X109330D01*
X109530Y242023D01*
X110530Y241824D02*
Y243023D01*
X109930Y242423D01*
X110730D01*
X111130Y243023D02*
X111930D01*
Y242823D01*
X111130Y242023D01*
Y241824D01*
X101530Y242823D02*
X101330Y243023D01*
X100931D01*
X100731Y242823D01*
Y242023D01*
X100931Y241824D01*
X101330D01*
X101530Y242023D01*
X102530Y241824D02*
Y243023D01*
X101930Y242423D01*
X102730D01*
X103930Y243023D02*
X103530Y242823D01*
X103130Y242423D01*
Y242023D01*
X103330Y241824D01*
X103730D01*
X103930Y242023D01*
Y242224D01*
X103730Y242423D01*
X103130D01*
X104530Y228323D02*
X104331Y228523D01*
X103931D01*
X103731Y228323D01*
Y227523D01*
X103931Y227324D01*
X104331D01*
X104530Y227523D01*
X105530Y227324D02*
Y228523D01*
X104930Y227923D01*
X105730D01*
X106130Y228323D02*
X106330Y228523D01*
X106730D01*
X106930Y228323D01*
Y227523D01*
X106730Y227324D01*
X106330D01*
X106130Y227523D01*
Y228323D01*
X103082Y218382D02*
X102882Y218582D01*
X102482D01*
X102282Y218382D01*
Y217583D01*
X102482Y217383D01*
X102882D01*
X103082Y217583D01*
X103481Y217383D02*
X103881D01*
X103681D01*
Y218582D01*
X103481Y218382D01*
X477392Y70808D02*
X477192Y70608D01*
Y70208D01*
X477392Y70008D01*
X478192D01*
X478392Y70208D01*
Y70608D01*
X478192Y70808D01*
Y71208D02*
X478392Y71408D01*
Y71808D01*
X478192Y72008D01*
X477392D01*
X477192Y71808D01*
Y71408D01*
X477392Y71208D01*
X477592D01*
X477792Y71408D01*
Y72008D01*
X477392Y72407D02*
X477192Y72607D01*
Y73007D01*
X477392Y73207D01*
X478192D01*
X478392Y73007D01*
Y72607D01*
X478192Y72407D01*
X477392D01*
X440485Y83294D02*
X440285Y83094D01*
Y82694D01*
X440485Y82494D01*
X441284D01*
X441484Y82694D01*
Y83094D01*
X441284Y83294D01*
X440285Y83694D02*
Y84494D01*
X440485D01*
X441284Y83694D01*
X441484D01*
X440285Y84894D02*
Y85693D01*
X440485D01*
X441284Y84894D01*
X441484D01*
X460806Y83900D02*
X461006Y83700D01*
X461406D01*
X461606Y83900D01*
Y84700D01*
X461406Y84900D01*
X461006D01*
X460806Y84700D01*
X460406D02*
X460206Y84900D01*
X459806D01*
X459606Y84700D01*
Y83900D01*
X459806Y83700D01*
X460206D01*
X460406Y83900D01*
Y84100D01*
X460206Y84300D01*
X459606D01*
X458406Y84900D02*
X459206D01*
X458406Y84100D01*
Y83900D01*
X458606Y83700D01*
X459006D01*
X459206Y83900D01*
M02*
