G04 Layer_Physical_Order=2*
G04 Layer_Color=36540*
%FSLAX25Y25*%
%MOIN*%
G70*
G01*
G75*
%ADD88C,0.08700*%
%ADD89C,0.10000*%
%ADD90C,0.04000*%
%ADD91C,0.05905*%
%ADD92R,0.05905X0.05905*%
%ADD93R,0.05905X0.05905*%
%ADD95C,0.02000*%
%ADD96C,0.01968*%
%ADD97C,0.01200*%
%ADD98C,0.00800*%
%ADD99C,0.05000*%
G36*
X570000Y0D02*
X570000Y0D01*
X0D01*
Y390000D01*
X0Y390000D01*
X570000D01*
Y0D01*
D02*
G37*
%LPC*%
G36*
X239399Y146284D02*
X238941Y145688D01*
X238422Y144435D01*
X238246Y143091D01*
X238422Y141746D01*
X238941Y140494D01*
X239399Y139898D01*
X242591Y143091D01*
X239399Y146284D01*
D02*
G37*
G36*
X259399D02*
X258941Y145688D01*
X258422Y144435D01*
X258245Y143091D01*
X258422Y141746D01*
X258941Y140494D01*
X259399Y139898D01*
X262591Y143091D01*
X259399Y146284D01*
D02*
G37*
G36*
X111492Y144186D02*
X110147Y144009D01*
X108895Y143490D01*
X108299Y143033D01*
X111492Y139840D01*
X114685Y143033D01*
X114089Y143490D01*
X112836Y144009D01*
X111492Y144186D01*
D02*
G37*
G36*
X529921Y143779D02*
X528577Y143602D01*
X527324Y143083D01*
X526728Y142626D01*
X529921Y139433D01*
X533114Y142626D01*
X532519Y143083D01*
X531266Y143602D01*
X529921Y143779D01*
D02*
G37*
G36*
X131492Y144186D02*
X130147Y144009D01*
X128895Y143490D01*
X128299Y143033D01*
X131492Y139840D01*
X134685Y143033D01*
X134089Y143490D01*
X132836Y144009D01*
X131492Y144186D01*
D02*
G37*
G36*
X182591Y147755D02*
X181246Y147578D01*
X179994Y147059D01*
X179398Y146601D01*
X182591Y143409D01*
X185784Y146601D01*
X185188Y147059D01*
X183935Y147578D01*
X182591Y147755D01*
D02*
G37*
G36*
X243440Y148285D02*
X242095Y148108D01*
X240843Y147590D01*
X240247Y147132D01*
X243440Y143939D01*
X246633Y147132D01*
X246037Y147590D01*
X244784Y148108D01*
X243440Y148285D01*
D02*
G37*
G36*
X202591Y147755D02*
X201247Y147578D01*
X199994Y147059D01*
X199398Y146601D01*
X202591Y143409D01*
X205784Y146601D01*
X205188Y147059D01*
X203935Y147578D01*
X202591Y147755D01*
D02*
G37*
G36*
X247481Y146284D02*
X244288Y143091D01*
X247481Y139898D01*
X247938Y140494D01*
X248457Y141746D01*
X248634Y143091D01*
X248457Y144435D01*
X247938Y145688D01*
X247481Y146284D01*
D02*
G37*
G36*
X267481D02*
X264288Y143091D01*
X267481Y139898D01*
X267938Y140494D01*
X268457Y141746D01*
X268634Y143091D01*
X268457Y144435D01*
X267938Y145688D01*
X267481Y146284D01*
D02*
G37*
G36*
X243440Y142242D02*
X240247Y139049D01*
X240843Y138592D01*
X242095Y138074D01*
X243440Y137897D01*
X244784Y138074D01*
X246037Y138592D01*
X246633Y139049D01*
X243440Y142242D01*
D02*
G37*
G36*
X263440D02*
X260247Y139049D01*
X260843Y138592D01*
X262095Y138074D01*
X263440Y137897D01*
X264784Y138074D01*
X266037Y138592D01*
X266633Y139049D01*
X263440Y142242D01*
D02*
G37*
G36*
X202591Y141711D02*
X199398Y138519D01*
X199994Y138061D01*
X201247Y137543D01*
X202591Y137366D01*
X203935Y137543D01*
X205188Y138061D01*
X205784Y138519D01*
X202591Y141711D01*
D02*
G37*
G36*
X135533Y142185D02*
X132340Y138992D01*
X135533Y135799D01*
X135990Y136395D01*
X136509Y137647D01*
X136686Y138992D01*
X136509Y140336D01*
X135990Y141589D01*
X135533Y142185D01*
D02*
G37*
G36*
X182591Y141711D02*
X179398Y138519D01*
X179994Y138061D01*
X181246Y137543D01*
X182591Y137366D01*
X183935Y137543D01*
X185188Y138061D01*
X185784Y138519D01*
X182591Y141711D01*
D02*
G37*
G36*
X206632Y145753D02*
X203439Y142560D01*
X206632Y139367D01*
X207089Y139963D01*
X207608Y141216D01*
X207785Y142560D01*
X207608Y143904D01*
X207089Y145157D01*
X206632Y145753D01*
D02*
G37*
G36*
X549921Y143779D02*
X548577Y143602D01*
X547324Y143083D01*
X546729Y142626D01*
X549921Y139433D01*
X553114Y142626D01*
X552519Y143083D01*
X551266Y143602D01*
X549921Y143779D01*
D02*
G37*
G36*
X186632Y145753D02*
X183440Y142560D01*
X186632Y139367D01*
X187090Y139963D01*
X187608Y141216D01*
X187785Y142560D01*
X187608Y143904D01*
X187090Y145157D01*
X186632Y145753D01*
D02*
G37*
G36*
X178550D02*
X178092Y145157D01*
X177574Y143904D01*
X177397Y142560D01*
X177574Y141216D01*
X178092Y139963D01*
X178550Y139367D01*
X181742Y142560D01*
X178550Y145753D01*
D02*
G37*
G36*
X198549D02*
X198092Y145157D01*
X197573Y143904D01*
X197397Y142560D01*
X197573Y141216D01*
X198092Y139963D01*
X198549Y139367D01*
X201742Y142560D01*
X198549Y145753D01*
D02*
G37*
G36*
X525880Y161778D02*
X525423Y161182D01*
X524904Y159929D01*
X524727Y158585D01*
X524904Y157240D01*
X525423Y155987D01*
X525880Y155392D01*
X529073Y158585D01*
X525880Y161778D01*
D02*
G37*
G36*
X545880D02*
X545423Y161182D01*
X544904Y159929D01*
X544727Y158585D01*
X544904Y157240D01*
X545423Y155987D01*
X545880Y155392D01*
X549073Y158585D01*
X545880Y161778D01*
D02*
G37*
G36*
X495000Y159151D02*
X491807Y155959D01*
X492403Y155501D01*
X493656Y154982D01*
X495000Y154806D01*
X496344Y154982D01*
X497597Y155501D01*
X498193Y155959D01*
X495000Y159151D01*
D02*
G37*
G36*
X330000D02*
X326807Y155959D01*
X327403Y155501D01*
X328656Y154982D01*
X330000Y154806D01*
X331344Y154982D01*
X332597Y155501D01*
X333193Y155959D01*
X330000Y159151D01*
D02*
G37*
G36*
X475000D02*
X471807Y155959D01*
X472403Y155501D01*
X473656Y154982D01*
X475000Y154806D01*
X476344Y154982D01*
X477597Y155501D01*
X478193Y155959D01*
X475000Y159151D01*
D02*
G37*
G36*
X127450Y162185D02*
X126993Y161589D01*
X126474Y160336D01*
X126297Y158992D01*
X126474Y157647D01*
X126993Y156395D01*
X127450Y155799D01*
X130643Y158992D01*
X127450Y162185D01*
D02*
G37*
G36*
X115533Y162185D02*
X112340Y158992D01*
X115533Y155799D01*
X115990Y156395D01*
X116509Y157647D01*
X116686Y158992D01*
X116509Y160336D01*
X115990Y161589D01*
X115533Y162185D01*
D02*
G37*
G36*
X107450Y162185D02*
X106993Y161589D01*
X106474Y160336D01*
X106297Y158992D01*
X106474Y157647D01*
X106993Y156395D01*
X107450Y155799D01*
X110643Y158992D01*
X107450Y162185D01*
D02*
G37*
G36*
X533963Y161778D02*
X530770Y158585D01*
X533963Y155392D01*
X534420Y155987D01*
X534939Y157240D01*
X535116Y158585D01*
X534939Y159929D01*
X534420Y161182D01*
X533963Y161778D01*
D02*
G37*
G36*
X553963D02*
X550770Y158585D01*
X553963Y155392D01*
X554420Y155987D01*
X554939Y157240D01*
X555116Y158585D01*
X554939Y159929D01*
X554420Y161182D01*
X553963Y161778D01*
D02*
G37*
G36*
X75732Y155920D02*
Y150080D01*
X78651Y153000D01*
X75732Y155920D01*
D02*
G37*
G36*
X529921Y157736D02*
X526728Y154543D01*
X527324Y154086D01*
X528577Y153567D01*
X529921Y153390D01*
X531266Y153567D01*
X532519Y154086D01*
X533114Y154543D01*
X529921Y157736D01*
D02*
G37*
G36*
X83268Y155920D02*
X80348Y153000D01*
X83268Y150080D01*
Y155920D01*
D02*
G37*
G36*
X263440Y148285D02*
X262095Y148108D01*
X260843Y147590D01*
X260247Y147132D01*
X263440Y143939D01*
X266633Y147132D01*
X266037Y147590D01*
X264784Y148108D01*
X263440Y148285D01*
D02*
G37*
G36*
X79500Y152152D02*
X76580Y149232D01*
X82420D01*
X79500Y152152D01*
D02*
G37*
G36*
X82420Y156768D02*
X76580D01*
X79500Y153849D01*
X82420Y156768D01*
D02*
G37*
G36*
X310000Y159151D02*
X306807Y155959D01*
X307403Y155501D01*
X308656Y154982D01*
X310000Y154806D01*
X311344Y154982D01*
X312597Y155501D01*
X313193Y155959D01*
X310000Y159151D01*
D02*
G37*
G36*
X131492Y158143D02*
X128299Y154950D01*
X128895Y154493D01*
X130147Y153974D01*
X131492Y153797D01*
X132836Y153974D01*
X134089Y154493D01*
X134685Y154950D01*
X131492Y158143D01*
D02*
G37*
G36*
X549921Y157736D02*
X546729Y154543D01*
X547324Y154086D01*
X548577Y153567D01*
X549921Y153390D01*
X551266Y153567D01*
X552519Y154086D01*
X553114Y154543D01*
X549921Y157736D01*
D02*
G37*
G36*
X111492Y158143D02*
X108299Y154950D01*
X108895Y154493D01*
X110147Y153974D01*
X111492Y153797D01*
X112836Y153974D01*
X114089Y154493D01*
X114685Y154950D01*
X111492Y158143D01*
D02*
G37*
G36*
X115533Y142185D02*
X112340Y138992D01*
X115533Y135799D01*
X115990Y136395D01*
X116509Y137647D01*
X116686Y138992D01*
X116509Y140336D01*
X115990Y141589D01*
X115533Y142185D01*
D02*
G37*
G36*
X475000Y130194D02*
X473656Y130017D01*
X472403Y129499D01*
X471807Y129041D01*
X475000Y125848D01*
X478193Y129041D01*
X477597Y129499D01*
X476344Y130017D01*
X475000Y130194D01*
D02*
G37*
G36*
X330000D02*
X328656Y130017D01*
X327403Y129499D01*
X326807Y129041D01*
X330000Y125848D01*
X333193Y129041D01*
X332597Y129499D01*
X331344Y130017D01*
X330000Y130194D01*
D02*
G37*
G36*
X310000D02*
X308656Y130017D01*
X307403Y129499D01*
X306807Y129041D01*
X310000Y125848D01*
X313193Y129041D01*
X312597Y129499D01*
X311344Y130017D01*
X310000Y130194D01*
D02*
G37*
G36*
X386000Y129151D02*
X382345Y125496D01*
X382762Y125154D01*
X383770Y124616D01*
X384863Y124284D01*
X386000Y124172D01*
X387137Y124284D01*
X388230Y124616D01*
X389238Y125154D01*
X389655Y125496D01*
X386000Y129151D01*
D02*
G37*
G36*
X406000D02*
X402345Y125496D01*
X402762Y125154D01*
X403770Y124616D01*
X404863Y124284D01*
X406000Y124172D01*
X407137Y124284D01*
X408230Y124616D01*
X409238Y125154D01*
X409655Y125496D01*
X406000Y129151D01*
D02*
G37*
G36*
X390504Y133655D02*
X386848Y130000D01*
X390504Y126345D01*
X390846Y126762D01*
X391384Y127770D01*
X391716Y128863D01*
X391828Y130000D01*
X391716Y131137D01*
X391384Y132230D01*
X390846Y133238D01*
X390504Y133655D01*
D02*
G37*
G36*
X410503D02*
X406848Y130000D01*
X410503Y126345D01*
X410846Y126762D01*
X411384Y127770D01*
X411716Y128863D01*
X411828Y130000D01*
X411716Y131137D01*
X411384Y132230D01*
X410846Y133238D01*
X410503Y133655D01*
D02*
G37*
G36*
X401497Y133655D02*
X401154Y133238D01*
X400616Y132230D01*
X400284Y131137D01*
X400172Y130000D01*
X400284Y128863D01*
X400616Y127770D01*
X401154Y126762D01*
X401497Y126345D01*
X405152Y130000D01*
X401497Y133655D01*
D02*
G37*
G36*
X495000Y130194D02*
X493656Y130017D01*
X492403Y129499D01*
X491807Y129041D01*
X495000Y125848D01*
X498193Y129041D01*
X497597Y129499D01*
X496344Y130017D01*
X495000Y130194D01*
D02*
G37*
G36*
X381497Y133655D02*
X381154Y133238D01*
X380616Y132230D01*
X380284Y131137D01*
X380172Y130000D01*
X380284Y128863D01*
X380616Y127770D01*
X381154Y126762D01*
X381497Y126345D01*
X385152Y130000D01*
X381497Y133655D01*
D02*
G37*
G36*
X325959Y128193D02*
X325501Y127597D01*
X324983Y126344D01*
X324805Y125000D01*
X324983Y123656D01*
X325501Y122403D01*
X325959Y121807D01*
X329152Y125000D01*
X325959Y128193D01*
D02*
G37*
G36*
X470959D02*
X470502Y127597D01*
X469982Y126344D01*
X469806Y125000D01*
X469982Y123656D01*
X470502Y122403D01*
X470959Y121807D01*
X474152Y125000D01*
X470959Y128193D01*
D02*
G37*
G36*
X305959D02*
X305502Y127597D01*
X304982Y126344D01*
X304805Y125000D01*
X304982Y123656D01*
X305502Y122403D01*
X305959Y121807D01*
X309152Y125000D01*
X305959Y128193D01*
D02*
G37*
G36*
X475000Y124152D02*
X471807Y120959D01*
X472403Y120501D01*
X473656Y119983D01*
X475000Y119806D01*
X476344Y119983D01*
X477597Y120501D01*
X478193Y120959D01*
X475000Y124152D01*
D02*
G37*
G36*
X495000D02*
X491807Y120959D01*
X492403Y120501D01*
X493656Y119983D01*
X495000Y119806D01*
X496344Y119983D01*
X497597Y120501D01*
X498193Y120959D01*
X495000Y124152D01*
D02*
G37*
G36*
X479041Y128193D02*
X475848Y125000D01*
X479041Y121807D01*
X479498Y122403D01*
X480017Y123656D01*
X480194Y125000D01*
X480017Y126344D01*
X479498Y127597D01*
X479041Y128193D01*
D02*
G37*
G36*
X499041D02*
X495849Y125000D01*
X499041Y121807D01*
X499499Y122403D01*
X500017Y123656D01*
X500194Y125000D01*
X500017Y126344D01*
X499499Y127597D01*
X499041Y128193D01*
D02*
G37*
G36*
X334041D02*
X330849Y125000D01*
X334041Y121807D01*
X334499Y122403D01*
X335017Y123656D01*
X335194Y125000D01*
X335017Y126344D01*
X334499Y127597D01*
X334041Y128193D01*
D02*
G37*
G36*
X490959D02*
X490501Y127597D01*
X489983Y126344D01*
X489806Y125000D01*
X489983Y123656D01*
X490501Y122403D01*
X490959Y121807D01*
X494151Y125000D01*
X490959Y128193D01*
D02*
G37*
G36*
X314041D02*
X310848Y125000D01*
X314041Y121807D01*
X314498Y122403D01*
X315017Y123656D01*
X315194Y125000D01*
X315017Y126344D01*
X314498Y127597D01*
X314041Y128193D01*
D02*
G37*
G36*
X60992Y139686D02*
X59647Y139509D01*
X58395Y138990D01*
X57799Y138533D01*
X60992Y135340D01*
X64185Y138533D01*
X63589Y138990D01*
X62336Y139509D01*
X60992Y139686D01*
D02*
G37*
G36*
X525880Y141778D02*
X525423Y141182D01*
X524904Y139929D01*
X524727Y138585D01*
X524904Y137240D01*
X525423Y135987D01*
X525880Y135392D01*
X529073Y138585D01*
X525880Y141778D01*
D02*
G37*
G36*
X40992Y139686D02*
X39647Y139509D01*
X38395Y138990D01*
X37799Y138533D01*
X40992Y135340D01*
X44185Y138533D01*
X43589Y138990D01*
X42336Y139509D01*
X40992Y139686D01*
D02*
G37*
G36*
X111492Y138143D02*
X108299Y134950D01*
X108895Y134493D01*
X110147Y133974D01*
X111492Y133797D01*
X112836Y133974D01*
X114089Y134493D01*
X114685Y134950D01*
X111492Y138143D01*
D02*
G37*
G36*
X131492D02*
X128299Y134950D01*
X128895Y134493D01*
X130147Y133974D01*
X131492Y133797D01*
X132836Y133974D01*
X134089Y134493D01*
X134685Y134950D01*
X131492Y138143D01*
D02*
G37*
G36*
X107450Y142185D02*
X106993Y141589D01*
X106474Y140336D01*
X106297Y138992D01*
X106474Y137647D01*
X106993Y136395D01*
X107450Y135799D01*
X110643Y138992D01*
X107450Y142185D01*
D02*
G37*
G36*
X127450D02*
X126993Y141589D01*
X126474Y140336D01*
X126297Y138992D01*
X126474Y137647D01*
X126993Y136395D01*
X127450Y135799D01*
X130643Y138992D01*
X127450Y142185D01*
D02*
G37*
G36*
X553963Y141778D02*
X550770Y138585D01*
X553963Y135392D01*
X554420Y135987D01*
X554939Y137240D01*
X555116Y138585D01*
X554939Y139929D01*
X554420Y141182D01*
X553963Y141778D01*
D02*
G37*
G36*
X545880D02*
X545423Y141182D01*
X544904Y139929D01*
X544727Y138585D01*
X544904Y137240D01*
X545423Y135987D01*
X545880Y135392D01*
X549073Y138585D01*
X545880Y141778D01*
D02*
G37*
G36*
X533963D02*
X530770Y138585D01*
X533963Y135392D01*
X534420Y135987D01*
X534939Y137240D01*
X535116Y138585D01*
X534939Y139929D01*
X534420Y141182D01*
X533963Y141778D01*
D02*
G37*
G36*
X406000Y135828D02*
X404863Y135716D01*
X403770Y135384D01*
X402762Y134846D01*
X402345Y134503D01*
X406000Y130849D01*
X409655Y134503D01*
X409238Y134846D01*
X408230Y135384D01*
X407137Y135716D01*
X406000Y135828D01*
D02*
G37*
G36*
X36950Y137685D02*
X36493Y137089D01*
X35974Y135836D01*
X35797Y134492D01*
X35974Y133147D01*
X36493Y131895D01*
X36950Y131299D01*
X40143Y134492D01*
X36950Y137685D01*
D02*
G37*
G36*
X386000Y135828D02*
X384863Y135716D01*
X383770Y135384D01*
X382762Y134846D01*
X382345Y134503D01*
X386000Y130849D01*
X389655Y134503D01*
X389238Y134846D01*
X388230Y135384D01*
X387137Y135716D01*
X386000Y135828D01*
D02*
G37*
G36*
X40992Y133643D02*
X37799Y130450D01*
X38395Y129993D01*
X39647Y129474D01*
X40992Y129297D01*
X42336Y129474D01*
X43589Y129993D01*
X44185Y130450D01*
X40992Y133643D01*
D02*
G37*
G36*
X60992D02*
X57799Y130450D01*
X58395Y129993D01*
X59647Y129474D01*
X60992Y129297D01*
X62336Y129474D01*
X63589Y129993D01*
X64185Y130450D01*
X60992Y133643D01*
D02*
G37*
G36*
X529921Y137736D02*
X526728Y134543D01*
X527324Y134086D01*
X528577Y133567D01*
X529921Y133390D01*
X531266Y133567D01*
X532519Y134086D01*
X533114Y134543D01*
X529921Y137736D01*
D02*
G37*
G36*
X549921D02*
X546729Y134543D01*
X547324Y134086D01*
X548577Y133567D01*
X549921Y133390D01*
X551266Y133567D01*
X552519Y134086D01*
X553114Y134543D01*
X549921Y137736D01*
D02*
G37*
G36*
X65033Y137685D02*
X61840Y134492D01*
X65033Y131299D01*
X65490Y131895D01*
X66009Y133147D01*
X66186Y134492D01*
X66009Y135836D01*
X65490Y137089D01*
X65033Y137685D01*
D02*
G37*
G36*
X56950Y137685D02*
X56493Y137089D01*
X55974Y135836D01*
X55797Y134492D01*
X55974Y133147D01*
X56493Y131895D01*
X56950Y131299D01*
X60143Y134492D01*
X56950Y137685D01*
D02*
G37*
G36*
X45033Y137685D02*
X41840Y134492D01*
X45033Y131299D01*
X45490Y131895D01*
X46009Y133147D01*
X46186Y134492D01*
X46009Y135836D01*
X45490Y137089D01*
X45033Y137685D01*
D02*
G37*
G36*
X479041Y183193D02*
X475848Y180000D01*
X479041Y176807D01*
X479498Y177403D01*
X480017Y178656D01*
X480194Y180000D01*
X480017Y181344D01*
X479498Y182597D01*
X479041Y183193D01*
D02*
G37*
G36*
X499041D02*
X495849Y180000D01*
X499041Y176807D01*
X499499Y177403D01*
X500017Y178656D01*
X500194Y180000D01*
X500017Y181344D01*
X499499Y182597D01*
X499041Y183193D01*
D02*
G37*
G36*
X334041D02*
X330849Y180000D01*
X334041Y176807D01*
X334499Y177403D01*
X335017Y178656D01*
X335194Y180000D01*
X335017Y181344D01*
X334499Y182597D01*
X334041Y183193D01*
D02*
G37*
G36*
X490959D02*
X490501Y182597D01*
X489983Y181344D01*
X489806Y180000D01*
X489983Y178656D01*
X490501Y177403D01*
X490959Y176807D01*
X494151Y180000D01*
X490959Y183193D01*
D02*
G37*
G36*
X314041D02*
X310848Y180000D01*
X314041Y176807D01*
X314498Y177403D01*
X315017Y178656D01*
X315194Y180000D01*
X315017Y181344D01*
X314498Y182597D01*
X314041Y183193D01*
D02*
G37*
G36*
X495000Y185194D02*
X493656Y185017D01*
X492403Y184499D01*
X491807Y184041D01*
X495000Y180849D01*
X498193Y184041D01*
X497597Y184499D01*
X496344Y185017D01*
X495000Y185194D01*
D02*
G37*
G36*
X310000D02*
X308656Y185017D01*
X307403Y184499D01*
X306807Y184041D01*
X310000Y180849D01*
X313193Y184041D01*
X312597Y184499D01*
X311344Y185017D01*
X310000Y185194D01*
D02*
G37*
G36*
X475000D02*
X473656Y185017D01*
X472403Y184499D01*
X471807Y184041D01*
X475000Y180849D01*
X478193Y184041D01*
X477597Y184499D01*
X476344Y185017D01*
X475000Y185194D01*
D02*
G37*
G36*
X58000Y184049D02*
X57025Y183855D01*
X56198Y183302D01*
X55645Y182475D01*
X55451Y181500D01*
X55645Y180525D01*
X56198Y179698D01*
X57025Y179145D01*
X58000Y178951D01*
X58975Y179145D01*
X59802Y179698D01*
X60355Y180525D01*
X60549Y181500D01*
X60355Y182475D01*
X59802Y183302D01*
X58975Y183855D01*
X58000Y184049D01*
D02*
G37*
G36*
X330000Y185194D02*
X328656Y185017D01*
X327403Y184499D01*
X326807Y184041D01*
X330000Y180849D01*
X333193Y184041D01*
X332597Y184499D01*
X331344Y185017D01*
X330000Y185194D01*
D02*
G37*
G36*
X310000Y179151D02*
X306807Y175959D01*
X307403Y175502D01*
X308656Y174983D01*
X310000Y174805D01*
X311344Y174983D01*
X312597Y175502D01*
X313193Y175959D01*
X310000Y179151D01*
D02*
G37*
G36*
X330000D02*
X326807Y175959D01*
X327403Y175502D01*
X328656Y174983D01*
X330000Y174805D01*
X331344Y174983D01*
X332597Y175502D01*
X333193Y175959D01*
X330000Y179151D01*
D02*
G37*
G36*
X79500Y176785D02*
X78520Y176656D01*
X77607Y176278D01*
X77304Y176045D01*
X79500Y173848D01*
X81696Y176045D01*
X81393Y176278D01*
X80480Y176656D01*
X79500Y176785D01*
D02*
G37*
G36*
X82545Y175196D02*
X80348Y173000D01*
X82545Y170804D01*
X82778Y171107D01*
X83156Y172020D01*
X83285Y173000D01*
X83156Y173980D01*
X82778Y174893D01*
X82545Y175196D01*
D02*
G37*
G36*
X76455Y175196D02*
X76222Y174893D01*
X75844Y173980D01*
X75715Y173000D01*
X75844Y172020D01*
X76222Y171107D01*
X76455Y170804D01*
X78651Y173000D01*
X76455Y175196D01*
D02*
G37*
G36*
X325959Y183193D02*
X325501Y182597D01*
X324983Y181344D01*
X324805Y180000D01*
X324983Y178656D01*
X325501Y177403D01*
X325959Y176807D01*
X329152Y180000D01*
X325959Y183193D01*
D02*
G37*
G36*
X470959D02*
X470502Y182597D01*
X469982Y181344D01*
X469806Y180000D01*
X469982Y178656D01*
X470502Y177403D01*
X470959Y176807D01*
X474152Y180000D01*
X470959Y183193D01*
D02*
G37*
G36*
X305959D02*
X305502Y182597D01*
X304982Y181344D01*
X304805Y180000D01*
X304982Y178656D01*
X305502Y177403D01*
X305959Y176807D01*
X309152Y180000D01*
X305959Y183193D01*
D02*
G37*
G36*
X475000Y179151D02*
X471807Y175959D01*
X472403Y175502D01*
X473656Y174983D01*
X475000Y174805D01*
X476344Y174983D01*
X477597Y175502D01*
X478193Y175959D01*
X475000Y179151D01*
D02*
G37*
G36*
X495000D02*
X491807Y175959D01*
X492403Y175502D01*
X493656Y174983D01*
X495000Y174805D01*
X496344Y174983D01*
X497597Y175502D01*
X498193Y175959D01*
X495000Y179151D01*
D02*
G37*
G36*
X81492Y191541D02*
X80516Y191347D01*
X79689Y190794D01*
X79137Y189967D01*
X78943Y188992D01*
X79137Y188016D01*
X79689Y187189D01*
X80516Y186637D01*
X81492Y186443D01*
X82467Y186637D01*
X83294Y187189D01*
X83847Y188016D01*
X84041Y188992D01*
X83847Y189967D01*
X83294Y190794D01*
X82467Y191347D01*
X81492Y191541D01*
D02*
G37*
G36*
X23500Y191549D02*
X22524Y191355D01*
X21698Y190802D01*
X21145Y189976D01*
X20951Y189000D01*
X21145Y188024D01*
X21698Y187198D01*
X22524Y186645D01*
X23500Y186451D01*
X24475Y186645D01*
X25302Y187198D01*
X25855Y188024D01*
X26049Y189000D01*
X25855Y189976D01*
X25302Y190802D01*
X24475Y191355D01*
X23500Y191549D01*
D02*
G37*
G36*
X138500Y191049D02*
X137524Y190855D01*
X136698Y190302D01*
X136145Y189476D01*
X135951Y188500D01*
X136145Y187524D01*
X136698Y186698D01*
X137524Y186145D01*
X138500Y185951D01*
X139476Y186145D01*
X140302Y186698D01*
X140855Y187524D01*
X141049Y188500D01*
X140855Y189476D01*
X140302Y190302D01*
X139476Y190855D01*
X138500Y191049D01*
D02*
G37*
G36*
X36000Y192482D02*
X35099Y192364D01*
X34259Y192016D01*
X33538Y191463D01*
X32984Y190741D01*
X32636Y189901D01*
X32517Y189000D01*
X32636Y188099D01*
X32984Y187259D01*
X33538Y186538D01*
X34259Y185984D01*
X35099Y185636D01*
X36000Y185518D01*
X36901Y185636D01*
X37741Y185984D01*
X38462Y186538D01*
X39016Y187259D01*
X39364Y188099D01*
X39483Y189000D01*
X39364Y189901D01*
X39016Y190741D01*
X38462Y191463D01*
X37741Y192016D01*
X36901Y192364D01*
X36000Y192482D01*
D02*
G37*
G36*
X259992Y191041D02*
X259016Y190847D01*
X258189Y190294D01*
X257637Y189467D01*
X257443Y188492D01*
X257637Y187516D01*
X258189Y186689D01*
X259016Y186137D01*
X259992Y185943D01*
X260967Y186137D01*
X261794Y186689D01*
X262347Y187516D01*
X262541Y188492D01*
X262347Y189467D01*
X261794Y190294D01*
X260967Y190847D01*
X259992Y191041D01*
D02*
G37*
G36*
X525880Y196778D02*
X525423Y196182D01*
X524904Y194929D01*
X524727Y193585D01*
X524904Y192240D01*
X525423Y190987D01*
X525880Y190392D01*
X529073Y193585D01*
X525880Y196778D01*
D02*
G37*
G36*
X545880D02*
X545423Y196182D01*
X544904Y194929D01*
X544727Y193585D01*
X544904Y192240D01*
X545423Y190987D01*
X545880Y190392D01*
X549073Y193585D01*
X545880Y196778D01*
D02*
G37*
G36*
X549921Y192736D02*
X546729Y189543D01*
X547324Y189086D01*
X548577Y188567D01*
X549921Y188390D01*
X551266Y188567D01*
X552519Y189086D01*
X553114Y189543D01*
X549921Y192736D01*
D02*
G37*
G36*
X209500Y191549D02*
X208524Y191355D01*
X207698Y190802D01*
X207145Y189976D01*
X206951Y189000D01*
X207145Y188024D01*
X207698Y187198D01*
X208524Y186645D01*
X209500Y186451D01*
X210475Y186645D01*
X211302Y187198D01*
X211855Y188024D01*
X212049Y189000D01*
X211855Y189976D01*
X211302Y190802D01*
X210475Y191355D01*
X209500Y191549D01*
D02*
G37*
G36*
X529921Y192736D02*
X526728Y189543D01*
X527324Y189086D01*
X528577Y188567D01*
X529921Y188390D01*
X531266Y188567D01*
X532519Y189086D01*
X533114Y189543D01*
X529921Y192736D01*
D02*
G37*
G36*
X110235Y192408D02*
X104329D01*
X103946Y192250D01*
X103788Y191867D01*
Y185961D01*
X103946Y185579D01*
X104329Y185420D01*
X110235D01*
X110617Y185579D01*
X110776Y185961D01*
Y191867D01*
X110617Y192250D01*
X110235Y192408D01*
D02*
G37*
G36*
X163735D02*
X157829D01*
X157446Y192250D01*
X157288Y191867D01*
Y185961D01*
X157446Y185579D01*
X157829Y185420D01*
X163735D01*
X164117Y185579D01*
X164276Y185961D01*
Y191867D01*
X164117Y192250D01*
X163735Y192408D01*
D02*
G37*
G36*
X270282Y191897D02*
X269380Y191778D01*
X268541Y191430D01*
X267819Y190877D01*
X267266Y190155D01*
X266918Y189315D01*
X266799Y188414D01*
X266918Y187513D01*
X267266Y186673D01*
X267819Y185952D01*
X268541Y185398D01*
X269380Y185050D01*
X270282Y184932D01*
X271183Y185050D01*
X272023Y185398D01*
X272744Y185952D01*
X273298Y186673D01*
X273646Y187513D01*
X273764Y188414D01*
X273646Y189315D01*
X273298Y190155D01*
X272744Y190877D01*
X272023Y191430D01*
X271183Y191778D01*
X270282Y191897D01*
D02*
G37*
G36*
X117000Y188549D02*
X116024Y188355D01*
X115198Y187802D01*
X114645Y186975D01*
X114451Y186000D01*
X114645Y185024D01*
X115198Y184198D01*
X116024Y183645D01*
X117000Y183451D01*
X117975Y183645D01*
X118802Y184198D01*
X119355Y185024D01*
X119549Y186000D01*
X119355Y186975D01*
X118802Y187802D01*
X117975Y188355D01*
X117000Y188549D01*
D02*
G37*
G36*
X283235Y191908D02*
X277329D01*
X276946Y191750D01*
X276788Y191367D01*
Y185461D01*
X276946Y185079D01*
X277329Y184920D01*
X283235D01*
X283617Y185079D01*
X283776Y185461D01*
Y191367D01*
X283617Y191750D01*
X283235Y191908D01*
D02*
G37*
G36*
X222782Y192397D02*
X221881Y192278D01*
X221041Y191930D01*
X220319Y191377D01*
X219766Y190655D01*
X219418Y189815D01*
X219299Y188914D01*
X219418Y188013D01*
X219766Y187173D01*
X220319Y186452D01*
X221041Y185898D01*
X221881Y185550D01*
X222782Y185432D01*
X223683Y185550D01*
X224523Y185898D01*
X225244Y186452D01*
X225798Y187173D01*
X226146Y188013D01*
X226264Y188914D01*
X226146Y189815D01*
X225798Y190655D01*
X225244Y191377D01*
X224523Y191930D01*
X223683Y192278D01*
X222782Y192397D01*
D02*
G37*
G36*
X48953Y192494D02*
X43047D01*
X42665Y192335D01*
X42506Y191953D01*
Y186047D01*
X42665Y185665D01*
X43047Y185506D01*
X48953D01*
X49335Y185665D01*
X49494Y186047D01*
Y191953D01*
X49335Y192335D01*
X48953Y192494D01*
D02*
G37*
G36*
X150782Y192397D02*
X149881Y192278D01*
X149041Y191930D01*
X148319Y191377D01*
X147766Y190655D01*
X147418Y189815D01*
X147299Y188914D01*
X147418Y188013D01*
X147766Y187173D01*
X148319Y186452D01*
X149041Y185898D01*
X149881Y185550D01*
X150782Y185432D01*
X151683Y185550D01*
X152523Y185898D01*
X153244Y186452D01*
X153798Y187173D01*
X154146Y188013D01*
X154264Y188914D01*
X154146Y189815D01*
X153798Y190655D01*
X153244Y191377D01*
X152523Y191930D01*
X151683Y192278D01*
X150782Y192397D01*
D02*
G37*
G36*
X235735Y192408D02*
X229829D01*
X229446Y192250D01*
X229288Y191867D01*
Y185961D01*
X229446Y185579D01*
X229829Y185420D01*
X235735D01*
X236117Y185579D01*
X236276Y185961D01*
Y191867D01*
X236117Y192250D01*
X235735Y192408D01*
D02*
G37*
G36*
X97282Y192397D02*
X96381Y192278D01*
X95541Y191930D01*
X94819Y191377D01*
X94266Y190655D01*
X93918Y189815D01*
X93799Y188914D01*
X93918Y188013D01*
X94266Y187173D01*
X94819Y186452D01*
X95541Y185898D01*
X96381Y185550D01*
X97282Y185432D01*
X98183Y185550D01*
X99023Y185898D01*
X99744Y186452D01*
X100298Y187173D01*
X100646Y188013D01*
X100764Y188914D01*
X100646Y189815D01*
X100298Y190655D01*
X99744Y191377D01*
X99023Y191930D01*
X98183Y192278D01*
X97282Y192397D01*
D02*
G37*
G36*
X79500Y172152D02*
X77304Y169955D01*
X77607Y169722D01*
X78520Y169344D01*
X79500Y169215D01*
X80480Y169344D01*
X81393Y169722D01*
X81696Y169955D01*
X79500Y172152D01*
D02*
G37*
G36*
Y162152D02*
X77304Y159955D01*
X77607Y159722D01*
X78520Y159344D01*
X79500Y159215D01*
X80480Y159344D01*
X81393Y159722D01*
X81696Y159955D01*
X79500Y162152D01*
D02*
G37*
G36*
X178550Y165753D02*
X178092Y165157D01*
X177574Y163905D01*
X177397Y162560D01*
X177574Y161216D01*
X178092Y159963D01*
X178550Y159367D01*
X181742Y162560D01*
X178550Y165753D01*
D02*
G37*
G36*
X263440Y162242D02*
X260247Y159049D01*
X260843Y158592D01*
X262095Y158073D01*
X263440Y157896D01*
X264784Y158073D01*
X266037Y158592D01*
X266633Y159049D01*
X263440Y162242D01*
D02*
G37*
G36*
X202591Y161712D02*
X199398Y158519D01*
X199994Y158062D01*
X201247Y157543D01*
X202591Y157366D01*
X203935Y157543D01*
X205188Y158062D01*
X205784Y158519D01*
X202591Y161712D01*
D02*
G37*
G36*
X243440Y162242D02*
X240247Y159049D01*
X240843Y158592D01*
X242095Y158073D01*
X243440Y157896D01*
X244784Y158073D01*
X246037Y158592D01*
X246633Y159049D01*
X243440Y162242D01*
D02*
G37*
G36*
X529921Y163779D02*
X528577Y163602D01*
X527324Y163083D01*
X526728Y162626D01*
X529921Y159433D01*
X533114Y162626D01*
X532519Y163083D01*
X531266Y163602D01*
X529921Y163779D01*
D02*
G37*
G36*
X549921D02*
X548577Y163602D01*
X547324Y163083D01*
X546729Y162626D01*
X549921Y159433D01*
X553114Y162626D01*
X552519Y163083D01*
X551266Y163602D01*
X549921Y163779D01*
D02*
G37*
G36*
X206632Y165753D02*
X203439Y162560D01*
X206632Y159367D01*
X207089Y159963D01*
X207608Y161216D01*
X207785Y162560D01*
X207608Y163905D01*
X207089Y165157D01*
X206632Y165753D01*
D02*
G37*
G36*
X198549D02*
X198092Y165157D01*
X197573Y163905D01*
X197397Y162560D01*
X197573Y161216D01*
X198092Y159963D01*
X198549Y159367D01*
X201742Y162560D01*
X198549Y165753D01*
D02*
G37*
G36*
X186632D02*
X183440Y162560D01*
X186632Y159367D01*
X187090Y159963D01*
X187608Y161216D01*
X187785Y162560D01*
X187608Y163905D01*
X187090Y165157D01*
X186632Y165753D01*
D02*
G37*
G36*
X470959Y163193D02*
X470502Y162597D01*
X469982Y161344D01*
X469806Y160000D01*
X469982Y158656D01*
X470502Y157403D01*
X470959Y156807D01*
X474152Y160000D01*
X470959Y163193D01*
D02*
G37*
G36*
X490959D02*
X490501Y162597D01*
X489983Y161344D01*
X489806Y160000D01*
X489983Y158656D01*
X490501Y157403D01*
X490959Y156807D01*
X494151Y160000D01*
X490959Y163193D01*
D02*
G37*
G36*
X325959D02*
X325501Y162597D01*
X324983Y161344D01*
X324805Y160000D01*
X324983Y158656D01*
X325501Y157403D01*
X325959Y156807D01*
X329152Y160000D01*
X325959Y163193D01*
D02*
G37*
G36*
X135533Y162185D02*
X132340Y158992D01*
X135533Y155799D01*
X135990Y156395D01*
X136509Y157647D01*
X136686Y158992D01*
X136509Y160336D01*
X135990Y161589D01*
X135533Y162185D01*
D02*
G37*
G36*
X305959Y163193D02*
X305502Y162597D01*
X304982Y161344D01*
X304805Y160000D01*
X304982Y158656D01*
X305502Y157403D01*
X305959Y156807D01*
X309152Y160000D01*
X305959Y163193D01*
D02*
G37*
G36*
X499041D02*
X495849Y160000D01*
X499041Y156807D01*
X499499Y157403D01*
X500017Y158656D01*
X500194Y160000D01*
X500017Y161344D01*
X499499Y162597D01*
X499041Y163193D01*
D02*
G37*
G36*
X182591Y161712D02*
X179398Y158519D01*
X179994Y158062D01*
X181246Y157543D01*
X182591Y157366D01*
X183935Y157543D01*
X185188Y158062D01*
X185784Y158519D01*
X182591Y161712D01*
D02*
G37*
G36*
X479041Y163193D02*
X475848Y160000D01*
X479041Y156807D01*
X479498Y157403D01*
X480017Y158656D01*
X480194Y160000D01*
X480017Y161344D01*
X479498Y162597D01*
X479041Y163193D01*
D02*
G37*
G36*
X314041D02*
X310848Y160000D01*
X314041Y156807D01*
X314498Y157403D01*
X315017Y158656D01*
X315194Y160000D01*
X315017Y161344D01*
X314498Y162597D01*
X314041Y163193D01*
D02*
G37*
G36*
X334041D02*
X330849Y160000D01*
X334041Y156807D01*
X334499Y157403D01*
X335017Y158656D01*
X335194Y160000D01*
X335017Y161344D01*
X334499Y162597D01*
X334041Y163193D01*
D02*
G37*
G36*
X475000Y165194D02*
X473656Y165017D01*
X472403Y164498D01*
X471807Y164041D01*
X475000Y160848D01*
X478193Y164041D01*
X477597Y164498D01*
X476344Y165017D01*
X475000Y165194D01*
D02*
G37*
G36*
X415500Y167549D02*
X414525Y167355D01*
X413698Y166802D01*
X413145Y165975D01*
X412951Y165000D01*
X413145Y164024D01*
X413698Y163198D01*
X414525Y162645D01*
X415500Y162451D01*
X416475Y162645D01*
X417302Y163198D01*
X417855Y164024D01*
X418049Y165000D01*
X417855Y165975D01*
X417302Y166802D01*
X416475Y167355D01*
X415500Y167549D01*
D02*
G37*
G36*
X330000Y165194D02*
X328656Y165017D01*
X327403Y164498D01*
X326807Y164041D01*
X330000Y160848D01*
X333193Y164041D01*
X332597Y164498D01*
X331344Y165017D01*
X330000Y165194D01*
D02*
G37*
G36*
X310000D02*
X308656Y165017D01*
X307403Y164498D01*
X306807Y164041D01*
X310000Y160848D01*
X313193Y164041D01*
X312597Y164498D01*
X311344Y165017D01*
X310000Y165194D01*
D02*
G37*
G36*
X495000D02*
X493656Y165017D01*
X492403Y164498D01*
X491807Y164041D01*
X495000Y160848D01*
X498193Y164041D01*
X497597Y164498D01*
X496344Y165017D01*
X495000Y165194D01*
D02*
G37*
G36*
X243440Y168285D02*
X242095Y168108D01*
X240843Y167589D01*
X240247Y167132D01*
X243440Y163939D01*
X246633Y167132D01*
X246037Y167589D01*
X244784Y168108D01*
X243440Y168285D01*
D02*
G37*
G36*
X263440D02*
X262095Y168108D01*
X260843Y167589D01*
X260247Y167132D01*
X263440Y163939D01*
X266633Y167132D01*
X266037Y167589D01*
X264784Y168108D01*
X263440Y168285D01*
D02*
G37*
G36*
X79500Y166785D02*
X78520Y166656D01*
X77607Y166278D01*
X77304Y166045D01*
X79500Y163848D01*
X81696Y166045D01*
X81393Y166278D01*
X80480Y166656D01*
X79500Y166785D01*
D02*
G37*
G36*
X182591Y167754D02*
X181246Y167578D01*
X179994Y167059D01*
X179398Y166602D01*
X182591Y163409D01*
X185784Y166602D01*
X185188Y167059D01*
X183935Y167578D01*
X182591Y167754D01*
D02*
G37*
G36*
X202591D02*
X201247Y167578D01*
X199994Y167059D01*
X199398Y166602D01*
X202591Y163409D01*
X205784Y166602D01*
X205188Y167059D01*
X203935Y167578D01*
X202591Y167754D01*
D02*
G37*
G36*
X259399Y166284D02*
X258941Y165688D01*
X258422Y164435D01*
X258245Y163091D01*
X258422Y161747D01*
X258941Y160494D01*
X259399Y159898D01*
X262591Y163091D01*
X259399Y166284D01*
D02*
G37*
G36*
X247481D02*
X244288Y163091D01*
X247481Y159898D01*
X247938Y160494D01*
X248457Y161747D01*
X248634Y163091D01*
X248457Y164435D01*
X247938Y165688D01*
X247481Y166284D01*
D02*
G37*
G36*
X239399D02*
X238941Y165688D01*
X238422Y164435D01*
X238246Y163091D01*
X238422Y161747D01*
X238941Y160494D01*
X239399Y159898D01*
X242591Y163091D01*
X239399Y166284D01*
D02*
G37*
G36*
X111492Y164186D02*
X110147Y164009D01*
X108895Y163490D01*
X108299Y163033D01*
X111492Y159840D01*
X114685Y163033D01*
X114089Y163490D01*
X112836Y164009D01*
X111492Y164186D01*
D02*
G37*
G36*
X131492D02*
X130147Y164009D01*
X128895Y163490D01*
X128299Y163033D01*
X131492Y159840D01*
X134685Y163033D01*
X134089Y163490D01*
X132836Y164009D01*
X131492Y164186D01*
D02*
G37*
G36*
X82545Y165196D02*
X80348Y163000D01*
X82545Y160804D01*
X82778Y161107D01*
X83156Y162020D01*
X83285Y163000D01*
X83156Y163980D01*
X82778Y164893D01*
X82545Y165196D01*
D02*
G37*
G36*
X76455Y165196D02*
X76222Y164893D01*
X75844Y163980D01*
X75715Y163000D01*
X75844Y162020D01*
X76222Y161107D01*
X76455Y160804D01*
X78651Y163000D01*
X76455Y165196D01*
D02*
G37*
G36*
X51000Y166982D02*
X50099Y166864D01*
X49259Y166516D01*
X48537Y165963D01*
X47984Y165241D01*
X47636Y164401D01*
X47517Y163500D01*
X47636Y162599D01*
X47984Y161759D01*
X48537Y161038D01*
X49259Y160484D01*
X50099Y160136D01*
X51000Y160018D01*
X51901Y160136D01*
X52741Y160484D01*
X53462Y161038D01*
X54016Y161759D01*
X54364Y162599D01*
X54483Y163500D01*
X54364Y164401D01*
X54016Y165241D01*
X53462Y165963D01*
X52741Y166516D01*
X51901Y166864D01*
X51000Y166982D01*
D02*
G37*
G36*
X267481Y166284D02*
X264288Y163091D01*
X267481Y159898D01*
X267938Y160494D01*
X268457Y161747D01*
X268634Y163091D01*
X268457Y164435D01*
X267938Y165688D01*
X267481Y166284D01*
D02*
G37*
G36*
X63953Y166994D02*
X58047D01*
X57665Y166835D01*
X57506Y166453D01*
Y160547D01*
X57665Y160165D01*
X58047Y160006D01*
X63953D01*
X64335Y160165D01*
X64494Y160547D01*
Y166453D01*
X64335Y166835D01*
X63953Y166994D01*
D02*
G37*
G36*
X330000Y124152D02*
X326807Y120959D01*
X327403Y120501D01*
X328656Y119983D01*
X330000Y119806D01*
X331344Y119983D01*
X332597Y120501D01*
X333193Y120959D01*
X330000Y124152D01*
D02*
G37*
G36*
X447201Y40855D02*
X443546Y37200D01*
X447201Y33545D01*
X447543Y33962D01*
X448082Y34970D01*
X448413Y36063D01*
X448525Y37200D01*
X448413Y38337D01*
X448082Y39430D01*
X447543Y40438D01*
X447201Y40855D01*
D02*
G37*
G36*
X467201D02*
X463546Y37200D01*
X467201Y33545D01*
X467543Y33962D01*
X468082Y34970D01*
X468413Y36063D01*
X468525Y37200D01*
X468413Y38337D01*
X468082Y39430D01*
X467543Y40438D01*
X467201Y40855D01*
D02*
G37*
G36*
X289490Y37843D02*
X286297Y34650D01*
X286893Y34192D01*
X288145Y33674D01*
X289490Y33496D01*
X290834Y33674D01*
X292087Y34192D01*
X292683Y34650D01*
X289490Y37843D01*
D02*
G37*
G36*
X462697Y36351D02*
X459042Y32696D01*
X459459Y32354D01*
X460467Y31816D01*
X461560Y31484D01*
X462697Y31372D01*
X463834Y31484D01*
X464928Y31816D01*
X465935Y32354D01*
X466352Y32696D01*
X462697Y36351D01*
D02*
G37*
G36*
X269490Y37843D02*
X266297Y34650D01*
X266893Y34192D01*
X268145Y33674D01*
X269490Y33496D01*
X270834Y33674D01*
X272087Y34192D01*
X272683Y34650D01*
X269490Y37843D01*
D02*
G37*
G36*
X438194Y40855D02*
X437851Y40438D01*
X437313Y39430D01*
X436981Y38337D01*
X436869Y37200D01*
X436981Y36063D01*
X437313Y34970D01*
X437851Y33962D01*
X438194Y33545D01*
X441849Y37200D01*
X438194Y40855D01*
D02*
G37*
G36*
X418196D02*
X417854Y40438D01*
X417316Y39430D01*
X416984Y38337D01*
X416872Y37200D01*
X416984Y36063D01*
X417316Y34970D01*
X417854Y33962D01*
X418196Y33545D01*
X421851Y37200D01*
X418196Y40855D01*
D02*
G37*
G36*
X458194D02*
X457852Y40438D01*
X457313Y39430D01*
X456981Y38337D01*
X456869Y37200D01*
X456981Y36063D01*
X457313Y34970D01*
X457852Y33962D01*
X458194Y33545D01*
X461849Y37200D01*
X458194Y40855D01*
D02*
G37*
G36*
X407203Y40855D02*
X403548Y37200D01*
X407203Y33545D01*
X407546Y33962D01*
X408084Y34970D01*
X408416Y36063D01*
X408528Y37200D01*
X408416Y38337D01*
X408084Y39430D01*
X407546Y40438D01*
X407203Y40855D01*
D02*
G37*
G36*
X427204D02*
X423549Y37200D01*
X427204Y33545D01*
X427546Y33962D01*
X428084Y34970D01*
X428416Y36063D01*
X428528Y37200D01*
X428416Y38337D01*
X428084Y39430D01*
X427546Y40438D01*
X427204Y40855D01*
D02*
G37*
G36*
X110732Y31203D02*
X107539Y28010D01*
X110732Y24817D01*
X111189Y25413D01*
X111708Y26666D01*
X111885Y28010D01*
X111708Y29355D01*
X111189Y30607D01*
X110732Y31203D01*
D02*
G37*
G36*
X130732D02*
X127540Y28010D01*
X130732Y24817D01*
X131190Y25413D01*
X131708Y26666D01*
X131885Y28010D01*
X131708Y29355D01*
X131190Y30607D01*
X130732Y31203D01*
D02*
G37*
G36*
X122650D02*
X122192Y30607D01*
X121674Y29355D01*
X121496Y28010D01*
X121674Y26666D01*
X122192Y25413D01*
X122650Y24817D01*
X125842Y28010D01*
X122650Y31203D01*
D02*
G37*
G36*
X126691Y27161D02*
X123498Y23969D01*
X124094Y23512D01*
X125347Y22993D01*
X126691Y22816D01*
X128035Y22993D01*
X129288Y23512D01*
X129884Y23969D01*
X126691Y27161D01*
D02*
G37*
G36*
X102649Y31203D02*
X102192Y30607D01*
X101673Y29355D01*
X101497Y28010D01*
X101673Y26666D01*
X102192Y25413D01*
X102649Y24817D01*
X105842Y28010D01*
X102649Y31203D01*
D02*
G37*
G36*
X422700Y36351D02*
X419045Y32697D01*
X419462Y32354D01*
X420470Y31816D01*
X421563Y31484D01*
X422700Y31372D01*
X423837Y31484D01*
X424930Y31816D01*
X425938Y32354D01*
X426355Y32696D01*
X422700Y36351D01*
D02*
G37*
G36*
X442697Y36351D02*
X439042Y32696D01*
X439459Y32354D01*
X440467Y31816D01*
X441560Y31484D01*
X442697Y31372D01*
X443834Y31484D01*
X444928Y31816D01*
X445935Y32354D01*
X446352Y32696D01*
X442697Y36351D01*
D02*
G37*
G36*
X402700Y36351D02*
X399045Y32697D01*
X399462Y32354D01*
X400470Y31816D01*
X401563Y31484D01*
X402700Y31372D01*
X403837Y31484D01*
X404930Y31816D01*
X405938Y32354D01*
X406355Y32696D01*
X402700Y36351D01*
D02*
G37*
G36*
X106691Y33204D02*
X105347Y33027D01*
X104094Y32509D01*
X103498Y32052D01*
X106691Y28859D01*
X109884Y32052D01*
X109288Y32509D01*
X108035Y33027D01*
X106691Y33204D01*
D02*
G37*
G36*
X126691D02*
X125347Y33027D01*
X124094Y32509D01*
X123498Y32052D01*
X126691Y28859D01*
X129884Y32052D01*
X129288Y32509D01*
X128035Y33027D01*
X126691Y33204D01*
D02*
G37*
G36*
X106691Y47161D02*
X103498Y43969D01*
X104094Y43512D01*
X105347Y42993D01*
X106691Y42816D01*
X108035Y42993D01*
X109288Y43512D01*
X109884Y43969D01*
X106691Y47161D01*
D02*
G37*
G36*
X126691D02*
X123498Y43969D01*
X124094Y43512D01*
X125347Y42993D01*
X126691Y42816D01*
X128035Y42993D01*
X129288Y43512D01*
X129884Y43969D01*
X126691Y47161D01*
D02*
G37*
G36*
X289490Y43885D02*
X288145Y43708D01*
X286893Y43189D01*
X286297Y42732D01*
X289490Y39540D01*
X292683Y42732D01*
X292087Y43189D01*
X290834Y43708D01*
X289490Y43885D01*
D02*
G37*
G36*
X483292Y46180D02*
X482390Y46061D01*
X481551Y45713D01*
X480829Y45160D01*
X480276Y44439D01*
X479928Y43599D01*
X479809Y42697D01*
X479928Y41796D01*
X480276Y40956D01*
X480829Y40235D01*
X481551Y39681D01*
X482390Y39333D01*
X483292Y39215D01*
X484193Y39333D01*
X485033Y39681D01*
X485754Y40235D01*
X486308Y40956D01*
X486656Y41796D01*
X486774Y42697D01*
X486656Y43599D01*
X486308Y44439D01*
X485754Y45160D01*
X485033Y45713D01*
X484193Y46061D01*
X483292Y46180D01*
D02*
G37*
G36*
X269490Y43885D02*
X268145Y43708D01*
X266893Y43189D01*
X266297Y42732D01*
X269490Y39540D01*
X272683Y42732D01*
X272087Y43189D01*
X270834Y43708D01*
X269490Y43885D01*
D02*
G37*
G36*
X130732Y51203D02*
X127540Y48010D01*
X130732Y44817D01*
X131190Y45413D01*
X131708Y46666D01*
X131885Y48010D01*
X131708Y49354D01*
X131190Y50607D01*
X130732Y51203D01*
D02*
G37*
G36*
X126691Y53205D02*
X125347Y53027D01*
X124094Y52509D01*
X123498Y52052D01*
X126691Y48859D01*
X129884Y52052D01*
X129288Y52509D01*
X128035Y53027D01*
X126691Y53205D01*
D02*
G37*
G36*
X110732Y51203D02*
X107539Y48010D01*
X110732Y44817D01*
X111189Y45413D01*
X111708Y46666D01*
X111885Y48010D01*
X111708Y49354D01*
X111189Y50607D01*
X110732Y51203D01*
D02*
G37*
G36*
X102649D02*
X102192Y50607D01*
X101673Y49354D01*
X101497Y48010D01*
X101673Y46666D01*
X102192Y45413D01*
X102649Y44817D01*
X105842Y48010D01*
X102649Y51203D01*
D02*
G37*
G36*
X122650D02*
X122192Y50607D01*
X121674Y49354D01*
X121496Y48010D01*
X121674Y46666D01*
X122192Y45413D01*
X122650Y44817D01*
X125842Y48010D01*
X122650Y51203D01*
D02*
G37*
G36*
X265448Y41884D02*
X264991Y41288D01*
X264473Y40035D01*
X264296Y38691D01*
X264473Y37347D01*
X264991Y36094D01*
X265448Y35498D01*
X268641Y38691D01*
X265448Y41884D01*
D02*
G37*
G36*
X285449D02*
X284991Y41288D01*
X284472Y40035D01*
X284296Y38691D01*
X284472Y37347D01*
X284991Y36094D01*
X285449Y35498D01*
X288641Y38691D01*
X285449Y41884D01*
D02*
G37*
G36*
X293531Y41884D02*
X290338Y38691D01*
X293531Y35498D01*
X293988Y36094D01*
X294507Y37347D01*
X294684Y38691D01*
X294507Y40035D01*
X293988Y41288D01*
X293531Y41884D01*
D02*
G37*
G36*
X398196Y40855D02*
X397854Y40438D01*
X397316Y39430D01*
X396984Y38337D01*
X396872Y37200D01*
X396984Y36063D01*
X397316Y34970D01*
X397854Y33962D01*
X398196Y33545D01*
X401851Y37200D01*
X398196Y40855D01*
D02*
G37*
G36*
X273531Y41884D02*
X270338Y38691D01*
X273531Y35498D01*
X273989Y36094D01*
X274507Y37347D01*
X274684Y38691D01*
X274507Y40035D01*
X273989Y41288D01*
X273531Y41884D01*
D02*
G37*
G36*
X422700Y43028D02*
X421563Y42916D01*
X420470Y42584D01*
X419462Y42046D01*
X419045Y41704D01*
X422700Y38048D01*
X426355Y41704D01*
X425938Y42046D01*
X424930Y42584D01*
X423837Y42916D01*
X422700Y43028D01*
D02*
G37*
G36*
X496245Y46191D02*
X490339D01*
X489956Y46033D01*
X489798Y45650D01*
Y39745D01*
X489956Y39362D01*
X490339Y39203D01*
X496245D01*
X496627Y39362D01*
X496786Y39745D01*
Y45650D01*
X496627Y46033D01*
X496245Y46191D01*
D02*
G37*
G36*
X402700Y43028D02*
X401563Y42916D01*
X400470Y42584D01*
X399462Y42046D01*
X399045Y41704D01*
X402700Y38048D01*
X406355Y41704D01*
X405938Y42046D01*
X404930Y42584D01*
X403837Y42916D01*
X402700Y43028D01*
D02*
G37*
G36*
X462697D02*
X461560Y42916D01*
X460467Y42584D01*
X459459Y42046D01*
X459042Y41704D01*
X462697Y38048D01*
X466352Y41704D01*
X465935Y42046D01*
X464928Y42584D01*
X463834Y42916D01*
X462697Y43028D01*
D02*
G37*
G36*
X442697D02*
X441560Y42916D01*
X440467Y42584D01*
X439459Y42046D01*
X439042Y41704D01*
X442697Y38048D01*
X446352Y41704D01*
X445935Y42046D01*
X444928Y42584D01*
X443834Y42916D01*
X442697Y43028D01*
D02*
G37*
G36*
X106691Y27161D02*
X103498Y23969D01*
X104094Y23512D01*
X105347Y22993D01*
X106691Y22816D01*
X108035Y22993D01*
X109288Y23512D01*
X109884Y23969D01*
X106691Y27161D01*
D02*
G37*
G36*
X398196Y20855D02*
X397854Y20438D01*
X397316Y19430D01*
X396984Y18337D01*
X396872Y17200D01*
X396984Y16063D01*
X397316Y14970D01*
X397854Y13962D01*
X398196Y13545D01*
X401851Y17200D01*
X398196Y20855D01*
D02*
G37*
G36*
X30000Y45548D02*
X27568Y45357D01*
X25195Y44787D01*
X22941Y43853D01*
X20861Y42579D01*
X19006Y40994D01*
X17421Y39139D01*
X16147Y37059D01*
X15213Y34805D01*
X14643Y32432D01*
X14452Y30000D01*
X14643Y27568D01*
X15213Y25195D01*
X16147Y22941D01*
X17421Y20861D01*
X19006Y19006D01*
X20861Y17422D01*
X22941Y16147D01*
X25195Y15213D01*
X27568Y14643D01*
X30000Y14452D01*
X32432Y14643D01*
X34805Y15213D01*
X37059Y16147D01*
X39139Y17422D01*
X40994Y19006D01*
X42579Y20861D01*
X43853Y22941D01*
X44787Y25195D01*
X45357Y27568D01*
X45548Y30000D01*
X45357Y32432D01*
X44787Y34805D01*
X43853Y37059D01*
X42579Y39139D01*
X40994Y40994D01*
X39139Y42579D01*
X37059Y43853D01*
X34805Y44787D01*
X32432Y45357D01*
X30000Y45548D01*
D02*
G37*
G36*
X418196Y20855D02*
X417854Y20438D01*
X417316Y19430D01*
X416984Y18337D01*
X416872Y17200D01*
X416984Y16063D01*
X417316Y14970D01*
X417854Y13962D01*
X418196Y13545D01*
X421851Y17200D01*
X418196Y20855D01*
D02*
G37*
G36*
X458194D02*
X457852Y20438D01*
X457313Y19430D01*
X456981Y18337D01*
X456869Y17200D01*
X456981Y16063D01*
X457313Y14970D01*
X457852Y13962D01*
X458194Y13545D01*
X461849Y17200D01*
X458194Y20855D01*
D02*
G37*
G36*
X438194D02*
X437851Y20438D01*
X437313Y19430D01*
X436981Y18337D01*
X436869Y17200D01*
X436981Y16063D01*
X437313Y14970D01*
X437851Y13962D01*
X438194Y13545D01*
X441849Y17200D01*
X438194Y20855D01*
D02*
G37*
G36*
X285449Y21884D02*
X284991Y21288D01*
X284472Y20035D01*
X284296Y18691D01*
X284472Y17346D01*
X284991Y16094D01*
X285449Y15498D01*
X288641Y18691D01*
X285449Y21884D01*
D02*
G37*
G36*
X265448D02*
X264991Y21288D01*
X264473Y20035D01*
X264296Y18691D01*
X264473Y17346D01*
X264991Y16094D01*
X265448Y15498D01*
X268641Y18691D01*
X265448Y21884D01*
D02*
G37*
G36*
X293531Y21884D02*
X290338Y18691D01*
X293531Y15498D01*
X293988Y16094D01*
X294507Y17346D01*
X294684Y18691D01*
X294507Y20035D01*
X293988Y21288D01*
X293531Y21884D01*
D02*
G37*
G36*
X540000Y45548D02*
X537568Y45357D01*
X535195Y44787D01*
X532941Y43853D01*
X530861Y42579D01*
X529006Y40994D01*
X527422Y39139D01*
X526147Y37059D01*
X525213Y34805D01*
X524644Y32432D01*
X524452Y30000D01*
X524644Y27568D01*
X525213Y25195D01*
X526147Y22941D01*
X527422Y20861D01*
X529006Y19006D01*
X530861Y17422D01*
X532941Y16147D01*
X535195Y15213D01*
X537568Y14643D01*
X540000Y14452D01*
X542432Y14643D01*
X544805Y15213D01*
X547059Y16147D01*
X549139Y17422D01*
X550994Y19006D01*
X552578Y20861D01*
X553853Y22941D01*
X554787Y25195D01*
X555357Y27568D01*
X555548Y30000D01*
X555357Y32432D01*
X554787Y34805D01*
X553853Y37059D01*
X552578Y39139D01*
X550994Y40994D01*
X549139Y42579D01*
X547059Y43853D01*
X544805Y44787D01*
X542432Y45357D01*
X540000Y45548D01*
D02*
G37*
G36*
X273531Y21884D02*
X270338Y18691D01*
X273531Y15498D01*
X273989Y16094D01*
X274507Y17346D01*
X274684Y18691D01*
X274507Y20035D01*
X273989Y21288D01*
X273531Y21884D01*
D02*
G37*
G36*
X462697Y16351D02*
X459042Y12696D01*
X459459Y12354D01*
X460467Y11816D01*
X461560Y11484D01*
X462697Y11372D01*
X463834Y11484D01*
X464928Y11816D01*
X465935Y12354D01*
X466352Y12696D01*
X462697Y16351D01*
D02*
G37*
G36*
X269490Y17842D02*
X266297Y14650D01*
X266893Y14192D01*
X268145Y13674D01*
X269490Y13497D01*
X270834Y13674D01*
X272087Y14192D01*
X272683Y14649D01*
X269490Y17842D01*
D02*
G37*
G36*
X442697Y16351D02*
X439042Y12696D01*
X439459Y12354D01*
X440467Y11816D01*
X441560Y11484D01*
X442697Y11372D01*
X443834Y11484D01*
X444928Y11816D01*
X445935Y12354D01*
X446352Y12696D01*
X442697Y16351D01*
D02*
G37*
G36*
X402700Y16352D02*
X399045Y12697D01*
X399462Y12354D01*
X400470Y11816D01*
X401563Y11484D01*
X402700Y11372D01*
X403837Y11484D01*
X404930Y11816D01*
X405938Y12354D01*
X406355Y12696D01*
X402700Y16352D01*
D02*
G37*
G36*
X422700D02*
X419045Y12697D01*
X419462Y12354D01*
X420470Y11816D01*
X421563Y11484D01*
X422700Y11372D01*
X423837Y11484D01*
X424930Y11816D01*
X425938Y12354D01*
X426355Y12696D01*
X422700Y16352D01*
D02*
G37*
G36*
X407203Y20855D02*
X403548Y17200D01*
X407203Y13545D01*
X407546Y13962D01*
X408084Y14970D01*
X408416Y16063D01*
X408528Y17200D01*
X408416Y18337D01*
X408084Y19430D01*
X407546Y20438D01*
X407203Y20855D01*
D02*
G37*
G36*
X427204D02*
X423549Y17200D01*
X427204Y13545D01*
X427546Y13962D01*
X428084Y14970D01*
X428416Y16063D01*
X428528Y17200D01*
X428416Y18337D01*
X428084Y19430D01*
X427546Y20438D01*
X427204Y20855D01*
D02*
G37*
G36*
X467201Y20855D02*
X463546Y17200D01*
X467201Y13545D01*
X467543Y13962D01*
X468082Y14970D01*
X468413Y16063D01*
X468525Y17200D01*
X468413Y18337D01*
X468082Y19430D01*
X467543Y20438D01*
X467201Y20855D01*
D02*
G37*
G36*
X289490Y17842D02*
X286297Y14650D01*
X286893Y14192D01*
X288145Y13674D01*
X289490Y13497D01*
X290834Y13674D01*
X292087Y14192D01*
X292683Y14649D01*
X289490Y17842D01*
D02*
G37*
G36*
X447201Y20855D02*
X443546Y17200D01*
X447201Y13545D01*
X447543Y13962D01*
X448082Y14970D01*
X448413Y16063D01*
X448525Y17200D01*
X448413Y18337D01*
X448082Y19430D01*
X447543Y20438D01*
X447201Y20855D01*
D02*
G37*
G36*
X269490Y23885D02*
X268145Y23708D01*
X266893Y23189D01*
X266297Y22732D01*
X269490Y19539D01*
X272683Y22732D01*
X272087Y23189D01*
X270834Y23708D01*
X269490Y23885D01*
D02*
G37*
G36*
X289490D02*
X288145Y23708D01*
X286893Y23189D01*
X286297Y22732D01*
X289490Y19539D01*
X292683Y22732D01*
X292087Y23189D01*
X290834Y23708D01*
X289490Y23885D01*
D02*
G37*
G36*
X496955Y23196D02*
X496722Y22893D01*
X496344Y21980D01*
X496215Y21000D01*
X496344Y20020D01*
X496722Y19107D01*
X496955Y18804D01*
X499151Y21000D01*
X496955Y23196D01*
D02*
G37*
G36*
X503045Y23196D02*
X500848Y21000D01*
X503045Y18804D01*
X503278Y19107D01*
X503656Y20020D01*
X503785Y21000D01*
X503656Y21980D01*
X503278Y22893D01*
X503045Y23196D01*
D02*
G37*
G36*
X486955Y23196D02*
X486722Y22893D01*
X486344Y21980D01*
X486215Y21000D01*
X486344Y20020D01*
X486722Y19107D01*
X486955Y18804D01*
X489151Y21000D01*
X486955Y23196D01*
D02*
G37*
G36*
X500000Y24785D02*
X499020Y24656D01*
X498107Y24278D01*
X497803Y24045D01*
X500000Y21848D01*
X502196Y24045D01*
X501893Y24278D01*
X500980Y24656D01*
X500000Y24785D01*
D02*
G37*
G36*
X512920Y24768D02*
X507080D01*
X510000Y21848D01*
X512920Y24768D01*
D02*
G37*
G36*
X490000Y24785D02*
X489020Y24656D01*
X488107Y24278D01*
X487804Y24045D01*
X490000Y21848D01*
X492196Y24045D01*
X491893Y24278D01*
X490980Y24656D01*
X490000Y24785D01*
D02*
G37*
G36*
X412700Y32747D02*
X411264Y32558D01*
X409926Y32004D01*
X408777Y31123D01*
X407896Y29974D01*
X407342Y28636D01*
X407153Y27200D01*
X407342Y25764D01*
X407896Y24426D01*
X408777Y23277D01*
X409926Y22396D01*
X411264Y21842D01*
X412700Y21653D01*
X414136Y21842D01*
X415474Y22396D01*
X416623Y23277D01*
X417504Y24426D01*
X418058Y25764D01*
X418248Y27200D01*
X418058Y28636D01*
X417504Y29974D01*
X416623Y31123D01*
X415474Y32004D01*
X414136Y32558D01*
X412700Y32747D01*
D02*
G37*
G36*
X452697D02*
X451262Y32558D01*
X449924Y32004D01*
X448775Y31123D01*
X447893Y29974D01*
X447339Y28636D01*
X447150Y27200D01*
X447339Y25764D01*
X447893Y24426D01*
X448775Y23277D01*
X449924Y22396D01*
X451262Y21842D01*
X452697Y21653D01*
X454133Y21842D01*
X455471Y22396D01*
X456620Y23277D01*
X457502Y24426D01*
X458056Y25764D01*
X458245Y27200D01*
X458056Y28636D01*
X457502Y29974D01*
X456620Y31123D01*
X455471Y32004D01*
X454133Y32558D01*
X452697Y32747D01*
D02*
G37*
G36*
X442697Y23028D02*
X441560Y22916D01*
X440467Y22584D01*
X439459Y22046D01*
X439042Y21703D01*
X442697Y18048D01*
X446352Y21703D01*
X445935Y22046D01*
X444928Y22584D01*
X443834Y22916D01*
X442697Y23028D01*
D02*
G37*
G36*
X462697D02*
X461560Y22916D01*
X460467Y22584D01*
X459459Y22046D01*
X459042Y21703D01*
X462697Y18048D01*
X466352Y21703D01*
X465935Y22046D01*
X464928Y22584D01*
X463834Y22916D01*
X462697Y23028D01*
D02*
G37*
G36*
X510000Y20151D02*
X507080Y17232D01*
X512920D01*
X510000Y20151D01*
D02*
G37*
G36*
X490000D02*
X487804Y17955D01*
X488107Y17722D01*
X489020Y17344D01*
X490000Y17215D01*
X490980Y17344D01*
X491893Y17722D01*
X492196Y17955D01*
X490000Y20151D01*
D02*
G37*
G36*
X500000D02*
X497804Y17955D01*
X498107Y17722D01*
X499020Y17344D01*
X500000Y17215D01*
X500980Y17344D01*
X501893Y17722D01*
X502196Y17955D01*
X500000Y20151D01*
D02*
G37*
G36*
X506232Y23920D02*
Y18080D01*
X509151Y21000D01*
X506232Y23920D01*
D02*
G37*
G36*
X493045Y23196D02*
X490848Y21000D01*
X493045Y18804D01*
X493278Y19107D01*
X493656Y20020D01*
X493785Y21000D01*
X493656Y21980D01*
X493278Y22893D01*
X493045Y23196D01*
D02*
G37*
G36*
X513768Y23920D02*
X510849Y21000D01*
X513768Y18080D01*
Y23920D01*
D02*
G37*
G36*
X422700Y23028D02*
X421563Y22916D01*
X420470Y22584D01*
X419462Y22046D01*
X419045Y21703D01*
X422700Y18048D01*
X426355Y21704D01*
X425938Y22046D01*
X424930Y22584D01*
X423837Y22916D01*
X422700Y23028D01*
D02*
G37*
G36*
X402700D02*
X401563Y22916D01*
X400470Y22584D01*
X399462Y22046D01*
X399045Y21703D01*
X402700Y18048D01*
X406355Y21704D01*
X405938Y22046D01*
X404930Y22584D01*
X403837Y22916D01*
X402700Y23028D01*
D02*
G37*
G36*
X334041Y108193D02*
X330849Y105000D01*
X334041Y101807D01*
X334499Y102403D01*
X335017Y103656D01*
X335194Y105000D01*
X335017Y106344D01*
X334499Y107597D01*
X334041Y108193D01*
D02*
G37*
G36*
X479041D02*
X475848Y105000D01*
X479041Y101807D01*
X479498Y102403D01*
X480017Y103656D01*
X480194Y105000D01*
X480017Y106344D01*
X479498Y107597D01*
X479041Y108193D01*
D02*
G37*
G36*
X314041D02*
X310848Y105000D01*
X314041Y101807D01*
X314498Y102403D01*
X315017Y103656D01*
X315194Y105000D01*
X315017Y106344D01*
X314498Y107597D01*
X314041Y108193D01*
D02*
G37*
G36*
X470959D02*
X470502Y107597D01*
X469982Y106344D01*
X469806Y105000D01*
X469982Y103656D01*
X470502Y102403D01*
X470959Y101807D01*
X474152Y105000D01*
X470959Y108193D01*
D02*
G37*
G36*
X490959D02*
X490501Y107597D01*
X489983Y106344D01*
X489806Y105000D01*
X489983Y103656D01*
X490501Y102403D01*
X490959Y101807D01*
X494151Y105000D01*
X490959Y108193D01*
D02*
G37*
G36*
X386000Y109151D02*
X382345Y105497D01*
X382762Y105154D01*
X383770Y104616D01*
X384863Y104284D01*
X386000Y104172D01*
X387137Y104284D01*
X388230Y104616D01*
X389238Y105154D01*
X389655Y105497D01*
X386000Y109151D01*
D02*
G37*
G36*
X406000D02*
X402345Y105497D01*
X402762Y105154D01*
X403770Y104616D01*
X404863Y104284D01*
X406000Y104172D01*
X407137Y104284D01*
X408230Y104616D01*
X409238Y105154D01*
X409655Y105497D01*
X406000Y109151D01*
D02*
G37*
G36*
X428500Y108549D02*
X427525Y108355D01*
X426698Y107802D01*
X426145Y106975D01*
X425951Y106000D01*
X426145Y105025D01*
X426698Y104198D01*
X427525Y103645D01*
X428500Y103451D01*
X429475Y103645D01*
X430302Y104198D01*
X430855Y105025D01*
X431049Y106000D01*
X430855Y106975D01*
X430302Y107802D01*
X429475Y108355D01*
X428500Y108549D01*
D02*
G37*
G36*
X499041Y108193D02*
X495849Y105000D01*
X499041Y101807D01*
X499499Y102403D01*
X500017Y103656D01*
X500194Y105000D01*
X500017Y106344D01*
X499499Y107597D01*
X499041Y108193D01*
D02*
G37*
G36*
X439000Y108049D02*
X438025Y107855D01*
X437198Y107302D01*
X436645Y106475D01*
X436451Y105500D01*
X436645Y104525D01*
X437198Y103698D01*
X438025Y103145D01*
X439000Y102951D01*
X439975Y103145D01*
X440802Y103698D01*
X441355Y104525D01*
X441549Y105500D01*
X441355Y106475D01*
X440802Y107302D01*
X439975Y107855D01*
X439000Y108049D01*
D02*
G37*
G36*
X431084Y94063D02*
X430655Y93978D01*
X430291Y93735D01*
X430048Y93371D01*
X429962Y92942D01*
X430048Y92513D01*
X430291Y92149D01*
X430655Y91905D01*
X431084Y91820D01*
X431513Y91905D01*
X431877Y92149D01*
X432120Y92513D01*
X432205Y92942D01*
X432120Y93371D01*
X431877Y93735D01*
X431513Y93978D01*
X431084Y94063D01*
D02*
G37*
G36*
X310000Y104151D02*
X306807Y100959D01*
X307403Y100502D01*
X308656Y99983D01*
X310000Y99806D01*
X311344Y99983D01*
X312597Y100502D01*
X313193Y100959D01*
X310000Y104151D01*
D02*
G37*
G36*
X437121Y94063D02*
X436692Y93978D01*
X436328Y93735D01*
X436085Y93371D01*
X436000Y92942D01*
X436085Y92513D01*
X436328Y92149D01*
X436692Y91905D01*
X437121Y91820D01*
X437550Y91905D01*
X437914Y92149D01*
X438157Y92513D01*
X438243Y92942D01*
X438157Y93371D01*
X437914Y93735D01*
X437550Y93978D01*
X437121Y94063D01*
D02*
G37*
G36*
X467005Y90249D02*
X466030Y90055D01*
X465203Y89502D01*
X464650Y88675D01*
X464457Y87700D01*
X464650Y86725D01*
X465203Y85898D01*
X466030Y85345D01*
X467005Y85151D01*
X467981Y85345D01*
X468808Y85898D01*
X469360Y86725D01*
X469555Y87700D01*
X469360Y88675D01*
X468808Y89502D01*
X467981Y90055D01*
X467005Y90249D01*
D02*
G37*
G36*
X462206Y94849D02*
X461230Y94655D01*
X460403Y94102D01*
X459851Y93275D01*
X459656Y92300D01*
X459851Y91325D01*
X460403Y90498D01*
X461230Y89945D01*
X462206Y89751D01*
X463181Y89945D01*
X464008Y90498D01*
X464560Y91325D01*
X464754Y92300D01*
X464560Y93275D01*
X464008Y94102D01*
X463181Y94655D01*
X462206Y94849D01*
D02*
G37*
G36*
X305959Y108193D02*
X305502Y107597D01*
X304982Y106344D01*
X304805Y105000D01*
X304982Y103656D01*
X305502Y102403D01*
X305959Y101807D01*
X309152Y105000D01*
X305959Y108193D01*
D02*
G37*
G36*
X325959D02*
X325501Y107597D01*
X324983Y106344D01*
X324805Y105000D01*
X324983Y103656D01*
X325501Y102403D01*
X325959Y101807D01*
X329152Y105000D01*
X325959Y108193D01*
D02*
G37*
G36*
X495000Y104151D02*
X491807Y100959D01*
X492403Y100502D01*
X493656Y99983D01*
X495000Y99806D01*
X496344Y99983D01*
X497597Y100502D01*
X498193Y100959D01*
X495000Y104151D01*
D02*
G37*
G36*
X330000D02*
X326807Y100959D01*
X327403Y100502D01*
X328656Y99983D01*
X330000Y99806D01*
X331344Y99983D01*
X332597Y100502D01*
X333193Y100959D01*
X330000Y104151D01*
D02*
G37*
G36*
X475000D02*
X471807Y100959D01*
X472403Y100502D01*
X473656Y99983D01*
X475000Y99806D01*
X476344Y99983D01*
X477597Y100502D01*
X478193Y100959D01*
X475000Y104151D01*
D02*
G37*
G36*
X56950Y117685D02*
X56493Y117089D01*
X55974Y115836D01*
X55797Y114492D01*
X55974Y113147D01*
X56493Y111895D01*
X56950Y111299D01*
X60143Y114492D01*
X56950Y117685D01*
D02*
G37*
G36*
X45033Y117685D02*
X41840Y114492D01*
X45033Y111299D01*
X45490Y111895D01*
X46009Y113147D01*
X46186Y114492D01*
X46009Y115836D01*
X45490Y117089D01*
X45033Y117685D01*
D02*
G37*
G36*
X36950Y117685D02*
X36493Y117089D01*
X35974Y115836D01*
X35797Y114492D01*
X35974Y113147D01*
X36493Y111895D01*
X36950Y111299D01*
X40143Y114492D01*
X36950Y117685D01*
D02*
G37*
G36*
X386000Y115828D02*
X384863Y115716D01*
X383770Y115384D01*
X382762Y114846D01*
X382345Y114504D01*
X386000Y110848D01*
X389655Y114504D01*
X389238Y114846D01*
X388230Y115384D01*
X387137Y115716D01*
X386000Y115828D01*
D02*
G37*
G36*
X406000D02*
X404863Y115716D01*
X403770Y115384D01*
X402762Y114846D01*
X402345Y114504D01*
X406000Y110848D01*
X409655Y114504D01*
X409238Y114846D01*
X408230Y115384D01*
X407137Y115716D01*
X406000Y115828D01*
D02*
G37*
G36*
X40992Y119686D02*
X39647Y119509D01*
X38395Y118990D01*
X37799Y118533D01*
X40992Y115340D01*
X44185Y118533D01*
X43589Y118990D01*
X42336Y119509D01*
X40992Y119686D01*
D02*
G37*
G36*
X310000Y124152D02*
X306807Y120959D01*
X307403Y120501D01*
X308656Y119983D01*
X310000Y119806D01*
X311344Y119983D01*
X312597Y120501D01*
X313193Y120959D01*
X310000Y124152D01*
D02*
G37*
G36*
X60992Y119686D02*
X59647Y119509D01*
X58395Y118990D01*
X57799Y118533D01*
X60992Y115340D01*
X64185Y118533D01*
X63589Y118990D01*
X62336Y119509D01*
X60992Y119686D01*
D02*
G37*
G36*
X65033Y117685D02*
X61840Y114492D01*
X65033Y111299D01*
X65490Y111895D01*
X66009Y113147D01*
X66186Y114492D01*
X66009Y115836D01*
X65490Y117089D01*
X65033Y117685D01*
D02*
G37*
G36*
X396000Y125548D02*
X394564Y125358D01*
X393226Y124804D01*
X392077Y123923D01*
X391196Y122774D01*
X390642Y121436D01*
X390453Y120000D01*
X390642Y118564D01*
X391196Y117226D01*
X392077Y116077D01*
X393226Y115196D01*
X394564Y114642D01*
X396000Y114453D01*
X397436Y114642D01*
X398774Y115196D01*
X399923Y116077D01*
X400804Y117226D01*
X401358Y118564D01*
X401547Y120000D01*
X401358Y121436D01*
X400804Y122774D01*
X399923Y123923D01*
X398774Y124804D01*
X397436Y125358D01*
X396000Y125548D01*
D02*
G37*
G36*
X475000Y110194D02*
X473656Y110017D01*
X472403Y109499D01*
X471807Y109041D01*
X475000Y105849D01*
X478193Y109041D01*
X477597Y109499D01*
X476344Y110017D01*
X475000Y110194D01*
D02*
G37*
G36*
X381497Y113655D02*
X381154Y113238D01*
X380616Y112230D01*
X380284Y111137D01*
X380172Y110000D01*
X380284Y108863D01*
X380616Y107770D01*
X381154Y106762D01*
X381497Y106345D01*
X385152Y110000D01*
X381497Y113655D01*
D02*
G37*
G36*
X330000Y110194D02*
X328656Y110017D01*
X327403Y109499D01*
X326807Y109041D01*
X330000Y105849D01*
X333193Y109041D01*
X332597Y109499D01*
X331344Y110017D01*
X330000Y110194D01*
D02*
G37*
G36*
X310000D02*
X308656Y110017D01*
X307403Y109499D01*
X306807Y109041D01*
X310000Y105849D01*
X313193Y109041D01*
X312597Y109499D01*
X311344Y110017D01*
X310000Y110194D01*
D02*
G37*
G36*
X495000D02*
X493656Y110017D01*
X492403Y109499D01*
X491807Y109041D01*
X495000Y105849D01*
X498193Y109041D01*
X497597Y109499D01*
X496344Y110017D01*
X495000Y110194D01*
D02*
G37*
G36*
X40992Y113643D02*
X37799Y110450D01*
X38395Y109993D01*
X39647Y109474D01*
X40992Y109297D01*
X42336Y109474D01*
X43589Y109993D01*
X44185Y110450D01*
X40992Y113643D01*
D02*
G37*
G36*
X60992D02*
X57799Y110450D01*
X58395Y109993D01*
X59647Y109474D01*
X60992Y109297D01*
X62336Y109474D01*
X63589Y109993D01*
X64185Y110450D01*
X60992Y113643D01*
D02*
G37*
G36*
X410503Y113655D02*
X406848Y110000D01*
X410503Y106345D01*
X410846Y106762D01*
X411384Y107770D01*
X411716Y108863D01*
X411828Y110000D01*
X411716Y111137D01*
X411384Y112230D01*
X410846Y113238D01*
X410503Y113655D01*
D02*
G37*
G36*
X401497Y113655D02*
X401154Y113238D01*
X400616Y112230D01*
X400284Y111137D01*
X400172Y110000D01*
X400284Y108863D01*
X400616Y107770D01*
X401154Y106762D01*
X401497Y106345D01*
X405152Y110000D01*
X401497Y113655D01*
D02*
G37*
G36*
X390504Y113655D02*
X386848Y110000D01*
X390504Y106345D01*
X390846Y106762D01*
X391384Y107770D01*
X391716Y108863D01*
X391828Y110000D01*
X391716Y111137D01*
X391384Y112230D01*
X390846Y113238D01*
X390504Y113655D01*
D02*
G37*
G36*
X457705Y90149D02*
X456730Y89955D01*
X455903Y89402D01*
X455350Y88575D01*
X455157Y87600D01*
X455350Y86624D01*
X455903Y85798D01*
X456730Y85245D01*
X457705Y85051D01*
X458681Y85245D01*
X459508Y85798D01*
X460060Y86624D01*
X460254Y87600D01*
X460060Y88575D01*
X459508Y89402D01*
X458681Y89955D01*
X457705Y90149D01*
D02*
G37*
G36*
X425211Y64654D02*
X424236Y64460D01*
X423409Y63908D01*
X422856Y63081D01*
X422662Y62106D01*
X422856Y61130D01*
X423409Y60303D01*
X424236Y59751D01*
X425211Y59557D01*
X426187Y59751D01*
X427013Y60303D01*
X427566Y61130D01*
X427760Y62106D01*
X427566Y63081D01*
X427013Y63908D01*
X426187Y64460D01*
X425211Y64654D01*
D02*
G37*
G36*
X514955Y64196D02*
X514722Y63893D01*
X514344Y62980D01*
X514215Y62000D01*
X514344Y61020D01*
X514722Y60107D01*
X514955Y59804D01*
X517151Y62000D01*
X514955Y64196D01*
D02*
G37*
G36*
X60992Y63686D02*
X59647Y63509D01*
X58395Y62990D01*
X57799Y62533D01*
X60992Y59340D01*
X64185Y62533D01*
X63589Y62990D01*
X62336Y63509D01*
X60992Y63686D01*
D02*
G37*
G36*
X508000Y65482D02*
X507099Y65364D01*
X506259Y65016D01*
X505538Y64463D01*
X504984Y63741D01*
X504636Y62901D01*
X504518Y62000D01*
X504636Y61099D01*
X504984Y60259D01*
X505538Y59538D01*
X506259Y58984D01*
X507099Y58636D01*
X508000Y58517D01*
X508901Y58636D01*
X509741Y58984D01*
X510463Y59538D01*
X511016Y60259D01*
X511364Y61099D01*
X511482Y62000D01*
X511364Y62901D01*
X511016Y63741D01*
X510463Y64463D01*
X509741Y65016D01*
X508901Y65364D01*
X508000Y65482D01*
D02*
G37*
G36*
X40992Y63686D02*
X39647Y63509D01*
X38395Y62990D01*
X37799Y62533D01*
X40992Y59340D01*
X44185Y62533D01*
X43589Y62990D01*
X42336Y63509D01*
X40992Y63686D01*
D02*
G37*
G36*
X443905Y66733D02*
X442930Y66539D01*
X442103Y65987D01*
X441551Y65160D01*
X441357Y64184D01*
X441551Y63209D01*
X442103Y62382D01*
X442930Y61829D01*
X443905Y61635D01*
X444881Y61829D01*
X445708Y62382D01*
X446260Y63209D01*
X446454Y64184D01*
X446260Y65160D01*
X445708Y65987D01*
X444881Y66539D01*
X443905Y66733D01*
D02*
G37*
G36*
X518000Y65785D02*
X517020Y65656D01*
X516107Y65278D01*
X515804Y65045D01*
X518000Y62849D01*
X520196Y65045D01*
X519893Y65278D01*
X518980Y65656D01*
X518000Y65785D01*
D02*
G37*
G36*
X402961Y64464D02*
X402728Y64160D01*
X402349Y63247D01*
X402220Y62267D01*
X402349Y61288D01*
X402728Y60375D01*
X402961Y60071D01*
X405157Y62267D01*
X402961Y64464D01*
D02*
G37*
G36*
X521045Y64196D02*
X518849Y62000D01*
X521045Y59804D01*
X521278Y60107D01*
X521656Y61020D01*
X521785Y62000D01*
X521656Y62980D01*
X521278Y63893D01*
X521045Y64196D01*
D02*
G37*
G36*
X409050Y64464D02*
X406854Y62267D01*
X409050Y60071D01*
X409283Y60375D01*
X409662Y61288D01*
X409791Y62267D01*
X409662Y63247D01*
X409283Y64160D01*
X409050Y64464D01*
D02*
G37*
G36*
X36950Y61685D02*
X36493Y61089D01*
X35974Y59836D01*
X35797Y58492D01*
X35974Y57147D01*
X36493Y55895D01*
X36950Y55299D01*
X40143Y58492D01*
X36950Y61685D01*
D02*
G37*
G36*
X56950D02*
X56493Y61089D01*
X55974Y59836D01*
X55797Y58492D01*
X55974Y57147D01*
X56493Y55895D01*
X56950Y55299D01*
X60143Y58492D01*
X56950Y61685D01*
D02*
G37*
G36*
X60992Y57643D02*
X57799Y54450D01*
X58395Y53993D01*
X59647Y53474D01*
X60992Y53297D01*
X62336Y53474D01*
X63589Y53993D01*
X64185Y54450D01*
X60992Y57643D01*
D02*
G37*
G36*
X106691Y53205D02*
X105347Y53027D01*
X104094Y52509D01*
X103498Y52052D01*
X106691Y48859D01*
X109884Y52052D01*
X109288Y52509D01*
X108035Y53027D01*
X106691Y53205D01*
D02*
G37*
G36*
X40992Y57643D02*
X37799Y54450D01*
X38395Y53993D01*
X39647Y53474D01*
X40992Y53297D01*
X42336Y53474D01*
X43589Y53993D01*
X44185Y54450D01*
X40992Y57643D01*
D02*
G37*
G36*
X406005Y61419D02*
X403809Y59222D01*
X404113Y58989D01*
X405026Y58611D01*
X406005Y58482D01*
X406985Y58611D01*
X407898Y58989D01*
X408202Y59222D01*
X406005Y61419D01*
D02*
G37*
G36*
X500953Y65494D02*
X495047D01*
X494665Y65335D01*
X494506Y64953D01*
Y59047D01*
X494665Y58665D01*
X495047Y58506D01*
X500953D01*
X501335Y58665D01*
X501494Y59047D01*
Y64953D01*
X501335Y65335D01*
X500953Y65494D01*
D02*
G37*
G36*
X518000Y61151D02*
X515804Y58955D01*
X516107Y58722D01*
X517020Y58344D01*
X518000Y58215D01*
X518980Y58344D01*
X519893Y58722D01*
X520196Y58955D01*
X518000Y61151D01*
D02*
G37*
G36*
X45033Y61685D02*
X41840Y58492D01*
X45033Y55299D01*
X45490Y55895D01*
X46009Y57147D01*
X46186Y58492D01*
X46009Y59836D01*
X45490Y61089D01*
X45033Y61685D01*
D02*
G37*
G36*
X65033D02*
X61840Y58492D01*
X65033Y55299D01*
X65490Y55895D01*
X66009Y57147D01*
X66186Y58492D01*
X66009Y59836D01*
X65490Y61089D01*
X65033Y61685D01*
D02*
G37*
G36*
X472800Y83854D02*
X471825Y83660D01*
X470998Y83108D01*
X470445Y82281D01*
X470251Y81305D01*
X470445Y80330D01*
X470998Y79503D01*
X471825Y78950D01*
X472800Y78756D01*
X473776Y78950D01*
X474603Y79503D01*
X475155Y80330D01*
X475349Y81305D01*
X475155Y82281D01*
X474603Y83108D01*
X473776Y83660D01*
X472800Y83854D01*
D02*
G37*
G36*
X40992Y83686D02*
X39647Y83509D01*
X38395Y82990D01*
X37799Y82533D01*
X40992Y79340D01*
X44185Y82533D01*
X43589Y82990D01*
X42336Y83509D01*
X40992Y83686D01*
D02*
G37*
G36*
X499500Y83549D02*
X498525Y83355D01*
X497698Y82802D01*
X497145Y81976D01*
X496951Y81000D01*
X497145Y80024D01*
X497698Y79198D01*
X498525Y78645D01*
X499500Y78451D01*
X500476Y78645D01*
X501302Y79198D01*
X501855Y80024D01*
X502049Y81000D01*
X501855Y81976D01*
X501302Y82802D01*
X500476Y83355D01*
X499500Y83549D01*
D02*
G37*
G36*
X65033Y81685D02*
X61840Y78492D01*
X65033Y75299D01*
X65490Y75895D01*
X66009Y77147D01*
X66186Y78492D01*
X66009Y79836D01*
X65490Y81089D01*
X65033Y81685D01*
D02*
G37*
G36*
X423811Y82254D02*
X422836Y82060D01*
X422009Y81508D01*
X421456Y80681D01*
X421262Y79706D01*
X421456Y78730D01*
X422009Y77903D01*
X422836Y77351D01*
X423811Y77157D01*
X424787Y77351D01*
X425613Y77903D01*
X426166Y78730D01*
X426360Y79706D01*
X426166Y80681D01*
X425613Y81508D01*
X424787Y82060D01*
X423811Y82254D01*
D02*
G37*
G36*
X362000Y91983D02*
X361099Y91864D01*
X360259Y91516D01*
X359538Y90962D01*
X358984Y90241D01*
X358636Y89401D01*
X358518Y88500D01*
X358636Y87599D01*
X358984Y86759D01*
X359538Y86037D01*
X360259Y85484D01*
X361099Y85136D01*
X362000Y85017D01*
X362901Y85136D01*
X363741Y85484D01*
X364462Y86037D01*
X365016Y86759D01*
X365364Y87599D01*
X365482Y88500D01*
X365364Y89401D01*
X365016Y90241D01*
X364462Y90962D01*
X363741Y91516D01*
X362901Y91864D01*
X362000Y91983D01*
D02*
G37*
G36*
X372000D02*
X371099Y91864D01*
X370259Y91516D01*
X369537Y90962D01*
X368984Y90241D01*
X368636Y89401D01*
X368517Y88500D01*
X368636Y87599D01*
X368984Y86759D01*
X369537Y86037D01*
X370259Y85484D01*
X371099Y85136D01*
X372000Y85017D01*
X372901Y85136D01*
X373741Y85484D01*
X374463Y86037D01*
X375016Y86759D01*
X375364Y87599D01*
X375483Y88500D01*
X375364Y89401D01*
X375016Y90241D01*
X374463Y90962D01*
X373741Y91516D01*
X372901Y91864D01*
X372000Y91983D01*
D02*
G37*
G36*
X384953Y91994D02*
X379047D01*
X378665Y91835D01*
X378506Y91453D01*
Y85547D01*
X378665Y85164D01*
X379047Y85006D01*
X384953D01*
X385335Y85164D01*
X385494Y85547D01*
Y91453D01*
X385335Y91835D01*
X384953Y91994D01*
D02*
G37*
G36*
X60992Y83686D02*
X59647Y83509D01*
X58395Y82990D01*
X57799Y82533D01*
X60992Y79340D01*
X64185Y82533D01*
X63589Y82990D01*
X62336Y83509D01*
X60992Y83686D01*
D02*
G37*
G36*
X485500Y90482D02*
X484599Y90364D01*
X483759Y90016D01*
X483038Y89463D01*
X482484Y88741D01*
X482136Y87901D01*
X482018Y87000D01*
X482136Y86099D01*
X482484Y85259D01*
X483038Y84538D01*
X483759Y83984D01*
X484599Y83636D01*
X485500Y83517D01*
X486401Y83636D01*
X487241Y83984D01*
X487962Y84538D01*
X488516Y85259D01*
X488864Y86099D01*
X488982Y87000D01*
X488864Y87901D01*
X488516Y88741D01*
X487962Y89463D01*
X487241Y90016D01*
X486401Y90364D01*
X485500Y90482D01*
D02*
G37*
G36*
X60992Y77643D02*
X57799Y74450D01*
X58395Y73993D01*
X59647Y73474D01*
X60992Y73297D01*
X62336Y73474D01*
X63589Y73993D01*
X64185Y74450D01*
X60992Y77643D01*
D02*
G37*
G36*
X488453Y80494D02*
X482547D01*
X482164Y80335D01*
X482006Y79953D01*
Y74047D01*
X482164Y73664D01*
X482547Y73506D01*
X488453D01*
X488835Y73664D01*
X488994Y74047D01*
Y79953D01*
X488835Y80335D01*
X488453Y80494D01*
D02*
G37*
G36*
X40992Y77643D02*
X37799Y74450D01*
X38395Y73993D01*
X39647Y73474D01*
X40992Y73297D01*
X42336Y73474D01*
X43589Y73993D01*
X44185Y74450D01*
X40992Y77643D01*
D02*
G37*
G36*
X406005Y66052D02*
X405026Y65923D01*
X404113Y65545D01*
X403809Y65312D01*
X406005Y63116D01*
X408202Y65312D01*
X407898Y65545D01*
X406985Y65923D01*
X406005Y66052D01*
D02*
G37*
G36*
X408958Y75761D02*
X403053D01*
X402670Y75603D01*
X402512Y75220D01*
Y69314D01*
X402670Y68932D01*
X403053Y68773D01*
X408958D01*
X409341Y68932D01*
X409499Y69314D01*
Y75220D01*
X409341Y75603D01*
X408958Y75761D01*
D02*
G37*
G36*
X56950Y81685D02*
X56493Y81089D01*
X55974Y79836D01*
X55797Y78492D01*
X55974Y77147D01*
X56493Y75895D01*
X56950Y75299D01*
X60143Y78492D01*
X56950Y81685D01*
D02*
G37*
G36*
X45033Y81685D02*
X41840Y78492D01*
X45033Y75299D01*
X45490Y75895D01*
X46009Y77147D01*
X46186Y78492D01*
X46009Y79836D01*
X45490Y81089D01*
X45033Y81685D01*
D02*
G37*
G36*
X36950Y81685D02*
X36493Y81089D01*
X35974Y79836D01*
X35797Y78492D01*
X35974Y77147D01*
X36493Y75895D01*
X36950Y75299D01*
X40143Y78492D01*
X36950Y81685D01*
D02*
G37*
G36*
X443700Y79749D02*
X442725Y79555D01*
X441898Y79002D01*
X441345Y78175D01*
X441151Y77200D01*
X441345Y76224D01*
X441898Y75398D01*
X442725Y74845D01*
X443700Y74651D01*
X444675Y74845D01*
X445502Y75398D01*
X446055Y76224D01*
X446249Y77200D01*
X446055Y78175D01*
X445502Y79002D01*
X444675Y79555D01*
X443700Y79749D01*
D02*
G37*
G36*
X454000D02*
X453024Y79555D01*
X452198Y79002D01*
X451645Y78175D01*
X451451Y77200D01*
X451645Y76224D01*
X452198Y75398D01*
X453024Y74845D01*
X454000Y74651D01*
X454975Y74845D01*
X455802Y75398D01*
X456355Y76224D01*
X456549Y77200D01*
X456355Y78175D01*
X455802Y79002D01*
X454975Y79555D01*
X454000Y79749D01*
D02*
G37*
G36*
X525880Y326778D02*
X525423Y326182D01*
X524904Y324929D01*
X524727Y323585D01*
X524904Y322240D01*
X525423Y320987D01*
X525880Y320392D01*
X529073Y323585D01*
X525880Y326778D01*
D02*
G37*
G36*
X545880D02*
X545423Y326182D01*
X544904Y324929D01*
X544727Y323585D01*
X544904Y322240D01*
X545423Y320987D01*
X545880Y320392D01*
X549073Y323585D01*
X545880Y326778D01*
D02*
G37*
G36*
X261000Y326364D02*
X260099Y326246D01*
X259259Y325898D01*
X258538Y325344D01*
X257984Y324623D01*
X257636Y323783D01*
X257518Y322882D01*
X257636Y321981D01*
X257984Y321141D01*
X258538Y320419D01*
X259259Y319866D01*
X260099Y319518D01*
X261000Y319399D01*
X261901Y319518D01*
X262741Y319866D01*
X263462Y320419D01*
X264016Y321141D01*
X264364Y321981D01*
X264482Y322882D01*
X264364Y323783D01*
X264016Y324623D01*
X263462Y325344D01*
X262741Y325898D01*
X261901Y326246D01*
X261000Y326364D01*
D02*
G37*
G36*
X244500Y324049D02*
X243525Y323855D01*
X242698Y323302D01*
X242145Y322476D01*
X241951Y321500D01*
X242145Y320525D01*
X242698Y319698D01*
X243525Y319145D01*
X244500Y318951D01*
X245476Y319145D01*
X246302Y319698D01*
X246855Y320525D01*
X247049Y321500D01*
X246855Y322476D01*
X246302Y323302D01*
X245476Y323855D01*
X244500Y324049D01*
D02*
G37*
G36*
X271000Y322033D02*
X268804Y319837D01*
X269107Y319604D01*
X270020Y319226D01*
X271000Y319097D01*
X271980Y319226D01*
X272892Y319604D01*
X273196Y319837D01*
X271000Y322033D01*
D02*
G37*
G36*
X267955Y325078D02*
X267722Y324774D01*
X267344Y323862D01*
X267215Y322882D01*
X267344Y321902D01*
X267722Y320989D01*
X267955Y320686D01*
X270151Y322882D01*
X267955Y325078D01*
D02*
G37*
G36*
X365000Y325194D02*
X363656Y325017D01*
X362403Y324499D01*
X361807Y324041D01*
X365000Y320848D01*
X368193Y324041D01*
X367597Y324499D01*
X366344Y325017D01*
X365000Y325194D01*
D02*
G37*
G36*
X274045Y325078D02*
X271849Y322882D01*
X274045Y320686D01*
X274278Y320989D01*
X274656Y321902D01*
X274785Y322882D01*
X274656Y323862D01*
X274278Y324774D01*
X274045Y325078D01*
D02*
G37*
G36*
X533963Y326778D02*
X530770Y323585D01*
X533963Y320392D01*
X534420Y320987D01*
X534939Y322240D01*
X535116Y323585D01*
X534939Y324929D01*
X534420Y326182D01*
X533963Y326778D01*
D02*
G37*
G36*
X553963D02*
X550770Y323585D01*
X553963Y320392D01*
X554420Y320987D01*
X554939Y322240D01*
X555116Y323585D01*
X554939Y324929D01*
X554420Y326182D01*
X553963Y326778D01*
D02*
G37*
G36*
X435959Y323193D02*
X435501Y322597D01*
X434982Y321344D01*
X434806Y320000D01*
X434982Y318656D01*
X435501Y317403D01*
X435959Y316807D01*
X439151Y320000D01*
X435959Y323193D01*
D02*
G37*
G36*
X369041D02*
X365848Y320000D01*
X369041Y316807D01*
X369498Y317403D01*
X370017Y318656D01*
X370194Y320000D01*
X370017Y321344D01*
X369498Y322597D01*
X369041Y323193D01*
D02*
G37*
G36*
X415959D02*
X415501Y322597D01*
X414983Y321344D01*
X414806Y320000D01*
X414983Y318656D01*
X415501Y317403D01*
X415959Y316807D01*
X419151Y320000D01*
X415959Y323193D01*
D02*
G37*
G36*
X360959D02*
X360502Y322597D01*
X359982Y321344D01*
X359805Y320000D01*
X359982Y318656D01*
X360502Y317403D01*
X360959Y316807D01*
X364152Y320000D01*
X360959Y323193D01*
D02*
G37*
G36*
X380959D02*
X380502Y322597D01*
X379982Y321344D01*
X379805Y320000D01*
X379982Y318656D01*
X380502Y317403D01*
X380959Y316807D01*
X384152Y320000D01*
X380959Y323193D01*
D02*
G37*
G36*
X529921Y322736D02*
X526728Y319543D01*
X527324Y319086D01*
X528577Y318567D01*
X529921Y318390D01*
X531266Y318567D01*
X532519Y319086D01*
X533114Y319543D01*
X529921Y322736D01*
D02*
G37*
G36*
X549921D02*
X546729Y319543D01*
X547324Y319086D01*
X548577Y318567D01*
X549921Y318390D01*
X551266Y318567D01*
X552519Y319086D01*
X553114Y319543D01*
X549921Y322736D01*
D02*
G37*
G36*
X444041Y323193D02*
X440848Y320000D01*
X444041Y316807D01*
X444498Y317403D01*
X445017Y318656D01*
X445194Y320000D01*
X445017Y321344D01*
X444498Y322597D01*
X444041Y323193D01*
D02*
G37*
G36*
X389041D02*
X385848Y320000D01*
X389041Y316807D01*
X389498Y317403D01*
X390017Y318656D01*
X390194Y320000D01*
X390017Y321344D01*
X389498Y322597D01*
X389041Y323193D01*
D02*
G37*
G36*
X424041D02*
X420849Y320000D01*
X424041Y316807D01*
X424499Y317403D01*
X425017Y318656D01*
X425194Y320000D01*
X425017Y321344D01*
X424499Y322597D01*
X424041Y323193D01*
D02*
G37*
G36*
X274045Y335078D02*
X271849Y332882D01*
X274045Y330685D01*
X274278Y330989D01*
X274656Y331902D01*
X274785Y332882D01*
X274656Y333861D01*
X274278Y334774D01*
X274045Y335078D01*
D02*
G37*
G36*
X267955D02*
X267722Y334774D01*
X267344Y333861D01*
X267215Y332882D01*
X267344Y331902D01*
X267722Y330989D01*
X267955Y330685D01*
X270151Y332882D01*
X267955Y335078D01*
D02*
G37*
G36*
X111133Y334623D02*
X110157Y334429D01*
X109330Y333876D01*
X108778Y333049D01*
X108584Y332074D01*
X108778Y331098D01*
X109330Y330271D01*
X110157Y329719D01*
X111133Y329525D01*
X112108Y329719D01*
X112935Y330271D01*
X113488Y331098D01*
X113682Y332074D01*
X113488Y333049D01*
X112935Y333876D01*
X112108Y334429D01*
X111133Y334623D01*
D02*
G37*
G36*
X271000Y332033D02*
X268804Y329837D01*
X269107Y329604D01*
X270020Y329226D01*
X271000Y329097D01*
X271980Y329226D01*
X272892Y329604D01*
X273196Y329837D01*
X271000Y332033D01*
D02*
G37*
G36*
X261000Y336364D02*
X260099Y336246D01*
X259259Y335898D01*
X258538Y335344D01*
X257984Y334623D01*
X257636Y333783D01*
X257518Y332882D01*
X257636Y331980D01*
X257984Y331141D01*
X258538Y330419D01*
X259259Y329866D01*
X260099Y329518D01*
X261000Y329399D01*
X261901Y329518D01*
X262741Y329866D01*
X263462Y330419D01*
X264016Y331141D01*
X264364Y331980D01*
X264482Y332882D01*
X264364Y333783D01*
X264016Y334623D01*
X263462Y335344D01*
X262741Y335898D01*
X261901Y336246D01*
X261000Y336364D01*
D02*
G37*
G36*
X330000Y339152D02*
X326807Y335959D01*
X327403Y335502D01*
X328656Y334982D01*
X330000Y334805D01*
X331344Y334982D01*
X332597Y335502D01*
X333193Y335959D01*
X330000Y339152D01*
D02*
G37*
G36*
X475000D02*
X471807Y335959D01*
X472403Y335502D01*
X473656Y334982D01*
X475000Y334805D01*
X476344Y334982D01*
X477597Y335502D01*
X478193Y335959D01*
X475000Y339152D01*
D02*
G37*
G36*
X310000D02*
X306807Y335959D01*
X307403Y335502D01*
X308656Y334982D01*
X310000Y334805D01*
X311344Y334982D01*
X312597Y335502D01*
X313193Y335959D01*
X310000Y339152D01*
D02*
G37*
G36*
X236500Y337049D02*
X235525Y336855D01*
X234698Y336302D01*
X234145Y335475D01*
X233951Y334500D01*
X234145Y333524D01*
X234698Y332698D01*
X235525Y332145D01*
X236500Y331951D01*
X237475Y332145D01*
X238302Y332698D01*
X238855Y333524D01*
X239049Y334500D01*
X238855Y335475D01*
X238302Y336302D01*
X237475Y336855D01*
X236500Y337049D01*
D02*
G37*
G36*
X271000Y336667D02*
X270020Y336538D01*
X269107Y336160D01*
X268804Y335927D01*
X271000Y333730D01*
X273196Y335927D01*
X272892Y336160D01*
X271980Y336538D01*
X271000Y336667D01*
D02*
G37*
G36*
X60953Y329494D02*
X55047D01*
X54665Y329335D01*
X54506Y328953D01*
Y323047D01*
X54665Y322665D01*
X55047Y322506D01*
X60953D01*
X61335Y322665D01*
X61494Y323047D01*
Y328953D01*
X61335Y329335D01*
X60953Y329494D01*
D02*
G37*
G36*
X48000Y329483D02*
X47099Y329364D01*
X46259Y329016D01*
X45537Y328463D01*
X44984Y327741D01*
X44636Y326901D01*
X44517Y326000D01*
X44636Y325099D01*
X44984Y324259D01*
X45537Y323537D01*
X46259Y322984D01*
X47099Y322636D01*
X48000Y322517D01*
X48901Y322636D01*
X49741Y322984D01*
X50463Y323537D01*
X51016Y324259D01*
X51364Y325099D01*
X51482Y326000D01*
X51364Y326901D01*
X51016Y327741D01*
X50463Y328463D01*
X49741Y329016D01*
X48901Y329364D01*
X48000Y329483D01*
D02*
G37*
G36*
X440000Y325194D02*
X438656Y325017D01*
X437403Y324499D01*
X436807Y324041D01*
X440000Y320848D01*
X443193Y324041D01*
X442597Y324499D01*
X441344Y325017D01*
X440000Y325194D01*
D02*
G37*
G36*
X420000D02*
X418656Y325017D01*
X417403Y324499D01*
X416807Y324041D01*
X420000Y320848D01*
X423193Y324041D01*
X422597Y324499D01*
X421344Y325017D01*
X420000Y325194D01*
D02*
G37*
G36*
X385000D02*
X383656Y325017D01*
X382403Y324499D01*
X381807Y324041D01*
X385000Y320848D01*
X388193Y324041D01*
X387597Y324499D01*
X386344Y325017D01*
X385000Y325194D01*
D02*
G37*
G36*
X148433Y329923D02*
X147457Y329729D01*
X146630Y329176D01*
X146078Y328349D01*
X145884Y327374D01*
X146078Y326398D01*
X146630Y325571D01*
X147457Y325019D01*
X148433Y324825D01*
X149408Y325019D01*
X150235Y325571D01*
X150788Y326398D01*
X150982Y327374D01*
X150788Y328349D01*
X150235Y329176D01*
X149408Y329729D01*
X148433Y329923D01*
D02*
G37*
G36*
X240500Y332049D02*
X239525Y331855D01*
X238698Y331302D01*
X238145Y330475D01*
X237951Y329500D01*
X238145Y328524D01*
X238698Y327698D01*
X239525Y327145D01*
X240500Y326951D01*
X241476Y327145D01*
X242302Y327698D01*
X242855Y328524D01*
X243049Y329500D01*
X242855Y330475D01*
X242302Y331302D01*
X241476Y331855D01*
X240500Y332049D01*
D02*
G37*
G36*
X529921Y328779D02*
X528577Y328602D01*
X527324Y328083D01*
X526728Y327626D01*
X529921Y324433D01*
X533114Y327626D01*
X532519Y328083D01*
X531266Y328602D01*
X529921Y328779D01*
D02*
G37*
G36*
X271000Y326667D02*
X270020Y326538D01*
X269107Y326160D01*
X268804Y325927D01*
X271000Y323730D01*
X273196Y325927D01*
X272892Y326160D01*
X271980Y326538D01*
X271000Y326667D01*
D02*
G37*
G36*
X549921Y328779D02*
X548577Y328602D01*
X547324Y328083D01*
X546729Y327626D01*
X549921Y324433D01*
X553114Y327626D01*
X552519Y328083D01*
X551266Y328602D01*
X549921Y328779D01*
D02*
G37*
G36*
X440000Y319151D02*
X436807Y315959D01*
X437403Y315501D01*
X438656Y314983D01*
X440000Y314806D01*
X441344Y314983D01*
X442597Y315501D01*
X443193Y315959D01*
X440000Y319151D01*
D02*
G37*
G36*
X490959Y308193D02*
X490501Y307597D01*
X489983Y306344D01*
X489806Y305000D01*
X489983Y303656D01*
X490501Y302403D01*
X490959Y301807D01*
X494151Y305000D01*
X490959Y308193D01*
D02*
G37*
G36*
X499041D02*
X495849Y305000D01*
X499041Y301807D01*
X499499Y302403D01*
X500017Y303656D01*
X500194Y305000D01*
X500017Y306344D01*
X499499Y307597D01*
X499041Y308193D01*
D02*
G37*
G36*
X470959D02*
X470502Y307597D01*
X469982Y306344D01*
X469806Y305000D01*
X469982Y303656D01*
X470502Y302403D01*
X470959Y301807D01*
X474152Y305000D01*
X470959Y308193D01*
D02*
G37*
G36*
X305959D02*
X305502Y307597D01*
X304982Y306344D01*
X304805Y305000D01*
X304982Y303656D01*
X305502Y302403D01*
X305959Y301807D01*
X309152Y305000D01*
X305959Y308193D01*
D02*
G37*
G36*
X325959D02*
X325501Y307597D01*
X324983Y306344D01*
X324805Y305000D01*
X324983Y303656D01*
X325501Y302403D01*
X325959Y301807D01*
X329152Y305000D01*
X325959Y308193D01*
D02*
G37*
G36*
X549921Y308779D02*
X548577Y308602D01*
X547324Y308083D01*
X546729Y307626D01*
X549921Y304433D01*
X553114Y307626D01*
X552519Y308083D01*
X551266Y308602D01*
X549921Y308779D01*
D02*
G37*
G36*
X529921D02*
X528577Y308602D01*
X527324Y308083D01*
X526728Y307626D01*
X529921Y304433D01*
X533114Y307626D01*
X532519Y308083D01*
X531266Y308602D01*
X529921Y308779D01*
D02*
G37*
G36*
X479041Y308193D02*
X475848Y305000D01*
X479041Y301807D01*
X479498Y302403D01*
X480017Y303656D01*
X480194Y305000D01*
X480017Y306344D01*
X479498Y307597D01*
X479041Y308193D01*
D02*
G37*
G36*
X314041D02*
X310848Y305000D01*
X314041Y301807D01*
X314498Y302403D01*
X315017Y303656D01*
X315194Y305000D01*
X315017Y306344D01*
X314498Y307597D01*
X314041Y308193D01*
D02*
G37*
G36*
X334041D02*
X330849Y305000D01*
X334041Y301807D01*
X334499Y302403D01*
X335017Y303656D01*
X335194Y305000D01*
X335017Y306344D01*
X334499Y307597D01*
X334041Y308193D01*
D02*
G37*
G36*
X545880Y306778D02*
X545423Y306182D01*
X544904Y304929D01*
X544727Y303585D01*
X544904Y302240D01*
X545423Y300987D01*
X545880Y300392D01*
X549073Y303585D01*
X545880Y306778D01*
D02*
G37*
G36*
X533963D02*
X530770Y303585D01*
X533963Y300392D01*
X534420Y300987D01*
X534939Y302240D01*
X535116Y303585D01*
X534939Y304929D01*
X534420Y306182D01*
X533963Y306778D01*
D02*
G37*
G36*
X525880D02*
X525423Y306182D01*
X524904Y304929D01*
X524727Y303585D01*
X524904Y302240D01*
X525423Y300987D01*
X525880Y300392D01*
X529073Y303585D01*
X525880Y306778D01*
D02*
G37*
G36*
X475000Y304152D02*
X471807Y300959D01*
X472403Y300501D01*
X473656Y299983D01*
X475000Y299805D01*
X476344Y299983D01*
X477597Y300501D01*
X478193Y300959D01*
X475000Y304152D01*
D02*
G37*
G36*
X495000D02*
X491807Y300959D01*
X492403Y300501D01*
X493656Y299983D01*
X495000Y299805D01*
X496344Y299983D01*
X497597Y300501D01*
X498193Y300959D01*
X495000Y304152D01*
D02*
G37*
G36*
X440000Y305194D02*
X438656Y305017D01*
X437403Y304499D01*
X436807Y304041D01*
X440000Y300849D01*
X443193Y304041D01*
X442597Y304499D01*
X441344Y305017D01*
X440000Y305194D01*
D02*
G37*
G36*
X385000D02*
X383656Y305017D01*
X382403Y304499D01*
X381807Y304041D01*
X385000Y300849D01*
X388193Y304041D01*
X387597Y304499D01*
X386344Y305017D01*
X385000Y305194D01*
D02*
G37*
G36*
X420000D02*
X418656Y305017D01*
X417403Y304499D01*
X416807Y304041D01*
X420000Y300849D01*
X423193Y304041D01*
X422597Y304499D01*
X421344Y305017D01*
X420000Y305194D01*
D02*
G37*
G36*
X553963Y306778D02*
X550770Y303585D01*
X553963Y300392D01*
X554420Y300987D01*
X554939Y302240D01*
X555116Y303585D01*
X554939Y304929D01*
X554420Y306182D01*
X553963Y306778D01*
D02*
G37*
G36*
X365000Y305194D02*
X363656Y305017D01*
X362403Y304499D01*
X361807Y304041D01*
X365000Y300849D01*
X368193Y304041D01*
X367597Y304499D01*
X366344Y305017D01*
X365000Y305194D01*
D02*
G37*
G36*
X213441Y317931D02*
X212466Y317737D01*
X211638Y317184D01*
X211086Y316357D01*
X210892Y315382D01*
X211086Y314406D01*
X211638Y313580D01*
X212466Y313027D01*
X213441Y312833D01*
X214416Y313027D01*
X215243Y313580D01*
X215796Y314406D01*
X215990Y315382D01*
X215796Y316357D01*
X215243Y317184D01*
X214416Y317737D01*
X213441Y317931D01*
D02*
G37*
G36*
X121133Y318623D02*
X120157Y318429D01*
X119330Y317876D01*
X118778Y317049D01*
X118584Y316074D01*
X118778Y315098D01*
X119330Y314271D01*
X120157Y313719D01*
X121133Y313525D01*
X122108Y313719D01*
X122935Y314271D01*
X123488Y315098D01*
X123682Y316074D01*
X123488Y317049D01*
X122935Y317876D01*
X122108Y318429D01*
X121133Y318623D01*
D02*
G37*
G36*
X177441Y316931D02*
X176465Y316737D01*
X175638Y316184D01*
X175086Y315357D01*
X174892Y314382D01*
X175086Y313406D01*
X175638Y312579D01*
X176465Y312027D01*
X177441Y311833D01*
X178416Y312027D01*
X179243Y312579D01*
X179796Y313406D01*
X179990Y314382D01*
X179796Y315357D01*
X179243Y316184D01*
X178416Y316737D01*
X177441Y316931D01*
D02*
G37*
G36*
X267232Y315802D02*
Y309962D01*
X270151Y312882D01*
X267232Y315802D01*
D02*
G37*
G36*
X249500Y315549D02*
X248524Y315355D01*
X247698Y314802D01*
X247145Y313976D01*
X246951Y313000D01*
X247145Y312024D01*
X247698Y311198D01*
X248524Y310645D01*
X249500Y310451D01*
X250476Y310645D01*
X251302Y311198D01*
X251855Y312024D01*
X252049Y313000D01*
X251855Y313976D01*
X251302Y314802D01*
X250476Y315355D01*
X249500Y315549D01*
D02*
G37*
G36*
X385000Y319151D02*
X381807Y315959D01*
X382403Y315501D01*
X383656Y314983D01*
X385000Y314806D01*
X386344Y314983D01*
X387597Y315501D01*
X388193Y315959D01*
X385000Y319151D01*
D02*
G37*
G36*
X420000D02*
X416807Y315959D01*
X417403Y315501D01*
X418656Y314983D01*
X420000Y314806D01*
X421344Y314983D01*
X422597Y315501D01*
X423193Y315959D01*
X420000Y319151D01*
D02*
G37*
G36*
X365000D02*
X361807Y315959D01*
X362403Y315501D01*
X363656Y314983D01*
X365000Y314806D01*
X366344Y314983D01*
X367597Y315501D01*
X368193Y315959D01*
X365000Y319151D01*
D02*
G37*
G36*
X85933Y318823D02*
X84957Y318629D01*
X84130Y318076D01*
X83578Y317249D01*
X83384Y316274D01*
X83578Y315298D01*
X84130Y314471D01*
X84957Y313919D01*
X85933Y313725D01*
X86908Y313919D01*
X87735Y314471D01*
X88288Y315298D01*
X88482Y316274D01*
X88288Y317249D01*
X87735Y318076D01*
X86908Y318629D01*
X85933Y318823D01*
D02*
G37*
G36*
X273920Y316650D02*
X268080D01*
X271000Y313730D01*
X273920Y316650D01*
D02*
G37*
G36*
X495000Y310194D02*
X493656Y310017D01*
X492403Y309499D01*
X491807Y309041D01*
X495000Y305849D01*
X498193Y309041D01*
X497597Y309499D01*
X496344Y310017D01*
X495000Y310194D01*
D02*
G37*
G36*
X134433Y309903D02*
X133847Y309787D01*
X133351Y309455D01*
X133020Y308959D01*
X132903Y308374D01*
X133020Y307788D01*
X133351Y307292D01*
X133847Y306961D01*
X134433Y306844D01*
X135018Y306961D01*
X135514Y307292D01*
X135846Y307788D01*
X135962Y308374D01*
X135846Y308959D01*
X135514Y309455D01*
X135018Y309787D01*
X134433Y309903D01*
D02*
G37*
G36*
X330000Y310194D02*
X328656Y310017D01*
X327403Y309499D01*
X326807Y309041D01*
X330000Y305849D01*
X333193Y309041D01*
X332597Y309499D01*
X331344Y310017D01*
X330000Y310194D01*
D02*
G37*
G36*
X310000D02*
X308656Y310017D01*
X307403Y309499D01*
X306807Y309041D01*
X310000Y305849D01*
X313193Y309041D01*
X312597Y309499D01*
X311344Y310017D01*
X310000Y310194D01*
D02*
G37*
G36*
X475000D02*
X473656Y310017D01*
X472403Y309499D01*
X471807Y309041D01*
X475000Y305849D01*
X478193Y309041D01*
X477597Y309499D01*
X476344Y310017D01*
X475000Y310194D01*
D02*
G37*
G36*
X261000Y316364D02*
X260099Y316246D01*
X259259Y315898D01*
X258538Y315344D01*
X257984Y314623D01*
X257636Y313783D01*
X257518Y312882D01*
X257636Y311981D01*
X257984Y311141D01*
X258538Y310419D01*
X259259Y309866D01*
X260099Y309518D01*
X261000Y309399D01*
X261901Y309518D01*
X262741Y309866D01*
X263462Y310419D01*
X264016Y311141D01*
X264364Y311981D01*
X264482Y312882D01*
X264364Y313783D01*
X264016Y314623D01*
X263462Y315344D01*
X262741Y315898D01*
X261901Y316246D01*
X261000Y316364D01*
D02*
G37*
G36*
X274768Y315802D02*
X271849Y312882D01*
X274768Y309962D01*
Y315802D01*
D02*
G37*
G36*
X271000Y312033D02*
X268080Y309114D01*
X273920D01*
X271000Y312033D01*
D02*
G37*
G36*
X107533Y310403D02*
X106948Y310287D01*
X106451Y309955D01*
X106120Y309459D01*
X106003Y308874D01*
X106120Y308288D01*
X106451Y307792D01*
X106948Y307461D01*
X107533Y307344D01*
X108118Y307461D01*
X108614Y307792D01*
X108946Y308288D01*
X109062Y308874D01*
X108946Y309459D01*
X108614Y309955D01*
X108118Y310287D01*
X107533Y310403D01*
D02*
G37*
G36*
X130441Y310411D02*
X129856Y310295D01*
X129359Y309963D01*
X129028Y309467D01*
X128911Y308882D01*
X129028Y308297D01*
X129359Y307800D01*
X129856Y307469D01*
X130441Y307352D01*
X131026Y307469D01*
X131522Y307800D01*
X131854Y308297D01*
X131970Y308882D01*
X131854Y309467D01*
X131522Y309963D01*
X131026Y310295D01*
X130441Y310411D01*
D02*
G37*
G36*
X495000Y339152D02*
X491807Y335959D01*
X492403Y335502D01*
X493656Y334982D01*
X495000Y334805D01*
X496344Y334982D01*
X497597Y335502D01*
X498193Y335959D01*
X495000Y339152D01*
D02*
G37*
G36*
X153500Y369482D02*
X152599Y369364D01*
X151759Y369016D01*
X151038Y368462D01*
X150484Y367741D01*
X150136Y366901D01*
X150017Y366000D01*
X150136Y365099D01*
X150484Y364259D01*
X151038Y363538D01*
X151759Y362984D01*
X152599Y362636D01*
X153500Y362517D01*
X154401Y362636D01*
X155241Y362984D01*
X155963Y363538D01*
X156516Y364259D01*
X156864Y365099D01*
X156983Y366000D01*
X156864Y366901D01*
X156516Y367741D01*
X155963Y368462D01*
X155241Y369016D01*
X154401Y369364D01*
X153500Y369482D01*
D02*
G37*
G36*
X163500D02*
X162599Y369364D01*
X161759Y369016D01*
X161038Y368462D01*
X160484Y367741D01*
X160136Y366901D01*
X160018Y366000D01*
X160136Y365099D01*
X160484Y364259D01*
X161038Y363538D01*
X161759Y362984D01*
X162599Y362636D01*
X163500Y362517D01*
X164401Y362636D01*
X165241Y362984D01*
X165963Y363538D01*
X166516Y364259D01*
X166864Y365099D01*
X166982Y366000D01*
X166864Y366901D01*
X166516Y367741D01*
X165963Y368462D01*
X165241Y369016D01*
X164401Y369364D01*
X163500Y369482D01*
D02*
G37*
G36*
X143500D02*
X142599Y369364D01*
X141759Y369016D01*
X141037Y368462D01*
X140484Y367741D01*
X140136Y366901D01*
X140017Y366000D01*
X140136Y365099D01*
X140484Y364259D01*
X141037Y363538D01*
X141759Y362984D01*
X142599Y362636D01*
X143500Y362517D01*
X144401Y362636D01*
X145241Y362984D01*
X145963Y363538D01*
X146516Y364259D01*
X146864Y365099D01*
X146983Y366000D01*
X146864Y366901D01*
X146516Y367741D01*
X145963Y368462D01*
X145241Y369016D01*
X144401Y369364D01*
X143500Y369482D01*
D02*
G37*
G36*
X123500Y365151D02*
X121304Y362955D01*
X121607Y362722D01*
X122520Y362344D01*
X123500Y362215D01*
X124480Y362344D01*
X125393Y362722D01*
X125696Y362955D01*
X123500Y365151D01*
D02*
G37*
G36*
X133500Y369482D02*
X132599Y369364D01*
X131759Y369016D01*
X131037Y368462D01*
X130484Y367741D01*
X130136Y366901D01*
X130017Y366000D01*
X130136Y365099D01*
X130484Y364259D01*
X131037Y363538D01*
X131759Y362984D01*
X132599Y362636D01*
X133500Y362517D01*
X134401Y362636D01*
X135241Y362984D01*
X135962Y363538D01*
X136516Y364259D01*
X136864Y365099D01*
X136983Y366000D01*
X136864Y366901D01*
X136516Y367741D01*
X135962Y368462D01*
X135241Y369016D01*
X134401Y369364D01*
X133500Y369482D01*
D02*
G37*
G36*
X203500D02*
X202599Y369364D01*
X201759Y369016D01*
X201038Y368462D01*
X200484Y367741D01*
X200136Y366901D01*
X200017Y366000D01*
X200136Y365099D01*
X200484Y364259D01*
X201038Y363538D01*
X201759Y362984D01*
X202599Y362636D01*
X203500Y362517D01*
X204401Y362636D01*
X205241Y362984D01*
X205962Y363538D01*
X206516Y364259D01*
X206864Y365099D01*
X206982Y366000D01*
X206864Y366901D01*
X206516Y367741D01*
X205962Y368462D01*
X205241Y369016D01*
X204401Y369364D01*
X203500Y369482D01*
D02*
G37*
G36*
X213500D02*
X212599Y369364D01*
X211759Y369016D01*
X211037Y368462D01*
X210484Y367741D01*
X210136Y366901D01*
X210017Y366000D01*
X210136Y365099D01*
X210484Y364259D01*
X211037Y363538D01*
X211759Y362984D01*
X212599Y362636D01*
X213500Y362517D01*
X214401Y362636D01*
X215241Y362984D01*
X215963Y363538D01*
X216516Y364259D01*
X216864Y365099D01*
X216983Y366000D01*
X216864Y366901D01*
X216516Y367741D01*
X215963Y368462D01*
X215241Y369016D01*
X214401Y369364D01*
X213500Y369482D01*
D02*
G37*
G36*
X193500D02*
X192599Y369364D01*
X191759Y369016D01*
X191037Y368462D01*
X190484Y367741D01*
X190136Y366901D01*
X190017Y366000D01*
X190136Y365099D01*
X190484Y364259D01*
X191037Y363538D01*
X191759Y362984D01*
X192599Y362636D01*
X193500Y362517D01*
X194401Y362636D01*
X195241Y362984D01*
X195963Y363538D01*
X196516Y364259D01*
X196864Y365099D01*
X196983Y366000D01*
X196864Y366901D01*
X196516Y367741D01*
X195963Y368462D01*
X195241Y369016D01*
X194401Y369364D01*
X193500Y369482D01*
D02*
G37*
G36*
X173500D02*
X172599Y369364D01*
X171759Y369016D01*
X171037Y368462D01*
X170484Y367741D01*
X170136Y366901D01*
X170018Y366000D01*
X170136Y365099D01*
X170484Y364259D01*
X171037Y363538D01*
X171759Y362984D01*
X172599Y362636D01*
X173500Y362517D01*
X174401Y362636D01*
X175241Y362984D01*
X175962Y363538D01*
X176516Y364259D01*
X176864Y365099D01*
X176982Y366000D01*
X176864Y366901D01*
X176516Y367741D01*
X175962Y368462D01*
X175241Y369016D01*
X174401Y369364D01*
X173500Y369482D01*
D02*
G37*
G36*
X183500D02*
X182599Y369364D01*
X181759Y369016D01*
X181037Y368462D01*
X180484Y367741D01*
X180136Y366901D01*
X180017Y366000D01*
X180136Y365099D01*
X180484Y364259D01*
X181037Y363538D01*
X181759Y362984D01*
X182599Y362636D01*
X183500Y362517D01*
X184401Y362636D01*
X185241Y362984D01*
X185962Y363538D01*
X186516Y364259D01*
X186864Y365099D01*
X186983Y366000D01*
X186864Y366901D01*
X186516Y367741D01*
X185962Y368462D01*
X185241Y369016D01*
X184401Y369364D01*
X183500Y369482D01*
D02*
G37*
G36*
X274045Y365078D02*
X271849Y362882D01*
X274045Y360685D01*
X274278Y360989D01*
X274656Y361902D01*
X274785Y362882D01*
X274656Y363861D01*
X274278Y364774D01*
X274045Y365078D01*
D02*
G37*
G36*
X267955D02*
X267722Y364774D01*
X267344Y363861D01*
X267215Y362882D01*
X267344Y361902D01*
X267722Y360989D01*
X267955Y360685D01*
X270151Y362882D01*
X267955Y365078D01*
D02*
G37*
G36*
X261000Y366364D02*
X260099Y366246D01*
X259259Y365898D01*
X258538Y365344D01*
X257984Y364623D01*
X257636Y363783D01*
X257518Y362882D01*
X257636Y361981D01*
X257984Y361141D01*
X258538Y360419D01*
X259259Y359866D01*
X260099Y359518D01*
X261000Y359399D01*
X261901Y359518D01*
X262741Y359866D01*
X263462Y360419D01*
X264016Y361141D01*
X264364Y361981D01*
X264482Y362882D01*
X264364Y363783D01*
X264016Y364623D01*
X263462Y365344D01*
X262741Y365898D01*
X261901Y366246D01*
X261000Y366364D01*
D02*
G37*
G36*
X499041Y363193D02*
X495849Y360000D01*
X499041Y356807D01*
X499499Y357403D01*
X500017Y358656D01*
X500194Y360000D01*
X500017Y361344D01*
X499499Y362597D01*
X499041Y363193D01*
D02*
G37*
G36*
X271000Y362033D02*
X268804Y359837D01*
X269107Y359604D01*
X270020Y359226D01*
X271000Y359097D01*
X271980Y359226D01*
X272892Y359604D01*
X273196Y359837D01*
X271000Y362033D01*
D02*
G37*
G36*
X310000Y365194D02*
X308656Y365017D01*
X307403Y364498D01*
X306807Y364041D01*
X310000Y360848D01*
X313193Y364041D01*
X312597Y364498D01*
X311344Y365017D01*
X310000Y365194D01*
D02*
G37*
G36*
X495000D02*
X493656Y365017D01*
X492403Y364498D01*
X491807Y364041D01*
X495000Y360848D01*
X498193Y364041D01*
X497597Y364498D01*
X496344Y365017D01*
X495000Y365194D01*
D02*
G37*
G36*
X475000D02*
X473656Y365017D01*
X472403Y364498D01*
X471807Y364041D01*
X475000Y360848D01*
X478193Y364041D01*
X477597Y364498D01*
X476344Y365017D01*
X475000Y365194D01*
D02*
G37*
G36*
X253500Y365856D02*
X252524Y365662D01*
X251698Y365109D01*
X251145Y364282D01*
X250951Y363307D01*
X251145Y362332D01*
X251698Y361505D01*
X252524Y360952D01*
X253500Y360758D01*
X254475Y360952D01*
X255302Y361505D01*
X255855Y362332D01*
X256049Y363307D01*
X255855Y364282D01*
X255302Y365109D01*
X254475Y365662D01*
X253500Y365856D01*
D02*
G37*
G36*
X330000Y365194D02*
X328656Y365017D01*
X327403Y364498D01*
X326807Y364041D01*
X330000Y360848D01*
X333193Y364041D01*
X332597Y364498D01*
X331344Y365017D01*
X330000Y365194D01*
D02*
G37*
G36*
X173500Y379483D02*
X172599Y379364D01*
X171759Y379016D01*
X171037Y378463D01*
X170484Y377741D01*
X170136Y376901D01*
X170018Y376000D01*
X170136Y375099D01*
X170484Y374259D01*
X171037Y373537D01*
X171759Y372984D01*
X172599Y372636D01*
X173500Y372517D01*
X174401Y372636D01*
X175241Y372984D01*
X175962Y373537D01*
X176516Y374259D01*
X176864Y375099D01*
X176982Y376000D01*
X176864Y376901D01*
X176516Y377741D01*
X175962Y378463D01*
X175241Y379016D01*
X174401Y379364D01*
X173500Y379483D01*
D02*
G37*
G36*
X183500D02*
X182599Y379364D01*
X181759Y379016D01*
X181037Y378463D01*
X180484Y377741D01*
X180136Y376901D01*
X180017Y376000D01*
X180136Y375099D01*
X180484Y374259D01*
X181037Y373537D01*
X181759Y372984D01*
X182599Y372636D01*
X183500Y372517D01*
X184401Y372636D01*
X185241Y372984D01*
X185962Y373537D01*
X186516Y374259D01*
X186864Y375099D01*
X186983Y376000D01*
X186864Y376901D01*
X186516Y377741D01*
X185962Y378463D01*
X185241Y379016D01*
X184401Y379364D01*
X183500Y379483D01*
D02*
G37*
G36*
X163500D02*
X162599Y379364D01*
X161759Y379016D01*
X161038Y378463D01*
X160484Y377741D01*
X160136Y376901D01*
X160018Y376000D01*
X160136Y375099D01*
X160484Y374259D01*
X161038Y373537D01*
X161759Y372984D01*
X162599Y372636D01*
X163500Y372517D01*
X164401Y372636D01*
X165241Y372984D01*
X165963Y373537D01*
X166516Y374259D01*
X166864Y375099D01*
X166982Y376000D01*
X166864Y376901D01*
X166516Y377741D01*
X165963Y378463D01*
X165241Y379016D01*
X164401Y379364D01*
X163500Y379483D01*
D02*
G37*
G36*
X143500D02*
X142599Y379364D01*
X141759Y379016D01*
X141037Y378463D01*
X140484Y377741D01*
X140136Y376901D01*
X140017Y376000D01*
X140136Y375099D01*
X140484Y374259D01*
X141037Y373537D01*
X141759Y372984D01*
X142599Y372636D01*
X143500Y372517D01*
X144401Y372636D01*
X145241Y372984D01*
X145963Y373537D01*
X146516Y374259D01*
X146864Y375099D01*
X146983Y376000D01*
X146864Y376901D01*
X146516Y377741D01*
X145963Y378463D01*
X145241Y379016D01*
X144401Y379364D01*
X143500Y379483D01*
D02*
G37*
G36*
X153500D02*
X152599Y379364D01*
X151759Y379016D01*
X151038Y378463D01*
X150484Y377741D01*
X150136Y376901D01*
X150017Y376000D01*
X150136Y375099D01*
X150484Y374259D01*
X151038Y373537D01*
X151759Y372984D01*
X152599Y372636D01*
X153500Y372517D01*
X154401Y372636D01*
X155241Y372984D01*
X155963Y373537D01*
X156516Y374259D01*
X156864Y375099D01*
X156983Y376000D01*
X156864Y376901D01*
X156516Y377741D01*
X155963Y378463D01*
X155241Y379016D01*
X154401Y379364D01*
X153500Y379483D01*
D02*
G37*
G36*
X120455Y378196D02*
X120222Y377893D01*
X119844Y376980D01*
X119715Y376000D01*
X119844Y375020D01*
X120222Y374107D01*
X120455Y373804D01*
X122651Y376000D01*
X120455Y378196D01*
D02*
G37*
G36*
X123500Y379785D02*
X122520Y379656D01*
X121607Y379278D01*
X121303Y379045D01*
X123500Y376849D01*
X125696Y379045D01*
X125393Y379278D01*
X124480Y379656D01*
X123500Y379785D01*
D02*
G37*
G36*
X126545Y378196D02*
X124348Y376000D01*
X126545Y373803D01*
X126778Y374107D01*
X127156Y375020D01*
X127285Y376000D01*
X127156Y376980D01*
X126778Y377893D01*
X126545Y378196D01*
D02*
G37*
G36*
X193500Y379483D02*
X192599Y379364D01*
X191759Y379016D01*
X191037Y378463D01*
X190484Y377741D01*
X190136Y376901D01*
X190017Y376000D01*
X190136Y375099D01*
X190484Y374259D01*
X191037Y373537D01*
X191759Y372984D01*
X192599Y372636D01*
X193500Y372517D01*
X194401Y372636D01*
X195241Y372984D01*
X195963Y373537D01*
X196516Y374259D01*
X196864Y375099D01*
X196983Y376000D01*
X196864Y376901D01*
X196516Y377741D01*
X195963Y378463D01*
X195241Y379016D01*
X194401Y379364D01*
X193500Y379483D01*
D02*
G37*
G36*
X203500D02*
X202599Y379364D01*
X201759Y379016D01*
X201038Y378463D01*
X200484Y377741D01*
X200136Y376901D01*
X200017Y376000D01*
X200136Y375099D01*
X200484Y374259D01*
X201038Y373537D01*
X201759Y372984D01*
X202599Y372636D01*
X203500Y372517D01*
X204401Y372636D01*
X205241Y372984D01*
X205962Y373537D01*
X206516Y374259D01*
X206864Y375099D01*
X206982Y376000D01*
X206864Y376901D01*
X206516Y377741D01*
X205962Y378463D01*
X205241Y379016D01*
X204401Y379364D01*
X203500Y379483D01*
D02*
G37*
G36*
X123500Y369785D02*
X122520Y369656D01*
X121607Y369278D01*
X121303Y369045D01*
X123500Y366848D01*
X125696Y369045D01*
X125393Y369278D01*
X124480Y369656D01*
X123500Y369785D01*
D02*
G37*
G36*
X84453Y377494D02*
X78547D01*
X78164Y377335D01*
X78006Y376953D01*
Y371047D01*
X78164Y370665D01*
X78547Y370506D01*
X84453D01*
X84835Y370665D01*
X84994Y371047D01*
Y376953D01*
X84835Y377335D01*
X84453Y377494D01*
D02*
G37*
G36*
X120455Y368196D02*
X120222Y367893D01*
X119844Y366980D01*
X119715Y366000D01*
X119844Y365020D01*
X120222Y364107D01*
X120455Y363804D01*
X122651Y366000D01*
X120455Y368196D01*
D02*
G37*
G36*
X271000Y366667D02*
X270020Y366538D01*
X269107Y366160D01*
X268804Y365927D01*
X271000Y363730D01*
X273196Y365927D01*
X272892Y366160D01*
X271980Y366538D01*
X271000Y366667D01*
D02*
G37*
G36*
X126545Y368196D02*
X124348Y366000D01*
X126545Y363804D01*
X126778Y364107D01*
X127156Y365020D01*
X127285Y366000D01*
X127156Y366980D01*
X126778Y367893D01*
X126545Y368196D01*
D02*
G37*
G36*
X216453Y379494D02*
X210547D01*
X210165Y379335D01*
X210006Y378953D01*
Y373047D01*
X210165Y372665D01*
X210547Y372506D01*
X216453D01*
X216835Y372665D01*
X216994Y373047D01*
Y378953D01*
X216835Y379335D01*
X216453Y379494D01*
D02*
G37*
G36*
X133500Y379483D02*
X132599Y379364D01*
X131759Y379016D01*
X131037Y378463D01*
X130484Y377741D01*
X130136Y376901D01*
X130017Y376000D01*
X130136Y375099D01*
X130484Y374259D01*
X131037Y373537D01*
X131759Y372984D01*
X132599Y372636D01*
X133500Y372517D01*
X134401Y372636D01*
X135241Y372984D01*
X135962Y373537D01*
X136516Y374259D01*
X136864Y375099D01*
X136983Y376000D01*
X136864Y376901D01*
X136516Y377741D01*
X135962Y378463D01*
X135241Y379016D01*
X134401Y379364D01*
X133500Y379483D01*
D02*
G37*
G36*
X123500Y375151D02*
X121304Y372955D01*
X121607Y372722D01*
X122520Y372344D01*
X123500Y372215D01*
X124480Y372344D01*
X125393Y372722D01*
X125696Y372955D01*
X123500Y375151D01*
D02*
G37*
G36*
X91500Y377483D02*
X90599Y377364D01*
X89759Y377016D01*
X89038Y376463D01*
X88484Y375741D01*
X88136Y374901D01*
X88017Y374000D01*
X88136Y373099D01*
X88484Y372259D01*
X89038Y371537D01*
X89759Y370984D01*
X90599Y370636D01*
X91500Y370517D01*
X92401Y370636D01*
X93241Y370984D01*
X93963Y371537D01*
X94516Y372259D01*
X94864Y373099D01*
X94982Y374000D01*
X94864Y374901D01*
X94516Y375741D01*
X93963Y376463D01*
X93241Y377016D01*
X92401Y377364D01*
X91500Y377483D01*
D02*
G37*
G36*
X101500D02*
X100599Y377364D01*
X99759Y377016D01*
X99037Y376463D01*
X98484Y375741D01*
X98136Y374901D01*
X98017Y374000D01*
X98136Y373099D01*
X98484Y372259D01*
X99037Y371537D01*
X99759Y370984D01*
X100599Y370636D01*
X101500Y370517D01*
X102401Y370636D01*
X103241Y370984D01*
X103963Y371537D01*
X104516Y372259D01*
X104864Y373099D01*
X104982Y374000D01*
X104864Y374901D01*
X104516Y375741D01*
X103963Y376463D01*
X103241Y377016D01*
X102401Y377364D01*
X101500Y377483D01*
D02*
G37*
G36*
X479041Y363193D02*
X475848Y360000D01*
X479041Y356807D01*
X479498Y357403D01*
X480017Y358656D01*
X480194Y360000D01*
X480017Y361344D01*
X479498Y362597D01*
X479041Y363193D01*
D02*
G37*
G36*
X310000Y345194D02*
X308656Y345017D01*
X307403Y344498D01*
X306807Y344041D01*
X310000Y340848D01*
X313193Y344041D01*
X312597Y344498D01*
X311344Y345017D01*
X310000Y345194D01*
D02*
G37*
G36*
X475000D02*
X473656Y345017D01*
X472403Y344498D01*
X471807Y344041D01*
X475000Y340848D01*
X478193Y344041D01*
X477597Y344498D01*
X476344Y345017D01*
X475000Y345194D01*
D02*
G37*
G36*
X267955Y345078D02*
X267722Y344774D01*
X267344Y343862D01*
X267215Y342882D01*
X267344Y341902D01*
X267722Y340989D01*
X267955Y340686D01*
X270151Y342882D01*
X267955Y345078D01*
D02*
G37*
G36*
X117733Y345623D02*
X116757Y345429D01*
X115930Y344876D01*
X115378Y344049D01*
X115184Y343074D01*
X115378Y342098D01*
X115930Y341271D01*
X116757Y340719D01*
X117733Y340525D01*
X118708Y340719D01*
X119535Y341271D01*
X120088Y342098D01*
X120282Y343074D01*
X120088Y344049D01*
X119535Y344876D01*
X118708Y345429D01*
X117733Y345623D01*
D02*
G37*
G36*
X274045Y345078D02*
X271849Y342882D01*
X274045Y340686D01*
X274278Y340989D01*
X274656Y341902D01*
X274785Y342882D01*
X274656Y343862D01*
X274278Y344774D01*
X274045Y345078D01*
D02*
G37*
G36*
X271000Y346667D02*
X270020Y346538D01*
X269107Y346160D01*
X268804Y345927D01*
X271000Y343730D01*
X273196Y345927D01*
X272892Y346160D01*
X271980Y346538D01*
X271000Y346667D01*
D02*
G37*
G36*
X30000Y375548D02*
X27568Y375357D01*
X25195Y374787D01*
X22941Y373853D01*
X20861Y372579D01*
X19006Y370994D01*
X17422Y369139D01*
X16147Y367059D01*
X15213Y364805D01*
X14643Y362432D01*
X14452Y360000D01*
X14643Y357568D01*
X15213Y355195D01*
X16147Y352941D01*
X17422Y350861D01*
X19006Y349006D01*
X20861Y347422D01*
X22941Y346147D01*
X25195Y345213D01*
X27568Y344643D01*
X30000Y344452D01*
X32432Y344643D01*
X34805Y345213D01*
X37059Y346147D01*
X39139Y347422D01*
X40994Y349006D01*
X42579Y350861D01*
X43853Y352941D01*
X44787Y355195D01*
X45357Y357568D01*
X45548Y360000D01*
X45357Y362432D01*
X44787Y364805D01*
X43853Y367059D01*
X42579Y369139D01*
X40994Y370994D01*
X39139Y372579D01*
X37059Y373853D01*
X34805Y374787D01*
X32432Y375357D01*
X30000Y375548D01*
D02*
G37*
G36*
X142794Y347284D02*
X141819Y347090D01*
X140992Y346537D01*
X140439Y345710D01*
X140245Y344735D01*
X140439Y343760D01*
X140992Y342933D01*
X141819Y342380D01*
X142794Y342186D01*
X143770Y342380D01*
X144597Y342933D01*
X145149Y343760D01*
X145343Y344735D01*
X145149Y345710D01*
X144597Y346537D01*
X143770Y347090D01*
X142794Y347284D01*
D02*
G37*
G36*
X330000Y345194D02*
X328656Y345017D01*
X327403Y344498D01*
X326807Y344041D01*
X330000Y340848D01*
X333193Y344041D01*
X332597Y344498D01*
X331344Y345017D01*
X330000Y345194D01*
D02*
G37*
G36*
X495000D02*
X493656Y345017D01*
X492403Y344498D01*
X491807Y344041D01*
X495000Y340848D01*
X498193Y344041D01*
X497597Y344498D01*
X496344Y345017D01*
X495000Y345194D01*
D02*
G37*
G36*
X490959Y343193D02*
X490501Y342597D01*
X489983Y341344D01*
X489806Y340000D01*
X489983Y338656D01*
X490501Y337403D01*
X490959Y336807D01*
X494151Y340000D01*
X490959Y343193D01*
D02*
G37*
G36*
X314041D02*
X310848Y340000D01*
X314041Y336807D01*
X314498Y337403D01*
X315017Y338656D01*
X315194Y340000D01*
X315017Y341344D01*
X314498Y342597D01*
X314041Y343193D01*
D02*
G37*
G36*
X470959D02*
X470502Y342597D01*
X469982Y341344D01*
X469806Y340000D01*
X469982Y338656D01*
X470502Y337403D01*
X470959Y336807D01*
X474152Y340000D01*
X470959Y343193D01*
D02*
G37*
G36*
X305959D02*
X305502Y342597D01*
X304982Y341344D01*
X304805Y340000D01*
X304982Y338656D01*
X305502Y337403D01*
X305959Y336807D01*
X309152Y340000D01*
X305959Y343193D01*
D02*
G37*
G36*
X325959D02*
X325501Y342597D01*
X324983Y341344D01*
X324805Y340000D01*
X324983Y338656D01*
X325501Y337403D01*
X325959Y336807D01*
X329152Y340000D01*
X325959Y343193D01*
D02*
G37*
G36*
X271000Y342033D02*
X268804Y339837D01*
X269107Y339604D01*
X270020Y339226D01*
X271000Y339097D01*
X271980Y339226D01*
X272892Y339604D01*
X273196Y339837D01*
X271000Y342033D01*
D02*
G37*
G36*
X261000Y346364D02*
X260099Y346246D01*
X259259Y345898D01*
X258538Y345344D01*
X257984Y344623D01*
X257636Y343783D01*
X257518Y342882D01*
X257636Y341981D01*
X257984Y341141D01*
X258538Y340419D01*
X259259Y339866D01*
X260099Y339518D01*
X261000Y339399D01*
X261901Y339518D01*
X262741Y339866D01*
X263462Y340419D01*
X264016Y341141D01*
X264364Y341981D01*
X264482Y342882D01*
X264364Y343783D01*
X264016Y344623D01*
X263462Y345344D01*
X262741Y345898D01*
X261901Y346246D01*
X261000Y346364D01*
D02*
G37*
G36*
X499041Y343193D02*
X495849Y340000D01*
X499041Y336807D01*
X499499Y337403D01*
X500017Y338656D01*
X500194Y340000D01*
X500017Y341344D01*
X499499Y342597D01*
X499041Y343193D01*
D02*
G37*
G36*
X334041D02*
X330849Y340000D01*
X334041Y336807D01*
X334499Y337403D01*
X335017Y338656D01*
X335194Y340000D01*
X335017Y341344D01*
X334499Y342597D01*
X334041Y343193D01*
D02*
G37*
G36*
X479041D02*
X475848Y340000D01*
X479041Y336807D01*
X479498Y337403D01*
X480017Y338656D01*
X480194Y340000D01*
X480017Y341344D01*
X479498Y342597D01*
X479041Y343193D01*
D02*
G37*
G36*
X495000Y359152D02*
X491807Y355959D01*
X492403Y355502D01*
X493656Y354982D01*
X495000Y354805D01*
X496344Y354982D01*
X497597Y355502D01*
X498193Y355959D01*
X495000Y359152D01*
D02*
G37*
G36*
X305959Y363193D02*
X305502Y362597D01*
X304982Y361344D01*
X304805Y360000D01*
X304982Y358656D01*
X305502Y357403D01*
X305959Y356807D01*
X309152Y360000D01*
X305959Y363193D01*
D02*
G37*
G36*
X475000Y359152D02*
X471807Y355959D01*
X472403Y355502D01*
X473656Y354982D01*
X475000Y354805D01*
X476344Y354982D01*
X477597Y355502D01*
X478193Y355959D01*
X475000Y359152D01*
D02*
G37*
G36*
X310000D02*
X306807Y355959D01*
X307403Y355502D01*
X308656Y354982D01*
X310000Y354805D01*
X311344Y354982D01*
X312597Y355502D01*
X313193Y355959D01*
X310000Y359152D01*
D02*
G37*
G36*
X330000D02*
X326807Y355959D01*
X327403Y355502D01*
X328656Y354982D01*
X330000Y354805D01*
X331344Y354982D01*
X332597Y355502D01*
X333193Y355959D01*
X330000Y359152D01*
D02*
G37*
G36*
X314041Y363193D02*
X310848Y360000D01*
X314041Y356807D01*
X314498Y357403D01*
X315017Y358656D01*
X315194Y360000D01*
X315017Y361344D01*
X314498Y362597D01*
X314041Y363193D01*
D02*
G37*
G36*
X334041D02*
X330849Y360000D01*
X334041Y356807D01*
X334499Y357403D01*
X335017Y358656D01*
X335194Y360000D01*
X335017Y361344D01*
X334499Y362597D01*
X334041Y363193D01*
D02*
G37*
G36*
X490959D02*
X490501Y362597D01*
X489983Y361344D01*
X489806Y360000D01*
X489983Y358656D01*
X490501Y357403D01*
X490959Y356807D01*
X494151Y360000D01*
X490959Y363193D01*
D02*
G37*
G36*
X325959D02*
X325501Y362597D01*
X324983Y361344D01*
X324805Y360000D01*
X324983Y358656D01*
X325501Y357403D01*
X325959Y356807D01*
X329152Y360000D01*
X325959Y363193D01*
D02*
G37*
G36*
X470959D02*
X470502Y362597D01*
X469982Y361344D01*
X469806Y360000D01*
X469982Y358656D01*
X470502Y357403D01*
X470959Y356807D01*
X474152Y360000D01*
X470959Y363193D01*
D02*
G37*
G36*
X261000Y356364D02*
X260099Y356246D01*
X259259Y355898D01*
X258538Y355344D01*
X257984Y354623D01*
X257636Y353783D01*
X257518Y352882D01*
X257636Y351980D01*
X257984Y351141D01*
X258538Y350419D01*
X259259Y349866D01*
X260099Y349518D01*
X261000Y349399D01*
X261901Y349518D01*
X262741Y349866D01*
X263462Y350419D01*
X264016Y351141D01*
X264364Y351980D01*
X264482Y352882D01*
X264364Y353783D01*
X264016Y354623D01*
X263462Y355344D01*
X262741Y355898D01*
X261901Y356246D01*
X261000Y356364D01*
D02*
G37*
G36*
X224941Y354931D02*
X223966Y354737D01*
X223138Y354184D01*
X222586Y353357D01*
X222392Y352382D01*
X222586Y351406D01*
X223138Y350580D01*
X223966Y350027D01*
X224941Y349833D01*
X225916Y350027D01*
X226743Y350580D01*
X227296Y351406D01*
X227490Y352382D01*
X227296Y353357D01*
X226743Y354184D01*
X225916Y354737D01*
X224941Y354931D01*
D02*
G37*
G36*
X271000Y352033D02*
X268804Y349837D01*
X269107Y349604D01*
X270020Y349226D01*
X271000Y349097D01*
X271980Y349226D01*
X272892Y349604D01*
X273196Y349837D01*
X271000Y352033D01*
D02*
G37*
G36*
X540000Y375548D02*
X537568Y375357D01*
X535195Y374787D01*
X532941Y373853D01*
X530861Y372579D01*
X529006Y370994D01*
X527422Y369139D01*
X526147Y367059D01*
X525213Y364805D01*
X524644Y362432D01*
X524452Y360000D01*
X524644Y357568D01*
X525213Y355195D01*
X526147Y352941D01*
X527422Y350861D01*
X529006Y349006D01*
X530861Y347422D01*
X532941Y346147D01*
X535195Y345213D01*
X537568Y344643D01*
X540000Y344452D01*
X542432Y344643D01*
X544805Y345213D01*
X547059Y346147D01*
X549139Y347422D01*
X550994Y349006D01*
X552578Y350861D01*
X553853Y352941D01*
X554787Y355195D01*
X555357Y357568D01*
X555548Y360000D01*
X555357Y362432D01*
X554787Y364805D01*
X553853Y367059D01*
X552578Y369139D01*
X550994Y370994D01*
X549139Y372579D01*
X547059Y373853D01*
X544805Y374787D01*
X542432Y375357D01*
X540000Y375548D01*
D02*
G37*
G36*
X85933Y350423D02*
X84957Y350229D01*
X84130Y349676D01*
X83578Y348849D01*
X83384Y347874D01*
X83578Y346898D01*
X84130Y346071D01*
X84957Y345519D01*
X85933Y345325D01*
X86908Y345519D01*
X87735Y346071D01*
X88288Y346898D01*
X88482Y347874D01*
X88288Y348849D01*
X87735Y349676D01*
X86908Y350229D01*
X85933Y350423D01*
D02*
G37*
G36*
X271000Y356667D02*
X270020Y356538D01*
X269107Y356160D01*
X268804Y355927D01*
X271000Y353730D01*
X273196Y355927D01*
X272892Y356160D01*
X271980Y356538D01*
X271000Y356667D01*
D02*
G37*
G36*
X183610Y359652D02*
X182635Y359458D01*
X181808Y358906D01*
X181255Y358079D01*
X181061Y357103D01*
X181255Y356128D01*
X181808Y355301D01*
X182635Y354748D01*
X183610Y354554D01*
X184586Y354748D01*
X185413Y355301D01*
X185965Y356128D01*
X186159Y357103D01*
X185965Y358079D01*
X185413Y358906D01*
X184586Y359458D01*
X183610Y359652D01*
D02*
G37*
G36*
X267955Y355078D02*
X267722Y354774D01*
X267344Y353861D01*
X267215Y352882D01*
X267344Y351902D01*
X267722Y350989D01*
X267955Y350686D01*
X270151Y352882D01*
X267955Y355078D01*
D02*
G37*
G36*
X150133Y355667D02*
X149157Y355473D01*
X148330Y354920D01*
X147778Y354093D01*
X147584Y353118D01*
X147778Y352142D01*
X148330Y351315D01*
X149157Y350763D01*
X150133Y350569D01*
X151108Y350763D01*
X151935Y351315D01*
X152488Y352142D01*
X152682Y353118D01*
X152488Y354093D01*
X151935Y354920D01*
X151108Y355473D01*
X150133Y355667D01*
D02*
G37*
G36*
X274045Y355078D02*
X271849Y352882D01*
X274045Y350686D01*
X274278Y350989D01*
X274656Y351902D01*
X274785Y352882D01*
X274656Y353861D01*
X274278Y354774D01*
X274045Y355078D01*
D02*
G37*
G36*
X133282Y242832D02*
X132306Y242638D01*
X131479Y242085D01*
X130927Y241258D01*
X130733Y240283D01*
X130927Y239307D01*
X131479Y238480D01*
X132306Y237928D01*
X133282Y237734D01*
X134257Y237928D01*
X135084Y238480D01*
X135637Y239307D01*
X135831Y240283D01*
X135637Y241258D01*
X135084Y242085D01*
X134257Y242638D01*
X133282Y242832D01*
D02*
G37*
G36*
X395150Y241018D02*
X394799Y240948D01*
X394501Y240749D01*
X394302Y240451D01*
X394232Y240100D01*
X394302Y239749D01*
X394501Y239451D01*
X394799Y239252D01*
X395150Y239182D01*
X395501Y239252D01*
X395799Y239451D01*
X395998Y239749D01*
X396068Y240100D01*
X395998Y240451D01*
X395799Y240749D01*
X395501Y240948D01*
X395150Y241018D01*
D02*
G37*
G36*
X158782Y241932D02*
X157806Y241738D01*
X156979Y241185D01*
X156427Y240358D01*
X156233Y239383D01*
X156427Y238407D01*
X156979Y237580D01*
X157806Y237028D01*
X158782Y236834D01*
X159757Y237028D01*
X160584Y237580D01*
X161137Y238407D01*
X161331Y239383D01*
X161137Y240358D01*
X160584Y241185D01*
X159757Y241738D01*
X158782Y241932D01*
D02*
G37*
G36*
X386287Y241646D02*
X385311Y241452D01*
X384484Y240899D01*
X383932Y240073D01*
X383738Y239097D01*
X383932Y238122D01*
X384484Y237295D01*
X385311Y236742D01*
X386287Y236548D01*
X387262Y236742D01*
X388089Y237295D01*
X388642Y238122D01*
X388836Y239097D01*
X388642Y240073D01*
X388089Y240899D01*
X387262Y241452D01*
X386287Y241646D01*
D02*
G37*
G36*
X255782Y241832D02*
X254806Y241638D01*
X253979Y241085D01*
X253427Y240258D01*
X253233Y239283D01*
X253427Y238307D01*
X253979Y237480D01*
X254806Y236928D01*
X255782Y236734D01*
X256757Y236928D01*
X257584Y237480D01*
X258137Y238307D01*
X258331Y239283D01*
X258137Y240258D01*
X257584Y241085D01*
X256757Y241638D01*
X255782Y241832D01*
D02*
G37*
G36*
X43482Y245732D02*
X42506Y245538D01*
X41679Y244985D01*
X41127Y244158D01*
X40933Y243183D01*
X41127Y242207D01*
X41679Y241380D01*
X42506Y240828D01*
X43482Y240634D01*
X44457Y240828D01*
X45284Y241380D01*
X45837Y242207D01*
X46031Y243183D01*
X45837Y244158D01*
X45284Y244985D01*
X44457Y245538D01*
X43482Y245732D01*
D02*
G37*
G36*
X151782Y245932D02*
X150806Y245738D01*
X149979Y245185D01*
X149427Y244358D01*
X149233Y243383D01*
X149427Y242407D01*
X149979Y241580D01*
X150806Y241028D01*
X151782Y240834D01*
X152757Y241028D01*
X153584Y241580D01*
X154137Y242407D01*
X154331Y243383D01*
X154137Y244358D01*
X153584Y245185D01*
X152757Y245738D01*
X151782Y245932D01*
D02*
G37*
G36*
X422500Y245049D02*
X421524Y244855D01*
X420698Y244302D01*
X420145Y243476D01*
X419951Y242500D01*
X420145Y241525D01*
X420698Y240698D01*
X421524Y240145D01*
X422500Y239951D01*
X423476Y240145D01*
X424302Y240698D01*
X424855Y241525D01*
X425049Y242500D01*
X424855Y243476D01*
X424302Y244302D01*
X423476Y244855D01*
X422500Y245049D01*
D02*
G37*
G36*
X405850Y241018D02*
X405499Y240948D01*
X405201Y240749D01*
X405002Y240451D01*
X404932Y240100D01*
X405002Y239749D01*
X405201Y239451D01*
X405499Y239252D01*
X405850Y239182D01*
X406201Y239252D01*
X406499Y239451D01*
X406698Y239749D01*
X406768Y240100D01*
X406698Y240451D01*
X406499Y240749D01*
X406201Y240948D01*
X405850Y241018D01*
D02*
G37*
G36*
X408550D02*
X408199Y240948D01*
X407901Y240749D01*
X407702Y240451D01*
X407632Y240100D01*
X407702Y239749D01*
X407901Y239451D01*
X408199Y239252D01*
X408550Y239182D01*
X408901Y239252D01*
X409199Y239451D01*
X409398Y239749D01*
X409468Y240100D01*
X409398Y240451D01*
X409199Y240749D01*
X408901Y240948D01*
X408550Y241018D01*
D02*
G37*
G36*
X155282Y236432D02*
X154306Y236238D01*
X153479Y235685D01*
X152927Y234858D01*
X152733Y233883D01*
X152927Y232907D01*
X153479Y232080D01*
X154306Y231528D01*
X155282Y231334D01*
X156257Y231528D01*
X157084Y232080D01*
X157637Y232907D01*
X157831Y233883D01*
X157637Y234858D01*
X157084Y235685D01*
X156257Y236238D01*
X155282Y236432D01*
D02*
G37*
G36*
X53282Y239732D02*
X52306Y239538D01*
X51479Y238985D01*
X50927Y238158D01*
X50733Y237183D01*
X50927Y236207D01*
X51479Y235380D01*
X52306Y234828D01*
X53282Y234634D01*
X54257Y234828D01*
X55084Y235380D01*
X55637Y236207D01*
X55831Y237183D01*
X55637Y238158D01*
X55084Y238985D01*
X54257Y239538D01*
X53282Y239732D01*
D02*
G37*
G36*
X405850Y233018D02*
X405499Y232948D01*
X405201Y232749D01*
X405002Y232451D01*
X404932Y232100D01*
X405002Y231749D01*
X405201Y231451D01*
X405499Y231252D01*
X405850Y231182D01*
X406201Y231252D01*
X406499Y231451D01*
X406698Y231749D01*
X406768Y232100D01*
X406698Y232451D01*
X406499Y232749D01*
X406201Y232948D01*
X405850Y233018D01*
D02*
G37*
G36*
X197231Y234823D02*
X196255Y234629D01*
X195428Y234076D01*
X194876Y233249D01*
X194682Y232274D01*
X194876Y231298D01*
X195428Y230471D01*
X196255Y229919D01*
X197231Y229725D01*
X198206Y229919D01*
X199033Y230471D01*
X199586Y231298D01*
X199780Y232274D01*
X199586Y233249D01*
X199033Y234076D01*
X198206Y234629D01*
X197231Y234823D01*
D02*
G37*
G36*
X21282Y235932D02*
X20306Y235738D01*
X19479Y235185D01*
X18927Y234358D01*
X18733Y233383D01*
X18927Y232407D01*
X19479Y231580D01*
X20306Y231028D01*
X21282Y230834D01*
X22257Y231028D01*
X23084Y231580D01*
X23637Y232407D01*
X23831Y233383D01*
X23637Y234358D01*
X23084Y235185D01*
X22257Y235738D01*
X21282Y235932D01*
D02*
G37*
G36*
X279782Y240932D02*
X278806Y240738D01*
X277979Y240185D01*
X277427Y239358D01*
X277233Y238383D01*
X277427Y237407D01*
X277979Y236580D01*
X278806Y236028D01*
X279782Y235834D01*
X280757Y236028D01*
X281584Y236580D01*
X282137Y237407D01*
X282331Y238383D01*
X282137Y239358D01*
X281584Y240185D01*
X280757Y240738D01*
X279782Y240932D01*
D02*
G37*
G36*
X24782Y241432D02*
X23806Y241238D01*
X22979Y240685D01*
X22427Y239858D01*
X22233Y238883D01*
X22427Y237907D01*
X22979Y237080D01*
X23806Y236528D01*
X24782Y236334D01*
X25757Y236528D01*
X26584Y237080D01*
X27137Y237907D01*
X27331Y238883D01*
X27137Y239858D01*
X26584Y240685D01*
X25757Y241238D01*
X24782Y241432D01*
D02*
G37*
G36*
X403150Y238368D02*
X402799Y238298D01*
X402501Y238099D01*
X402302Y237801D01*
X402232Y237450D01*
X402302Y237099D01*
X402501Y236801D01*
X402799Y236602D01*
X403150Y236532D01*
X403159Y236534D01*
X403584Y236109D01*
X403582Y236100D01*
X403584Y236091D01*
X403159Y235666D01*
X403150Y235668D01*
X402799Y235598D01*
X402501Y235399D01*
X402302Y235101D01*
X402242Y234799D01*
X402232Y234750D01*
X401850Y234368D01*
X401801Y234358D01*
X401499Y234298D01*
X401201Y234099D01*
X401002Y233801D01*
X400932Y233450D01*
X400500Y233368D01*
X400068Y233450D01*
X399998Y233801D01*
X399799Y234099D01*
X399501Y234298D01*
X399150Y234368D01*
X398799Y234298D01*
X398501Y234099D01*
X398302Y233801D01*
X398232Y233450D01*
X398302Y233099D01*
X398501Y232801D01*
X398799Y232602D01*
X399150Y232532D01*
X399159Y232534D01*
X399584Y232109D01*
X399582Y232100D01*
X399584Y232091D01*
X399159Y231666D01*
X399150Y231668D01*
X398799Y231598D01*
X398501Y231399D01*
X398302Y231101D01*
X398232Y230750D01*
X398302Y230399D01*
X398501Y230101D01*
X398799Y229902D01*
X399150Y229832D01*
X399159Y229834D01*
X399584Y229409D01*
X399582Y229400D01*
X399584Y229391D01*
X399159Y228966D01*
X399150Y228968D01*
X398799Y228898D01*
X398501Y228699D01*
X398302Y228401D01*
X398232Y228050D01*
X398302Y227699D01*
X398501Y227401D01*
X398799Y227202D01*
X399150Y227132D01*
X399501Y227202D01*
X399799Y227401D01*
X399998Y227699D01*
X400068Y228050D01*
X400066Y228059D01*
X400491Y228484D01*
X400500Y228482D01*
X400851Y228552D01*
X401149Y228751D01*
X401348Y229049D01*
X401418Y229400D01*
X401348Y229751D01*
X401149Y230049D01*
X400851Y230248D01*
X400500Y230318D01*
X400491Y230316D01*
X400066Y230741D01*
X400068Y230750D01*
X400066Y230759D01*
X400491Y231184D01*
X400500Y231182D01*
X400851Y231252D01*
X401149Y231451D01*
X401348Y231749D01*
X401418Y232100D01*
X401903Y232171D01*
X402177Y232163D01*
X402232Y232100D01*
X402233Y232099D01*
X402302Y231749D01*
X402501Y231451D01*
X402799Y231252D01*
X403150Y231182D01*
X403501Y231252D01*
X403799Y231451D01*
X403998Y231749D01*
X404068Y232100D01*
X403998Y232451D01*
X403799Y232749D01*
X403501Y232948D01*
X403190Y233010D01*
X403150Y233018D01*
X402768Y233450D01*
X403150Y233832D01*
X403199Y233842D01*
X403501Y233902D01*
X403799Y234101D01*
X403998Y234399D01*
X404068Y234750D01*
X404066Y234759D01*
X404491Y235184D01*
X404500Y235182D01*
X404851Y235252D01*
X405149Y235451D01*
X405348Y235749D01*
X405418Y236100D01*
X405348Y236451D01*
X405149Y236749D01*
X404851Y236948D01*
X404500Y237018D01*
X404491Y237016D01*
X404066Y237441D01*
X404068Y237450D01*
X403998Y237801D01*
X403799Y238099D01*
X403501Y238298D01*
X403150Y238368D01*
D02*
G37*
G36*
X187282Y240232D02*
X186306Y240038D01*
X185479Y239485D01*
X184927Y238658D01*
X184733Y237683D01*
X184927Y236707D01*
X185479Y235880D01*
X186306Y235328D01*
X187282Y235134D01*
X188257Y235328D01*
X189084Y235880D01*
X189637Y236707D01*
X189831Y237683D01*
X189637Y238658D01*
X189084Y239485D01*
X188257Y240038D01*
X187282Y240232D01*
D02*
G37*
G36*
X399150Y237018D02*
X398799Y236948D01*
X398501Y236749D01*
X398302Y236451D01*
X398232Y236100D01*
X398302Y235749D01*
X398501Y235451D01*
X398799Y235252D01*
X399150Y235182D01*
X399501Y235252D01*
X399799Y235451D01*
X399998Y235749D01*
X400068Y236100D01*
X399998Y236451D01*
X399799Y236749D01*
X399501Y236948D01*
X399150Y237018D01*
D02*
G37*
G36*
X116782Y252432D02*
X115806Y252238D01*
X114979Y251685D01*
X114427Y250858D01*
X114233Y249883D01*
X114427Y248907D01*
X114979Y248080D01*
X115806Y247528D01*
X116782Y247334D01*
X117757Y247528D01*
X118584Y248080D01*
X119137Y248907D01*
X119331Y249883D01*
X119137Y250858D01*
X118584Y251685D01*
X117757Y252238D01*
X116782Y252432D01*
D02*
G37*
G36*
X141782D02*
X140806Y252238D01*
X139979Y251685D01*
X139427Y250858D01*
X139233Y249883D01*
X139427Y248907D01*
X139979Y248080D01*
X140806Y247528D01*
X141782Y247334D01*
X142757Y247528D01*
X143584Y248080D01*
X144137Y248907D01*
X144331Y249883D01*
X144137Y250858D01*
X143584Y251685D01*
X142757Y252238D01*
X141782Y252432D01*
D02*
G37*
G36*
X553963Y251778D02*
X550770Y248585D01*
X553963Y245392D01*
X554420Y245987D01*
X554939Y247240D01*
X555116Y248585D01*
X554939Y249929D01*
X554420Y251182D01*
X553963Y251778D01*
D02*
G37*
G36*
X545880D02*
X545423Y251182D01*
X544904Y249929D01*
X544727Y248585D01*
X544904Y247240D01*
X545423Y245987D01*
X545880Y245392D01*
X549073Y248585D01*
X545880Y251778D01*
D02*
G37*
G36*
X533963D02*
X530770Y248585D01*
X533963Y245392D01*
X534420Y245987D01*
X534939Y247240D01*
X535116Y248585D01*
X534939Y249929D01*
X534420Y251182D01*
X533963Y251778D01*
D02*
G37*
G36*
X549921Y253779D02*
X548577Y253602D01*
X547324Y253083D01*
X546729Y252626D01*
X549921Y249433D01*
X553114Y252626D01*
X552519Y253083D01*
X551266Y253602D01*
X549921Y253779D01*
D02*
G37*
G36*
X121782Y255932D02*
X120806Y255738D01*
X119979Y255185D01*
X119427Y254358D01*
X119233Y253383D01*
X119427Y252407D01*
X119979Y251580D01*
X120806Y251028D01*
X121782Y250834D01*
X122757Y251028D01*
X123584Y251580D01*
X124137Y252407D01*
X124331Y253383D01*
X124137Y254358D01*
X123584Y255185D01*
X122757Y255738D01*
X121782Y255932D01*
D02*
G37*
G36*
X529921Y253779D02*
X528577Y253602D01*
X527324Y253083D01*
X526728Y252626D01*
X529921Y249433D01*
X533114Y252626D01*
X532519Y253083D01*
X531266Y253602D01*
X529921Y253779D01*
D02*
G37*
G36*
X239782Y252432D02*
X238806Y252238D01*
X237979Y251685D01*
X237427Y250858D01*
X237233Y249883D01*
X237427Y248907D01*
X237979Y248080D01*
X238806Y247528D01*
X239782Y247334D01*
X240757Y247528D01*
X241584Y248080D01*
X242137Y248907D01*
X242331Y249883D01*
X242137Y250858D01*
X241584Y251685D01*
X240757Y252238D01*
X239782Y252432D01*
D02*
G37*
G36*
X264782D02*
X263806Y252238D01*
X262979Y251685D01*
X262427Y250858D01*
X262233Y249883D01*
X262427Y248907D01*
X262979Y248080D01*
X263806Y247528D01*
X264782Y247334D01*
X265757Y247528D01*
X266584Y248080D01*
X267137Y248907D01*
X267331Y249883D01*
X267137Y250858D01*
X266584Y251685D01*
X265757Y252238D01*
X264782Y252432D01*
D02*
G37*
G36*
X216782Y247432D02*
X215806Y247238D01*
X214979Y246685D01*
X214427Y245858D01*
X214233Y244883D01*
X214427Y243907D01*
X214979Y243080D01*
X215806Y242528D01*
X216782Y242334D01*
X217757Y242528D01*
X218584Y243080D01*
X219137Y243907D01*
X219331Y244883D01*
X219137Y245858D01*
X218584Y246685D01*
X217757Y247238D01*
X216782Y247432D01*
D02*
G37*
G36*
X64782Y247932D02*
X63806Y247738D01*
X62979Y247185D01*
X62427Y246358D01*
X62233Y245383D01*
X62427Y244407D01*
X62979Y243580D01*
X63806Y243028D01*
X64782Y242834D01*
X65757Y243028D01*
X66584Y243580D01*
X67137Y244407D01*
X67331Y245383D01*
X67137Y246358D01*
X66584Y247185D01*
X65757Y247738D01*
X64782Y247932D01*
D02*
G37*
G36*
X418201Y246515D02*
X417772Y246429D01*
X417408Y246186D01*
X417165Y245823D01*
X417079Y245393D01*
X417165Y244964D01*
X417408Y244600D01*
X417772Y244357D01*
X417945Y244323D01*
Y243813D01*
X417815Y243787D01*
X417452Y243544D01*
X417209Y243180D01*
X417123Y242751D01*
X417180Y242465D01*
X416709Y242270D01*
X416706Y242274D01*
X416342Y242517D01*
X415913Y242603D01*
X415484Y242517D01*
X415379Y242448D01*
X415179Y242523D01*
X414886Y242720D01*
X414819Y243054D01*
X414576Y243418D01*
X414213Y243661D01*
X413783Y243747D01*
X413354Y243661D01*
X412990Y243418D01*
X412747Y243054D01*
X412662Y242625D01*
X412747Y242196D01*
X412990Y241832D01*
X413354Y241589D01*
X413783Y241504D01*
X414213Y241589D01*
X414317Y241659D01*
X414518Y241584D01*
X414810Y241387D01*
X414877Y241052D01*
X415120Y240688D01*
X415484Y240445D01*
X415913Y240360D01*
X416342Y240445D01*
X416706Y240688D01*
X416949Y241052D01*
X417035Y241481D01*
X416978Y241767D01*
X417449Y241962D01*
X417452Y241958D01*
X417815Y241715D01*
X418245Y241630D01*
X418674Y241715D01*
X419038Y241958D01*
X419281Y242322D01*
X419366Y242751D01*
X419281Y243180D01*
X419038Y243544D01*
X418674Y243787D01*
X418501Y243822D01*
Y244331D01*
X418630Y244357D01*
X418994Y244600D01*
X419237Y244964D01*
X419322Y245393D01*
X419237Y245823D01*
X418994Y246186D01*
X418630Y246429D01*
X418201Y246515D01*
D02*
G37*
G36*
X177482Y246232D02*
X176506Y246038D01*
X175679Y245485D01*
X175127Y244658D01*
X174933Y243683D01*
X175127Y242707D01*
X175679Y241880D01*
X176506Y241328D01*
X177482Y241134D01*
X178457Y241328D01*
X179284Y241880D01*
X179837Y242707D01*
X180031Y243683D01*
X179837Y244658D01*
X179284Y245485D01*
X178457Y246038D01*
X177482Y246232D01*
D02*
G37*
G36*
X95782Y246432D02*
X94806Y246238D01*
X93979Y245685D01*
X93427Y244858D01*
X93233Y243883D01*
X93427Y242907D01*
X93979Y242080D01*
X94806Y241528D01*
X95782Y241334D01*
X96757Y241528D01*
X97584Y242080D01*
X98137Y242907D01*
X98331Y243883D01*
X98137Y244858D01*
X97584Y245685D01*
X96757Y246238D01*
X95782Y246432D01*
D02*
G37*
G36*
X549921Y247736D02*
X546729Y244543D01*
X547324Y244086D01*
X548577Y243567D01*
X549921Y243390D01*
X551266Y243567D01*
X552519Y244086D01*
X553114Y244543D01*
X549921Y247736D01*
D02*
G37*
G36*
X525880Y251778D02*
X525423Y251182D01*
X524904Y249929D01*
X524727Y248585D01*
X524904Y247240D01*
X525423Y245987D01*
X525880Y245392D01*
X529073Y248585D01*
X525880Y251778D01*
D02*
G37*
G36*
X529921Y247736D02*
X526728Y244543D01*
X527324Y244086D01*
X528577Y243567D01*
X529921Y243390D01*
X531266Y243567D01*
X532519Y244086D01*
X533114Y244543D01*
X529921Y247736D01*
D02*
G37*
G36*
X402662Y245574D02*
X402232Y245489D01*
X401869Y245246D01*
X401625Y244882D01*
X401540Y244453D01*
X401625Y244023D01*
X401869Y243659D01*
X402232Y243416D01*
X402662Y243331D01*
X403091Y243416D01*
X403455Y243659D01*
X403698Y244023D01*
X403783Y244453D01*
X403698Y244882D01*
X403455Y245246D01*
X403091Y245489D01*
X402662Y245574D01*
D02*
G37*
G36*
X198782Y248432D02*
X197806Y248238D01*
X196979Y247685D01*
X196427Y246858D01*
X196233Y245883D01*
X196427Y244907D01*
X196979Y244080D01*
X197806Y243528D01*
X198782Y243334D01*
X199757Y243528D01*
X200584Y244080D01*
X201137Y244907D01*
X201331Y245883D01*
X201137Y246858D01*
X200584Y247685D01*
X199757Y248238D01*
X198782Y248432D01*
D02*
G37*
G36*
X409850Y233018D02*
X409499Y232948D01*
X409201Y232749D01*
X409002Y232451D01*
X408932Y232100D01*
X409002Y231749D01*
X409201Y231451D01*
X409348Y231353D01*
X409364Y231304D01*
Y230846D01*
X409348Y230797D01*
X409201Y230699D01*
X409002Y230401D01*
X408932Y230050D01*
X409002Y229699D01*
X409201Y229401D01*
X409499Y229202D01*
X409850Y229132D01*
X410201Y229202D01*
X410499Y229401D01*
X410698Y229699D01*
X410768Y230050D01*
X410698Y230401D01*
X410499Y230699D01*
X410352Y230797D01*
X410336Y230846D01*
Y231304D01*
X410352Y231353D01*
X410499Y231451D01*
X410698Y231749D01*
X410768Y232100D01*
X410698Y232451D01*
X410499Y232749D01*
X410201Y232948D01*
X409850Y233018D01*
D02*
G37*
G36*
X47482Y215132D02*
X46506Y214938D01*
X45680Y214385D01*
X45127Y213558D01*
X44933Y212583D01*
X45127Y211607D01*
X45680Y210780D01*
X46506Y210228D01*
X47482Y210034D01*
X48457Y210228D01*
X49284Y210780D01*
X49837Y211607D01*
X50031Y212583D01*
X49837Y213558D01*
X49284Y214385D01*
X48457Y214938D01*
X47482Y215132D01*
D02*
G37*
G36*
X140082Y215432D02*
X139106Y215238D01*
X138279Y214685D01*
X137727Y213858D01*
X137533Y212883D01*
X137727Y211907D01*
X138279Y211080D01*
X139106Y210528D01*
X140082Y210334D01*
X141057Y210528D01*
X141884Y211080D01*
X142437Y211907D01*
X142631Y212883D01*
X142437Y213858D01*
X141884Y214685D01*
X141057Y215238D01*
X140082Y215432D01*
D02*
G37*
G36*
X303982Y214632D02*
X303006Y214438D01*
X302179Y213885D01*
X301627Y213058D01*
X301433Y212083D01*
X301627Y211107D01*
X302179Y210280D01*
X303006Y209728D01*
X303982Y209534D01*
X304957Y209728D01*
X305784Y210280D01*
X306337Y211107D01*
X306531Y212083D01*
X306337Y213058D01*
X305784Y213885D01*
X304957Y214438D01*
X303982Y214632D01*
D02*
G37*
G36*
X549921Y212736D02*
X546729Y209543D01*
X547324Y209086D01*
X548577Y208567D01*
X549921Y208390D01*
X551266Y208567D01*
X552519Y209086D01*
X553114Y209543D01*
X549921Y212736D01*
D02*
G37*
G36*
X262582Y214432D02*
X261606Y214238D01*
X260779Y213685D01*
X260227Y212858D01*
X260033Y211883D01*
X260227Y210907D01*
X260779Y210080D01*
X261606Y209528D01*
X262582Y209334D01*
X263557Y209528D01*
X264384Y210080D01*
X264937Y210907D01*
X265131Y211883D01*
X264937Y212858D01*
X264384Y213685D01*
X263557Y214238D01*
X262582Y214432D01*
D02*
G37*
G36*
X553963Y216778D02*
X550770Y213585D01*
X553963Y210392D01*
X554420Y210987D01*
X554939Y212240D01*
X555116Y213585D01*
X554939Y214929D01*
X554420Y216182D01*
X553963Y216778D01*
D02*
G37*
G36*
X181482Y215632D02*
X180506Y215438D01*
X179679Y214885D01*
X179127Y214058D01*
X178933Y213083D01*
X179127Y212107D01*
X179679Y211280D01*
X180506Y210728D01*
X181482Y210534D01*
X182457Y210728D01*
X183284Y211280D01*
X183837Y212107D01*
X184031Y213083D01*
X183837Y214058D01*
X183284Y214885D01*
X182457Y215438D01*
X181482Y215632D01*
D02*
G37*
G36*
X533963Y216778D02*
X530770Y213585D01*
X533963Y210392D01*
X534420Y210987D01*
X534939Y212240D01*
X535116Y213585D01*
X534939Y214929D01*
X534420Y216182D01*
X533963Y216778D01*
D02*
G37*
G36*
X525880D02*
X525423Y216182D01*
X524904Y214929D01*
X524727Y213585D01*
X524904Y212240D01*
X525423Y210987D01*
X525880Y210392D01*
X529073Y213585D01*
X525880Y216778D01*
D02*
G37*
G36*
X545880D02*
X545423Y216182D01*
X544904Y214929D01*
X544727Y213585D01*
X544904Y212240D01*
X545423Y210987D01*
X545880Y210392D01*
X549073Y213585D01*
X545880Y216778D01*
D02*
G37*
G36*
X529921Y198779D02*
X528577Y198602D01*
X527324Y198083D01*
X526728Y197626D01*
X529921Y194433D01*
X533114Y197626D01*
X532519Y198083D01*
X531266Y198602D01*
X529921Y198779D01*
D02*
G37*
G36*
X549921D02*
X548577Y198602D01*
X547324Y198083D01*
X546729Y197626D01*
X549921Y194433D01*
X553114Y197626D01*
X552519Y198083D01*
X551266Y198602D01*
X549921Y198779D01*
D02*
G37*
G36*
X247000Y198549D02*
X246024Y198355D01*
X245198Y197802D01*
X244645Y196975D01*
X244451Y196000D01*
X244645Y195025D01*
X245198Y194198D01*
X246024Y193645D01*
X247000Y193451D01*
X247975Y193645D01*
X248802Y194198D01*
X249355Y195025D01*
X249549Y196000D01*
X249355Y196975D01*
X248802Y197802D01*
X247975Y198355D01*
X247000Y198549D01*
D02*
G37*
G36*
X533963Y196778D02*
X530770Y193585D01*
X533963Y190392D01*
X534420Y190987D01*
X534939Y192240D01*
X535116Y193585D01*
X534939Y194929D01*
X534420Y196182D01*
X533963Y196778D01*
D02*
G37*
G36*
X553963D02*
X550770Y193585D01*
X553963Y190392D01*
X554420Y190987D01*
X554939Y192240D01*
X555116Y193585D01*
X554939Y194929D01*
X554420Y196182D01*
X553963Y196778D01*
D02*
G37*
G36*
X436484Y210671D02*
X435509Y210477D01*
X434682Y209924D01*
X434129Y209097D01*
X433935Y208122D01*
X434129Y207147D01*
X434682Y206319D01*
X435509Y205767D01*
X436484Y205573D01*
X437460Y205767D01*
X438287Y206319D01*
X438839Y207147D01*
X439033Y208122D01*
X438839Y209097D01*
X438287Y209924D01*
X437460Y210477D01*
X436484Y210671D01*
D02*
G37*
G36*
X529921Y212736D02*
X526728Y209543D01*
X527324Y209086D01*
X528577Y208567D01*
X529921Y208390D01*
X531266Y208567D01*
X532519Y209086D01*
X533114Y209543D01*
X529921Y212736D01*
D02*
G37*
G36*
X254500Y206549D02*
X253524Y206355D01*
X252698Y205802D01*
X252145Y204975D01*
X251951Y204000D01*
X252145Y203025D01*
X252698Y202198D01*
X253524Y201645D01*
X254500Y201451D01*
X255475Y201645D01*
X256302Y202198D01*
X256855Y203025D01*
X257049Y204000D01*
X256855Y204975D01*
X256302Y205802D01*
X255475Y206355D01*
X254500Y206549D01*
D02*
G37*
G36*
X290500Y200049D02*
X289525Y199855D01*
X288698Y199302D01*
X288145Y198476D01*
X287951Y197500D01*
X288145Y196525D01*
X288698Y195698D01*
X289525Y195145D01*
X290500Y194951D01*
X291476Y195145D01*
X292302Y195698D01*
X292855Y196525D01*
X293049Y197500D01*
X292855Y198476D01*
X292302Y199302D01*
X291476Y199855D01*
X290500Y200049D01*
D02*
G37*
G36*
X150382Y201132D02*
X149406Y200938D01*
X148579Y200385D01*
X148027Y199558D01*
X147833Y198583D01*
X148027Y197607D01*
X148579Y196780D01*
X149406Y196228D01*
X150382Y196034D01*
X151357Y196228D01*
X152184Y196780D01*
X152737Y197607D01*
X152931Y198583D01*
X152737Y199558D01*
X152184Y200385D01*
X151357Y200938D01*
X150382Y201132D01*
D02*
G37*
G36*
X408550Y227668D02*
X408199Y227598D01*
X407901Y227399D01*
X407702Y227101D01*
X407632Y226750D01*
X407702Y226399D01*
X407901Y226101D01*
X408199Y225902D01*
X408510Y225840D01*
X408550Y225832D01*
X408932Y225400D01*
X408933Y225399D01*
X409002Y225049D01*
X409201Y224751D01*
X409499Y224552D01*
X409850Y224482D01*
X410201Y224552D01*
X410499Y224751D01*
X410698Y225049D01*
X410768Y225400D01*
X410698Y225751D01*
X410499Y226049D01*
X410201Y226248D01*
X409890Y226310D01*
X409850Y226318D01*
X409468Y226750D01*
X409467Y226751D01*
X409398Y227101D01*
X409199Y227399D01*
X408901Y227598D01*
X408550Y227668D01*
D02*
G37*
G36*
X309382Y231632D02*
X308406Y231438D01*
X307579Y230885D01*
X307027Y230058D01*
X306833Y229083D01*
X307027Y228107D01*
X307579Y227280D01*
X308406Y226728D01*
X309382Y226534D01*
X310357Y226728D01*
X311184Y227280D01*
X311737Y228107D01*
X311931Y229083D01*
X311737Y230058D01*
X311184Y230885D01*
X310357Y231438D01*
X309382Y231632D01*
D02*
G37*
G36*
X396500Y226318D02*
X396149Y226248D01*
X395851Y226049D01*
X395652Y225751D01*
X395582Y225400D01*
X395652Y225049D01*
X395851Y224751D01*
X396149Y224552D01*
X396500Y224482D01*
X396851Y224552D01*
X397149Y224751D01*
X397348Y225049D01*
X397418Y225400D01*
X397348Y225751D01*
X397149Y226049D01*
X396851Y226248D01*
X396500Y226318D01*
D02*
G37*
G36*
X187282Y222232D02*
X186306Y222038D01*
X185479Y221485D01*
X184927Y220658D01*
X184733Y219683D01*
X184927Y218707D01*
X185479Y217880D01*
X186306Y217328D01*
X187282Y217134D01*
X188257Y217328D01*
X189084Y217880D01*
X189637Y218707D01*
X189831Y219683D01*
X189637Y220658D01*
X189084Y221485D01*
X188257Y222038D01*
X187282Y222232D01*
D02*
G37*
G36*
X389484Y226671D02*
X388509Y226477D01*
X387682Y225924D01*
X387129Y225097D01*
X386935Y224122D01*
X387129Y223147D01*
X387682Y222320D01*
X388509Y221767D01*
X389484Y221573D01*
X390460Y221767D01*
X391287Y222320D01*
X391839Y223147D01*
X392033Y224122D01*
X391839Y225097D01*
X391287Y225924D01*
X390460Y226477D01*
X389484Y226671D01*
D02*
G37*
G36*
X186882Y232632D02*
X185906Y232438D01*
X185079Y231885D01*
X184527Y231058D01*
X184333Y230083D01*
X184527Y229107D01*
X185079Y228280D01*
X185906Y227728D01*
X186882Y227534D01*
X187857Y227728D01*
X188684Y228280D01*
X189237Y229107D01*
X189431Y230083D01*
X189237Y231058D01*
X188684Y231885D01*
X187857Y232438D01*
X186882Y232632D01*
D02*
G37*
G36*
X104331Y233173D02*
X103355Y232979D01*
X102528Y232426D01*
X101976Y231599D01*
X101782Y230624D01*
X101976Y229648D01*
X102528Y228821D01*
X103355Y228269D01*
X104331Y228075D01*
X105306Y228269D01*
X106133Y228821D01*
X106686Y229648D01*
X106880Y230624D01*
X106686Y231599D01*
X106133Y232426D01*
X105306Y232979D01*
X104331Y233173D01*
D02*
G37*
G36*
X403150Y230318D02*
X402799Y230248D01*
X402501Y230049D01*
X402302Y229751D01*
X402232Y229400D01*
X402302Y229049D01*
X402501Y228751D01*
X402799Y228552D01*
X403150Y228482D01*
X403159Y228484D01*
X403584Y228059D01*
X403582Y228050D01*
X403652Y227699D01*
X403851Y227401D01*
X404149Y227202D01*
X404500Y227132D01*
X404851Y227202D01*
X405149Y227401D01*
X405348Y227699D01*
X405418Y228050D01*
X405348Y228401D01*
X405149Y228699D01*
X404851Y228898D01*
X404500Y228968D01*
X404491Y228966D01*
X404066Y229391D01*
X404068Y229400D01*
X403998Y229751D01*
X403799Y230049D01*
X403501Y230248D01*
X403150Y230318D01*
D02*
G37*
G36*
X52882Y232132D02*
X51906Y231938D01*
X51079Y231385D01*
X50527Y230558D01*
X50333Y229583D01*
X50527Y228607D01*
X51079Y227780D01*
X51906Y227228D01*
X52882Y227034D01*
X53857Y227228D01*
X54684Y227780D01*
X55237Y228607D01*
X55431Y229583D01*
X55237Y230558D01*
X54684Y231385D01*
X53857Y231938D01*
X52882Y232132D01*
D02*
G37*
G36*
X227331Y232173D02*
X226355Y231979D01*
X225528Y231426D01*
X224976Y230599D01*
X224782Y229624D01*
X224976Y228648D01*
X225528Y227821D01*
X226355Y227269D01*
X227331Y227075D01*
X228306Y227269D01*
X229133Y227821D01*
X229686Y228648D01*
X229880Y229624D01*
X229686Y230599D01*
X229133Y231426D01*
X228306Y231979D01*
X227331Y232173D01*
D02*
G37*
G36*
X229831Y218273D02*
X228855Y218078D01*
X228028Y217526D01*
X227476Y216699D01*
X227282Y215724D01*
X227476Y214748D01*
X228028Y213921D01*
X228855Y213369D01*
X229831Y213175D01*
X230806Y213369D01*
X231633Y213921D01*
X232186Y214748D01*
X232380Y215724D01*
X232186Y216699D01*
X231633Y217526D01*
X230806Y218078D01*
X229831Y218273D01*
D02*
G37*
G36*
X106831Y219273D02*
X105855Y219078D01*
X105028Y218526D01*
X104476Y217699D01*
X104282Y216724D01*
X104476Y215748D01*
X105028Y214921D01*
X105855Y214369D01*
X106831Y214175D01*
X107806Y214369D01*
X108633Y214921D01*
X109186Y215748D01*
X109380Y216724D01*
X109186Y217699D01*
X108633Y218526D01*
X107806Y219078D01*
X106831Y219273D01*
D02*
G37*
G36*
X159282Y216632D02*
X158306Y216438D01*
X157479Y215885D01*
X156927Y215058D01*
X156733Y214083D01*
X156927Y213107D01*
X157479Y212280D01*
X158306Y211728D01*
X159282Y211534D01*
X160257Y211728D01*
X161084Y212280D01*
X161637Y213107D01*
X161831Y214083D01*
X161637Y215058D01*
X161084Y215885D01*
X160257Y216438D01*
X159282Y216632D01*
D02*
G37*
G36*
X281782Y215632D02*
X280806Y215438D01*
X279979Y214885D01*
X279427Y214058D01*
X279233Y213083D01*
X279427Y212107D01*
X279979Y211280D01*
X280806Y210728D01*
X281782Y210534D01*
X282757Y210728D01*
X283584Y211280D01*
X284137Y212107D01*
X284331Y213083D01*
X284137Y214058D01*
X283584Y214885D01*
X282757Y215438D01*
X281782Y215632D01*
D02*
G37*
G36*
X25282Y216132D02*
X24306Y215938D01*
X23479Y215385D01*
X22927Y214558D01*
X22733Y213583D01*
X22927Y212607D01*
X23479Y211780D01*
X24306Y211228D01*
X25282Y211034D01*
X26257Y211228D01*
X27084Y211780D01*
X27637Y212607D01*
X27831Y213583D01*
X27637Y214558D01*
X27084Y215385D01*
X26257Y215938D01*
X25282Y216132D01*
D02*
G37*
G36*
X53282Y221732D02*
X52306Y221538D01*
X51479Y220985D01*
X50927Y220158D01*
X50733Y219183D01*
X50927Y218207D01*
X51479Y217380D01*
X52306Y216828D01*
X53282Y216634D01*
X54257Y216828D01*
X55084Y217380D01*
X55637Y218207D01*
X55831Y219183D01*
X55637Y220158D01*
X55084Y220985D01*
X54257Y221538D01*
X53282Y221732D01*
D02*
G37*
G36*
X415057Y222171D02*
X414081Y221977D01*
X413255Y221424D01*
X412702Y220597D01*
X412508Y219622D01*
X412702Y218647D01*
X413255Y217819D01*
X414081Y217267D01*
X415057Y217073D01*
X416032Y217267D01*
X416859Y217819D01*
X417412Y218647D01*
X417606Y219622D01*
X417412Y220597D01*
X416859Y221424D01*
X416032Y221977D01*
X415057Y222171D01*
D02*
G37*
G36*
X309782Y221232D02*
X308806Y221038D01*
X307979Y220485D01*
X307427Y219658D01*
X307233Y218683D01*
X307427Y217707D01*
X307979Y216880D01*
X308806Y216328D01*
X309782Y216134D01*
X310757Y216328D01*
X311584Y216880D01*
X312137Y217707D01*
X312331Y218683D01*
X312137Y219658D01*
X311584Y220485D01*
X310757Y221038D01*
X309782Y221232D01*
D02*
G37*
G36*
X529921Y218779D02*
X528577Y218602D01*
X527324Y218083D01*
X526728Y217626D01*
X529921Y214433D01*
X533114Y217626D01*
X532519Y218083D01*
X531266Y218602D01*
X529921Y218779D01*
D02*
G37*
G36*
X549921D02*
X548577Y218602D01*
X547324Y218083D01*
X546729Y217626D01*
X549921Y214433D01*
X553114Y217626D01*
X552519Y218083D01*
X551266Y218602D01*
X549921Y218779D01*
D02*
G37*
G36*
X244782Y255932D02*
X243806Y255738D01*
X242979Y255185D01*
X242427Y254358D01*
X242233Y253383D01*
X242427Y252407D01*
X242979Y251580D01*
X243806Y251028D01*
X244782Y250834D01*
X245757Y251028D01*
X246584Y251580D01*
X247137Y252407D01*
X247331Y253383D01*
X247137Y254358D01*
X246584Y255185D01*
X245757Y255738D01*
X244782Y255932D01*
D02*
G37*
G36*
X36841Y292317D02*
X35861Y292188D01*
X34948Y291810D01*
X34645Y291577D01*
X36841Y289381D01*
X39037Y291577D01*
X38734Y291810D01*
X37821Y292188D01*
X36841Y292317D01*
D02*
G37*
G36*
X176735Y296377D02*
X170829D01*
X170446Y296218D01*
X170288Y295835D01*
Y289930D01*
X170446Y289547D01*
X170829Y289389D01*
X176735D01*
X177117Y289547D01*
X177276Y289930D01*
Y295835D01*
X177117Y296218D01*
X176735Y296377D01*
D02*
G37*
G36*
X208774Y292057D02*
X206577Y289861D01*
X206881Y289628D01*
X207794Y289250D01*
X208774Y289121D01*
X209753Y289250D01*
X210666Y289628D01*
X210970Y289861D01*
X208774Y292057D01*
D02*
G37*
G36*
X39886Y290729D02*
X37690Y288532D01*
X39886Y286336D01*
X40119Y286640D01*
X40497Y287553D01*
X40626Y288532D01*
X40497Y289512D01*
X40119Y290425D01*
X39886Y290729D01*
D02*
G37*
G36*
X153782Y292034D02*
X151585Y289838D01*
X151889Y289605D01*
X152802Y289227D01*
X153782Y289097D01*
X154762Y289227D01*
X155674Y289605D01*
X155978Y289838D01*
X153782Y292034D01*
D02*
G37*
G36*
X150737Y295079D02*
X150504Y294775D01*
X150126Y293862D01*
X149997Y292883D01*
X150126Y291903D01*
X150504Y290990D01*
X150737Y290686D01*
X152933Y292883D01*
X150737Y295079D01*
D02*
G37*
G36*
X156827Y295079D02*
X154630Y292883D01*
X156827Y290686D01*
X157060Y290990D01*
X157438Y291903D01*
X157567Y292883D01*
X157438Y293862D01*
X157060Y294775D01*
X156827Y295079D01*
D02*
G37*
G36*
X218774Y296389D02*
X217872Y296270D01*
X217032Y295922D01*
X216311Y295369D01*
X215758Y294647D01*
X215410Y293807D01*
X215291Y292906D01*
X215410Y292005D01*
X215758Y291165D01*
X216311Y290443D01*
X217032Y289890D01*
X217872Y289542D01*
X218774Y289423D01*
X219675Y289542D01*
X220515Y289890D01*
X221236Y290443D01*
X221790Y291165D01*
X222138Y292005D01*
X222256Y292906D01*
X222138Y293807D01*
X221790Y294647D01*
X221236Y295369D01*
X220515Y295922D01*
X219675Y296270D01*
X218774Y296389D01*
D02*
G37*
G36*
X163782Y296365D02*
X162881Y296247D01*
X162041Y295899D01*
X161319Y295345D01*
X160766Y294624D01*
X160418Y293784D01*
X160299Y292883D01*
X160418Y291981D01*
X160766Y291141D01*
X161319Y290420D01*
X162041Y289867D01*
X162881Y289519D01*
X163782Y289400D01*
X164683Y289519D01*
X165523Y289867D01*
X166244Y290420D01*
X166798Y291141D01*
X167146Y291981D01*
X167264Y292883D01*
X167146Y293784D01*
X166798Y294624D01*
X166244Y295345D01*
X165523Y295899D01*
X164683Y296247D01*
X163782Y296365D01*
D02*
G37*
G36*
X231726Y296400D02*
X225821D01*
X225438Y296241D01*
X225280Y295859D01*
Y289953D01*
X225438Y289570D01*
X225821Y289412D01*
X231726D01*
X232109Y289570D01*
X232268Y289953D01*
Y295859D01*
X232109Y296241D01*
X231726Y296400D01*
D02*
G37*
G36*
X59794Y292026D02*
X53888D01*
X53505Y291868D01*
X53347Y291485D01*
Y285579D01*
X53505Y285197D01*
X53888Y285038D01*
X59794D01*
X60176Y285197D01*
X60335Y285579D01*
Y291485D01*
X60176Y291868D01*
X59794Y292026D01*
D02*
G37*
G36*
X46841Y292015D02*
X45940Y291896D01*
X45100Y291548D01*
X44378Y290995D01*
X43825Y290273D01*
X43477Y289434D01*
X43358Y288532D01*
X43477Y287631D01*
X43825Y286791D01*
X44378Y286070D01*
X45100Y285516D01*
X45940Y285168D01*
X46841Y285050D01*
X47742Y285168D01*
X48582Y285516D01*
X49303Y286070D01*
X49857Y286791D01*
X50205Y287631D01*
X50323Y288532D01*
X50205Y289434D01*
X49857Y290273D01*
X49303Y290995D01*
X48582Y291548D01*
X47742Y291896D01*
X46841Y292015D01*
D02*
G37*
G36*
X36841Y287684D02*
X34644Y285487D01*
X34948Y285254D01*
X35861Y284876D01*
X36841Y284747D01*
X37821Y284876D01*
X38734Y285254D01*
X39037Y285487D01*
X36841Y287684D01*
D02*
G37*
G36*
X479041Y288193D02*
X475848Y285000D01*
X479041Y281807D01*
X479498Y282403D01*
X480017Y283656D01*
X480194Y285000D01*
X480017Y286344D01*
X479498Y287597D01*
X479041Y288193D01*
D02*
G37*
G36*
X499041D02*
X495849Y285000D01*
X499041Y281807D01*
X499499Y282403D01*
X500017Y283656D01*
X500194Y285000D01*
X500017Y286344D01*
X499499Y287597D01*
X499041Y288193D01*
D02*
G37*
G36*
X310000Y290194D02*
X308656Y290017D01*
X307403Y289498D01*
X306807Y289041D01*
X310000Y285848D01*
X313193Y289041D01*
X312597Y289498D01*
X311344Y290017D01*
X310000Y290194D01*
D02*
G37*
G36*
X33796Y290729D02*
X33563Y290425D01*
X33185Y289512D01*
X33056Y288532D01*
X33185Y287553D01*
X33563Y286640D01*
X33796Y286336D01*
X35992Y288532D01*
X33796Y290729D01*
D02*
G37*
G36*
X495000Y290194D02*
X493656Y290017D01*
X492403Y289498D01*
X491807Y289041D01*
X495000Y285848D01*
X498193Y289041D01*
X497597Y289498D01*
X496344Y290017D01*
X495000Y290194D01*
D02*
G37*
G36*
X330000D02*
X328656Y290017D01*
X327403Y289498D01*
X326807Y289041D01*
X330000Y285848D01*
X333193Y289041D01*
X332597Y289498D01*
X331344Y290017D01*
X330000Y290194D01*
D02*
G37*
G36*
X475000D02*
X473656Y290017D01*
X472403Y289498D01*
X471807Y289041D01*
X475000Y285848D01*
X478193Y289041D01*
X477597Y289498D01*
X476344Y290017D01*
X475000Y290194D01*
D02*
G37*
G36*
X424041Y303193D02*
X420849Y300000D01*
X424041Y296807D01*
X424499Y297403D01*
X425017Y298656D01*
X425194Y300000D01*
X425017Y301344D01*
X424499Y302597D01*
X424041Y303193D01*
D02*
G37*
G36*
X369041D02*
X365848Y300000D01*
X369041Y296807D01*
X369498Y297403D01*
X370017Y298656D01*
X370194Y300000D01*
X370017Y301344D01*
X369498Y302597D01*
X369041Y303193D01*
D02*
G37*
G36*
X389041D02*
X385848Y300000D01*
X389041Y296807D01*
X389498Y297403D01*
X390017Y298656D01*
X390194Y300000D01*
X390017Y301344D01*
X389498Y302597D01*
X389041Y303193D01*
D02*
G37*
G36*
X415959D02*
X415501Y302597D01*
X414983Y301344D01*
X414806Y300000D01*
X414983Y298656D01*
X415501Y297403D01*
X415959Y296807D01*
X419151Y300000D01*
X415959Y303193D01*
D02*
G37*
G36*
X435959D02*
X435501Y302597D01*
X434982Y301344D01*
X434806Y300000D01*
X434982Y298656D01*
X435501Y297403D01*
X435959Y296807D01*
X439151Y300000D01*
X435959Y303193D01*
D02*
G37*
G36*
X310000Y304152D02*
X306807Y300959D01*
X307403Y300501D01*
X308656Y299983D01*
X310000Y299805D01*
X311344Y299983D01*
X312597Y300501D01*
X313193Y300959D01*
X310000Y304152D01*
D02*
G37*
G36*
X330000D02*
X326807Y300959D01*
X327403Y300501D01*
X328656Y299983D01*
X330000Y299805D01*
X331344Y299983D01*
X332597Y300501D01*
X333193Y300959D01*
X330000Y304152D01*
D02*
G37*
G36*
X549921Y302736D02*
X546729Y299543D01*
X547324Y299086D01*
X548577Y298567D01*
X549921Y298390D01*
X551266Y298567D01*
X552519Y299086D01*
X553114Y299543D01*
X549921Y302736D01*
D02*
G37*
G36*
X444041Y303193D02*
X440848Y300000D01*
X444041Y296807D01*
X444498Y297403D01*
X445017Y298656D01*
X445194Y300000D01*
X445017Y301344D01*
X444498Y302597D01*
X444041Y303193D01*
D02*
G37*
G36*
X529921Y302736D02*
X526728Y299543D01*
X527324Y299086D01*
X528577Y298567D01*
X529921Y298390D01*
X531266Y298567D01*
X532519Y299086D01*
X533114Y299543D01*
X529921Y302736D01*
D02*
G37*
G36*
X208774Y296691D02*
X207794Y296562D01*
X206881Y296184D01*
X206577Y295951D01*
X208774Y293755D01*
X210970Y295951D01*
X210666Y296184D01*
X209753Y296562D01*
X208774Y296691D01*
D02*
G37*
G36*
X365000Y299151D02*
X361807Y295959D01*
X362403Y295501D01*
X363656Y294983D01*
X365000Y294806D01*
X366344Y294983D01*
X367597Y295501D01*
X368193Y295959D01*
X365000Y299151D01*
D02*
G37*
G36*
X153782Y296668D02*
X152802Y296539D01*
X151889Y296161D01*
X151585Y295928D01*
X153782Y293731D01*
X155978Y295928D01*
X155674Y296161D01*
X154762Y296539D01*
X153782Y296668D01*
D02*
G37*
G36*
X211819Y295102D02*
X209622Y292906D01*
X211819Y290710D01*
X212052Y291013D01*
X212430Y291926D01*
X212559Y292906D01*
X212430Y293886D01*
X212052Y294798D01*
X211819Y295102D01*
D02*
G37*
G36*
X205729Y295102D02*
X205496Y294798D01*
X205118Y293886D01*
X204989Y292906D01*
X205118Y291926D01*
X205496Y291013D01*
X205729Y290710D01*
X207925Y292906D01*
X205729Y295102D01*
D02*
G37*
G36*
X360959Y303193D02*
X360502Y302597D01*
X359982Y301344D01*
X359805Y300000D01*
X359982Y298656D01*
X360502Y297403D01*
X360959Y296807D01*
X364152Y300000D01*
X360959Y303193D01*
D02*
G37*
G36*
X380959D02*
X380502Y302597D01*
X379982Y301344D01*
X379805Y300000D01*
X379982Y298656D01*
X380502Y297403D01*
X380959Y296807D01*
X384152Y300000D01*
X380959Y303193D01*
D02*
G37*
G36*
X440000Y299151D02*
X436807Y295959D01*
X437403Y295501D01*
X438656Y294983D01*
X440000Y294806D01*
X441344Y294983D01*
X442597Y295501D01*
X443193Y295959D01*
X440000Y299151D01*
D02*
G37*
G36*
X385000D02*
X381807Y295959D01*
X382403Y295501D01*
X383656Y294983D01*
X385000Y294806D01*
X386344Y294983D01*
X387597Y295501D01*
X388193Y295959D01*
X385000Y299151D01*
D02*
G37*
G36*
X420000D02*
X416807Y295959D01*
X417403Y295501D01*
X418656Y294983D01*
X420000Y294806D01*
X421344Y294983D01*
X422597Y295501D01*
X423193Y295959D01*
X420000Y299151D01*
D02*
G37*
G36*
X334041Y288193D02*
X330849Y285000D01*
X334041Y281807D01*
X334499Y282403D01*
X335017Y283656D01*
X335194Y285000D01*
X335017Y286344D01*
X334499Y287597D01*
X334041Y288193D01*
D02*
G37*
G36*
X529921Y267736D02*
X526728Y264543D01*
X527324Y264086D01*
X528577Y263567D01*
X529921Y263390D01*
X531266Y263567D01*
X532519Y264086D01*
X533114Y264543D01*
X529921Y267736D01*
D02*
G37*
G36*
X549921D02*
X546729Y264543D01*
X547324Y264086D01*
X548577Y263567D01*
X549921Y263390D01*
X551266Y263567D01*
X552519Y264086D01*
X553114Y264543D01*
X549921Y267736D01*
D02*
G37*
G36*
X96282Y268432D02*
X95306Y268238D01*
X94479Y267685D01*
X93927Y266858D01*
X93733Y265883D01*
X93927Y264907D01*
X94479Y264080D01*
X95306Y263528D01*
X96282Y263334D01*
X97257Y263528D01*
X98084Y264080D01*
X98637Y264907D01*
X98831Y265883D01*
X98637Y266858D01*
X98084Y267685D01*
X97257Y268238D01*
X96282Y268432D01*
D02*
G37*
G36*
X208082Y264832D02*
X207106Y264638D01*
X206279Y264085D01*
X205727Y263258D01*
X205533Y262283D01*
X205727Y261307D01*
X206279Y260480D01*
X207106Y259928D01*
X208082Y259734D01*
X209057Y259928D01*
X209884Y260480D01*
X210437Y261307D01*
X210631Y262283D01*
X210437Y263258D01*
X209884Y264085D01*
X209057Y264638D01*
X208082Y264832D01*
D02*
G37*
G36*
X223282Y264932D02*
X222306Y264738D01*
X221479Y264185D01*
X220927Y263358D01*
X220733Y262383D01*
X220927Y261407D01*
X221479Y260580D01*
X222306Y260028D01*
X223282Y259834D01*
X224257Y260028D01*
X225084Y260580D01*
X225637Y261407D01*
X225831Y262383D01*
X225637Y263358D01*
X225084Y264185D01*
X224257Y264738D01*
X223282Y264932D01*
D02*
G37*
G36*
X553963Y271778D02*
X550770Y268585D01*
X553963Y265392D01*
X554420Y265987D01*
X554939Y267240D01*
X555116Y268585D01*
X554939Y269929D01*
X554420Y271182D01*
X553963Y271778D01*
D02*
G37*
G36*
X533963D02*
X530770Y268585D01*
X533963Y265392D01*
X534420Y265987D01*
X534939Y267240D01*
X535116Y268585D01*
X534939Y269929D01*
X534420Y271182D01*
X533963Y271778D01*
D02*
G37*
G36*
X545880D02*
X545423Y271182D01*
X544904Y269929D01*
X544727Y268585D01*
X544904Y267240D01*
X545423Y265987D01*
X545880Y265392D01*
X549073Y268585D01*
X545880Y271778D01*
D02*
G37*
G36*
X58841Y269081D02*
X57866Y268887D01*
X57038Y268335D01*
X56486Y267508D01*
X56292Y266532D01*
X56486Y265557D01*
X57038Y264730D01*
X57866Y264177D01*
X58841Y263983D01*
X59816Y264177D01*
X60643Y264730D01*
X61196Y265557D01*
X61390Y266532D01*
X61196Y267508D01*
X60643Y268335D01*
X59816Y268887D01*
X58841Y269081D01*
D02*
G37*
G36*
X525880Y271778D02*
X525423Y271182D01*
X524904Y269929D01*
X524727Y268585D01*
X524904Y267240D01*
X525423Y265987D01*
X525880Y265392D01*
X529073Y268585D01*
X525880Y271778D01*
D02*
G37*
G36*
X153282Y259432D02*
X152306Y259238D01*
X151479Y258685D01*
X150927Y257858D01*
X150733Y256883D01*
X150927Y255907D01*
X151479Y255080D01*
X152306Y254528D01*
X153282Y254334D01*
X154257Y254528D01*
X155084Y255080D01*
X155637Y255907D01*
X155831Y256883D01*
X155637Y257858D01*
X155084Y258685D01*
X154257Y259238D01*
X153282Y259432D01*
D02*
G37*
G36*
X85782Y257534D02*
X83586Y255338D01*
X83889Y255105D01*
X84802Y254727D01*
X85782Y254597D01*
X86761Y254727D01*
X87674Y255105D01*
X87978Y255338D01*
X85782Y257534D01*
D02*
G37*
G36*
X291782Y256432D02*
X290806Y256238D01*
X289979Y255685D01*
X289427Y254858D01*
X289233Y253883D01*
X289427Y252907D01*
X289979Y252080D01*
X290806Y251528D01*
X291782Y251334D01*
X292757Y251528D01*
X293584Y252080D01*
X294137Y252907D01*
X294331Y253883D01*
X294137Y254858D01*
X293584Y255685D01*
X292757Y256238D01*
X291782Y256432D01*
D02*
G37*
G36*
X270782Y255932D02*
X269806Y255738D01*
X268979Y255185D01*
X268427Y254358D01*
X268233Y253383D01*
X268427Y252407D01*
X268979Y251580D01*
X269806Y251028D01*
X270782Y250834D01*
X271757Y251028D01*
X272584Y251580D01*
X273137Y252407D01*
X273331Y253383D01*
X273137Y254358D01*
X272584Y255185D01*
X271757Y255738D01*
X270782Y255932D01*
D02*
G37*
G36*
X148319Y255969D02*
X147343Y255775D01*
X146517Y255222D01*
X145964Y254395D01*
X145770Y253420D01*
X145964Y252444D01*
X146517Y251617D01*
X147343Y251065D01*
X148319Y250871D01*
X149294Y251065D01*
X150121Y251617D01*
X150674Y252444D01*
X150868Y253420D01*
X150674Y254395D01*
X150121Y255222D01*
X149294Y255775D01*
X148319Y255969D01*
D02*
G37*
G36*
X88827Y260579D02*
X86630Y258383D01*
X88827Y256186D01*
X89060Y256490D01*
X89438Y257403D01*
X89567Y258383D01*
X89438Y259362D01*
X89060Y260275D01*
X88827Y260579D01*
D02*
G37*
G36*
X85782Y262168D02*
X84802Y262039D01*
X83889Y261661D01*
X83586Y261428D01*
X85782Y259231D01*
X87978Y261428D01*
X87674Y261661D01*
X86761Y262039D01*
X85782Y262168D01*
D02*
G37*
G36*
X82737Y260579D02*
X82504Y260275D01*
X82126Y259362D01*
X81997Y258383D01*
X82126Y257403D01*
X82504Y256490D01*
X82737Y256186D01*
X84933Y258383D01*
X82737Y260579D01*
D02*
G37*
G36*
X108735Y261877D02*
X102829D01*
X102446Y261718D01*
X102288Y261335D01*
Y255430D01*
X102446Y255047D01*
X102829Y254889D01*
X108735D01*
X109117Y255047D01*
X109276Y255430D01*
Y261335D01*
X109117Y261718D01*
X108735Y261877D01*
D02*
G37*
G36*
X95782Y261865D02*
X94880Y261747D01*
X94041Y261399D01*
X93319Y260845D01*
X92766Y260124D01*
X92418Y259284D01*
X92299Y258383D01*
X92418Y257481D01*
X92766Y256641D01*
X93319Y255920D01*
X94041Y255367D01*
X94880Y255019D01*
X95782Y254900D01*
X96683Y255019D01*
X97523Y255367D01*
X98244Y255920D01*
X98798Y256641D01*
X99146Y257481D01*
X99264Y258383D01*
X99146Y259284D01*
X98798Y260124D01*
X98244Y260845D01*
X97523Y261399D01*
X96683Y261747D01*
X95782Y261865D01*
D02*
G37*
G36*
X495000Y284152D02*
X491807Y280959D01*
X492403Y280502D01*
X493656Y279982D01*
X495000Y279805D01*
X496344Y279982D01*
X497597Y280502D01*
X498193Y280959D01*
X495000Y284152D01*
D02*
G37*
G36*
X96382Y283912D02*
X95797Y283796D01*
X95300Y283464D01*
X94969Y282968D01*
X94853Y282383D01*
X94969Y281797D01*
X95300Y281301D01*
X95797Y280970D01*
X96382Y280853D01*
X96967Y280970D01*
X97463Y281301D01*
X97795Y281797D01*
X97911Y282383D01*
X97795Y282968D01*
X97463Y283464D01*
X96967Y283796D01*
X96382Y283912D01*
D02*
G37*
G36*
X475000Y284152D02*
X471807Y280959D01*
X472403Y280502D01*
X473656Y279982D01*
X475000Y279805D01*
X476344Y279982D01*
X477597Y280502D01*
X478193Y280959D01*
X475000Y284152D01*
D02*
G37*
G36*
X310000D02*
X306807Y280959D01*
X307403Y280502D01*
X308656Y279982D01*
X310000Y279805D01*
X311344Y279982D01*
X312597Y280502D01*
X313193Y280959D01*
X310000Y284152D01*
D02*
G37*
G36*
X330000D02*
X326807Y280959D01*
X327403Y280502D01*
X328656Y279982D01*
X330000Y279805D01*
X331344Y279982D01*
X332597Y280502D01*
X333193Y280959D01*
X330000Y284152D01*
D02*
G37*
G36*
X490959Y288193D02*
X490501Y287597D01*
X489983Y286344D01*
X489806Y285000D01*
X489983Y283656D01*
X490501Y282403D01*
X490959Y281807D01*
X494151Y285000D01*
X490959Y288193D01*
D02*
G37*
G36*
X314041D02*
X310848Y285000D01*
X314041Y281807D01*
X314498Y282403D01*
X315017Y283656D01*
X315194Y285000D01*
X315017Y286344D01*
X314498Y287597D01*
X314041Y288193D01*
D02*
G37*
G36*
X470959D02*
X470502Y287597D01*
X469982Y286344D01*
X469806Y285000D01*
X469982Y283656D01*
X470502Y282403D01*
X470959Y281807D01*
X474152Y285000D01*
X470959Y288193D01*
D02*
G37*
G36*
X305959D02*
X305502Y287597D01*
X304982Y286344D01*
X304805Y285000D01*
X304982Y283656D01*
X305502Y282403D01*
X305959Y281807D01*
X309152Y285000D01*
X305959Y288193D01*
D02*
G37*
G36*
X325959D02*
X325501Y287597D01*
X324983Y286344D01*
X324805Y285000D01*
X324983Y283656D01*
X325501Y282403D01*
X325959Y281807D01*
X329152Y285000D01*
X325959Y288193D01*
D02*
G37*
G36*
X549921Y273779D02*
X548577Y273602D01*
X547324Y273083D01*
X546729Y272626D01*
X549921Y269433D01*
X553114Y272626D01*
X552519Y273083D01*
X551266Y273602D01*
X549921Y273779D01*
D02*
G37*
G36*
X257000Y273151D02*
X254804Y270955D01*
X255107Y270722D01*
X256020Y270344D01*
X257000Y270215D01*
X257980Y270344D01*
X258893Y270722D01*
X259196Y270955D01*
X257000Y273151D01*
D02*
G37*
G36*
X529921Y273779D02*
X528577Y273602D01*
X527324Y273083D01*
X526728Y272626D01*
X529921Y269433D01*
X533114Y272626D01*
X532519Y273083D01*
X531266Y273602D01*
X529921Y273779D01*
D02*
G37*
G36*
X36982Y271581D02*
X36006Y271387D01*
X35179Y270835D01*
X34627Y270008D01*
X34433Y269032D01*
X34627Y268057D01*
X35179Y267230D01*
X36006Y266677D01*
X36982Y266483D01*
X37957Y266677D01*
X38784Y267230D01*
X39337Y268057D01*
X39531Y269032D01*
X39337Y270008D01*
X38784Y270835D01*
X37957Y271387D01*
X36982Y271581D01*
D02*
G37*
G36*
X241782Y272932D02*
X240806Y272738D01*
X239979Y272185D01*
X239427Y271358D01*
X239233Y270383D01*
X239427Y269407D01*
X239979Y268580D01*
X240806Y268028D01*
X241782Y267834D01*
X242757Y268028D01*
X243584Y268580D01*
X244137Y269407D01*
X244331Y270383D01*
X244137Y271358D01*
X243584Y272185D01*
X242757Y272738D01*
X241782Y272932D01*
D02*
G37*
G36*
X253955Y276196D02*
X253722Y275893D01*
X253344Y274980D01*
X253215Y274000D01*
X253344Y273020D01*
X253722Y272107D01*
X253955Y271804D01*
X256151Y274000D01*
X253955Y276196D01*
D02*
G37*
G36*
X257000Y277785D02*
X256020Y277656D01*
X255107Y277278D01*
X254803Y277045D01*
X257000Y274849D01*
X259196Y277045D01*
X258893Y277278D01*
X257980Y277656D01*
X257000Y277785D01*
D02*
G37*
G36*
X260045Y276196D02*
X257849Y274000D01*
X260045Y271803D01*
X260278Y272107D01*
X260656Y273020D01*
X260785Y274000D01*
X260656Y274980D01*
X260278Y275893D01*
X260045Y276196D01*
D02*
G37*
G36*
X279953Y277494D02*
X274047D01*
X273665Y277335D01*
X273506Y276953D01*
Y271047D01*
X273665Y270665D01*
X274047Y270506D01*
X279953D01*
X280335Y270665D01*
X280494Y271047D01*
Y276953D01*
X280335Y277335D01*
X279953Y277494D01*
D02*
G37*
G36*
X267000Y277483D02*
X266099Y277364D01*
X265259Y277016D01*
X264538Y276463D01*
X263984Y275741D01*
X263636Y274901D01*
X263517Y274000D01*
X263636Y273099D01*
X263984Y272259D01*
X264538Y271537D01*
X265259Y270984D01*
X266099Y270636D01*
X267000Y270517D01*
X267901Y270636D01*
X268741Y270984D01*
X269462Y271537D01*
X270016Y272259D01*
X270364Y273099D01*
X270482Y274000D01*
X270364Y274901D01*
X270016Y275741D01*
X269462Y276463D01*
X268741Y277016D01*
X267901Y277364D01*
X267000Y277483D01*
D02*
G37*
%LPD*%
D88*
X289490Y18691D02*
D03*
X269490D02*
D03*
X289490Y38691D02*
D03*
X269490D02*
D03*
X263440Y143091D02*
D03*
X243440D02*
D03*
X263440Y163091D02*
D03*
X243440D02*
D03*
X310000Y160000D02*
D03*
Y180000D02*
D03*
X330000Y160000D02*
D03*
Y180000D02*
D03*
X310000Y105000D02*
D03*
Y125000D02*
D03*
X330000Y105000D02*
D03*
Y125000D02*
D03*
X310000Y285000D02*
D03*
Y305000D02*
D03*
X330000Y285000D02*
D03*
Y305000D02*
D03*
X310000Y340000D02*
D03*
Y360000D02*
D03*
X330000Y340000D02*
D03*
Y360000D02*
D03*
X365000Y300000D02*
D03*
Y320000D02*
D03*
X385000Y300000D02*
D03*
Y320000D02*
D03*
X420000Y300000D02*
D03*
Y320000D02*
D03*
X440000Y300000D02*
D03*
Y320000D02*
D03*
X475000Y285000D02*
D03*
Y305000D02*
D03*
X495000Y285000D02*
D03*
Y305000D02*
D03*
X475000Y340000D02*
D03*
Y360000D02*
D03*
X495000Y340000D02*
D03*
Y360000D02*
D03*
X529921Y303585D02*
D03*
Y323585D02*
D03*
X549921Y303585D02*
D03*
Y323585D02*
D03*
X529921Y248585D02*
D03*
Y268585D02*
D03*
X549921Y248585D02*
D03*
Y268585D02*
D03*
X529921Y193585D02*
D03*
Y213585D02*
D03*
X549921Y193585D02*
D03*
Y213585D02*
D03*
X529921Y138585D02*
D03*
Y158585D02*
D03*
X549921Y138585D02*
D03*
Y158585D02*
D03*
X475000Y160000D02*
D03*
Y180000D02*
D03*
X495000Y160000D02*
D03*
Y180000D02*
D03*
X475000Y105000D02*
D03*
Y125000D02*
D03*
X495000Y105000D02*
D03*
Y125000D02*
D03*
X182591Y142560D02*
D03*
Y162560D02*
D03*
X202591Y142560D02*
D03*
Y162560D02*
D03*
X106691Y28010D02*
D03*
Y48010D02*
D03*
X126691Y28010D02*
D03*
Y48010D02*
D03*
X40992Y134492D02*
D03*
X60992D02*
D03*
X40992Y114492D02*
D03*
X60992D02*
D03*
X40992Y78492D02*
D03*
X60992D02*
D03*
X40992Y58492D02*
D03*
X60992D02*
D03*
X111492Y158992D02*
D03*
X131492D02*
D03*
X111492Y138992D02*
D03*
X131492D02*
D03*
D89*
X386000Y130000D02*
D03*
X406000D02*
D03*
Y110000D02*
D03*
X386000D02*
D03*
X442697Y17200D02*
D03*
Y37200D02*
D03*
X462697D02*
D03*
Y17200D02*
D03*
X402700D02*
D03*
Y37200D02*
D03*
X422700D02*
D03*
Y17200D02*
D03*
D90*
X361500Y188000D02*
D03*
X384500Y200000D02*
D03*
X405500Y150000D02*
D03*
X192641Y356082D02*
D03*
X124394Y344735D02*
D03*
X92394D02*
D03*
X164941Y353382D02*
D03*
X187998Y318382D02*
D03*
X226998Y317882D02*
D03*
X210526Y354467D02*
D03*
X156782Y272383D02*
D03*
X69282Y224383D02*
D03*
X121631Y214124D02*
D03*
X116282Y243883D02*
D03*
X107231Y221924D02*
D03*
X106481Y243874D02*
D03*
X318282Y234783D02*
D03*
X265282Y244383D02*
D03*
X141582Y243783D02*
D03*
X257582Y223283D02*
D03*
X275482Y223383D02*
D03*
X229481Y242874D02*
D03*
X230231Y220924D02*
D03*
X239694Y242061D02*
D03*
X244631Y213124D02*
D03*
X158595Y261697D02*
D03*
X254782Y259383D02*
D03*
X193482Y237683D02*
D03*
X152982Y224383D02*
D03*
X135082Y224283D02*
D03*
X187282Y262283D02*
D03*
X207482Y276883D02*
D03*
X181282Y246683D02*
D03*
X234282Y272883D02*
D03*
X212282Y247383D02*
D03*
X355000Y113000D02*
D03*
X47282Y246183D02*
D03*
X53282Y261783D02*
D03*
X18982Y223883D02*
D03*
X59482Y237183D02*
D03*
X389665Y229130D02*
D03*
X397000Y213000D02*
D03*
X383984Y214122D02*
D03*
D91*
X271000Y362882D02*
D03*
Y352882D02*
D03*
Y342882D02*
D03*
Y332882D02*
D03*
Y322882D02*
D03*
X123500Y366000D02*
D03*
Y376000D02*
D03*
X518000Y62000D02*
D03*
X36841Y288532D02*
D03*
X79500Y173000D02*
D03*
Y163000D02*
D03*
X208774Y292906D02*
D03*
X153782Y292883D02*
D03*
X85782Y258383D02*
D03*
X257000Y274000D02*
D03*
X500000Y21000D02*
D03*
X490000D02*
D03*
X406005Y62267D02*
D03*
D92*
X271000Y312882D02*
D03*
X79500Y153000D02*
D03*
D93*
X510000Y21000D02*
D03*
D95*
X93561Y234154D02*
D03*
Y225493D02*
D03*
X89231D02*
D03*
X84900D02*
D03*
X93561Y229824D02*
D03*
X84900Y234154D02*
D03*
X89231D02*
D03*
Y229824D02*
D03*
X84900D02*
D03*
X42831Y232862D02*
D03*
Y228532D02*
D03*
Y224201D02*
D03*
X38500Y232862D02*
D03*
Y228532D02*
D03*
Y224201D02*
D03*
X34169Y232862D02*
D03*
Y228532D02*
D03*
Y224201D02*
D03*
X176831Y233362D02*
D03*
Y229031D02*
D03*
Y224701D02*
D03*
X172500Y233362D02*
D03*
Y229031D02*
D03*
Y224701D02*
D03*
X168169Y233362D02*
D03*
Y229031D02*
D03*
Y224701D02*
D03*
X216561Y233154D02*
D03*
Y224493D02*
D03*
X212231D02*
D03*
X207900D02*
D03*
X216561Y228824D02*
D03*
X207900Y233154D02*
D03*
X212231D02*
D03*
Y228824D02*
D03*
X207900D02*
D03*
X299331Y232362D02*
D03*
Y228031D02*
D03*
Y223701D02*
D03*
X295000Y232362D02*
D03*
Y228031D02*
D03*
Y223701D02*
D03*
X290669Y232362D02*
D03*
Y228031D02*
D03*
Y223701D02*
D03*
D96*
X433505Y70419D02*
D03*
Y74750D02*
D03*
D97*
X405070Y243346D02*
D03*
X412150Y228025D02*
D03*
X401503Y223322D02*
D03*
X401501Y242269D02*
D03*
X397585Y221840D02*
D03*
X411685Y241659D02*
D03*
X392935Y241868D02*
D03*
X412000Y223500D02*
D03*
X392893Y222844D02*
D03*
X424984Y251122D02*
D03*
X415484Y203122D02*
D03*
X422212Y223316D02*
D03*
X419000Y231500D02*
D03*
X436500Y220500D02*
D03*
X449500Y231500D02*
D03*
X456500D02*
D03*
X464500D02*
D03*
X427000D02*
D03*
X442000D02*
D03*
X435000D02*
D03*
X409100Y213500D02*
D03*
X403500Y222000D02*
D03*
D98*
X407850Y222950D02*
D03*
X407900Y242100D02*
D03*
X407850Y222950D02*
D03*
X401850Y236100D02*
D03*
X405850Y240100D02*
D03*
X407900Y242100D02*
D03*
X397800Y232100D02*
D03*
X399150Y233450D02*
D03*
Y230750D02*
D03*
X397800Y229400D02*
D03*
X395150Y226750D02*
D03*
X396500Y228050D02*
D03*
Y225400D02*
D03*
X399150D02*
D03*
X397800Y226750D02*
D03*
X399150Y228050D02*
D03*
Y238800D02*
D03*
X396500D02*
D03*
X395150Y237450D02*
D03*
X397800D02*
D03*
X396500Y236100D02*
D03*
X397800Y234750D02*
D03*
X400500D02*
D03*
X403150Y226750D02*
D03*
X404500Y225400D02*
D03*
X407200D02*
D03*
X405850Y226750D02*
D03*
X400500Y229400D02*
D03*
X401850Y230750D02*
D03*
X403150Y229400D02*
D03*
X404500Y230750D02*
D03*
X407200D02*
D03*
X404500Y228050D02*
D03*
X405850Y229400D02*
D03*
X407200Y228050D02*
D03*
X409850D02*
D03*
X408550Y226750D02*
D03*
X409850Y225400D02*
D03*
Y230050D02*
D03*
X400500Y232100D02*
D03*
X401850Y233450D02*
D03*
X403150Y232100D02*
D03*
X405850D02*
D03*
X409850D02*
D03*
X403150Y234750D02*
D03*
X399150Y236100D02*
D03*
X400500Y240100D02*
D03*
X403150Y237450D02*
D03*
X404500Y236100D02*
D03*
X403150Y240100D02*
D03*
X407200Y233450D02*
D03*
X404500D02*
D03*
X405850Y234750D02*
D03*
X407200Y236100D02*
D03*
X405850Y237450D02*
D03*
X408550D02*
D03*
X404500Y238800D02*
D03*
X407200D02*
D03*
X408550Y240100D02*
D03*
X409850Y238800D02*
D03*
X395150Y240100D02*
D03*
D03*
Y237450D02*
D03*
X397800Y240100D02*
D03*
D03*
X400500D02*
D03*
X403150D02*
D03*
X405850D02*
D03*
X408550D02*
D03*
X396500Y238800D02*
D03*
X399150D02*
D03*
X404500D02*
D03*
X407200D02*
D03*
X409850D02*
D03*
X397800Y237450D02*
D03*
X403150D02*
D03*
X405850D02*
D03*
X408550D02*
D03*
X396500Y236100D02*
D03*
X399150D02*
D03*
X401850D02*
D03*
X404500D02*
D03*
X407200D02*
D03*
X397800Y234750D02*
D03*
X400500D02*
D03*
X403150D02*
D03*
X405850D02*
D03*
X399150Y233450D02*
D03*
X401850D02*
D03*
X404500D02*
D03*
X407200D02*
D03*
X397800Y232100D02*
D03*
X400500D02*
D03*
X403150D02*
D03*
X405850D02*
D03*
X409850D02*
D03*
X399150Y230750D02*
D03*
X401850D02*
D03*
X404500D02*
D03*
X407200D02*
D03*
X397800Y229400D02*
D03*
X400500D02*
D03*
X403150D02*
D03*
X405850D02*
D03*
X409850Y230050D02*
D03*
X396500Y228050D02*
D03*
X399150D02*
D03*
X404500D02*
D03*
X407200D02*
D03*
X409850D02*
D03*
X395150Y226750D02*
D03*
X397800D02*
D03*
X403150D02*
D03*
X405850D02*
D03*
X408550D02*
D03*
X396500Y225400D02*
D03*
X399150D02*
D03*
X404500D02*
D03*
X407200D02*
D03*
X409850D02*
D03*
D99*
X220625Y142131D02*
D03*
X260890Y106716D02*
D03*
X273815Y65163D02*
D03*
X237783Y113673D02*
D03*
X255940Y111666D02*
D03*
X227883Y123573D02*
D03*
X285234Y67441D02*
D03*
Y53441D02*
D03*
X267481Y83975D02*
D03*
X285234Y74441D02*
D03*
X280689Y86917D02*
D03*
X222934Y128523D02*
D03*
X232776Y158396D02*
D03*
X257582Y93874D02*
D03*
X242733Y108723D02*
D03*
X220625Y135131D02*
D03*
X233748Y143930D02*
D03*
X272431Y79025D02*
D03*
X232833Y118623D02*
D03*
X227484Y153815D02*
D03*
X273815Y51163D02*
D03*
X241091Y126515D02*
D03*
X236141Y131465D02*
D03*
X232044Y137141D02*
D03*
X222534Y148865D02*
D03*
X246041Y121565D02*
D03*
X252632Y98824D02*
D03*
X270789Y96816D02*
D03*
X275739Y91867D02*
D03*
X285234Y60441D02*
D03*
X273815Y72163D02*
D03*
X285046Y81438D02*
D03*
X250990Y116615D02*
D03*
X247682Y103774D02*
D03*
X262531Y88924D02*
D03*
X273815Y58163D02*
D03*
X181204Y132642D02*
D03*
X174362Y131164D02*
D03*
X167529Y129643D02*
D03*
X162556Y124716D02*
D03*
X159592Y118375D02*
D03*
Y111375D02*
D03*
Y104375D02*
D03*
Y97375D02*
D03*
Y90375D02*
D03*
X156878Y83922D02*
D03*
X151928Y78973D02*
D03*
X146241Y74892D02*
D03*
X139241D02*
D03*
X132382Y73496D02*
D03*
X127398Y68580D02*
D03*
X122449Y63630D02*
D03*
X117499Y58680D02*
D03*
X133633Y58665D02*
D03*
X138721Y63472D02*
D03*
X145721D02*
D03*
X152694Y64083D02*
D03*
X157885Y68779D02*
D03*
X162835Y73729D02*
D03*
X167785Y78679D02*
D03*
X171012Y84891D02*
D03*
Y91891D02*
D03*
Y98891D02*
D03*
Y105891D02*
D03*
Y112891D02*
D03*
X173444Y119454D02*
D03*
X180438Y119745D02*
D03*
X186971Y122260D02*
D03*
X191921Y127209D02*
D03*
X196838Y132191D02*
D03*
X374451Y205852D02*
D03*
X367468Y205377D02*
D03*
X360474Y205066D02*
D03*
X350125Y195662D02*
D03*
X341049Y185058D02*
D03*
X340943Y171059D02*
D03*
Y164059D02*
D03*
Y157059D02*
D03*
X339741Y150163D02*
D03*
X332790Y149332D02*
D03*
X318765Y147208D02*
D03*
X320366Y140394D02*
D03*
X315501Y135361D02*
D03*
X329865Y133742D02*
D03*
X336114Y136896D02*
D03*
X343107Y137208D02*
D03*
X348507Y141663D02*
D03*
X352908Y147106D02*
D03*
X353152Y154102D02*
D03*
Y161102D02*
D03*
Y168102D02*
D03*
Y175102D02*
D03*
X353799Y182072D02*
D03*
X370596Y193168D02*
D03*
X377595Y193270D02*
D03*
X393154Y207289D02*
D03*
X318395Y326877D02*
D03*
X321146Y320440D02*
D03*
X316197Y315491D02*
D03*
X336459Y316179D02*
D03*
X340960Y310818D02*
D03*
Y303818D02*
D03*
Y296818D02*
D03*
Y289818D02*
D03*
Y282818D02*
D03*
X343476Y276286D02*
D03*
X353376Y266387D02*
D03*
X358344Y261455D02*
D03*
X365171Y259906D02*
D03*
X372171D02*
D03*
X388694Y262471D02*
D03*
X383745Y267421D02*
D03*
X378319Y271844D02*
D03*
X371324Y272115D02*
D03*
X364347Y272681D02*
D03*
X359398Y277630D02*
D03*
X354448Y282580D02*
D03*
X353169Y289462D02*
D03*
Y296462D02*
D03*
Y303462D02*
D03*
Y310462D02*
D03*
X353087Y317462D02*
D03*
X343793Y327823D02*
D03*
X336816Y328388D02*
D03*
X330351Y331072D02*
D03*
X407289Y312469D02*
D03*
X401248Y308932D02*
D03*
X396298Y313882D02*
D03*
X396396Y295144D02*
D03*
Y288144D02*
D03*
Y281144D02*
D03*
Y274144D02*
D03*
Y267144D02*
D03*
X408604Y265551D02*
D03*
Y272551D02*
D03*
Y279551D02*
D03*
Y286551D02*
D03*
Y293551D02*
D03*
X411071Y300102D02*
D03*
X424382Y195043D02*
D03*
X438127Y193168D02*
D03*
X449028Y184534D02*
D03*
X452139Y178263D02*
D03*
Y171263D02*
D03*
Y164263D02*
D03*
Y157263D02*
D03*
Y150263D02*
D03*
X454699Y143748D02*
D03*
X459648Y138798D02*
D03*
X466385Y136896D02*
D03*
X473308Y135860D02*
D03*
X487198Y138120D02*
D03*
X483146Y143828D02*
D03*
X488096Y148778D02*
D03*
X469748Y149104D02*
D03*
X464347Y153558D02*
D03*
Y160558D02*
D03*
Y167558D02*
D03*
Y174558D02*
D03*
Y181558D02*
D03*
X462514Y188314D02*
D03*
X457565Y193263D02*
D03*
X452615Y198213D02*
D03*
X447665Y203163D02*
D03*
X441025Y205377D02*
D03*
X468946Y328604D02*
D03*
X461955Y328262D02*
D03*
X456583Y323774D02*
D03*
X452209Y318308D02*
D03*
X452001Y311312D02*
D03*
Y304312D02*
D03*
Y297312D02*
D03*
Y290312D02*
D03*
X451274Y283349D02*
D03*
X446325Y278400D02*
D03*
X441375Y273450D02*
D03*
X434465Y272332D02*
D03*
X427466Y272205D02*
D03*
X421835Y268047D02*
D03*
X416885Y263098D02*
D03*
X411935Y258148D02*
D03*
X431208Y260123D02*
D03*
X438208D02*
D03*
X445192Y260596D02*
D03*
X450430Y265239D02*
D03*
X455380Y270189D02*
D03*
X460330Y275139D02*
D03*
X464162Y280996D02*
D03*
X464210Y287996D02*
D03*
Y294996D02*
D03*
Y301996D02*
D03*
Y308996D02*
D03*
X465871Y315796D02*
D03*
X472870Y315661D02*
D03*
X486639Y318041D02*
D03*
X484330Y324649D02*
D03*
X489248Y329631D02*
D03*
X449205Y63700D02*
D03*
X545266Y293071D02*
D03*
X540744Y287727D02*
D03*
X543771Y281415D02*
D03*
X527938Y279980D02*
D03*
X521065Y278654D02*
D03*
X516115Y273704D02*
D03*
X511166Y268754D02*
D03*
X506216Y263804D02*
D03*
X501266Y258855D02*
D03*
X496316Y253905D02*
D03*
X491367Y248955D02*
D03*
X486417Y244005D02*
D03*
X481467Y239055D02*
D03*
X476517Y234106D02*
D03*
X429621Y241702D02*
D03*
X436621D02*
D03*
X443621D02*
D03*
X450621D02*
D03*
X457621D02*
D03*
X464621D02*
D03*
X470557Y245411D02*
D03*
X475507Y250361D02*
D03*
X480457Y255311D02*
D03*
X485407Y260261D02*
D03*
X490356Y265210D02*
D03*
X495306Y270160D02*
D03*
X500256Y275110D02*
D03*
X505206Y280060D02*
D03*
X510155Y285009D02*
D03*
X515105Y289959D02*
D03*
X521740Y292189D02*
D03*
X528741D02*
D03*
X480127Y224454D02*
D03*
X485077Y219504D02*
D03*
X490027Y214554D02*
D03*
X494977Y209605D02*
D03*
X499926Y204655D02*
D03*
X504876Y199705D02*
D03*
X509826Y194755D02*
D03*
X514776Y189805D02*
D03*
X519725Y184856D02*
D03*
X526197Y182189D02*
D03*
X544636Y181824D02*
D03*
X539790Y176772D02*
D03*
X543997Y171178D02*
D03*
X527438Y169980D02*
D03*
X520438D02*
D03*
X514186Y173129D02*
D03*
X509236Y178079D02*
D03*
X504287Y183029D02*
D03*
X499337Y187978D02*
D03*
X494387Y192928D02*
D03*
X489437Y197878D02*
D03*
X484488Y202828D02*
D03*
X479538Y207777D02*
D03*
X474588Y212727D02*
D03*
X469638Y217677D02*
D03*
X463369Y220790D02*
D03*
X456369D02*
D03*
X449369D02*
D03*
X442369D02*
D03*
M02*
