M48
;Layer_Color=9474304
;FILE_FORMAT=2:5
INCH,LZ
;TYPE=PLATED
T2F00S00C0.00700
T3F00S00C0.00787
T4F00S00C0.01000
T5F00S00C0.02000
T6F00S00C0.02800
T7F00S00C0.03543
T8F00S00C0.06200
T9F00S00C0.06700
T10F00S00C0.15000
%
T02
X0431084Y0092942
X0437121Y0092942
X04365Y02205
X0435Y02315
X0442
X04495
X04565
X04645
X0427
X0419
X041215Y0228025
X0412Y02235
X04035Y0222
X0401503Y0223322
X0397585Y022184
X0392893Y0222844
X0392935Y0241868
X0401501Y0242269
X0402662Y0244453
X040507Y0243346
X0411685Y0241659
X0413783Y0242625
X0415913Y0241481
X0418245Y0242751
X0418201Y0245393
X0424984Y0251122
X0422212Y0223316
X04091Y02135
X0415484Y0203122
T03
X0433505Y0070419
Y007475
T04
X0034169Y0224201
X00385
Y0228532
X0034169
Y0232862
X00385
X0042831
Y0228532
Y0224201
X00849Y0225493
X0089231
Y0229824
X00849
Y0234154
X0089231
X0093561
Y0229824
Y0225493
X0096382Y0282383
X0168169Y0233362
X01725
X0176831
Y0229031
Y0224701
X01725
Y0229031
X0168169
Y0224701
X02079Y0224493
X0212231
Y0228824
X02079
Y0233154
X0212231
X0216561
Y0228824
Y0224493
X0290669Y0223701
X0295
Y0228031
X0290669
Y0232362
X0295
X0299331
Y0228031
Y0223701
X0134433Y0308374
X0130441Y0308882
X0107533Y0308874
T05
X04995Y0081
X04728Y0081305
X0467005Y00877
X0462206Y00923
X0457705Y00876
X0454Y00772
X04437
X0443905Y0064184
X0425211Y0062106
X0423811Y0079706
X04285Y0106
X0439Y01055
X0355Y0113
X0150382Y0198583
X01385Y01885
X0117Y0186
X0121631Y0214124
X0106831Y0216724
X0107231Y0221924
X0104331Y0230624
X0106481Y0243874
X0116282Y0243883
X0116782Y0249883
X0121782Y0253383
X0141782Y0249883
X0141582Y0243783
X0151782Y0243383
X0158782Y0239383
X0155282Y0233883
X0152982Y0224383
X0159282Y0214083
X0140082Y0212883
X0135082Y0224283
X0133282Y0240283
X0148319Y025342
X0153282Y0256883
X0158595Y0261697
X0156782Y0272383
X0096282Y0265883
X0095782Y0243883
X0064782Y0245383
X0059482Y0237183
X0053282
X0052882Y0229583
X0053282Y0219183
X0047482Y0212583
X0025282Y0213583
X0018982Y0223883
X0021282Y0233383
X0024782Y0238883
X0043482Y0243183
X0047282Y0246183
X0053282Y0261783
X0058841Y0266532
X0036982Y0269032
X0069282Y0224383
X0081492Y0188992
X0058Y01815
X00235Y0189
X0181482Y0213083
X0187282Y0219683
X0186882Y0230083
X0187282Y0237683
X0193482
X0197231Y0232274
X0198782Y0245883
X0212282Y0247383
X0216782Y0244883
X0229481Y0242874
X0239694Y0242061
X0239782Y0249883
X0244782Y0253383
X0254782Y0259383
X0264782Y0249883
X0265282Y0244383
X0270782Y0253383
X0291782Y0253883
X0279782Y0238383
X0275482Y0223383
X0281782Y0213083
X0262582Y0211883
X02545Y0204
X0247Y0196
X0244631Y0213124
X0229831Y0215724
X0230231Y0220924
X0227331Y0229624
X0257582Y0223283
X0255782Y0239283
X0241782Y0270383
X0234282Y0272883
X0223282Y0262383
X0208082Y0262283
X0207482Y0276883
X0187282Y0262283
X0181282Y0246683
X0177482Y0243683
X02095Y0189
X0259992Y0188492
X02905Y01975
X0303982Y0212083
X0309782Y0218683
X0309382Y0229083
X0318282Y0234783
X0386287Y0239097
X0389665Y022913
X0389484Y0224122
X0383984Y0214122
X0397Y0213
X0415057Y0219622
X04225Y02425
X0436484Y0208122
X03845Y02
X03615Y0188
X04155Y0165
X04055Y015
X02495Y0313
X02445Y03215
X02405Y03295
X02365Y03345
X0226998Y0317882
X0213441Y0315382
X0187998Y0318382
X0177441Y0314382
X018361Y0357103
X0192641Y0356082
X0210526Y0354467
X0224941Y0352382
X02535Y0363307
X0164941Y0353382
X0150133Y0353118
X0142794Y0344735
X0124394
X0117733Y0343074
X0111133Y0332074
X0121133Y0316074
X0085933Y0316274
Y0347874
X0092394Y0344735
X0148433Y0327374
T06
X0473308Y013586
X0487198Y013812
X0483146Y0143828
X0466385Y0136896
X0459648Y0138798
X0454699Y0143748
X0449205Y00637
X0348507Y0141663
X0352908Y0147106
X0343107Y0137208
X0336114Y0136896
X0329865Y0133742
X0320366Y0140394
X0318765Y0147208
X0315501Y0135361
X026089Y0106716
X025594Y0111666
X025099Y0116615
X0246041Y0121565
X0241091Y0126515
X0236141Y0131465
X0232044Y0137141
X0233748Y014393
X0220625Y0142131
Y0135131
X0222934Y0128523
X0227883Y0123573
X0232833Y0118623
X0237783Y0113673
X0242733Y0108723
X0247682Y0103774
X0252632Y0098824
X0257582Y0093874
X0262531Y0088924
X0267481Y0083975
X0272431Y0079025
X0273815Y0072163
Y0065163
Y0058163
Y0051163
X0285234Y0053441
Y0060441
Y0067441
Y0074441
X0285046Y0081438
X0280689Y0086917
X0275739Y0091867
X0270789Y0096816
X0171012Y0098891
Y0091891
Y0084891
X0167785Y0078679
X0162835Y0073729
X0171012Y0105891
Y0112891
X0173444Y0119454
X0180438Y0119745
X0186971Y012226
X0191921Y0127209
X0196838Y0132191
X0181204Y0132642
X0174362Y0131164
X0167529Y0129643
X0162556Y0124716
X0159592Y0118375
Y0111375
Y0104375
Y0097375
Y0090375
X0156878Y0083922
X0151928Y0078973
X0146241Y0074892
X0139241
X0132382Y0073496
X0127398Y006858
X0122449Y006363
X0117499Y005868
X0133633Y0058665
X0138721Y0063472
X0145721
X0152694Y0064083
X0157885Y0068779
X0222534Y0148865
X0227484Y0153815
X0232776Y0158396
X033279Y0149332
X0339741Y0150163
X0340943Y0157059
Y0164059
Y0171059
X0341049Y0185058
X0353799Y0182072
X0353152Y0175102
Y0168102
Y0161102
Y0154102
X0350125Y0195662
X0360474Y0205066
X0367468Y0205377
X0374451Y0205852
X0377595Y019327
X0370596Y0193168
X0393154Y0207289
X0424382Y0195043
X0438127Y0193168
X0441025Y0205377
X0447665Y0203163
X0452615Y0198213
X0457565Y0193263
X0462514Y0188314
X0464347Y0181558
Y0174558
Y0167558
Y0160558
Y0153558
X0469748Y0149104
X0452139Y0150263
Y0157263
Y0164263
Y0171263
Y0178263
X0449028Y0184534
X0449369Y022079
X0456369
X0463369
X0469638Y0217677
X0470557Y0245411
X0464621Y0241702
X0457621
X0450621
X0443621
X0436621
X0429621
X0431208Y0260123
X0438208
X0445192Y0260596
X045043Y0265239
X045538Y0270189
X046033Y0275139
X0464162Y0280996
X046421Y0287996
Y0294996
Y0301996
X0452001Y0304312
Y0297312
Y0290312
X0451274Y0283349
X0446325Y02784
X0441375Y027345
X0434465Y0272332
X0427466Y0272205
X0421835Y0268047
X0416885Y0263098
X0411935Y0258148
X0408604Y0265551
Y0272551
Y0279551
Y0286551
Y0293551
X0411071Y0300102
X0396396Y0295144
Y0288144
Y0281144
Y0274144
Y0267144
X0388694Y0262471
X0383745Y0267421
X0378319Y0271844
X0371324Y0272115
X0364347Y0272681
X0359398Y027763
X0354448Y028258
X0353169Y0289462
Y0296462
Y0303462
X034096Y0303818
Y0296818
Y0289818
Y0282818
X0343476Y0276286
X0353376Y0266387
X0358344Y0261455
X0365171Y0259906
X0372171
X0442369Y022079
X0474588Y0212727
X0479538Y0207777
X0484488Y0202828
X0489437Y0197878
X0494387Y0192928
X0499337Y0187978
X0504287Y0183029
X0509236Y0178079
X0514186Y0173129
X0520438Y016998
X0527438
X0526197Y0182189
X0519725Y0184856
X0514776Y0189805
X0509826Y0194755
X0504876Y0199705
X0499926Y0204655
X0494977Y0209605
X0490027Y0214554
X0485077Y0219504
X0480127Y0224454
X0476517Y0234106
X0481467Y0239055
X0486417Y0244005
X0491367Y0248955
X0496316Y0253905
X0501266Y0258855
X0506216Y0263804
X0511166Y0268754
X0516115Y0273704
X0521065Y0278654
X0527938Y027998
X0528741Y0292189
X052174
X0515105Y0289959
X0510155Y0285009
X0505206Y028006
X0500256Y027511
X0495306Y027016
X0490356Y026521
X0485407Y0260261
X0480457Y0255311
X0475507Y0250361
X0543771Y0281415
X0540744Y0287727
X0545266Y0293071
X0544636Y0181824
X053979Y0176772
X0543997Y0171178
X0488096Y0148778
X0486639Y0318041
X048433Y0324649
X0489248Y0329631
X0468946Y0328604
X0461955Y0328262
X0456583Y0323774
X0452209Y0318308
X0452001Y0311312
X046421Y0308996
X0465871Y0315796
X047287Y0315661
X0407289Y0312469
X0401248Y0308932
X0396298Y0313882
X0353169Y0310462
X0353087Y0317462
X0336459Y0316179
X034096Y0310818
X0343793Y0327823
X0336816Y0328388
X0330351Y0331072
X0318395Y0326877
X0321146Y032044
X0316197Y0315491
T07
X049Y0021
X05
X051
X0493292Y0042697
X0483292
X0498Y0062
X0508
X0518
X04855Y0077
Y0087
X0406005Y0072267
Y0062267
X0382Y00885
X0372
X0362
X0150782Y0188914
X0107282
X0097282
X00795Y0173
Y0163
Y0153
X0061Y01635
X0051
X0046Y0189
X0036
X0036841Y0288532
X0046841
X0056841
X0085782Y0258383
X0095782
X0105782
X0153782Y0292883
X0163782
X0173782
X0208774Y0292906
X0218774
X0228774
X0257Y0274
X0267
X0277
X0280282Y0188414
X0270282
X0232782Y0188914
X0222782
X0160782
X01635Y0366
Y0376
X01735
Y0366
X01835
Y0376
X01935
Y0366
X02035
Y0376
X02135
Y0366
X0261Y0362882
X0271
Y0352882
X0261
Y0342882
X0271
Y0332882
X0261
Y0322882
X0271
Y0312882
X0261
X01535Y0366
X01435
X01335
X01235
Y0376
X01335
X01435
X01535
X01015Y0374
X00915
X00815
X0058Y0326
X0048
T08
X04127Y00272
X0452697
X0396Y012
T09
X0475Y0105
Y0125
X0495
Y0105
X0529921Y0138585
X0549921
X0406Y013
X0386
Y011
X0406
X04027Y00372
Y00172
X04227
X0442697
Y00372
X04227
X0462697
Y00172
X033Y0105
Y0125
X031
Y0105
X026344Y0143091
X024344
X0202591Y014256
X0182591
X026949Y0038691
Y0018691
X028949
Y0038691
X0126691Y004801
X0106691
Y002801
X0126691
X0060992Y0058492
Y0078492
X0040992
Y0058492
Y0114492
Y0134492
X0060992
Y0114492
X0111492Y0138992
X0131492
Y0158992
X0111492
X0182591Y016256
X0202591
X024344Y0163091
X026344
X031Y016
Y018
Y0285
X033
X0365Y03
X0385
X042
X044
X033Y018
Y016
X0475
Y018
X0495
Y016
X0529921Y0158585
X0549921
Y0193585
X0529921
Y0213585
X0549921
Y0248585
X0529921
Y0268585
X0549921
Y0303585
X0529921
X0495Y0285
X0475
Y0305
X0495
Y034
X0475
Y036
X0495
X0529921Y0323585
X0549921
X044Y032
X042
X0385
X0365
X033Y0305
Y034
Y036
X031
Y034
Y0305
T10
X054Y003
X003
X054Y036
X003
M30
