M48
;Layer_Color=9474304
;FILE_FORMAT=2:5
INCH,LZ
;TYPE=PLATED
T1F00S00C0.00600
%
T01
X039515Y022675
X03965Y022805
X03978Y022675
Y02294
Y02321
Y023475
X03965Y02361
X03978Y023745
X039515
Y02401
X03978
X03965Y02388
X039915
X04005Y02401
X040315
X04045Y02388
X040585Y02401
X04072Y02388
X040855Y02401
X040985Y02388
X040855Y023745
X040585
X040315
X040185Y02361
X04045
Y023345
X040315Y023475
X040185Y023345
X04005Y023475
X039915Y023345
Y02361
X04005Y02321
X040315
X040185Y023075
X04045
X040585Y02321
Y023475
X04072Y023345
Y02361
Y023075
X040585Y02294
Y022675
X04045Y022805
X040315Y022675
Y02294
X04005
X039915Y023075
Y022805
Y02254
X03965
X04045
X04072
Y022805
X040985
Y023005
Y02321
X040855Y022675
X040985Y02254
X040785Y022295
X04079Y02421
M30
